<?xml version="1.0" standalone="no"?>
<!DOCTYPE svg PUBLIC "-//W3C//DTD SVG 20010904//EN"
 "http://www.w3.org/TR/2001/REC-SVG-20010904/DTD/svg10.dtd">
<svg version="1.0" xmlns="http://www.w3.org/2000/svg"
 width="1000.000000pt" height="1000.000000pt" viewBox="0 0 1000.000000 1000.000000"
 preserveAspectRatio="xMidYMid meet">

<g transform="translate(0.000000,1000.000000) scale(0.100000,-0.100000)"
fill="#000000" stroke="none">
<path d="M4948 7505 c-20 -13 -39 -29 -43 -35 -3 -5 -15 -10 -25 -10 -10 0
-25 -8 -32 -18 -7 -10 -26 -22 -41 -26 -15 -4 -47 -20 -69 -36 -23 -17 -47
-30 -54 -30 -7 0 -21 -8 -31 -19 -10 -10 -29 -22 -43 -26 -14 -4 -31 -16 -38
-26 -7 -11 -19 -19 -27 -19 -19 0 -91 -38 -106 -56 -6 -8 -20 -14 -30 -14 -10
0 -24 -8 -31 -19 -7 -10 -28 -22 -46 -25 -17 -4 -32 -11 -32 -16 0 -5 -29 -23
-65 -40 -36 -17 -65 -35 -65 -40 0 -4 -12 -11 -27 -15 -16 -4 -36 -15 -46 -26
-10 -10 -24 -19 -32 -19 -7 0 -20 -6 -27 -14 -8 -7 -39 -26 -70 -40 -31 -15
-61 -33 -68 -41 -7 -8 -20 -15 -30 -15 -9 0 -29 -11 -44 -25 -15 -14 -31 -25
-36 -25 -5 0 -30 -14 -55 -31 -61 -42 -133 -79 -150 -79 -8 0 -19 -9 -25 -19
-5 -11 -23 -22 -39 -26 -16 -3 -35 -13 -42 -21 -6 -8 -17 -14 -24 -14 -6 0
-20 -9 -30 -20 -10 -11 -25 -20 -32 -20 -8 0 -26 -9 -40 -20 -14 -11 -34 -20
-44 -20 -10 0 -22 -6 -26 -14 -4 -7 -33 -28 -63 -45 -30 -18 -62 -36 -70 -41
-8 -6 -26 -15 -40 -21 -14 -5 -41 -20 -61 -32 -20 -12 -63 -37 -95 -56 -33
-19 -62 -39 -66 -45 -3 -5 -21 -14 -40 -20 l-33 -11 0 -1275 0 -1275 33 -11
c19 -6 37 -15 40 -21 4 -6 21 -18 37 -27 17 -9 44 -25 60 -36 30 -20 61 -37
120 -66 17 -8 37 -19 45 -24 8 -5 40 -23 70 -41 30 -17 59 -38 63 -45 4 -8 16
-14 26 -14 10 0 30 -9 44 -20 14 -11 32 -20 40 -20 7 0 22 -9 32 -20 10 -11
24 -20 30 -20 7 0 18 -6 24 -14 7 -8 26 -18 42 -21 16 -4 34 -15 39 -26 6 -10
17 -19 25 -19 17 0 89 -37 150 -79 25 -17 50 -31 55 -31 5 0 21 -11 36 -25 15
-14 37 -25 49 -25 13 0 25 -6 28 -14 3 -8 31 -26 63 -41 32 -15 64 -34 72 -41
7 -8 19 -14 26 -14 7 0 25 -11 40 -25 15 -14 36 -25 47 -25 10 0 19 -4 19 -9
0 -5 29 -24 65 -41 36 -17 65 -35 65 -40 0 -5 15 -12 32 -16 18 -3 39 -15 46
-25 7 -11 21 -19 31 -19 10 0 24 -6 30 -14 14 -17 86 -56 102 -56 6 0 24 -11
41 -25 16 -14 36 -25 44 -25 8 0 14 -4 14 -10 0 -5 15 -16 33 -23 17 -8 54
-28 81 -46 28 -17 57 -31 66 -31 8 0 21 -9 28 -20 7 -11 21 -20 31 -20 11 0
23 -5 26 -10 4 -6 25 -22 47 -36 40 -26 41 -26 79 -9 21 10 46 26 55 36 10 11
25 19 35 19 11 0 24 9 31 20 7 11 20 20 28 20 9 0 37 14 63 30 26 17 63 37 82
45 19 7 35 18 35 23 0 6 12 13 27 17 15 3 33 15 41 26 7 10 19 19 27 19 19 0
91 38 106 56 6 8 20 14 30 14 10 0 24 9 31 20 7 11 20 20 29 20 9 0 27 8 40
18 13 10 50 30 82 46 31 16 57 32 57 36 0 5 14 11 31 15 17 4 33 13 36 20 2 8
20 19 39 25 19 6 34 15 34 19 0 5 26 20 59 35 32 14 64 33 71 41 7 8 20 15 30
15 9 0 29 11 44 25 15 14 31 25 36 25 5 0 30 14 55 31 61 42 133 79 150 79 8
0 19 9 25 20 6 11 18 20 28 20 9 0 28 9 42 20 14 11 30 20 35 20 6 0 18 9 28
20 9 11 24 20 33 20 9 0 27 9 41 20 14 11 34 20 44 20 10 0 22 6 26 13 9 14
54 45 93 64 14 7 32 17 40 23 8 5 26 15 40 20 14 6 42 20 62 33 20 12 63 37
95 56 32 19 61 39 65 45 3 5 21 14 40 20 l33 11 3 1255 c1 690 0 1265 -3 1277
-3 14 -16 25 -33 29 -15 4 -31 12 -37 18 -5 7 -36 28 -68 47 -32 18 -75 44
-95 56 -20 13 -48 27 -62 33 -14 5 -32 14 -40 20 -8 5 -40 23 -70 41 -30 17
-59 38 -63 45 -4 8 -16 14 -26 14 -10 0 -30 9 -44 20 -14 11 -32 20 -40 20 -7
0 -22 9 -32 20 -10 11 -24 20 -30 20 -7 0 -18 6 -24 14 -7 8 -26 18 -42 21
-16 4 -34 15 -39 26 -6 10 -17 19 -25 19 -25 0 -153 74 -168 97 -4 7 -17 13
-27 13 -11 0 -29 9 -40 20 -11 11 -34 23 -50 26 -16 4 -31 12 -34 19 -2 7 -32
26 -65 41 -34 14 -61 30 -61 35 0 4 -15 13 -34 19 -19 6 -37 17 -39 25 -3 7
-19 16 -36 20 -17 4 -31 10 -31 15 0 4 -26 20 -57 36 -32 16 -69 36 -82 46
-13 10 -31 18 -40 18 -9 0 -22 9 -29 20 -7 11 -21 20 -31 20 -10 0 -24 6 -30
14 -15 18 -87 56 -106 56 -8 0 -20 9 -27 19 -8 11 -26 23 -42 27 -15 3 -30 13
-33 20 -3 8 -10 14 -17 14 -6 0 -40 18 -76 40 -36 22 -72 40 -80 40 -8 0 -21
9 -28 20 -7 11 -21 20 -31 20 -10 0 -24 7 -32 16 -13 16 -82 54 -96 53 -4 0
-25 -11 -45 -24z m87 -255 c4 -6 21 -17 38 -25 46 -22 74 -39 95 -58 10 -10
26 -17 34 -17 9 0 21 -7 28 -15 6 -8 42 -29 78 -46 37 -18 83 -45 103 -60 19
-15 47 -31 62 -34 15 -4 31 -12 35 -19 6 -11 50 -35 157 -90 22 -11 44 -26 48
-33 4 -7 16 -13 26 -13 10 0 24 -7 32 -16 13 -16 32 -27 142 -82 37 -18 67
-38 67 -43 0 -5 12 -12 28 -15 15 -4 40 -18 55 -31 16 -12 35 -23 43 -23 8 0
14 -4 14 -9 0 -4 28 -21 63 -36 34 -15 70 -36 80 -46 10 -11 27 -19 37 -19 11
0 20 -5 20 -10 0 -6 12 -16 28 -23 15 -6 49 -27 77 -44 27 -18 57 -33 66 -33
9 0 24 -9 34 -20 10 -11 26 -20 36 -20 10 0 24 -8 31 -18 7 -9 39 -30 70 -46
31 -15 62 -34 69 -42 6 -8 17 -14 24 -14 7 0 24 -9 38 -20 14 -11 32 -20 40
-20 21 0 47 -28 47 -50 0 -14 -11 -22 -40 -30 -22 -6 -40 -14 -40 -18 0 -4
-26 -21 -57 -37 -32 -15 -62 -34 -66 -42 -4 -7 -18 -13 -31 -13 -13 0 -35 -11
-50 -25 -15 -14 -31 -25 -36 -25 -5 0 -28 -13 -52 -29 -24 -16 -53 -31 -64
-35 -12 -4 -29 -15 -39 -26 -10 -11 -28 -20 -41 -20 -13 0 -28 -9 -34 -20 -6
-11 -19 -20 -29 -20 -10 0 -24 -6 -30 -14 -15 -18 -87 -56 -105 -56 -7 0 -25
-11 -40 -25 -15 -14 -33 -25 -40 -25 -7 0 -21 -9 -31 -20 -10 -11 -23 -20 -29
-20 -6 0 -38 -18 -71 -40 -33 -22 -65 -40 -71 -40 -6 0 -17 -7 -24 -15 -7 -8
-20 -15 -30 -15 -9 0 -34 -13 -55 -30 -21 -16 -41 -30 -45 -30 -12 0 -71 28
-125 60 -27 16 -58 29 -67 29 -10 1 -22 9 -27 20 -6 10 -22 22 -36 25 -14 4
-46 22 -71 41 -25 19 -52 35 -60 35 -8 0 -22 9 -31 20 -10 11 -25 20 -34 20
-9 0 -26 9 -39 20 -13 11 -29 20 -36 20 -8 0 -40 18 -71 40 -32 22 -63 40 -70
40 -7 0 -17 9 -23 20 -7 13 -21 20 -41 20 -17 0 -32 6 -35 14 -3 8 -19 18 -36
21 -16 4 -32 13 -34 20 -3 8 -18 19 -32 25 -44 18 -88 44 -106 63 -10 9 -26
17 -35 17 -10 0 -24 7 -31 15 -7 8 -20 15 -29 15 -10 0 -42 18 -71 40 -29 22
-60 40 -67 40 -7 0 -21 9 -30 20 -10 11 -25 20 -35 20 -9 0 -19 4 -23 9 -10
18 -128 71 -157 71 -15 0 -36 -8 -46 -17 -9 -10 -42 -29 -72 -42 -84 -38 -106
-79 -52 -100 24 -10 58 -28 102 -53 8 -5 29 -15 45 -24 17 -8 62 -35 100 -59
39 -24 84 -51 101 -59 17 -8 35 -19 38 -25 4 -6 15 -11 24 -11 14 0 89 -45
102 -61 3 -4 16 -10 30 -14 14 -4 33 -16 43 -26 10 -11 26 -19 36 -19 10 0 24
-7 31 -14 6 -8 27 -20 46 -26 19 -6 34 -15 34 -20 0 -4 14 -13 30 -19 17 -5
30 -14 30 -19 0 -6 11 -13 25 -16 14 -4 34 -15 45 -26 11 -11 29 -20 40 -20
10 0 23 -6 27 -14 4 -7 33 -26 63 -41 81 -40 118 -61 135 -75 18 -15 59 -38
142 -79 83 -41 107 -83 56 -96 -16 -4 -36 -15 -46 -26 -10 -10 -26 -19 -36
-19 -10 0 -24 -6 -30 -14 -7 -8 -25 -18 -41 -21 -16 -3 -31 -13 -34 -21 -3 -8
-12 -14 -19 -14 -8 0 -24 -9 -37 -20 -13 -11 -29 -20 -36 -20 -7 0 -25 -11
-40 -25 -15 -14 -35 -25 -44 -25 -10 0 -23 -7 -30 -15 -7 -8 -18 -15 -26 -15
-16 0 -88 38 -147 78 -25 16 -56 33 -69 37 -12 4 -31 16 -41 26 -10 11 -26 19
-37 19 -10 0 -22 5 -25 10 -4 6 -21 17 -38 25 -46 22 -74 39 -95 58 -10 10
-25 17 -34 17 -8 0 -23 9 -33 20 -10 11 -26 20 -36 20 -10 0 -21 5 -25 11 -3
6 -21 17 -38 25 -17 8 -49 25 -71 39 -22 13 -55 31 -72 39 -18 8 -33 20 -33
25 0 6 -12 14 -27 17 -29 8 -160 80 -181 101 -7 7 -20 13 -28 13 -8 0 -23 9
-33 19 -21 21 -48 37 -129 75 -29 14 -65 34 -79 46 -14 11 -33 20 -42 20 -9 0
-22 9 -28 19 -7 11 -26 22 -43 26 -16 4 -30 10 -30 15 0 4 -28 22 -62 39 -96
48 -124 64 -142 84 -10 9 -26 17 -36 17 -10 0 -22 5 -26 11 -3 6 -32 23 -64
38 -32 15 -66 35 -75 44 -9 10 -25 17 -34 17 -48 0 -50 65 -3 77 15 3 38 14
51 25 13 10 28 18 34 18 6 0 18 6 26 14 9 7 40 26 70 42 30 16 63 37 73 47 10
9 26 17 36 17 9 0 23 9 30 20 7 11 19 20 28 20 9 0 42 16 74 35 32 19 62 35
68 35 6 0 17 8 24 19 7 10 28 22 46 25 17 4 32 12 32 17 0 6 26 22 58 37 66
32 137 76 147 92 3 5 15 10 25 10 10 0 26 7 35 17 9 9 43 29 75 44 32 15 61
32 64 38 4 6 16 11 27 11 10 0 29 11 41 25 15 17 32 25 54 25 34 0 127 -43
156 -72 10 -10 24 -18 32 -18 7 0 19 -7 26 -15 7 -8 20 -15 28 -15 15 0 82
-41 110 -67 7 -7 21 -13 30 -13 10 0 25 -9 35 -20 9 -11 24 -20 33 -20 9 0 27
-9 41 -20 14 -11 31 -20 38 -20 6 0 22 -9 35 -20 13 -11 29 -20 37 -20 7 0 13
-4 13 -10 0 -5 15 -17 33 -25 28 -14 60 -30 107 -57 8 -4 25 -13 38 -18 13 -6
30 -17 38 -25 9 -8 21 -15 28 -15 7 0 21 -9 31 -20 10 -11 25 -20 33 -20 9 0
23 -7 33 -16 19 -17 64 -44 119 -69 19 -10 49 -28 66 -40 17 -13 43 -27 58
-31 15 -3 31 -15 37 -25 5 -11 18 -19 29 -19 11 0 27 -8 37 -19 10 -10 47 -30
82 -44 51 -20 69 -23 92 -15 16 5 29 14 29 19 0 4 18 13 39 19 21 5 42 17 45
25 3 8 14 15 24 15 30 0 46 24 32 49 -9 19 -103 71 -126 71 -5 0 -15 9 -22 20
-7 11 -20 20 -31 20 -10 0 -26 9 -36 20 -10 11 -23 20 -29 20 -6 0 -38 18 -71
40 -33 22 -65 40 -71 40 -6 0 -17 6 -23 14 -7 8 -23 17 -38 21 -14 3 -46 22
-71 41 -25 19 -56 37 -68 40 -12 3 -25 12 -28 20 -3 8 -15 14 -26 14 -11 0
-28 9 -37 20 -10 11 -28 20 -40 20 -12 0 -30 8 -40 18 -10 10 -29 24 -43 30
-43 22 -66 37 -84 55 -10 9 -24 17 -31 17 -15 0 -99 43 -123 62 -18 15 -50 34
-82 48 -14 6 -33 20 -43 31 -10 10 -26 19 -37 19 -11 0 -24 9 -30 20 -6 11
-17 20 -25 20 -8 0 -35 10 -60 22 -37 18 -45 27 -45 49 0 30 -1 30 123 92 41
20 80 44 87 52 7 8 19 15 28 15 8 0 24 7 34 17 21 19 49 36 95 58 17 8 34 19
38 25 3 5 19 10 35 10 16 0 32 -5 35 -10z m-1952 -1260 c9 -11 23 -20 31 -20
8 0 16 -7 20 -15 3 -8 14 -15 24 -15 11 0 31 -9 45 -20 14 -11 32 -20 40 -20
8 0 20 -6 26 -14 7 -8 36 -26 66 -42 30 -15 62 -35 71 -46 10 -10 24 -18 31
-18 8 0 26 -9 40 -20 14 -11 32 -20 40 -20 13 0 62 -31 90 -57 7 -6 23 -15 34
-18 12 -4 30 -16 40 -26 10 -10 28 -19 39 -19 10 0 23 -6 27 -13 4 -8 35 -26
67 -42 33 -15 66 -34 74 -41 7 -8 20 -14 27 -14 8 0 20 -8 27 -19 7 -10 28
-22 46 -25 17 -4 32 -11 32 -16 0 -5 29 -23 65 -40 36 -17 65 -35 65 -40 0 -5
13 -11 29 -15 16 -3 37 -15 47 -26 9 -10 23 -19 30 -19 7 0 19 -6 26 -13 7 -7
40 -26 73 -41 33 -16 64 -35 68 -42 4 -8 16 -14 26 -14 10 0 30 -11 45 -25 15
-14 36 -25 47 -25 11 0 22 -6 25 -14 3 -8 31 -26 63 -40 32 -14 64 -33 71 -41
7 -8 21 -15 31 -15 10 0 23 -9 29 -20 6 -11 18 -20 28 -20 20 0 99 -52 118
-77 10 -14 13 -74 14 -263 0 -135 -4 -251 -9 -259 -8 -12 -12 -12 -25 -2 -22
18 -88 51 -103 51 -7 0 -17 9 -23 20 -6 11 -19 20 -30 20 -11 0 -27 9 -37 19
-10 11 -30 22 -45 26 -16 4 -28 11 -28 17 0 5 -28 23 -62 39 -99 48 -131 67
-140 84 -5 8 -17 15 -27 15 -10 0 -29 8 -42 18 -13 10 -46 29 -74 42 -27 13
-53 29 -58 36 -4 7 -21 15 -37 19 -17 4 -30 11 -30 16 0 5 -15 16 -32 24 -48
23 -93 49 -96 57 -2 4 -19 10 -39 14 -19 4 -37 13 -40 21 -3 7 -20 20 -37 28
-17 8 -44 24 -61 35 -16 11 -43 27 -60 36 -16 9 -34 23 -38 30 -4 8 -14 14
-22 14 -20 0 -114 50 -157 83 -23 17 -47 27 -60 25 -22 -3 -23 -7 -26 -108 -3
-125 1 -148 31 -159 12 -5 46 -25 76 -45 29 -20 58 -36 65 -36 6 0 19 -9 29
-20 9 -11 25 -20 36 -20 10 0 25 -7 32 -16 7 -9 36 -27 64 -41 85 -41 128 -68
133 -81 2 -7 12 -12 21 -12 10 0 29 -8 42 -17 13 -10 47 -29 74 -43 28 -14 53
-30 58 -37 4 -6 21 -14 37 -18 16 -4 33 -12 37 -19 9 -14 31 -27 133 -78 36
-17 67 -36 68 -40 2 -5 18 -15 35 -24 72 -34 149 -83 160 -101 4 -7 16 -13 26
-13 10 0 30 -9 44 -20 14 -11 31 -20 38 -20 7 0 20 -7 29 -15 8 -8 42 -28 75
-46 104 -55 94 19 95 -741 0 -460 -3 -669 -11 -673 -5 -4 -18 0 -27 8 -9 9
-29 19 -44 22 -16 4 -28 11 -28 17 0 5 -13 14 -30 19 -16 6 -30 15 -30 19 0 4
-14 13 -30 19 -17 5 -33 17 -36 26 -3 8 -16 15 -29 15 -12 0 -33 8 -46 19 -13
10 -34 21 -46 25 -13 4 -23 11 -23 15 0 5 -13 14 -30 21 -16 7 -30 16 -30 21
0 5 -6 9 -14 9 -8 0 -28 11 -44 25 -17 14 -35 25 -41 25 -25 0 -148 73 -164
98 -4 6 -15 12 -24 12 -9 0 -41 17 -71 37 -72 47 -139 83 -157 83 -8 0 -19 9
-25 20 -6 11 -18 20 -27 20 -9 0 -25 7 -35 17 -21 19 -49 36 -95 58 -17 8 -34
19 -38 25 -3 5 -15 10 -25 10 -10 0 -31 11 -46 25 -15 14 -33 25 -41 25 -8 0
-33 15 -56 34 -23 19 -54 37 -69 41 -15 4 -32 13 -39 21 -6 8 -18 14 -27 14
-9 0 -25 9 -36 19 -12 10 -44 31 -73 46 -28 14 -57 33 -64 41 -6 8 -19 14 -29
14 -9 0 -25 9 -35 20 -10 11 -26 20 -35 20 -10 0 -28 8 -41 18 -13 10 -32 21
-41 25 -10 3 -18 11 -18 16 0 5 -13 14 -30 20 l-30 10 0 265 c0 206 3 266 13
267 25 3 39 -3 58 -22 10 -10 26 -19 34 -19 8 0 15 -4 15 -9 0 -5 15 -14 33
-20 18 -6 40 -20 50 -31 9 -11 26 -20 36 -20 11 0 22 -4 26 -9 3 -6 19 -17 35
-25 17 -9 43 -23 59 -31 16 -9 34 -22 41 -30 7 -8 21 -15 31 -15 10 0 24 -8
31 -18 7 -10 25 -22 39 -25 15 -4 50 -23 79 -42 29 -19 56 -35 61 -35 5 0 18
-9 29 -20 11 -11 29 -20 40 -20 10 0 23 -6 27 -13 4 -8 33 -26 63 -41 96 -48
124 -65 132 -80 4 -7 19 -17 33 -20 13 -3 45 -20 70 -37 61 -41 133 -79 150
-79 8 0 18 -6 22 -14 4 -7 22 -21 38 -30 17 -9 44 -25 60 -36 17 -11 41 -25
55 -31 14 -6 33 -15 43 -20 10 -6 22 -7 27 -4 6 4 10 59 10 124 0 145 2 143
-172 226 -31 15 -59 33 -62 40 -2 7 -19 16 -36 20 -17 4 -34 13 -37 21 -3 8
-10 14 -16 14 -5 0 -34 16 -63 35 -29 19 -67 38 -84 41 -17 4 -35 15 -41 25
-5 11 -17 19 -26 19 -9 0 -25 7 -35 17 -21 19 -49 36 -95 58 -17 8 -34 19 -38
25 -3 5 -15 10 -25 10 -10 0 -31 11 -46 25 -15 14 -33 25 -41 25 -8 0 -33 15
-56 34 -23 18 -53 37 -67 41 -14 4 -31 16 -38 26 -7 11 -24 19 -37 19 -13 0
-26 4 -30 9 -3 6 -19 17 -35 25 -17 9 -43 23 -59 31 -16 9 -34 22 -41 30 -7 8
-19 15 -26 15 -8 0 -22 9 -31 20 -10 11 -32 23 -50 26 -18 3 -37 12 -44 20 -6
8 -15 14 -19 14 -5 0 -27 12 -49 27 l-41 27 0 673 0 673 28 0 c15 0 35 -9 45
-20z m3907 -1063 l0 -1083 -40 -26 c-22 -15 -48 -29 -59 -33 -10 -3 -22 -12
-25 -20 -3 -8 -14 -15 -24 -15 -11 0 -31 -9 -45 -20 -14 -11 -32 -20 -40 -20
-8 0 -20 -6 -26 -14 -7 -8 -36 -27 -64 -41 -29 -15 -61 -35 -72 -45 -26 -22
-49 -30 -64 -21 -9 6 -11 201 -11 804 l0 797 -28 0 c-16 0 -37 -9 -47 -20 -10
-11 -24 -20 -32 -20 -7 0 -13 -4 -13 -9 0 -5 -10 -13 -22 -16 -13 -4 -40 -18
-60 -32 l-38 -26 0 -812 0 -812 -22 -19 c-23 -19 -52 -37 -99 -61 -15 -7 -32
-20 -39 -28 -7 -8 -21 -15 -31 -15 -10 0 -23 -9 -29 -20 -6 -11 -15 -20 -21
-20 -27 0 -179 -85 -179 -101 0 -10 -47 -17 -60 -9 -7 5 -11 237 -13 796 -2
761 -3 789 -21 792 -19 4 -73 -20 -115 -50 -13 -10 -31 -18 -40 -18 -10 0 -27
-13 -39 -29 l-21 -29 1 -806 0 -806 -23 -25 c-13 -13 -29 -25 -35 -25 -6 0
-21 -9 -34 -20 -13 -11 -27 -20 -32 -20 -6 0 -21 -9 -35 -20 -14 -11 -32 -20
-39 -20 -12 0 -65 -31 -109 -65 -10 -8 -24 -15 -30 -15 -6 0 -18 -9 -28 -20
-9 -11 -24 -20 -34 -20 -9 0 -24 -7 -34 -16 -10 -9 -23 -13 -28 -9 -8 4 -11
333 -11 1082 0 1071 0 1075 21 1104 11 16 26 29 33 29 8 0 19 6 25 14 7 8 26
18 42 21 16 4 34 15 39 26 6 10 19 19 29 19 10 0 24 7 31 15 7 8 39 27 71 41
32 14 60 32 63 40 3 8 14 14 25 14 11 0 32 11 47 25 15 14 35 25 45 25 10 0
22 6 26 14 4 7 35 26 68 42 33 15 66 34 73 41 7 7 20 13 27 13 8 0 22 9 32 19
10 11 30 22 46 26 15 4 31 12 35 19 4 6 33 24 65 40 31 16 57 32 57 37 0 4 15
11 34 15 19 3 37 12 40 20 3 7 20 20 38 29 18 8 51 26 73 40 22 13 48 24 57
25 9 0 23 9 30 19 8 11 26 23 41 26 15 4 27 11 27 17 0 5 15 16 33 24 47 22
74 39 95 57 10 10 25 17 34 17 8 0 27 9 41 20 14 11 32 20 40 20 8 0 20 7 27
15 7 8 25 21 41 30 16 8 42 22 58 30 16 9 34 22 41 30 7 8 19 15 27 15 8 0 26
9 40 20 14 11 33 20 43 20 9 0 25 9 35 20 10 11 24 20 30 20 7 0 15 7 19 15 3
9 18 15 36 15 l30 0 0 -1083z"/>
<path d="M4898 7127 c-16 -6 -28 -15 -28 -20 0 -5 6 -6 13 -3 6 3 20 9 30 12
9 4 17 10 17 15 0 5 -1 9 -2 8 -2 -1 -15 -6 -30 -12z"/>
<path d="M4970 7110 c0 -13 11 -13 30 0 12 8 11 10 -7 10 -13 0 -23 -4 -23
-10z"/>
<path d="M4820 7095 c-15 -8 -19 -14 -10 -14 18 -1 46 16 40 23 -3 2 -16 -2
-30 -9z"/>
<path d="M4910 7089 c0 -5 5 -7 10 -4 6 3 10 8 10 11 0 2 -4 4 -10 4 -5 0 -10
-5 -10 -11z"/>
<path d="M4875 7079 c-4 -6 -5 -13 -2 -16 7 -7 27 6 27 18 0 12 -17 12 -25 -2z"/>
<path d="M5242 7078 c-20 -20 -15 -58 7 -58 11 0 23 5 26 10 3 6 1 10 -5 10
-8 0 -10 9 -6 25 7 27 -3 32 -22 13z"/>
<path d="M4820 7060 c-20 -12 -5 -24 16 -12 9 5 12 12 7 15 -5 3 -15 2 -23 -3z"/>
<path d="M4980 7040 c-19 -10 -43 -22 -52 -26 -9 -3 -21 -18 -26 -33 -8 -23
-9 -40 -3 -110 1 -12 4 -11 14 2 11 16 15 16 32 3 17 -12 17 -16 6 -30 -11
-13 -16 -14 -22 -4 -4 7 -10 10 -13 7 -3 -3 6 -16 21 -30 14 -13 23 -18 19
-11 -4 6 -3 12 2 12 5 0 13 -14 18 -32 l9 -32 23 24 c13 14 18 26 12 28 -5 2
-8 7 -5 12 3 4 -5 6 -17 4 -13 -2 -17 -2 -10 2 9 4 5 14 -13 36 -26 31 -30 58
-8 65 6 2 23 -13 37 -34 23 -34 26 -35 26 -14 0 23 1 23 18 8 10 -10 23 -17
29 -17 6 0 14 -6 17 -12 3 -9 9 -7 20 6 11 13 16 15 16 6 0 -7 -8 -22 -17 -33
-17 -20 -17 -20 2 -13 14 5 17 4 9 -4 -8 -8 -19 -8 -38 0 -27 10 -74 13 -48 3
6 -2 12 -14 12 -24 0 -11 -4 -17 -10 -14 -5 3 -10 1 -10 -4 0 -6 11 -11 25
-11 28 0 29 -3 15 -30 -9 -17 -8 -18 8 -12 10 4 36 20 57 35 22 15 83 55 135
89 52 34 97 65 98 70 2 4 10 8 18 8 31 0 11 19 -36 35 -54 18 -61 34 -31 64
17 17 17 20 4 25 -27 11 -45 7 -40 -9 4 -8 2 -17 -3 -20 -6 -4 -10 -17 -10
-30 0 -13 -4 -27 -10 -30 -5 -3 -10 -22 -10 -41 0 -19 -4 -34 -9 -34 -5 0 -12
-8 -14 -17 -3 -11 -5 -8 -6 9 -2 39 -22 80 -38 74 -7 -3 -13 -1 -13 5 0 6 -7
9 -15 5 -12 -4 -13 -2 -6 13 8 15 4 21 -25 35 -20 9 -33 12 -29 6 9 -14 -1
-13 -35 5 -17 9 -30 20 -30 25 0 14 -11 12 -50 -10z m94 -63 c19 -14 15 -57
-5 -57 -6 0 -7 5 -4 10 3 6 -1 18 -10 27 -14 14 -22 15 -49 5 l-31 -12 25 20
c29 23 49 25 74 7z m257 -17 c28 -15 24 -33 -6 -26 -19 5 -23 3 -19 -9 4 -10
0 -15 -13 -15 -29 0 -34 10 -16 36 17 27 25 29 54 14z m-414 -52 c-3 -8 -6 -5
-6 6 -1 11 2 17 5 13 3 -3 4 -12 1 -19z"/>
<path d="M4755 7040 c-4 -6 5 -10 19 -10 14 0 26 5 26 10 0 6 -9 10 -19 10
-11 0 -23 -4 -26 -10z"/>
<path d="M4593 7005 c-9 -25 4 -29 17 -6 7 15 7 21 0 21 -6 0 -13 -7 -17 -15z"/>
<path d="M5393 6980 c20 -13 105 -24 93 -13 -3 4 -19 8 -34 9 -15 2 -38 6 -52
9 -22 6 -23 5 -7 -5z"/>
<path d="M5431 6845 c-77 -57 -83 -64 -35 -41 16 8 59 16 95 18 59 3 66 2 61
-14 -2 -10 -9 -18 -14 -18 -5 0 -6 -6 -2 -12 6 -10 4 -10 -7 0 -7 6 -21 12
-31 12 -10 0 -18 4 -18 10 0 5 -11 9 -25 8 -14 -1 -25 -6 -25 -9 0 -4 -13 -10
-28 -14 -60 -13 -112 -93 -112 -173 0 -28 3 -32 18 -28 13 4 23 -1 32 -19 7
-14 19 -25 27 -25 7 0 20 -8 29 -19 10 -11 24 -16 35 -14 13 4 19 0 19 -12 0
-15 5 -13 26 9 27 26 54 35 54 17 0 -6 -4 -12 -9 -16 -13 -7 -9 -55 4 -54 6 0
9 8 7 19 -2 10 2 21 8 25 5 3 10 13 10 22 0 9 12 32 26 51 35 45 43 110 19
162 -11 25 -15 49 -11 67 4 15 8 36 9 45 1 9 4 15 8 13 3 -3 4 7 1 21 -4 20
-7 22 -19 13 -10 -9 -17 -9 -25 -1 -22 22 -53 12 -127 -43z m129 11 c0 -2 -7
-6 -15 -10 -8 -3 -15 -1 -15 4 0 6 7 10 15 10 8 0 15 -2 15 -4z m-173 -105
c-1 -18 -37 -27 -37 -9 0 5 27 26 37 28 1 0 1 -9 0 -19z m122 -50 c29 -42 30
-45 15 -63 -26 -28 -39 -22 -75 33 l-33 51 25 19 c13 10 27 15 30 11 4 -4 21
-27 38 -51z m56 39 c3 -5 1 -10 -4 -10 -6 0 -11 5 -11 10 0 6 2 10 4 10 3 0 8
-4 11 -10z m-125 -80 c32 -50 32 -63 1 -79 -15 -8 -25 -1 -56 41 l-39 51 23
18 c13 11 27 19 31 19 4 0 22 -22 40 -50z m-65 -48 c39 -61 39 -62 23 -62 -14
0 -78 82 -78 100 0 24 28 5 55 -38z m215 29 c0 -5 -7 -17 -16 -25 -18 -19 -34
-21 -34 -5 0 6 9 13 20 16 11 3 20 9 20 14 0 5 2 9 5 9 3 0 5 -4 5 -9z"/>
<path d="M5450 6724 c0 -11 45 -84 53 -84 12 0 8 13 -19 52 -26 36 -34 45 -34
32z"/>
<path d="M5380 6685 c0 -10 53 -85 57 -81 3 2 -7 23 -21 45 -24 37 -36 49 -36
36z"/>
<path d="M5643 6826 c2 -27 22 -42 33 -25 3 6 -3 20 -14 31 l-20 20 1 -26z"/>
<path d="M5615 6831 c-3 -5 -1 -12 5 -16 5 -3 10 1 10 9 0 18 -6 21 -15 7z"/>
<path d="M4216 6781 c-3 -5 -4 -16 -1 -23 3 -8 -3 -23 -15 -33 -19 -17 -21
-17 -38 -2 -28 26 -38 20 -13 -7 12 -13 18 -27 13 -30 -5 -3 -17 3 -27 14 -10
11 -23 20 -29 20 -6 0 2 -12 18 -26 23 -21 26 -28 15 -35 -10 -6 -24 1 -46 23
-39 37 -44 29 -8 -10 27 -29 30 -38 17 -46 -5 -3 -21 8 -37 24 -15 15 -34 26
-41 23 -10 -4 -8 -10 10 -24 13 -10 27 -30 30 -45 4 -14 11 -24 16 -22 18 6
170 161 170 173 0 18 -27 38 -34 26z"/>
<path d="M4353 6766 c7 -18 -14 -66 -30 -66 -6 0 -20 -3 -30 -6 -16 -6 -16 -5
2 9 11 9 15 17 9 17 -6 0 -17 -7 -24 -15 -10 -12 -10 -18 0 -30 11 -13 10 -18
-6 -31 -19 -15 -19 -15 1 -10 11 2 66 19 122 36 87 27 101 34 89 45 -7 8 -25
17 -39 20 -14 4 -33 15 -43 26 -20 23 -59 26 -51 5z"/>
<path d="M5270 6734 c-94 -65 -94 -65 -65 -94 49 -50 60 -56 56 -28 -2 21 33
112 55 138 14 16 24 30 22 30 -1 0 -32 -21 -68 -46z m-45 -74 c-3 -5 -10 -10
-16 -10 -5 0 -9 5 -9 10 0 6 7 10 16 10 8 0 12 -4 9 -10z"/>
<path d="M4180 6745 c7 -9 15 -13 17 -11 7 7 -7 26 -19 26 -6 0 -6 -6 2 -15z"/>
<path d="M5640 6730 c0 -5 7 -10 15 -10 8 0 15 5 15 10 0 6 -7 10 -15 10 -8 0
-15 -4 -15 -10z"/>
<path d="M4235 6709 c-12 -18 3 -22 20 -5 14 14 14 16 1 16 -8 0 -18 -5 -21
-11z"/>
<path d="M5740 6700 c-8 -5 -11 -12 -7 -16 4 -4 13 -2 19 4 15 15 7 24 -12 12z"/>
<path d="M5980 6630 c46 -44 86 -80 89 -80 3 0 0 5 -7 12 -7 7 -12 19 -12 28
0 21 -110 120 -134 120 -14 0 4 -23 64 -80z"/>
<path d="M3977 6653 c-7 -6 70 -95 88 -102 5 -2 4 2 -2 10 -7 7 -13 20 -13 29
0 25 -60 76 -73 63z"/>
<path d="M4585 6630 c-16 -7 -17 -9 -3 -9 9 -1 20 4 23 9 7 11 7 11 -20 0z"/>
<path d="M5764 6619 c-2 -4 8 -10 23 -14 19 -4 23 -9 14 -14 -10 -6 -9 -9 2
-14 9 -3 21 1 28 9 6 8 14 12 17 9 9 -9 9 -45 0 -45 -4 0 -8 -4 -8 -9 0 -4 11
-6 25 -3 14 2 25 1 24 -4 -1 -5 -1 -17 0 -27 1 -17 2 -17 18 -1 12 11 18 13
21 5 5 -15 -53 -72 -64 -63 -4 4 -4 1 0 -6 5 -8 -13 -33 -48 -68 -31 -31 -56
-58 -56 -61 0 -2 12 -15 28 -28 l27 -24 58 61 c58 63 71 81 40 57 -16 -13 -17
-12 -4 3 7 10 17 16 21 13 11 -7 51 25 45 36 -4 5 1 9 9 9 9 0 16 5 16 11 0 5
-4 8 -8 5 -5 -3 -15 7 -23 22 -21 41 -67 84 -80 76 -8 -5 -9 -3 -4 5 4 8 -3
24 -20 41 -20 21 -36 28 -62 27 -19 -1 -36 -4 -39 -8z m190 -158 c3 -5 -1 -11
-9 -15 -15 -6 -29 7 -18 18 9 9 21 8 27 -3z m-32 -43 c-11 -11 -32 -3 -32 12
0 4 9 6 21 3 13 -4 17 -9 11 -15z m-46 -14 c-5 -12 -2 -15 11 -10 15 6 16 5 6
-5 -15 -15 -40 2 -29 20 11 17 19 13 12 -5z m-11 -24 c4 -6 1 -18 -6 -26 -11
-14 -13 -14 -21 0 -15 26 12 51 27 26z m35 -13 c0 -2 -19 -21 -42 -42 -31 -29
-36 -31 -18 -10 33 39 60 63 60 52z m-70 -17 c0 -5 -5 -10 -11 -10 -6 0 -9 -7
-6 -15 4 -8 2 -17 -4 -20 -5 -4 -6 -12 -2 -18 3 -7 -3 -3 -16 7 l-22 20 23 22
c25 25 38 30 38 14z"/>
<path d="M4503 6604 c-23 -8 -44 -22 -47 -30 -8 -21 8 -17 61 16 52 33 49 36
-14 14z"/>
<path d="M6060 6613 c1 -18 19 -35 29 -28 9 5 9 10 0 21 -12 15 -29 19 -29 7z"/>
<path d="M4608 6603 c-9 -2 -20 -12 -23 -22 -3 -12 -15 -18 -32 -18 -25 0 -26
0 -8 13 31 23 4 16 -30 -7 -17 -12 -38 -40 -48 -63 -24 -59 -29 -180 -9 -230
17 -44 58 -85 83 -86 9 0 28 -11 43 -25 15 -14 31 -25 36 -25 5 0 28 -13 52
-29 24 -16 54 -32 68 -36 14 -4 27 -11 30 -15 3 -5 48 7 101 25 112 38 179 52
179 36 0 -6 7 -11 16 -11 8 0 12 -4 9 -10 -3 -5 2 -10 13 -10 26 0 24 -30 -2
-31 -16 0 -13 -3 9 -10 23 -6 31 -5 38 7 6 11 12 12 22 4 10 -8 17 -6 27 9 8
12 17 18 20 15 8 -7 48 51 48 69 0 9 4 18 9 22 16 9 40 64 31 70 -5 3 -10 -1
-13 -7 -8 -22 -83 26 -80 51 3 24 -7 27 -26 9 -12 -11 -13 -9 -7 7 6 16 5 18
-5 8 -19 -19 -25 -16 -39 17 -7 17 -19 30 -26 30 -8 0 -14 5 -14 10 0 15 -140
78 -162 72 -19 -5 -25 -32 -7 -32 7 0 22 -11 35 -25 17 -18 30 -24 46 -20 24
6 92 -17 103 -34 3 -6 -12 -9 -37 -8 -38 2 -43 -1 -46 -20 -2 -13 -8 -23 -13
-23 -6 0 -8 -4 -5 -9 4 -5 1 -11 -5 -13 -11 -4 -15 -20 -18 -66 -1 -9 -7 -8
-26 4 -16 10 -25 12 -25 5 0 -6 7 -14 15 -17 15 -6 21 -25 8 -23 -18 3 -73
-14 -73 -23 0 -5 -9 -7 -19 -3 -13 4 -23 0 -30 -12 -13 -24 -83 -24 -134 0
-45 22 -87 91 -61 101 8 3 12 10 9 16 -4 6 1 7 12 3 14 -5 16 -3 6 7 -14 15
-6 40 14 40 8 0 12 4 8 9 -3 6 13 25 36 43 63 51 80 95 65 170 -7 34 -40 76
-55 71 -11 -5 -41 8 -41 18 0 9 -41 10 -72 2z m76 -97 c18 -60 20 -76 9 -76
-5 0 -18 -3 -29 -6 -19 -5 -24 2 -42 54 l-20 60 22 10 c37 18 44 13 60 -42z
m-72 -35 c19 -58 16 -69 -20 -73 -20 -3 -27 5 -43 47 -23 62 -24 72 -1 78 35
10 45 1 64 -52z m-74 -33 c20 -53 20 -58 4 -58 -12 0 -22 17 -35 56 -9 30 -14
60 -11 66 9 14 18 1 42 -64z m-49 -61 l-1 -52 -14 45 c-15 46 -12 76 6 65 5
-3 10 -30 9 -58z m257 28 c-16 -16 -56 -20 -56 -6 0 5 12 12 28 14 15 2 31 5
35 6 5 0 2 -6 -7 -14z m254 -11 c0 -2 -9 -4 -21 -4 -11 0 -18 4 -14 10 5 8 35
3 35 -6z m-433 -81 c-9 -9 -19 -14 -23 -11 -10 10 6 28 24 28 15 0 15 -1 -1
-17z m86 10 c4 -3 -1 -15 -10 -26 -10 -10 -16 -22 -13 -26 3 -3 -5 -7 -17 -9
-13 -2 -23 -8 -23 -13 0 -5 -5 -9 -10 -9 -17 0 1 54 24 72 22 19 38 22 49 11z
m487 -77 c0 -3 -4 -8 -10 -11 -5 -3 -10 -1 -10 4 0 6 5 11 10 11 6 0 10 -2 10
-4z m84 -17 c32 -18 34 -23 24 -45 -13 -28 -25 -30 -50 -7 -17 15 -18 15 -18
-5 0 -25 -10 -28 -28 -10 -9 9 -12 9 -12 0 0 -7 -5 -12 -12 -12 -9 0 -9 3 1
13 6 6 17 12 23 12 6 0 13 6 16 13 2 6 -1 12 -7 12 -15 0 -14 23 1 38 16 16
21 15 62 -9z m-173 -12 c-10 -9 -11 -8 -5 6 3 10 9 15 12 12 3 -3 0 -11 -7
-18z m92 -78 c9 0 17 -7 17 -15 0 -8 5 -12 10 -9 6 3 10 -1 10 -9 0 -12 -4
-14 -17 -7 -10 5 -37 15 -60 22 -45 13 -49 35 -4 24 14 -3 34 -6 44 -6z m64
-31 c-3 -8 -6 -5 -6 6 -1 11 2 17 5 13 3 -3 4 -12 1 -19z"/>
<path d="M4633 6529 c3 -8 11 -31 18 -51 7 -21 16 -38 20 -38 10 0 -20 88 -33
96 -6 4 -8 1 -5 -7z"/>
<path d="M4562 6500 c0 -8 8 -33 19 -55 10 -22 16 -29 13 -15 -10 38 -32 87
-32 70z"/>
<path d="M5170 6226 c0 -13 21 -26 36 -25 4 0 11 -5 15 -13 7 -10 9 -10 9 2 0
8 -14 23 -30 32 -23 13 -30 14 -30 4z"/>
<path d="M3861 6580 c-8 -4 -10 -13 -7 -19 4 -6 2 -11 -3 -11 -6 0 -11 -4 -11
-9 0 -4 11 -6 25 -3 14 2 25 1 24 -4 -1 -5 -1 -17 0 -27 1 -17 2 -17 18 -1 12
11 18 13 21 5 5 -15 -53 -72 -64 -63 -4 4 -4 1 0 -6 5 -8 -15 -35 -53 -74 -34
-34 -61 -65 -61 -68 0 -16 29 -30 46 -23 18 7 18 6 1 -11 -16 -17 -19 -17 -36
-2 -10 9 -24 16 -33 16 -8 0 -51 -36 -94 -81 -43 -44 -108 -109 -142 -145 -71
-72 -74 -85 -5 -24 34 29 56 41 91 45 26 3 55 10 65 16 13 7 17 5 17 -10 0
-18 -6 -20 -60 -18 -50 1 -63 -2 -84 -22 -21 -20 -24 -27 -13 -40 10 -14 10
-14 -5 -3 -25 20 -33 -4 -9 -29 11 -12 27 -19 35 -16 8 3 20 -1 27 -9 7 -8 22
-20 33 -26 16 -8 15 -4 -7 20 -24 25 -27 33 -18 51 17 31 41 25 86 -19 l39
-39 -24 -26 c-17 -18 -20 -25 -8 -25 8 0 23 -9 33 -20 38 -42 65 -13 65 67 0
39 -6 55 -30 85 -29 36 -30 39 -20 80 14 50 53 108 109 163 41 39 57 70 24 44
-15 -11 -14 -10 1 9 20 23 32 30 21 12 -12 -20 4 -9 39 26 38 38 48 56 19 33
-16 -13 -17 -12 -4 3 7 10 17 16 21 13 11 -7 51 25 45 36 -4 5 1 9 9 9 9 0 16
5 16 11 0 5 -4 8 -8 5 -5 -3 -15 7 -23 22 -20 38 -67 84 -79 77 -5 -3 -7 0 -4
8 7 19 -8 28 -25 17z m93 -119 c3 -5 -1 -11 -9 -15 -15 -6 -29 7 -18 18 9 9
21 8 27 -3z m-32 -43 c-11 -11 -32 -3 -32 12 0 4 9 6 21 3 13 -4 17 -9 11 -15z
m-46 -14 c-5 -12 -2 -15 11 -10 15 6 16 5 6 -5 -15 -15 -40 2 -29 20 11 17 19
13 12 -5z m-11 -24 c4 -6 1 -18 -6 -26 -11 -14 -13 -14 -21 0 -15 26 12 51 27
26z m20 -30 c-10 -11 -21 -17 -24 -14 -3 3 3 12 13 20 28 20 32 17 11 -6z
m-55 0 c0 -5 -5 -10 -11 -10 -6 0 -9 -6 -6 -14 8 -21 -13 -38 -30 -24 -12 9
-10 15 9 34 25 25 38 30 38 14z m-100 -449 c0 -11 -31 -24 -39 -16 -3 3 1 10
9 15 19 12 30 12 30 1z"/>
<path d="M4383 6560 c-21 -8 -22 -12 -11 -37 13 -31 38 -71 38 -62 0 3 -7 20
-16 38 -15 30 -15 34 2 52 19 21 18 22 -13 9z"/>
<path d="M5760 6566 c0 -8 47 -56 54 -56 4 0 2 9 -4 20 -9 16 -8 20 7 21 12 1
10 3 -7 9 -30 9 -50 12 -50 6z"/>
<path d="M3790 6530 c6 -11 15 -20 21 -20 6 0 6 7 -1 20 -6 11 -15 20 -21 20
-6 0 -6 -7 1 -20z"/>
<path d="M5742 6523 c8 -10 20 -27 26 -38 9 -18 11 -18 17 -3 4 10 -1 24 -14
37 -26 26 -51 29 -29 4z"/>
<path d="M3762 6495 c8 -17 15 -22 21 -16 7 7 6 15 -3 26 -20 24 -31 18 -18
-10z"/>
<path d="M4825 6491 c-6 -11 9 -23 19 -14 9 9 7 23 -3 23 -6 0 -12 -4 -16 -9z"/>
<path d="M4262 6461 c-10 -6 -10 -10 1 -20 12 -9 16 -8 20 3 7 19 -4 27 -21
17z"/>
<path d="M6262 6461 c-10 -6 -10 -10 1 -20 12 -9 16 -8 20 3 7 19 -4 27 -21
17z"/>
<path d="M4070 6457 c0 -5 5 -17 10 -28 11 -20 40 -27 40 -9 0 6 -5 10 -11 10
-7 0 -18 8 -25 18 -7 9 -14 13 -14 9z"/>
<path d="M6070 6457 c0 -5 5 -17 10 -28 11 -20 40 -27 40 -9 0 6 -5 10 -11 10
-7 0 -18 8 -25 18 -7 9 -14 13 -14 9z"/>
<path d="M4008 6409 c-23 -24 -23 -32 0 -25 11 4 25 -1 35 -11 15 -17 17 -22
17 -40 0 -3 11 4 24 16 24 23 26 54 2 45 -6 -2 -21 5 -33 16 -26 23 -23 24
-45 -1z"/>
<path d="M6008 6409 c-23 -24 -23 -32 0 -25 11 4 25 -1 35 -11 15 -17 17 -22
17 -40 0 -3 11 4 24 16 24 23 26 54 2 45 -6 -2 -21 5 -33 16 -26 23 -23 24
-45 -1z"/>
<path d="M6410 6423 c0 -11 104 -309 124 -357 20 -47 15 -70 -14 -61 -15 5
-18 3 -14 -9 4 -11 0 -14 -15 -11 -12 2 -26 7 -33 11 -6 4 -17 -1 -24 -11 -7
-9 -42 -27 -78 -40 l-65 -23 8 22 c4 11 9 41 10 65 2 39 8 49 47 84 47 41 53
57 30 77 -8 6 -13 17 -10 24 3 7 -3 19 -13 27 -16 13 -17 12 -4 -4 24 -30 3
-31 -22 -1 l-25 28 -29 -29 c-63 -63 -77 -71 -120 -70 -24 1 -43 -2 -43 -7 0
-4 -7 -8 -15 -8 -20 0 -70 -54 -72 -77 -1 -10 -2 -23 -3 -28 -10 -46 3 -78 45
-119 29 -29 43 -50 39 -60 -3 -9 -2 -16 4 -16 15 0 300 95 353 118 26 11 50
25 53 31 4 6 16 11 26 11 10 0 25 8 32 18 7 9 24 23 38 29 l25 12 -25 0 c-32
2 -54 16 -46 30 10 16 32 14 51 -5 10 -11 24 -14 42 -9 32 8 82 45 61 45 -32
0 -79 34 -97 69 -19 37 -19 37 0 49 18 12 21 43 5 59 -4 5 -6 1 -4 -7 2 -9 -6
-16 -19 -18 -13 -2 -23 -8 -23 -13 0 -5 -5 -9 -10 -9 -12 0 -3 48 13 68 13 16
-14 17 -31 0 -6 -6 -15 -8 -19 -4 -5 4 0 14 10 21 18 13 17 14 -3 20 -11 4
-30 16 -40 28 l-20 21 -1 -35 -1 -34 -9 32 c-11 37 -29 53 -30 26 0 -12 -6 -6
-15 15 -13 30 -24 41 -24 25z m54 -79 c3 -8 2 -12 -4 -9 -6 3 -10 10 -10 16 0
14 7 11 14 -7z m-120 -170 l29 -35 -21 -22 -22 -21 -35 34 c-23 22 -32 37 -25
44 7 7 19 1 38 -17 15 -15 31 -27 35 -27 4 0 -6 14 -23 30 -17 17 -28 35 -25
40 10 16 18 11 49 -26z m-55 -48 c21 -22 31 -41 28 -50 -7 -18 -27 -22 -27 -6
0 16 -42 60 -58 60 -12 0 -12 3 -2 15 17 21 22 19 59 -19z m-41 -26 c13 -11
22 -24 20 -30 -2 -6 -16 3 -33 20 -32 33 -23 40 13 10z m-30 -40 c49 -46 16
-130 -50 -130 -36 0 -78 40 -78 75 0 35 42 75 78 75 15 0 38 -9 50 -20z"/>
<path d="M6147 6063 c-17 -28 46 -95 74 -78 17 11 9 21 -23 30 -22 7 -34 18
-38 35 -4 15 -9 20 -13 13z"/>
<path d="M6110 6021 c0 -18 69 -78 81 -71 7 5 -2 20 -27 44 -39 36 -54 43 -54
27z"/>
<path d="M3493 6377 c-4 -8 -21 -20 -37 -28 -16 -8 -31 -19 -33 -25 -2 -6 14
-34 37 -62 22 -28 40 -56 40 -62 0 -14 17 -13 23 3 3 7 6 5 6 -5 1 -22 21 -24
21 -2 0 10 6 14 14 11 11 -4 11 -1 2 19 -10 21 -25 29 -49 25 -5 -1 -7 6 -5
16 2 10 11 17 20 17 11 -1 14 4 10 14 -4 12 -1 14 12 9 10 -4 20 -7 22 -7 3 0
0 -9 -6 -20 -14 -25 -3 -25 35 0 17 11 37 20 47 20 11 0 15 6 11 20 -4 16 -14
20 -43 20 -26 0 -48 8 -68 25 -34 28 -47 31 -59 12z"/>
<path d="M3962 6360 c-17 -14 -19 -20 -9 -40 7 -13 18 -25 25 -28 10 -3 9 3
-3 22 -19 28 -16 30 37 26 31 -2 45 15 20 25 -30 13 -49 12 -70 -5z"/>
<path d="M5962 6360 c-17 -14 -19 -20 -9 -40 7 -13 18 -25 25 -28 10 -3 9 3
-3 22 -19 28 -16 30 37 26 31 -2 45 15 20 25 -30 13 -49 12 -70 -5z"/>
<path d="M3980 6331 c0 -5 7 -11 15 -15 8 -3 15 -1 15 3 0 5 -7 11 -15 15 -8
3 -15 1 -15 -3z"/>
<path d="M4132 6315 c-11 -24 -11 -25 9 -14 12 6 19 7 16 2 -7 -10 28 -44 36
-36 11 10 -27 73 -44 73 -3 0 -11 -11 -17 -25z"/>
<path d="M5980 6331 c0 -5 7 -11 15 -15 8 -3 15 -1 15 3 0 5 -7 11 -15 15 -8
3 -15 1 -15 -3z"/>
<path d="M6132 6315 c-11 -24 -11 -25 9 -14 14 7 19 7 15 0 -4 -5 2 -15 13
-21 11 -5 27 -31 35 -58 l15 -47 -5 40 c-6 43 -21 80 -44 107 -19 24 -25 23
-38 -7z"/>
<path d="M3917 6313 c-4 -3 3 -17 15 -30 12 -13 16 -23 10 -23 -6 0 -9 -7 -5
-16 3 -8 -4 -25 -17 -40 -29 -30 -19 -32 15 -2 16 14 23 28 19 40 -4 13 0 18
13 18 20 0 43 18 43 34 0 5 -6 1 -14 -10 -14 -18 -15 -18 -36 9 -22 28 -32 32
-43 20z"/>
<path d="M4025 6310 c-3 -5 -2 -10 4 -10 5 0 13 5 16 10 3 6 2 10 -4 10 -5 0
-13 -4 -16 -10z"/>
<path d="M5917 6313 c-4 -3 3 -17 15 -30 12 -13 17 -23 11 -23 -6 0 -8 -11 -5
-25 2 -14 8 -22 14 -19 5 3 6 14 3 25 -5 14 -2 19 12 19 20 0 43 18 43 34 0 5
-6 1 -14 -10 -14 -18 -15 -18 -36 9 -22 28 -32 32 -43 20z"/>
<path d="M6025 6310 c-3 -5 -2 -10 4 -10 5 0 13 5 16 10 3 6 2 10 -4 10 -5 0
-13 -4 -16 -10z"/>
<path d="M5210 6291 c0 -5 7 -12 16 -15 14 -5 15 -4 4 9 -14 17 -20 19 -20 6z"/>
<path d="M4900 6278 c1 -18 27 -51 33 -41 7 12 -11 53 -23 53 -5 0 -10 -6 -10
-12z"/>
<path d="M3877 6274 c-3 -3 -3 -12 -1 -19 3 -8 -2 -12 -13 -12 -24 3 -24 -23
1 -51 l20 -22 -29 -30 -29 -30 -26 25 c-31 30 -31 30 -60 5 -18 -16 -21 -23
-12 -32 9 -9 12 -9 12 2 0 8 7 5 18 -8 14 -16 22 -18 30 -10 8 8 6 16 -10 30
-12 10 -17 18 -11 18 5 0 18 -9 28 -20 15 -16 15 -22 5 -35 -25 -30 -1 -14 45
30 25 25 48 55 51 68 2 12 11 27 19 33 21 16 13 57 -12 60 -11 2 -23 1 -26 -2z
m34 -23 c-6 -10 -7 -21 -4 -25 3 -3 1 -6 -5 -6 -7 0 -12 3 -12 6 0 9 20 44 26
44 2 0 0 -8 -5 -19z"/>
<path d="M4874 6255 c4 -16 12 -34 18 -40 7 -7 8 -1 4 20 -4 17 -12 35 -18 40
-7 7 -8 1 -4 -20z"/>
<path d="M5877 6274 c-2 -3 -2 -14 1 -26 5 -20 5 -20 24 3 18 22 18 22 9 2 -7
-13 -7 -24 -2 -28 13 -7 20 7 17 30 -2 17 -37 31 -49 19z"/>
<path d="M3290 6250 c-6 -11 -20 -20 -32 -20 -16 0 -19 -3 -11 -11 8 -8 8 -18
1 -35 -13 -28 -21 -30 -42 -9 -19 20 -23 19 -29 -5 -3 -13 0 -20 9 -20 8 0 19
-9 26 -19 14 -23 38 -11 38 20 0 10 5 21 11 24 5 4 14 17 20 28 5 12 16 32 25
45 9 12 12 22 6 22 -6 0 -16 -9 -22 -20z"/>
<path d="M4120 6255 c-7 -9 -10 -18 -7 -22 8 -7 37 15 37 28 0 14 -16 11 -30
-6z"/>
<path d="M6118 6250 c-7 -11 -17 -20 -23 -21 -12 -1 -69 -68 -63 -74 3 -3 24
13 47 34 46 42 71 57 71 40 0 -6 5 -7 10 -4 9 5 15 -24 11 -48 -1 -5 3 -6 9
-2 14 9 6 46 -13 60 -9 7 -17 17 -17 24 0 18 -19 13 -32 -9z"/>
<path d="M4051 6233 c-25 -30 -20 -44 7 -20 10 10 21 15 23 12 3 -2 5 5 6 15
2 28 -12 25 -36 -7z"/>
<path d="M6051 6233 c-12 -14 -19 -28 -16 -31 6 -6 55 38 55 50 0 16 -19 7
-39 -19z"/>
<path d="M3815 6210 c-10 -17 32 -57 45 -44 7 7 3 17 -14 33 -17 16 -26 19
-31 11z"/>
<path d="M3210 6201 c0 -5 5 -13 10 -16 6 -3 10 -2 10 4 0 5 -4 13 -10 16 -5
3 -10 2 -10 -4z"/>
<path d="M4007 6193 c-4 -3 -7 -11 -7 -17 0 -6 5 -5 12 2 6 6 9 14 7 17 -3 3
-9 2 -12 -2z"/>
<path d="M3785 6180 c-10 -17 32 -57 45 -44 7 7 3 17 -14 33 -17 16 -26 19
-31 11z"/>
<path d="M4040 6175 c-7 -9 -10 -18 -7 -21 3 -3 10 4 17 15 13 25 8 27 -10 6z"/>
<path d="M6000 6179 c0 -5 5 -7 10 -4 6 3 10 8 10 11 0 2 -4 4 -10 4 -5 0 -10
-5 -10 -11z"/>
<path d="M3440 6150 c0 -5 -7 -6 -17 -3 -11 4 -14 3 -9 -5 4 -7 0 -19 -8 -28
-15 -14 -20 -11 -17 9 1 5 -3 5 -9 2 -6 -4 -9 -14 -6 -22 4 -9 -1 -21 -11 -29
-12 -9 -13 -13 -5 -14 7 0 23 10 35 23 48 48 70 77 59 77 -7 0 -12 -4 -12 -10z"/>
<path d="M3950 6135 c-13 -14 -19 -25 -13 -25 5 0 20 11 33 25 13 14 19 25 13
25 -5 0 -20 -11 -33 -25z"/>
<path d="M5440 6150 c0 -5 -7 -6 -17 -3 -11 4 -14 3 -9 -5 4 -7 0 -19 -8 -28
-15 -14 -20 -11 -17 9 1 5 -3 5 -9 2 -6 -4 -9 -14 -6 -22 4 -9 -1 -21 -11 -28
-10 -8 -15 -16 -12 -19 6 -7 47 29 89 77 13 15 18 27 12 27 -7 0 -12 -4 -12
-10z"/>
<path d="M5955 6140 c-27 -30 -12 -34 15 -5 13 14 19 25 13 25 -5 0 -18 -9
-28 -20z"/>
<path d="M3978 6116 c-15 -18 -25 -36 -22 -39 7 -7 44 29 44 43 0 6 7 10 16
10 8 0 12 5 9 10 -10 15 -18 11 -47 -24z"/>
<path d="M5978 6115 c-15 -18 -25 -35 -22 -38 7 -6 44 29 44 42 0 5 8 11 18
13 14 3 14 5 2 9 -9 4 -26 -7 -42 -26z"/>
<path d="M4055 6094 c-10 -14 -20 -34 -22 -44 -1 -11 -3 -23 -4 -27 -8 -46 4
-76 46 -117 29 -29 43 -50 39 -60 -9 -23 5 -20 163 33 129 43 141 49 127 63
-14 14 -20 14 -65 -2 -27 -10 -47 -14 -44 -9 3 5 8 21 10 37 3 24 -2 31 -31
44 l-34 16 0 -31 c0 -62 -79 -89 -125 -42 -32 31 -32 69 -1 100 19 19 22 27
13 38 -23 28 -51 29 -72 1z"/>
<path d="M3895 6080 c-10 -11 -14 -20 -9 -20 12 1 44 25 44 34 0 12 -17 6 -35
-14z"/>
<path d="M5427 5992 l-107 -107 162 -161 c90 -89 176 -171 192 -182 30 -23 76
-30 76 -11 0 6 -7 9 -15 5 -20 -7 -19 7 4 32 22 26 43 29 34 5 -5 -14 -1 -15
27 -9 19 3 41 13 50 21 9 8 22 15 28 15 7 0 3 9 -8 20 -14 14 -28 18 -45 14
-14 -3 -36 -3 -50 0 -27 7 -78 50 -69 59 3 3 7 29 10 59 6 71 8 80 21 103 33
60 12 154 -35 158 -12 0 -18 6 -15 14 3 8 -3 13 -16 13 -12 0 -35 7 -51 15
-35 18 -75 11 -107 -18 -19 -17 -21 -23 -10 -36 10 -14 10 -14 -4 -4 -23 19
-50 -15 -59 -73 -9 -57 2 -108 30 -146 18 -24 18 -27 3 -18 -47 30 -68 135
-39 203 16 39 92 107 119 107 21 0 18 24 -4 27 -8 1 -62 -46 -122 -105z m238
-82 c-25 -28 -35 -26 -80 20 l-39 40 24 25 23 24 45 -44 c45 -43 46 -44 27
-65z m-60 -19 c17 -22 17 -24 -4 -44 l-21 -21 -45 44 -45 44 21 23 22 22 27
-22 c15 -12 35 -33 45 -46z m125 10 c0 -11 -31 -24 -39 -16 -3 3 1 10 9 15 19
12 30 12 30 1z m-201 -45 c29 -29 39 -46 31 -51 -13 -8 -90 61 -90 82 0 22 14
15 59 -31z m-36 -38 c7 -7 18 -29 24 -47 l13 -35 -30 35 c-27 31 -38 59 -24
59 3 0 11 -6 17 -12z m195 -49 c-1 -17 -7 -33 -15 -36 -7 -3 -13 -14 -13 -26
0 -28 -12 -14 -16 20 -4 32 14 73 32 73 8 0 12 -12 12 -31z m-68 -3 c0 -2 -7
-9 -15 -16 -12 -10 -15 -10 -15 4 0 9 7 16 15 16 8 0 15 -2 15 -4z"/>
<path d="M5605 5950 c21 -22 44 -40 49 -40 6 0 -8 18 -29 40 -21 22 -44 40
-49 40 -6 0 8 -18 29 -40z"/>
<path d="M5520 5934 c0 -5 18 -28 40 -49 22 -21 40 -35 40 -29 0 5 -18 28 -40
49 -22 21 -40 35 -40 29z"/>
<path d="M5895 6080 c-10 -11 -14 -20 -9 -20 12 1 44 25 44 34 0 12 -17 6 -35
-14z"/>
<path d="M5291 6074 c0 -11 3 -14 6 -6 3 7 2 16 -1 19 -3 4 -6 -2 -5 -13z"/>
<path d="M3920 6055 c-7 -9 -11 -18 -8 -20 3 -3 11 1 18 10 7 9 11 18 8 20 -3
3 -11 -1 -18 -10z"/>
<path d="M4147 6063 c-17 -28 46 -95 74 -78 17 11 9 21 -23 30 -22 7 -34 18
-38 35 -4 15 -9 20 -13 13z"/>
<path d="M5920 6055 c-7 -9 -11 -18 -8 -20 3 -3 11 1 18 10 7 9 11 18 8 20 -3
3 -11 -1 -18 -10z"/>
<path d="M3766 6031 c-3 -5 1 -11 9 -15 8 -3 15 -1 15 4 0 13 -18 22 -24 11z"/>
<path d="M4995 6031 c-4 -7 4 -11 19 -11 16 0 26 -6 26 -15 0 -8 4 -15 10 -15
5 0 6 9 1 23 -9 23 -45 35 -56 18z"/>
<path d="M5766 6031 c-3 -5 1 -11 9 -15 8 -3 15 -1 15 4 0 13 -18 22 -24 11z"/>
<path d="M3872 6010 c-7 -11 -9 -20 -4 -20 10 0 32 22 32 32 0 15 -15 8 -28
-12z"/>
<path d="M4110 6021 c0 -18 69 -78 81 -71 7 5 -2 20 -27 44 -39 36 -54 43 -54
27z"/>
<path d="M5871 6014 c-7 -8 -10 -18 -7 -21 7 -7 36 16 36 28 0 13 -13 10 -29
-7z"/>
<path d="M5071 5994 c0 -13 2 -14 6 -5 5 11 7 11 14 0 6 -11 11 -11 21 -1 8 8
8 12 1 12 -6 0 -18 3 -27 6 -11 4 -16 1 -15 -12z"/>
<path d="M4950 5990 c0 -5 5 -10 11 -10 5 0 7 5 4 10 -3 6 -8 10 -11 10 -2 0
-4 -4 -4 -10z"/>
<path d="M5253 5994 c3 -4 1 -12 -6 -20 -33 -37 -38 -46 -32 -52 4 -4 10 -1
12 6 3 6 12 12 20 12 9 0 13 6 10 14 -3 8 2 16 15 19 23 6 16 27 -9 27 -9 0
-14 -3 -10 -6z"/>
<path d="M3605 5950 c21 -22 44 -40 49 -40 6 0 -8 18 -29 40 -21 22 -44 40
-49 40 -6 0 8 -18 29 -40z"/>
<path d="M5091 5894 c0 -11 3 -14 6 -6 3 7 2 16 -1 19 -3 4 -6 -2 -5 -13z"/>
<path d="M3921 5883 c0 -4 13 -18 30 -31 16 -13 29 -20 28 -15 0 4 -13 18 -30
31 -16 13 -29 20 -28 15z"/>
<path d="M5921 5883 c0 -4 13 -18 30 -31 16 -13 29 -20 28 -15 0 4 -13 18 -30
31 -16 13 -29 20 -28 15z"/>
<path d="M3910 5835 c13 -14 28 -25 33 -25 6 0 0 11 -13 25 -13 14 -28 25 -33
25 -6 0 0 -11 13 -25z"/>
<path d="M4460 5840 l-45 -19 40 5 c22 3 61 -1 88 -9 50 -16 71 -7 45 19 -23
23 -79 25 -128 4z"/>
<path d="M5910 5835 c13 -14 28 -25 33 -25 6 0 0 11 -13 25 -13 14 -28 25 -33
25 -6 0 0 -11 13 -25z"/>
<path d="M4290 5781 c-51 -19 -74 -32 -72 -42 6 -28 63 -185 79 -217 10 -20
26 -35 42 -39 14 -3 35 -13 46 -22 11 -10 32 -25 48 -34 26 -17 27 -17 27 5 0
19 2 20 10 8 8 -13 10 -12 10 3 0 10 7 20 15 23 14 6 31 41 27 57 -2 5 3 7 10
5 7 -3 33 16 57 40 l44 45 -6 70 c-5 52 -2 75 9 92 21 32 -2 47 -27 17 -22
-27 -44 -28 -66 -2 -22 25 -73 26 -101 1 -12 -10 -19 -20 -17 -23 3 -3 -9 -5
-27 -6 l-33 0 35 18 c19 11 31 19 25 20 -19 0 -74 -39 -91 -65 -35 -53 -42
-94 -28 -154 7 -31 11 -58 9 -60 -2 -2 -7 10 -11 25 -4 16 -10 34 -14 39 -4 6
-10 24 -13 42 -8 43 37 130 82 160 44 29 25 28 -69 -6z m246 -82 l22 -60 -25
-10 c-37 -14 -40 -12 -57 38 -25 73 -21 86 29 92 6 0 20 -26 31 -60z m-290 24
c-10 -10 -19 5 -10 18 6 11 8 11 12 0 2 -7 1 -15 -2 -18z m54 23 c0 -2 -7 -9
-15 -16 -13 -11 -14 -10 -9 4 5 14 24 23 24 12z m162 -75 c19 -58 16 -69 -21
-73 -20 -3 -26 4 -42 47 -23 64 -23 73 -1 78 35 10 45 1 64 -52z m-74 -33 c20
-53 20 -58 4 -58 -12 0 -22 17 -35 56 -9 30 -14 60 -11 66 9 14 18 1 42 -64z
m-48 -28 c1 -8 1 -31 0 -50 -2 -35 -2 -34 -15 14 -14 48 -11 76 5 59 5 -4 9
-15 10 -23z m257 -4 c-18 -18 -42 -24 -45 -11 -2 6 7 13 20 17 36 10 40 9 25
-6z m-87 -87 c0 -5 -7 -12 -16 -16 -8 -3 -13 -12 -10 -19 4 -11 -52 -50 -60
-41 -10 10 16 64 34 72 12 5 22 13 22 17 0 4 7 5 15 2 8 -4 15 -10 15 -15z
m-93 -6 c-9 -9 -19 -14 -23 -11 -10 10 6 28 24 28 15 0 15 -1 -1 -17z"/>
<path d="M4497 5692 c9 -29 20 -52 25 -52 4 0 0 19 -9 43 -24 62 -35 68 -16 9z"/>
<path d="M4416 5690 c10 -38 32 -87 32 -70 0 8 -8 33 -19 55 -10 22 -16 29
-13 15z"/>
<path d="M4704 5752 c11 -12 19 -13 27 -5 7 7 3 12 -16 15 -25 5 -25 4 -11
-10z"/>
<path d="M4730 5730 c-13 -8 -13 -10 2 -10 9 0 20 5 23 10 8 13 -5 13 -25 0z"/>
<path d="M4670 5685 c0 -8 7 -15 15 -15 8 0 15 7 15 15 0 8 -7 15 -15 15 -8 0
-15 -7 -15 -15z"/>
<path d="M4805 5680 c-8 -13 15 -13 35 0 12 8 11 10 -7 10 -12 0 -25 -4 -28
-10z"/>
<path d="M4120 5666 c0 -11 -5 -15 -12 -10 -7 4 -4 -2 6 -14 24 -27 24 -27 20
4 -3 30 -14 46 -14 20z"/>
<path d="M4870 5660 c0 -5 5 -10 11 -10 5 0 7 5 4 10 -3 6 -8 10 -11 10 -2 0
-4 -4 -4 -10z"/>
<path d="M4814 5648 c-4 -5 -4 -11 -1 -14 6 -6 37 6 37 15 0 11 -30 9 -36 -1z"/>
<path d="M4750 5630 c0 -5 11 -10 25 -10 14 0 25 5 25 10 0 6 -11 10 -25 10
-14 0 -25 -4 -25 -10z"/>
<path d="M4928 5603 c-19 -5 -38 -52 -33 -80 2 -10 4 -20 4 -23 1 -3 6 2 11
10 8 12 10 11 10 -6 0 -12 10 -28 23 -37 20 -14 21 -16 5 -32 -15 -16 -17 -16
-27 3 -6 12 -10 26 -9 33 2 6 -3 14 -9 16 -21 8 5 -52 34 -78 14 -13 23 -18
19 -11 -4 6 -3 12 2 12 6 0 13 -11 16 -25 8 -30 27 -32 44 -5 11 17 9 20 -14
26 -17 4 -22 9 -14 14 9 6 9 10 -2 16 -22 13 -39 50 -32 68 9 24 21 19 49 -21
23 -34 25 -35 25 -14 0 23 1 23 18 8 10 -10 23 -17 29 -17 6 0 13 -6 16 -12 3
-9 10 -7 21 7 11 14 15 16 16 6 0 -8 -8 -23 -17 -34 -17 -20 -17 -20 2 -13 15
5 17 4 9 -4 -9 -9 -17 -9 -32 -1 -11 6 -31 11 -44 10 -13 0 -17 -3 -10 -6 6
-2 12 -14 12 -24 0 -11 -4 -17 -10 -14 -5 3 -10 1 -10 -4 0 -6 11 -11 25 -11
27 0 32 -9 14 -27 -7 -7 -7 -13 -1 -17 5 -3 29 9 53 27 24 18 65 46 91 62 46
29 60 45 38 45 -22 0 -25 2 -32 21 -4 10 -15 19 -25 19 -9 0 -34 12 -55 27
-30 20 -42 23 -50 15 -7 -7 -16 -12 -22 -12 -5 0 -7 3 -3 6 3 4 -1 13 -10 22
-12 13 -21 14 -47 4 -30 -11 -30 -10 -8 5 28 20 28 27 -2 41 -17 8 -27 7 -36
-1 -10 -9 -11 -9 -6 1 7 12 4 13 -26 5z m102 -73 c0 -5 -2 -10 -4 -10 -3 0 -8
5 -11 10 -3 6 -1 10 4 10 6 0 11 -4 11 -10z"/>
<path d="M4750 5495 c0 -12 24 -55 31 -55 4 0 1 14 -7 30 -14 27 -24 38 -24
25z"/>
<path d="M4721 5475 c0 -5 6 -21 14 -35 8 -14 14 -20 14 -15 0 6 -6 21 -14 35
-8 14 -14 21 -14 15z"/>
<path d="M4590 5349 c0 -15 4 -19 16 -15 9 3 20 6 25 6 21 0 7 26 -16 28 -19
1 -25 -3 -25 -19z"/>
<path d="M5289 5338 c-118 -84 -112 -78 -93 -99 15 -17 19 -18 34 -4 9 8 22
15 28 15 7 0 19 17 27 37 9 21 26 48 37 60 29 31 20 29 -33 -9z m-64 -88 c-3
-5 -10 -10 -16 -10 -5 0 -9 5 -9 10 0 6 7 10 16 10 8 0 12 -4 9 -10z"/>
<path d="M5336 5330 c-20 -22 -36 -42 -36 -45 0 -8 53 6 67 18 14 10 7 31 -8
22 -5 -4 -9 -2 -9 4 0 5 8 14 17 20 10 5 15 12 12 16 -3 3 -23 -13 -43 -35z"/>
<path d="M5390 5343 c0 -25 1 -26 16 -11 9 9 13 21 10 27 -13 20 -26 11 -26
-16z"/>
<path d="M4760 5283 c-39 -14 -42 -17 -23 -24 12 -4 31 -17 42 -28 25 -25 54
-27 72 -4 10 11 10 14 2 9 -21 -12 -14 5 10 24 l22 19 -22 -6 c-15 -3 -25 0
-29 11 -7 19 -16 19 -74 -1z"/>
<path d="M4872 5206 c-21 -11 -22 -14 -7 -26 14 -11 17 -10 22 8 7 27 23 29
23 3 0 -11 5 -23 10 -26 6 -4 10 7 10 24 0 35 -18 40 -58 17z"/>
<path d="M3040 5890 c0 -5 5 -10 11 -10 5 0 7 5 4 10 -3 6 -8 10 -11 10 -2 0
-4 -4 -4 -10z"/>
<path d="M3144 5816 c11 -9 27 -16 35 -15 14 0 14 1 1 6 -8 3 -24 10 -35 15
-20 9 -20 9 -1 -6z"/>
<path d="M3264 5694 c-38 -40 -44 -73 -14 -81 21 -6 28 -47 10 -58 -5 -3 -10
-22 -10 -41 0 -19 -4 -34 -10 -34 -5 0 -10 -8 -10 -17 -1 -17 -1 -17 -11 0 -5
9 -8 21 -4 26 9 15 -17 62 -32 57 -7 -3 -13 -1 -13 5 0 6 -10 8 -22 4 -20 -5
-21 -4 -5 5 9 6 17 15 17 20 0 10 -34 23 -65 26 -11 1 -28 5 -37 9 -29 12 -23
-30 6 -43 30 -13 42 -62 14 -54 -15 4 -17 7 -6 13 10 7 9 9 -4 9 -9 0 -19 6
-22 13 -3 6 -4 -8 -3 -32 1 -32 7 -47 22 -55 11 -6 23 -15 27 -21 4 -6 13 -2
22 10 11 14 15 16 16 6 0 -8 -8 -23 -17 -34 -17 -20 -17 -20 2 -13 15 5 17 4
9 -4 -9 -9 -17 -9 -32 -1 -34 18 -47 13 -47 -19 0 -22 5 -30 18 -30 19 0 22
-11 6 -27 -7 -7 -7 -13 -1 -17 5 -3 29 9 53 27 24 18 80 55 124 82 44 27 85
54 92 60 7 5 19 16 27 23 8 6 20 12 25 12 5 0 12 4 15 9 3 4 -19 16 -49 26
-57 18 -62 23 -45 56 12 21 31 24 58 9 9 -5 29 -14 45 -20 15 -5 27 -16 27
-24 0 -12 -6 -12 -41 1 -23 7 -44 12 -46 9 -3 -2 13 -10 36 -17 23 -7 41 -18
41 -26 0 -12 3 -12 15 1 9 8 23 12 32 9 15 -6 15 -5 0 17 -15 22 -114 70 -144
70 -11 0 -11 4 -2 21 8 15 14 18 22 10 23 -23 29 -10 7 14 -18 19 -26 22 -37
14 -7 -6 -13 -20 -13 -30 0 -11 -7 -19 -16 -19 -11 0 -14 -5 -10 -16 5 -13 4
-14 -7 -6 -8 7 -17 8 -22 4 -4 -4 -2 3 4 16 6 12 17 22 23 22 6 0 8 3 5 7 -4
3 0 17 8 30 23 34 7 28 -31 -13z m67 -144 c28 -15 24 -33 -6 -26 -19 5 -23 3
-19 -9 4 -10 0 -15 -13 -15 -29 0 -34 10 -16 36 17 27 25 29 54 14z"/>
<path d="M3481 5725 c75 -81 589 -592 589 -585 0 5 -4 12 -10 15 -5 3 -10 15
-10 25 0 10 -16 31 -35 46 -22 17 -35 34 -34 48 1 12 3 15 5 6 3 -8 18 -23 35
-32 16 -10 35 -31 40 -48 6 -16 14 -30 18 -30 3 0 37 31 74 68 63 63 67 70 51
83 -10 8 -15 9 -11 2 4 -6 2 -15 -4 -19 -7 -4 -27 9 -50 34 -21 23 -42 42 -48
42 -5 0 -22 -18 -38 -40 -15 -22 -34 -42 -42 -45 -7 -3 1 12 18 32 18 21 36
44 42 51 7 9 3 15 -17 22 -15 6 -39 20 -55 31 -22 15 -37 18 -64 13 -36 -6
-52 10 -17 19 13 4 11 5 -5 6 -13 0 -23 6 -23 12 0 21 -44 48 -70 43 -14 -3
-42 1 -64 9 -36 12 -37 14 -21 30 16 16 14 18 -28 37 -24 11 -50 27 -57 35 -7
8 -21 15 -31 15 -10 0 -26 8 -36 18 -20 21 -86 62 -98 62 -5 0 -6 -2 -4 -5z
m384 -263 c-6 -7 -35 18 -35 31 0 5 9 2 20 -8 11 -10 18 -20 15 -23z m272
-142 c28 -27 31 -33 21 -50 -20 -31 -34 -30 -68 5 -28 29 -30 35 -18 54 17 28
27 27 65 -9z m-43 -67 c11 -15 15 -28 9 -34 -12 -12 -78 55 -69 70 9 14 34 -2
60 -36z"/>
<path d="M4105 5300 c16 -16 33 -30 39 -30 5 0 -3 14 -19 30 -16 17 -33 30
-39 30 -5 0 3 -13 19 -30z"/>
<path d="M3190 5625 c-11 -13 -10 -14 4 -9 9 3 16 10 16 15 0 13 -6 11 -20 -6z"/>
<path d="M3587 5483 c-13 -13 -19 -14 -29 -5 -21 21 -52 13 -107 -28 -29 -22
-57 -40 -62 -40 -5 0 -9 -4 -9 -9 0 -6 11 -7 28 -1 15 5 54 10 88 12 55 4 61
2 56 -14 -2 -10 -9 -18 -14 -18 -5 0 -6 -6 -2 -12 6 -10 4 -10 -7 0 -7 6 -21
12 -31 12 -10 0 -18 5 -18 10 0 25 -102 -14 -138 -52 -12 -14 -19 -28 -15 -33
5 -4 3 -5 -4 -1 -18 10 -36 -68 -30 -129 2 -27 10 -51 16 -53 6 -2 11 -11 11
-19 0 -22 -34 23 -48 65 -18 52 3 127 52 181 29 33 8 21 -109 -64 l-35 -26 83
-120 c45 -65 87 -127 92 -137 20 -35 94 -138 119 -167 14 -16 26 -36 26 -44 0
-7 6 -11 15 -8 8 4 17 2 21 -4 8 -14 33 21 27 38 -3 7 0 20 7 28 9 10 9 15 1
15 -6 0 -11 -5 -11 -10 0 -9 -19 -9 -59 -1 -2 1 3 9 12 19 16 17 15 19 -18 35
l-35 17 0 130 c0 124 -1 130 -18 121 -16 -8 -25 -1 -57 41 l-38 51 23 19 c12
10 26 18 30 18 5 0 21 -20 37 -45 15 -25 32 -45 37 -45 8 0 -3 20 -41 75 -18
26 -17 30 11 48 23 16 25 15 60 -35 34 -50 35 -52 18 -71 -17 -20 -16 -20 18
-13 18 3 38 12 42 19 12 18 10 -1 -3 -25 -8 -14 -8 -23 0 -31 7 -7 13 -2 21
17 15 40 12 92 -6 128 -10 20 -14 42 -10 62 4 17 8 39 9 48 1 9 4 15 7 13 3
-2 5 10 6 26 1 34 3 33 -19 12z m-27 -33 c0 -5 -8 -10 -17 -10 -15 0 -16 2 -3
10 19 12 20 12 20 0z m-173 -109 c-1 -18 -37 -27 -37 -9 0 5 27 26 37 28 1 0
1 -9 0 -19z m178 -11 c3 -5 1 -10 -4 -10 -6 0 -11 5 -11 10 0 6 2 10 4 10 3 0
8 -4 11 -10z m-340 -80 c-3 -5 -10 -10 -16 -10 -5 0 -9 5 -9 10 0 6 7 10 16
10 8 0 12 -4 9 -10z m153 -52 c23 -36 29 -54 21 -59 -11 -7 -79 81 -79 102 0
24 28 3 58 -43z m-28 -80 c0 -15 -5 -30 -12 -34 -7 -4 -8 -3 -4 4 4 6 0 25 -9
41 -8 17 -15 38 -15 48 1 30 40 -27 40 -59z m100 -24 c0 -10 -27 -33 -33 -28
-9 10 4 34 19 34 8 0 14 -3 14 -6z"/>
<path d="M3626 5427 c-13 -10 -15 -16 -8 -21 7 -4 12 -2 12 3 0 6 5 11 11 11
6 0 9 -6 6 -14 -7 -17 19 -30 29 -15 3 6 -2 20 -13 30 -16 17 -21 17 -37 6z"/>
<path d="M3640 5320 c0 -5 4 -10 9 -10 6 0 13 5 16 10 3 6 -1 10 -9 10 -9 0
-16 -4 -16 -10z"/>
<path d="M3466 5278 c33 -53 33 -53 40 -45 8 8 -45 87 -57 87 -5 0 3 -19 17
-42z"/>
<path d="M3740 5290 c-8 -5 -11 -12 -7 -16 4 -4 13 -2 19 4 15 15 7 24 -12 12z"/>
<path d="M3380 5275 c0 -10 53 -85 57 -81 3 2 -7 23 -21 45 -24 37 -36 49 -36
36z"/>
<path d="M4275 5237 c-20 -19 -20 -19 5 -12 44 13 55 21 34 27 -11 3 -28 -4
-39 -15z"/>
<path d="M3764 5208 c-3 -4 6 -10 20 -14 14 -3 25 -9 24 -13 -2 -17 3 -25 10
-14 13 21 35 19 37 -4 1 -13 -2 -23 -7 -23 -4 0 -8 -4 -8 -9 0 -5 9 -7 20 -4
14 4 20 0 20 -12 0 -13 6 -16 25 -11 17 4 25 2 25 -7 0 -17 -56 -68 -65 -59
-3 3 -3 -1 1 -11 7 -19 20 -22 29 -7 3 5 12 7 21 3 11 -4 12 -9 4 -18 -8 -9
-7 -14 2 -17 17 -6 48 2 48 12 0 5 8 16 17 26 16 16 16 18 -5 32 -12 8 -22 18
-22 22 0 17 -60 71 -71 64 -8 -5 -9 -3 -4 5 4 8 -3 24 -20 41 -20 21 -36 28
-62 27 -19 -1 -36 -4 -39 -9z m190 -157 c3 -5 -1 -11 -9 -15 -15 -6 -29 7 -18
18 9 9 21 8 27 -3z"/>
<path d="M4394 5155 l-32 -14 33 -93 c18 -51 57 -163 86 -248 55 -157 75 -191
128 -211 17 -7 30 -5 47 6 13 8 30 15 39 15 9 0 33 8 53 18 20 9 63 26 95 37
51 17 57 22 57 47 0 18 -5 28 -15 28 -8 0 -15 -5 -15 -11 0 -6 -7 -8 -16 -5
-9 3 -27 -3 -41 -14 -47 -37 -146 -6 -182 56 l-22 37 21 14 c11 8 20 20 19 26
-3 26 2 37 16 37 8 0 14 5 12 10 -1 6 18 28 43 49 l45 39 -20 22 c-17 18 -27
21 -62 16 -39 -5 -42 -4 -52 26 -6 17 -13 29 -16 26 -3 -3 -1 -18 5 -33 12
-32 5 -43 -29 -47 -20 -3 -26 4 -42 52 -11 30 -17 60 -15 67 5 12 -22 33 -41
33 -4 0 -17 -21 -28 -48 -21 -51 -23 -119 -4 -155 8 -15 8 -19 0 -12 -6 6 -17
32 -25 58 -16 54 -8 98 25 141 35 44 0 60 -67 31z m2 -42 c-10 -10 -19 5 -10
18 6 11 8 11 12 0 2 -7 1 -15 -2 -18z m42 7 c-7 -10 -14 -17 -17 -15 -4 4 18
35 25 35 2 0 -1 -9 -8 -20z m100 -92 c20 -53 20 -58 4 -58 -12 0 -22 17 -35
56 -9 30 -14 60 -11 66 9 14 18 1 42 -64z m-49 -61 l-1 -52 -14 45 c-15 46
-12 76 6 65 5 -3 10 -30 9 -58z m251 23 c0 -5 -7 -10 -15 -10 -8 0 -18 0 -22
-1 -4 0 -9 4 -11 10 -2 6 8 11 22 11 14 0 26 -4 26 -10z m-173 -87 c-9 -9 -19
-14 -23 -11 -10 10 6 28 24 28 15 0 15 -1 -1 -17z m93 8 c0 -5 -7 -14 -15 -21
-8 -7 -13 -16 -10 -20 4 -7 -48 -40 -62 -40 -11 0 13 58 31 72 22 19 56 24 56
9z m-24 -243 c-1 -31 -21 -41 -46 -26 -25 16 -20 33 9 32 11 0 21 3 21 8 0 4
4 8 8 8 5 0 8 -10 8 -22z"/>
<path d="M3760 5156 c0 -8 47 -56 54 -56 4 0 2 9 -4 20 -9 16 -8 20 7 21 12 1
10 3 -7 9 -30 9 -50 12 -50 6z"/>
<path d="M4089 5143 c-13 -16 -12 -17 4 -4 9 7 17 15 17 17 0 8 -8 3 -21 -13z"/>
<path d="M3106 5141 c-3 -5 1 -11 9 -15 9 -3 15 0 15 9 0 16 -16 20 -24 6z"/>
<path d="M3741 5117 c9 -7 19 -22 23 -35 7 -20 26 -22 26 -3 0 14 -37 51 -51
51 -11 -1 -10 -3 2 -13z"/>
<path d="M4566 5080 c4 -14 13 -38 20 -55 11 -24 13 -25 8 -5 -4 14 -13 39
-20 55 -11 24 -13 25 -8 5z"/>
<path d="M4262 5051 c-10 -6 -10 -10 1 -20 12 -9 16 -8 20 3 7 19 -4 27 -21
17z"/>
<path d="M4660 5045 c0 -8 4 -15 10 -15 5 0 7 7 4 15 -4 8 -8 15 -10 15 -2 0
-4 -7 -4 -15z"/>
<path d="M4070 5047 c0 -5 5 -17 10 -28 11 -20 40 -27 40 -9 0 6 -5 10 -11 10
-7 0 -18 8 -25 18 -7 9 -14 13 -14 9z"/>
<path d="M4008 4998 c-23 -23 -23 -31 0 -24 18 6 45 -15 53 -42 3 -9 10 -7 26
8 21 19 22 57 2 44 -5 -3 -21 3 -37 14 -26 18 -28 18 -44 0z"/>
<path d="M3040 4976 c0 -16 7 -29 18 -33 24 -8 52 -34 52 -47 0 -7 -3 -7 -8 1
-4 6 -20 15 -35 18 -27 7 -27 7 -27 -44 0 -33 4 -51 12 -51 9 0 9 -3 0 -12 -7
-7 -12 -31 -12 -55 0 -34 5 -45 23 -55 12 -7 25 -12 30 -13 4 0 6 -2 5 -5 -1
-3 4 -15 11 -28 12 -22 14 -22 25 -6 9 12 15 14 20 5 4 -6 12 -8 18 -5 6 4 15
0 20 -7 8 -11 9 -10 4 3 -3 10 6 29 25 49 16 17 29 37 29 44 0 7 16 37 35 66
19 30 35 61 35 70 0 10 -18 26 -45 39 -25 12 -45 26 -45 31 0 5 -7 9 -15 9 -8
0 -15 -6 -15 -14 0 -16 -39 -66 -40 -50 0 5 6 16 13 24 6 8 1 6 -12 -5 -16
-14 -25 -16 -28 -8 -9 25 -49 77 -70 91 -22 14 -23 13 -23 -12z m260 -117 c0
-13 -18 -20 -25 -9 -9 14 -65 42 -65 32 0 -5 16 -16 35 -25 34 -16 47 -37 24
-37 -15 0 -79 40 -79 49 0 3 7 16 15 29 l16 22 39 -26 c22 -15 40 -30 40 -35z
m-160 -23 c0 -3 -4 -8 -10 -11 -5 -3 -10 -1 -10 4 0 6 5 11 10 11 6 0 10 -2
10 -4z m84 -17 c32 -18 34 -23 24 -45 -13 -27 -36 -32 -44 -9 -8 19 -24 20
-24 1 0 -22 -16 -28 -31 -10 -10 12 -10 15 1 12 7 -2 15 3 17 10 3 6 0 12 -6
12 -15 0 -14 23 1 38 16 16 21 15 62 -9z m-84 -80 c0 -6 -4 -7 -10 -4 -5 3
-10 11 -10 16 0 6 5 7 10 4 6 -3 10 -11 10 -16z m3 -10 c9 0 17 -7 17 -15 0
-8 5 -12 10 -9 6 3 10 -1 10 -11 0 -12 -4 -14 -12 -7 -7 6 -34 16 -60 23 -49
13 -57 37 -9 25 14 -3 34 -6 44 -6z m64 -31 c-3 -8 -6 -5 -6 6 -1 11 2 17 5
13 3 -3 4 -12 1 -19z"/>
<path d="M3170 4816 c0 -8 10 -18 23 -22 12 -4 25 -12 29 -18 5 -7 8 -6 8 4 0
9 -13 24 -30 33 -25 15 -30 16 -30 3z"/>
<path d="M3975 4962 c-12 -13 -2 -22 30 -28 42 -8 58 3 30 19 -22 12 -52 17
-60 9z"/>
<path d="M4135 4930 c3 -5 1 -19 -5 -31 -11 -19 -10 -20 10 -9 16 8 20 9 16 1
-4 -6 0 -14 9 -17 8 -4 22 -18 30 -33 10 -19 14 -21 15 -8 0 22 -19 56 -48 84
-24 24 -38 30 -27 13z"/>
<path d="M4874 4845 c4 -16 12 -34 18 -40 7 -7 8 -1 4 20 -4 17 -12 35 -18 40
-7 7 -8 1 -4 -20z"/>
<path d="M4286 4805 c-17 -25 -9 -34 11 -14 8 8 22 0 51 -30 22 -23 42 -41 46
-41 12 0 6 28 -8 40 -8 6 -13 17 -10 24 3 7 -3 19 -13 27 -16 13 -17 12 -4 -4
8 -9 11 -20 8 -24 -4 -3 -16 6 -28 20 -25 33 -32 34 -53 2z"/>
<path d="M3628 4788 c-9 -13 -75 -82 -147 -154 l-132 -132 33 -26 33 -26 3 28
c6 56 22 99 45 120 l23 21 13 -22 c13 -19 12 -21 -1 -10 -22 19 -49 -16 -58
-75 -8 -49 2 -82 24 -82 7 0 21 -9 31 -20 10 -11 25 -20 34 -20 10 0 2 13 -22
38 -35 35 -47 62 -29 62 4 0 27 -20 51 -44 28 -29 39 -46 31 -51 -8 -5 -6 -12
6 -26 13 -14 20 -16 31 -8 12 10 17 6 15 -13 -1 -3 5 -9 13 -12 9 -3 15 0 15
9 0 15 26 45 40 45 11 0 10 -59 -2 -66 -4 -3 -3 -14 3 -26 16 -30 31 -9 35 51
2 28 11 67 20 88 26 61 20 120 -16 165 -29 36 -30 40 -20 80 7 22 18 51 26 63
14 22 13 23 -28 41 -24 10 -46 20 -49 22 -3 1 -13 -8 -21 -20z m29 -118 c2
-17 -4 -19 -57 -17 -45 1 -64 -3 -79 -17 -12 -11 -23 -17 -26 -14 -12 11 48
39 96 45 27 3 52 10 55 14 8 13 10 11 11 -11z m-12 -110 c38 -39 38 -40 20
-60 -25 -28 -36 -26 -79 19 -34 35 -36 41 -24 60 19 31 39 26 83 -19z m-43
-122 l-22 -22 -45 44 -45 44 22 23 22 24 45 -46 46 -45 -23 -22z m131 63 c-5
-19 -31 -36 -41 -26 -4 3 35 43 45 45 0 0 -1 -9 -4 -19z"/>
<path d="M3605 4540 c21 -22 44 -40 49 -40 6 0 -8 18 -29 40 -21 22 -44 40
-49 40 -6 0 8 -18 29 -40z"/>
<path d="M3520 4524 c0 -5 18 -28 40 -49 22 -21 40 -35 40 -29 0 5 -18 28 -40
49 -22 21 -40 35 -40 29z"/>
<path d="M3440 4740 c0 -5 -7 -6 -17 -3 -11 4 -14 3 -9 -5 4 -7 0 -19 -8 -28
-15 -14 -20 -11 -17 9 1 5 -3 5 -9 2 -6 -4 -9 -14 -6 -22 4 -9 -1 -21 -11 -28
-10 -8 -15 -16 -12 -19 6 -7 47 29 89 77 13 15 18 27 12 27 -7 0 -12 -4 -12
-10z"/>
<path d="M3740 4730 c-18 -16 -21 -23 -12 -32 9 -9 12 -9 12 2 0 9 6 6 16 -8
8 -12 20 -20 25 -17 13 9 11 21 -7 39 -8 9 -11 16 -6 16 5 0 17 -9 27 -20 15
-17 16 -22 4 -36 -13 -16 -12 -16 7 -6 12 6 25 19 28 29 4 10 4 14 0 11 -3 -4
-21 4 -39 17 l-32 25 -23 -20z"/>
<path d="M3291 4664 c0 -11 3 -14 6 -6 3 7 2 16 -1 19 -3 4 -6 -2 -5 -13z"/>
<path d="M3885 4660 c-3 -5 -2 -10 4 -10 5 0 13 5 16 10 3 6 2 10 -4 10 -5 0
-13 -4 -16 -10z"/>
<path d="M3917 4643 c-4 -3 -7 -11 -7 -17 0 -6 5 -5 12 2 6 6 9 14 7 17 -3 3
-9 2 -12 -2z"/>
<path d="M3314 4608 l-19 -23 23 19 c12 11 22 21 22 23 0 8 -8 2 -26 -19z"/>
<path d="M3766 4621 c-3 -5 1 -11 9 -15 8 -3 15 -1 15 4 0 13 -18 22 -24 11z"/>
<path d="M3876 4604 c-11 -7 -16 -17 -13 -21 4 -4 15 1 24 10 22 21 14 30 -11
11z"/>
<path d="M3251 4574 c-17 -20 -12 -24 17 -13 13 5 20 13 17 19 -8 14 -18 12
-34 -6z"/>
<path d="M4030 4566 c0 -25 58 -96 78 -96 8 0 10 -9 6 -25 -3 -14 -2 -25 4
-25 11 0 114 32 121 37 9 6 -39 44 -81 64 -69 32 -103 52 -106 61 -7 17 -22 7
-22 -16z"/>
<path d="M4813 4558 c-36 -12 -37 -15 -23 -52 7 -19 6 -26 -2 -26 -6 0 -9 -2
-7 -5 3 -2 23 1 45 7 39 11 39 11 14 22 -31 14 -39 46 -11 46 11 0 23 5 26 10
7 12 1 11 -42 -2z"/>
<path d="M4860 4530 c-11 -20 -4 -26 15 -12 14 10 17 32 5 32 -5 0 -14 -9 -20
-20z"/>
<path d="M4736 4527 c-15 -11 -14 -13 12 -23 27 -10 29 -9 25 8 -7 25 -17 30
-37 15z"/>
<path d="M3921 4473 c0 -11 59 -56 59 -46 0 5 -13 19 -30 31 -16 13 -30 19
-29 15z"/>
<path d="M4880 4450 c0 -5 5 -10 10 -10 6 0 10 5 10 10 0 6 -4 10 -10 10 -5 0
-10 -4 -10 -10z"/>
<path d="M3910 4425 c13 -14 28 -25 33 -25 6 0 0 11 -13 25 -13 14 -28 25 -33
25 -6 0 0 -11 13 -25z"/>
<path d="M4300 4374 c-36 -13 -70 -26 -77 -29 -9 -3 -6 -21 11 -67 13 -35 42
-118 65 -186 58 -170 62 -178 103 -206 l36 -24 79 27 c116 42 136 51 129 58
-12 12 -56 14 -56 3 0 -5 -10 -10 -23 -10 -13 0 -28 -5 -35 -12 -14 -14 -37 3
-58 43 -20 40 -17 64 10 79 22 11 40 43 37 63 -1 5 4 7 11 5 15 -5 98 77 98
97 0 18 -39 57 -73 72 l-27 13 15 -36 c14 -34 14 -35 -11 -44 -14 -6 -29 -10
-34 -10 -10 0 -44 98 -42 123 1 18 -5 20 -53 19 -28 -1 -29 0 -11 14 31 22 6
16 -29 -7 -45 -31 -69 -97 -62 -167 5 -53 5 -55 -7 -27 -27 63 -27 80 2 136
15 31 41 63 61 76 43 29 24 28 -59 -3z m-54 -61 c-10 -10 -19 5 -10 18 6 11 8
11 12 0 2 -7 1 -15 -2 -18z m42 7 c-7 -10 -14 -18 -15 -16 -6 6 9 36 18 36 5
0 4 -9 -3 -20z m174 -59 c19 -57 17 -64 -19 -75 -19 -6 -24 0 -42 49 -25 68
-26 72 -3 78 35 10 45 1 64 -52z m-74 -33 c20 -53 20 -58 4 -58 -12 0 -22 17
-35 56 -9 30 -14 60 -11 66 9 14 18 1 42 -64z m-48 -59 c0 -31 -4 -48 -10 -44
-5 3 -10 1 -10 -6 0 -7 -3 -9 -6 -6 -4 4 -2 13 4 20 8 9 9 24 2 47 -10 34 -5
54 11 45 5 -4 9 -29 9 -56z m256 26 c-8 -8 -20 -15 -26 -15 -6 0 -8 -5 -4 -12
5 -9 2 -8 -10 1 -18 15 -12 26 19 34 35 8 37 7 21 -8z m-86 -86 c0 -5 -7 -12
-15 -15 -9 -4 -14 -13 -13 -21 2 -8 -11 -20 -30 -28 l-32 -14 6 27 c8 34 22
52 40 52 8 0 14 4 14 10 0 5 7 7 15 4 8 -4 15 -10 15 -15z m-85 1 c-3 -5 -15
-15 -26 -21 -19 -10 -20 -9 -9 10 6 12 18 21 26 21 8 0 12 -4 9 -10z m50 -180
c-3 -5 -11 -10 -16 -10 -6 0 -7 5 -4 10 3 6 11 10 16 10 6 0 7 -4 4 -10z"/>
<path d="M4416 4280 c10 -38 32 -87 32 -70 0 8 -8 33 -19 55 -10 22 -16 29
-13 15z"/>
<path d="M4483 4320 c3 -8 11 -32 18 -52 7 -21 16 -38 21 -38 9 0 -20 80 -35
95 -6 7 -8 5 -4 -5z"/>
<path d="M4120 4256 c0 -11 -5 -15 -12 -10 -7 4 -4 -2 6 -14 24 -27 24 -27 20
4 -3 30 -14 46 -14 20z"/>
<path d="M3196 4213 c-6 -14 -5 -15 5 -6 7 7 10 15 7 18 -3 3 -9 -2 -12 -12z"/>
<path d="M3230 4216 c0 -9 7 -16 16 -16 17 0 14 22 -4 28 -7 2 -12 -3 -12 -12z"/>
<path d="M3845 4210 c10 -11 22 -20 27 -20 6 0 35 -18 67 -40 62 -44 97 -54
66 -20 -11 12 -47 34 -82 51 -35 16 -63 34 -63 40 0 5 -7 9 -17 9 -14 0 -14
-2 2 -20z"/>
<path d="M3040 4198 c0 -17 8 -29 26 -37 27 -12 30 -41 5 -49 -8 -3 -11 -1 -8
4 2 5 -2 15 -10 22 -12 12 -14 8 -11 -29 2 -30 9 -45 23 -53 11 -6 23 -15 27
-21 4 -6 13 -2 22 10 11 14 15 16 16 6 0 -8 -8 -23 -17 -34 -17 -20 -17 -20 2
-13 15 5 17 4 9 -4 -9 -9 -17 -9 -32 -1 -34 18 -47 13 -47 -19 0 -22 5 -30 18
-30 14 0 16 -5 11 -26 -8 -30 -3 -29 56 16 19 15 71 49 115 76 44 27 89 57
100 67 11 11 31 24 45 29 24 10 22 11 -32 30 -43 15 -58 24 -60 41 -4 30 -22
28 -26 -3 -2 -14 -8 -29 -13 -34 -5 -6 -9 -24 -9 -40 0 -17 -7 -40 -15 -50
-14 -19 -15 -19 -15 7 0 38 -20 76 -36 70 -8 -3 -14 0 -14 7 0 7 -7 10 -15 6
-13 -4 -13 -2 -5 14 16 29 20 26 -47 33 -18 2 -39 10 -48 17 -13 11 -15 9 -15
-12z m293 -62 c23 -18 22 -30 -3 -23 -13 3 -20 0 -20 -9 0 -8 -10 -14 -25 -14
-29 0 -30 3 -9 35 18 28 31 30 57 11z"/>
<path d="M4750 4085 c1 -6 7 -21 16 -35 l15 -25 -7 25 c-7 26 -24 52 -24 35z"/>
<path d="M3429 4024 c-90 -68 -94 -71 -44 -46 24 12 66 22 106 24 59 3 66 2
61 -14 -2 -10 -9 -18 -14 -18 -5 0 -6 -5 -3 -11 5 -7 2 -7 -11 0 -45 24 -94
34 -94 20 0 -4 -13 -10 -28 -14 -86 -18 -142 -166 -95 -246 24 -41 36 -36 16
6 -9 19 -13 38 -10 42 11 11 36 -30 37 -59 0 -17 9 -34 25 -45 14 -10 35 -26
47 -35 30 -25 38 -22 38 12 0 30 32 70 57 70 15 0 17 -16 3 -25 -6 -4 -9 -12
-8 -18 2 -7 -8 -23 -20 -35 -23 -23 -23 -25 -6 -43 18 -20 40 -27 29 -9 -3 5
0 20 6 32 7 13 13 36 15 52 1 15 17 49 35 75 29 39 33 54 33 101 -1 54 -22
130 -36 130 -5 0 -8 5 -8 11 0 5 4 8 9 4 6 -3 15 3 20 13 12 22 -3 39 -56 64
-31 16 -32 15 -104 -38z m128 10 c-3 -3 -12 -4 -19 -1 -8 3 -5 6 6 6 11 1 17
-2 13 -5z m-170 -103 c-1 -18 -37 -27 -37 -9 0 5 27 26 37 28 1 0 1 -9 0 -19z
m122 -50 c29 -42 30 -45 15 -63 -26 -28 -39 -22 -75 33 l-33 51 25 19 c13 10
27 15 30 11 4 -4 21 -27 38 -51z m56 39 c3 -5 1 -10 -4 -10 -6 0 -11 5 -11 10
0 6 2 10 4 10 3 0 8 -4 11 -10z m-125 -80 c32 -50 32 -63 1 -79 -15 -8 -25 -1
-56 41 l-39 51 23 18 c13 11 27 19 31 19 4 0 22 -22 40 -50z m-62 -52 c23 -36
29 -54 21 -59 -11 -7 -79 81 -79 102 0 24 28 3 58 -43z m210 22 c-14 -22 -38
-34 -47 -24 -3 4 0 9 7 11 7 3 18 11 25 19 18 20 29 17 15 -6z m-142 -139 c-4
-6 -14 -11 -22 -11 -12 0 -13 4 -3 21 7 14 14 18 21 11 6 -6 7 -15 4 -21z"/>
<path d="M3450 3902 c0 -13 52 -84 57 -78 3 3 -7 24 -22 46 -28 40 -35 47 -35
32z"/>
<path d="M3380 3865 c0 -10 53 -86 57 -81 3 2 -4 17 -14 33 -20 32 -43 57 -43
48z"/>
<path d="M4726 4050 c3 -14 10 -29 15 -34 14 -16 10 6 -7 34 l-15 25 7 -25z"/>
<path d="M4160 4031 c0 -5 5 -13 10 -16 6 -3 10 -2 10 4 0 5 -4 13 -10 16 -5
3 -10 2 -10 -4z"/>
<path d="M4200 4016 c0 -2 8 -10 18 -17 15 -13 16 -12 3 4 -13 16 -21 21 -21
13z"/>
<path d="M3615 4000 c3 -5 8 -10 11 -10 2 0 4 5 4 10 0 6 -5 10 -11 10 -5 0
-7 -4 -4 -10z"/>
<path d="M3289 3928 c-24 -17 -58 -42 -76 -55 l-32 -23 39 -59 c54 -81 75 -92
50 -25 -14 35 10 121 46 163 32 39 29 39 -27 -1z m-64 -88 c-3 -5 -10 -10 -16
-10 -5 0 -9 5 -9 10 0 6 7 10 16 10 8 0 12 -4 9 -10z"/>
<path d="M3640 3910 c0 -5 7 -10 15 -10 8 0 15 5 15 10 0 6 -7 10 -15 10 -8 0
-15 -4 -15 -10z"/>
<path d="M3740 3880 c-8 -5 -11 -12 -7 -16 4 -4 13 -2 19 4 15 15 7 24 -12 12z"/>
<path d="M4775 3874 c-28 -7 -86 -27 -130 -43 -62 -24 -71 -29 -40 -25 23 3
61 -1 88 -10 27 -8 56 -12 64 -9 13 5 13 3 2 -15 -14 -22 -47 -22 -64 1 -11
16 -75 28 -75 15 0 -4 -6 -8 -14 -8 -8 0 -17 -9 -21 -20 -5 -15 -14 -18 -40
-16 -18 1 -41 -4 -50 -11 -21 -15 -33 -107 -16 -117 6 -4 11 -31 10 -59 -1
-51 -1 -51 -12 -21 -11 29 -13 30 -29 14 -17 -16 -15 -25 38 -171 69 -194 66
-181 55 -199 -9 -13 -12 -12 -26 5 -11 14 -13 15 -9 4 7 -23 -11 -32 -37 -19
-17 10 -24 8 -39 -8 -10 -10 -39 -25 -64 -33 -25 -7 -46 -17 -46 -21 0 -21 53
-17 121 7 41 15 92 30 114 34 23 4 61 17 86 29 25 12 51 22 58 22 6 0 29 8 49
18 20 9 63 26 95 37 51 17 57 22 57 47 0 18 -5 28 -15 28 -8 0 -15 -5 -15 -11
0 -6 -8 -8 -19 -4 -13 4 -23 0 -29 -12 -7 -12 -23 -17 -54 -17 -59 0 -112 27
-137 70 l-22 37 21 14 c11 8 20 20 19 26 -3 26 2 37 17 37 8 0 13 4 10 9 -3 4
13 23 35 42 60 50 73 80 65 155 -4 39 -3 65 4 69 5 3 15 16 22 28 10 20 10 21
-5 8 -11 -9 -17 -10 -17 -2 0 10 14 15 33 12 4 -1 18 6 30 15 l22 16 -25 -7
c-23 -6 -22 -4 10 24 20 18 27 28 16 24 -12 -4 -23 0 -30 9 -10 13 -18 14 -61
2z m-92 -183 c18 -52 22 -81 10 -81 -5 0 -18 -3 -29 -6 -19 -5 -24 2 -42 56
l-21 61 22 9 c37 15 42 12 60 -39z m64 7 c-3 -8 -6 -5 -6 6 -1 11 2 17 5 13 3
-3 4 -12 1 -19z m-135 -47 c19 -58 16 -69 -21 -73 -20 -3 -26 4 -42 47 -23 64
-23 73 -1 78 35 10 45 1 64 -52z m-74 -33 c20 -53 20 -58 4 -58 -12 0 -22 17
-35 56 -9 30 -14 60 -11 66 9 14 18 1 42 -64z m209 -32 c-19 -19 -49 -24 -54
-9 -2 6 8 13 24 16 15 2 32 5 36 6 5 0 2 -5 -6 -13z m-283 -62 c3 -8 2 -12 -4
-9 -6 3 -10 10 -10 16 0 14 7 11 14 -7z m102 -29 c-21 -16 -32 -13 -21 4 3 6
14 11 23 11 15 -1 15 -2 -2 -15z m87 8 c4 -3 -1 -15 -10 -26 -10 -10 -16 -22
-13 -26 3 -3 -5 -7 -17 -9 -13 -2 -23 -8 -23 -13 0 -5 -5 -9 -10 -9 -17 0 1
54 24 72 22 19 38 22 49 11z m-18 -247 c0 -29 -24 -39 -49 -20 -22 16 -11 38
15 31 11 -3 19 -1 19 4 0 5 3 9 8 9 4 0 7 -11 7 -24z"/>
<path d="M4633 3709 c3 -8 11 -31 18 -51 7 -21 16 -38 20 -38 10 0 -20 88 -33
96 -6 4 -8 1 -5 -7z"/>
<path d="M4562 3680 c0 -8 8 -33 19 -55 10 -22 16 -29 13 -15 -10 38 -32 87
-32 70z"/>
<path d="M3764 3798 c-3 -4 -1 -8 5 -8 6 0 19 -10 31 -22 20 -21 20 -21 35 -2
8 10 15 17 16 14 5 -25 4 -50 -3 -50 -4 0 -8 -4 -8 -9 0 -5 8 -7 19 -4 13 3
20 -2 24 -17 5 -18 9 -20 26 -10 16 8 21 8 21 -1 0 -16 -57 -69 -65 -61 -4 4
-2 -4 5 -17 9 -18 9 -26 -1 -35 -9 -8 -11 -7 -6 7 4 9 4 17 0 17 -7 0 -113
-113 -113 -121 0 -15 29 -29 46 -22 18 7 18 6 1 -11 -16 -17 -18 -17 -43 3
-15 11 -31 17 -38 13 -7 -4 -3 -8 11 -10 12 -2 27 -10 33 -18 18 -21 33 -17
63 14 30 32 36 52 10 31 -10 -7 -7 -1 6 13 13 15 28 25 33 22 5 -3 24 10 42
30 18 20 38 36 44 36 7 0 12 4 12 10 0 5 10 19 23 31 13 13 16 20 7 17 -15 -4
-53 26 -44 35 3 2 -23 34 -56 70 -54 57 -65 65 -96 64 -19 -1 -38 -5 -40 -9z
m190 -157 c3 -5 -1 -11 -9 -15 -15 -6 -29 7 -18 18 9 9 21 8 27 -3z m-35 -30
c9 -6 10 -11 2 -15 -13 -8 -31 1 -31 15 0 11 11 11 29 0z m-24 -41 c-8 -13 7
-13 23 0 7 5 1 -2 -12 -17 -28 -30 -62 -37 -71 -15 -7 18 4 35 19 29 7 -3 19
-1 27 4 18 11 22 11 14 -1z m-65 -40 c0 -5 -4 -10 -10 -10 -5 0 -10 5 -10 10
0 6 5 10 10 10 6 0 10 -4 10 -10z m-15 -20 c4 -6 1 -17 -5 -26 -10 -11 -16
-12 -26 -3 -11 9 -11 15 -3 25 14 17 25 18 34 4z"/>
<path d="M3870 3550 c0 -5 5 -10 10 -10 6 0 10 5 10 10 0 6 -4 10 -10 10 -5 0
-10 -4 -10 -10z"/>
<path d="M4870 3797 c-41 -19 -51 -28 -44 -39 4 -6 10 -5 15 3 7 11 9 10 9 -3
0 -20 26 -48 43 -47 8 0 8 2 -1 6 -10 4 -10 8 0 21 10 12 10 14 1 8 -16 -9
-16 4 -3 38 5 14 8 26 7 25 -1 0 -13 -6 -27 -12z"/>
<path d="M4510 3786 c-19 -7 -37 -21 -39 -31 -3 -17 -1 -16 25 2 16 11 38 25
49 31 26 15 9 14 -35 -2z"/>
<path d="M4045 3750 c10 -11 20 -20 23 -20 3 0 -3 9 -13 20 -10 11 -20 20 -23
20 -3 0 3 -9 13 -20z"/>
<path d="M4530 3760 c-8 -5 -10 -10 -5 -10 6 0 17 5 25 10 8 5 11 10 5 10 -5
0 -17 -5 -25 -10z"/>
<path d="M3760 3746 c0 -8 47 -56 54 -56 4 0 2 9 -4 20 -9 16 -8 20 7 21 12 1
10 3 -7 9 -30 9 -50 12 -50 6z"/>
<path d="M3736 3721 c-4 -6 -1 -14 7 -17 9 -3 18 -17 21 -30 6 -22 26 -26 26
-5 0 17 -48 63 -54 52z"/>
<path d="M3295 3700 c3 -5 8 -10 11 -10 2 0 4 5 4 10 0 6 -5 10 -11 10 -5 0
-7 -4 -4 -10z"/>
<path d="M4822 3669 c2 -6 8 -10 13 -10 5 0 11 4 13 10 2 6 -4 11 -13 11 -9 0
-15 -5 -13 -11z"/>
<path d="M4070 3637 c0 -5 5 -17 10 -28 11 -20 40 -27 40 -9 0 6 -5 10 -11 10
-7 0 -18 8 -25 18 -7 9 -14 13 -14 9z"/>
<path d="M4008 3588 c-22 -23 -23 -32 -2 -24 18 7 57 -21 49 -35 -11 -16 12
-17 33 0 15 11 21 23 16 34 -3 9 -10 14 -15 11 -5 -3 -21 3 -37 14 -26 18 -28
18 -44 0z"/>
<path d="M3963 3540 c-18 -14 -20 -20 -10 -40 7 -13 19 -25 27 -28 12 -4 13
-2 3 9 -7 7 -13 21 -13 31 0 16 5 18 34 13 20 -4 36 -2 40 4 4 6 6 11 4 11 -2
0 -17 4 -34 9 -23 6 -35 4 -51 -9z"/>
<path d="M4127 3519 c9 -9 9 -18 2 -31 -9 -18 -8 -18 10 -8 12 6 20 7 19 3 -2
-4 6 -18 17 -31 11 -12 25 -39 32 -60 l12 -37 -5 40 c-9 66 -38 114 -79 129
-16 6 -17 5 -8 -5z"/>
<path d="M3630 3516 c0 -2 7 -9 15 -16 12 -10 15 -10 15 4 0 9 -7 16 -15 16
-8 0 -15 -2 -15 -4z"/>
<path d="M3980 3511 c0 -5 7 -11 15 -15 8 -3 15 -1 15 3 0 5 -7 11 -15 15 -8
3 -15 1 -15 -3z"/>
<path d="M3855 3500 c-3 -5 -1 -10 4 -10 6 0 11 5 11 10 0 6 -2 10 -4 10 -3 0
-8 -4 -11 -10z"/>
<path d="M3918 3499 c-3 -8 4 -24 15 -36 11 -13 15 -23 9 -23 -6 0 -9 -7 -5
-15 3 -9 -3 -25 -13 -36 l-18 -20 -8 21 c-7 19 5 60 18 60 2 0 0 -9 -6 -19 -7
-13 -7 -22 0 -26 11 -7 12 -5 13 27 1 18 -4 23 -23 23 -18 0 -24 -5 -22 -16 1
-11 -4 -16 -15 -15 -19 1 -24 -23 -8 -40 6 -6 22 -14 36 -17 31 -8 73 30 63
56 -4 12 -1 17 13 17 20 0 43 18 43 34 0 5 -6 1 -14 -9 -13 -17 -15 -17 -43
15 -22 25 -32 30 -35 19z"/>
<path d="M4025 3490 c-3 -5 -2 -10 4 -10 5 0 13 5 16 10 3 6 2 10 -4 10 -5 0
-13 -4 -16 -10z"/>
<path d="M4874 3435 c4 -16 12 -34 18 -40 7 -7 8 -1 4 20 -4 17 -12 35 -18 40
-7 7 -8 1 -4 -20z"/>
<path d="M4118 3430 c-7 -11 -17 -20 -23 -21 -12 -1 -70 -68 -64 -74 7 -7 118
89 118 103 1 19 -17 14 -31 -8z"/>
<path d="M4055 3415 c-15 -14 -24 -29 -21 -33 4 -3 19 6 33 21 15 14 24 29 21
33 -4 3 -19 -6 -33 -21z"/>
<path d="M4150 3408 c-12 -8 -12 -9 3 -4 16 5 21 -5 20 -41 -1 -7 3 -10 8 -7
13 8 11 40 -4 52 -9 8 -17 8 -27 0z"/>
<path d="M4279 3392 c-55 -58 -73 -68 -116 -67 -24 1 -43 -2 -43 -7 0 -4 -6
-8 -13 -8 -14 0 -63 -38 -56 -43 25 -18 63 -26 79 -17 31 17 65 11 88 -13 28
-29 28 -47 1 -47 -33 0 -59 19 -59 42 0 16 -3 19 -11 11 -18 -18 8 -53 44 -60
18 -4 35 -6 40 -5 4 1 7 -7 7 -17 0 -19 42 -37 60 -26 4 3 8 25 7 50 -1 41 3
47 46 85 50 44 56 60 33 80 -8 6 -13 17 -10 24 3 7 -3 19 -13 27 -16 13 -17
12 -4 -4 8 -9 11 -20 8 -24 -4 -3 -16 6 -28 20 -25 33 -28 33 -60 -1z m60 -31
c36 -34 38 -42 11 -66 -20 -18 -21 -18 -55 15 -23 23 -32 37 -25 44 7 7 19 1
38 -17 15 -15 31 -27 35 -27 4 0 -6 14 -23 30 -17 17 -28 35 -25 40 9 14 9 14
44 -19z m-51 -54 c22 -22 30 -39 26 -50 -7 -18 -24 -23 -24 -7 0 16 -42 60
-58 60 -12 0 -12 3 -2 15 17 21 22 19 58 -18z m-40 -27 c13 -11 22 -24 20 -30
-2 -6 -16 3 -33 20 -32 33 -23 40 13 10z"/>
<path d="M4000 3364 c0 -8 5 -12 10 -9 6 4 8 11 5 16 -9 14 -15 11 -15 -7z"/>
<path d="M3960 3325 c-7 -8 -8 -15 -2 -15 5 0 15 7 22 15 7 8 8 15 2 15 -5 0
-15 -7 -22 -15z"/>
<path d="M3992 3309 c-8 -12 -8 -19 -2 -19 5 0 10 4 10 9 0 5 8 11 18 13 15 3
15 4 1 10 -9 4 -20 -1 -27 -13z"/>
<path d="M4813 3148 c-36 -12 -37 -15 -23 -52 5 -14 8 -26 6 -26 -3 0 -13 -3
-23 -6 -13 -4 -14 -3 -5 3 9 7 10 17 3 36 l-10 25 -68 -24 c-37 -14 -101 -37
-141 -51 -42 -14 -70 -29 -65 -34 14 -14 104 -38 120 -32 13 5 13 2 -1 -19
-14 -22 -15 -26 -2 -31 16 -6 41 17 32 31 -3 5 0 9 7 9 7 0 35 16 62 35 28 20
67 41 89 48 29 9 35 15 25 22 -10 7 -5 8 16 4 30 -5 30 -5 5 7 -34 16 -36 35
-5 47 14 5 25 12 25 15 0 6 -8 5 -47 -7z m-86 -108 c-32 -25 -42 -26 -19 -1 9
11 23 20 31 20 7 1 2 -8 -12 -19z"/>
<path d="M4861 3121 c-9 -16 -8 -18 8 -14 12 3 17 11 14 19 -7 18 -10 18 -22
-5z"/>
<path d="M4880 3040 c0 -5 5 -10 10 -10 6 0 10 5 10 10 0 6 -4 10 -10 10 -5 0
-10 -4 -10 -10z"/>
<path d="M4847 3034 c-3 -6 -4 -27 -2 -47 1 -21 -2 -38 -9 -40 -6 -2 0 -2 14
0 37 6 39 14 21 57 -10 22 -20 35 -24 30z"/>
<path d="M4794 2998 c3 -13 6 -26 6 -30 0 -15 30 -8 30 6 0 26 -12 46 -27 46
-11 0 -14 -6 -9 -22z"/>
<path d="M4754 2994 c3 -9 6 -24 6 -35 0 -11 7 -19 16 -19 12 0 15 6 10 23 -3
12 -6 28 -6 35 0 6 -7 12 -16 12 -11 0 -14 -5 -10 -16z"/>
<path d="M4698 2987 c-29 -11 -35 -22 -18 -32 6 -3 10 0 11 7 1 7 4 2 8 -12 6
-19 13 -24 32 -22 23 3 23 2 4 -13 -19 -16 -19 -16 5 -9 14 3 27 8 29 10 7 6
-11 24 -23 24 -8 0 -16 10 -19 23 -6 22 -6 22 10 2 14 -18 15 -18 9 -2 -3 10
-6 23 -6 28 0 11 -6 10 -42 -4z"/>
<path d="M4790 2930 c-9 -6 -10 -10 -3 -10 6 0 15 5 18 10 8 12 4 12 -15 0z"/>
<path d="M4870 2880 c0 -5 4 -10 9 -10 6 0 13 5 16 10 3 6 -1 10 -9 10 -9 0
-16 -4 -16 -10z"/>
<path d="M4810 2860 c-13 -8 -12 -10 3 -10 9 0 17 5 17 10 0 12 -1 12 -20 0z"/>
<path d="M4875 2849 c-4 -6 -5 -13 -2 -16 7 -7 27 6 27 18 0 12 -17 12 -25 -2z"/>
<path d="M4825 2830 c-19 -8 -19 -9 3 -9 12 -1 22 4 22 9 0 6 -1 10 -2 9 -2 0
-12 -4 -23 -9z"/>
<path d="M6822 5904 c-14 -15 -7 -17 22 -5 15 6 16 9 5 13 -8 3 -20 -1 -27 -8z"/>
<path d="M6770 5880 c-8 -5 -10 -10 -5 -10 6 0 17 5 25 10 8 5 11 10 5 10 -5
0 -17 -5 -25 -10z"/>
<path d="M6941 5878 c0 -7 4 -22 9 -33 7 -17 9 -15 9 13 1 17 -3 32 -9 32 -5
0 -10 -6 -9 -12z"/>
<path d="M6880 5860 c0 -5 5 -10 10 -10 6 0 10 5 10 10 0 6 -4 10 -10 10 -5 0
-10 -4 -10 -10z"/>
<path d="M6848 5854 c-4 -5 -5 -25 -4 -44 2 -19 -2 -39 -8 -43 -6 -5 0 -5 14
-2 37 11 39 16 21 59 -10 22 -20 36 -23 30z"/>
<path d="M6794 5818 c3 -13 6 -26 6 -30 0 -5 9 -8 19 -8 17 0 18 3 8 30 -14
36 -43 42 -33 8z"/>
<path d="M6754 5814 c3 -9 6 -24 6 -35 0 -10 7 -19 15 -19 16 0 18 12 9 48 -4
12 -13 22 -21 22 -10 0 -13 -6 -9 -16z"/>
<path d="M6697 5804 c-15 -8 -25 -20 -21 -26 4 -7 9 -6 14 3 6 8 9 5 12 -12 2
-19 8 -23 28 -21 24 3 24 2 5 -13 -19 -16 -19 -16 5 -9 38 10 46 22 17 29 -14
4 -27 16 -31 28 -5 22 -5 22 11 2 14 -18 15 -18 9 -2 -3 10 -6 23 -6 28 0 12
-10 11 -43 -7z"/>
<path d="M6645 5800 c-4 -6 -10 -8 -14 -5 -5 2 -16 -4 -26 -15 -10 -11 -26
-20 -35 -20 -10 0 -24 -7 -31 -16 -11 -13 -10 -23 3 -61 16 -44 16 -44 -9 -54
-38 -14 -41 -12 -54 31 -7 22 -16 40 -20 40 -5 0 -1 -19 7 -42 15 -44 12 -52
-22 -62 -17 -5 -24 0 -34 24 -7 16 -16 30 -21 30 -4 0 -1 -16 7 -35 13 -33 13
-35 -5 -35 -13 0 -20 9 -25 31 -6 31 -28 32 -25 1 1 -10 0 -33 -1 -52 l-2 -35
-11 40 c-11 37 -14 40 -33 30 -21 -10 -21 -10 11 -105 18 -52 37 -107 43 -122
12 -29 -3 -78 -25 -78 -6 0 -20 -3 -30 -6 -16 -6 -16 -5 2 9 11 9 15 17 9 17
-6 0 -17 -7 -24 -15 -10 -12 -10 -18 1 -31 10 -13 10 -17 -1 -24 -8 -5 -12
-11 -9 -15 5 -5 255 74 337 107 38 15 42 33 7 36 -14 1 -25 -3 -25 -8 0 -6
-10 -10 -23 -10 -13 0 -28 -5 -35 -12 -14 -14 -37 3 -58 43 -16 33 -20 84 -4
59 8 -13 10 -12 10 3 0 10 7 20 15 23 14 6 31 41 27 57 -2 5 3 7 10 5 7 -3 33
16 57 40 l44 45 -6 73 c-6 66 -5 73 18 98 13 14 20 26 15 26 -5 0 -12 -5 -15
-10z m-48 -194 c-18 -18 -42 -24 -45 -11 -2 6 7 13 20 17 36 10 40 9 25 -6z
m-290 -48 c-3 -8 -6 -5 -6 6 -1 11 2 17 5 13 3 -3 4 -12 1 -19z m203 -39 c0
-5 -7 -12 -16 -16 -8 -3 -13 -12 -10 -19 4 -11 -52 -50 -60 -41 -10 10 16 64
34 72 12 5 22 13 22 17 0 4 7 5 15 2 8 -4 15 -10 15 -15z m-85 1 c-3 -5 -15
-15 -26 -21 -19 -10 -20 -9 -9 10 6 12 18 21 26 21 8 0 12 -4 9 -10z"/>
<path d="M6898 5717 c-16 -6 -28 -15 -28 -20 0 -5 6 -6 13 -3 6 3 20 9 30 12
9 4 17 10 17 15 0 5 -1 9 -2 8 -2 -1 -15 -6 -30 -12z"/>
<path d="M6494 5707 c3 -11 9 -30 12 -43 3 -13 10 -24 15 -24 10 0 -9 61 -24
75 -7 7 -8 4 -3 -8z"/>
<path d="M6670 5685 c0 -8 7 -15 15 -15 8 0 15 7 15 15 0 8 -7 15 -15 15 -8 0
-15 -7 -15 -15z"/>
<path d="M6820 5685 c-15 -8 -19 -14 -10 -14 18 -1 46 16 40 23 -3 2 -16 -2
-30 -9z"/>
<path d="M6940 5690 c0 -5 5 -10 11 -10 5 0 7 5 4 10 -3 6 -8 10 -11 10 -2 0
-4 -4 -4 -10z"/>
<path d="M6910 5679 c0 -5 5 -7 10 -4 6 3 10 8 10 11 0 2 -4 4 -10 4 -5 0 -10
-5 -10 -11z"/>
<path d="M6425 5660 c12 -41 27 -60 20 -25 -4 17 -11 35 -17 40 -7 7 -8 2 -3
-15z"/>
<path d="M6875 5669 c-4 -6 -5 -13 -2 -16 7 -7 27 6 27 18 0 12 -17 12 -25 -2z"/>
<path d="M6820 5650 c-8 -5 -12 -12 -9 -15 8 -8 39 5 39 16 0 11 -11 11 -30
-1z"/>
<path d="M6750 5630 c0 -5 11 -10 25 -10 14 0 25 5 25 10 0 6 -11 10 -25 10
-14 0 -25 -4 -25 -10z"/>
<path d="M6933 5606 c-25 -12 -44 -54 -38 -83 2 -10 4 -20 4 -23 1 -3 6 2 11
10 8 12 10 11 10 -7 0 -12 8 -27 18 -32 18 -9 19 -5 20 69 0 44 0 79 -1 79 -1
-1 -12 -6 -24 -13z"/>
<path d="M6750 5495 c0 -12 24 -55 31 -55 4 0 1 14 -7 30 -14 27 -24 38 -24
25z"/>
<path d="M6901 5462 c5 -16 20 -39 32 -50 l23 -21 2 23 c1 13 -6 30 -16 37
-15 13 -16 12 -4 -3 8 -10 9 -18 3 -22 -11 -7 -33 27 -29 45 2 6 -3 14 -9 16
-10 3 -10 -3 -2 -25z"/>
<path d="M6721 5475 c0 -5 6 -21 14 -35 8 -14 14 -20 14 -15 0 6 -6 21 -14 35
-8 14 -14 21 -14 15z"/>
<path d="M6046 5418 c2 -18 1 -24 -2 -13 -10 36 -20 36 -90 0 -110 -57 -110
-48 10 -168 58 -59 106 -103 106 -97 0 5 -4 12 -10 15 -5 3 -10 15 -10 25 0
10 -16 31 -35 46 -22 17 -35 34 -34 48 1 12 3 15 5 6 3 -8 18 -23 35 -32 16
-10 35 -31 41 -48 5 -17 14 -30 19 -28 16 6 169 161 169 172 -1 13 -77 96 -89
96 -5 0 -14 -6 -21 -14 -6 -8 -17 -13 -25 -10 -7 3 -16 1 -20 -5 -10 -18 -23
-13 -27 11 -5 36 -25 32 -22 -4z m30 -54 c-25 -25 -46 -49 -46 -54 0 -4 -7
-11 -16 -14 -10 -4 -3 10 15 31 45 54 74 83 84 83 5 0 -12 -21 -37 -46z m116
14 c34 -38 34 -40 7 -64 -20 -18 -21 -18 -53 16 l-34 35 21 23 c11 12 23 22
25 22 3 0 18 -14 34 -32z m-55 -58 c28 -27 31 -33 21 -50 -20 -31 -34 -30 -68
5 -28 29 -30 35 -18 54 17 28 27 27 65 -9z m-43 -67 c11 -15 15 -28 9 -34 -12
-12 -78 55 -69 70 9 14 34 -2 60 -36z"/>
<path d="M6165 5350 c16 -16 31 -28 33 -25 6 6 -40 55 -52 55 -6 0 3 -13 19
-30z"/>
<path d="M6105 5300 c16 -16 33 -30 39 -30 5 0 -3 14 -19 30 -16 17 -33 30
-39 30 -5 0 3 -13 19 -30z"/>
<path d="M6210 5412 c6 -13 14 -21 18 -18 3 4 -2 14 -12 24 -18 16 -18 16 -6
-6z"/>
<path d="M6235 5299 c-12 -18 3 -22 20 -5 14 14 14 16 1 16 -8 0 -18 -5 -21
-11z"/>
<path d="M6685 5254 c-66 -24 -103 -42 -83 -39 21 3 60 -1 88 -9 28 -8 58 -13
68 -10 12 4 10 -1 -7 -15 -29 -26 -36 -26 -53 -3 -14 20 -78 38 -78 22 0 -6
-6 -10 -14 -10 -8 0 -18 -9 -21 -20 -4 -12 -14 -19 -23 -18 -11 2 -18 -5 -20
-19 -3 -18 1 -22 24 -20 24 2 28 -4 45 -52 20 -58 17 -69 -20 -73 -19 -2 -26
4 -37 32 -7 19 -13 27 -13 18 -1 -9 3 -28 9 -42 6 -17 6 -26 0 -26 -6 0 -10
-13 -10 -29 0 -25 3 -28 23 -24 l22 5 -23 -21 c-22 -19 -23 -24 -21 -181 l2
-162 31 6 c17 4 49 15 71 25 22 11 51 22 65 26 14 4 39 13 55 20 17 7 66 26
110 43 76 28 80 31 83 61 2 23 -2 37 -15 46 -27 20 -37 6 -11 -14 l22 -19 -42
-7 c-23 -4 -42 -11 -42 -17 0 -6 -7 -7 -16 -4 -9 3 -27 -3 -41 -14 -47 -37
-146 -6 -182 56 l-22 37 21 14 c11 8 20 20 19 26 -3 26 2 37 17 37 8 0 13 4 9
9 -3 5 15 26 39 46 57 47 70 79 62 154 -4 37 -3 62 4 66 5 3 15 16 22 28 10
20 10 21 -5 8 -11 -9 -17 -10 -17 -2 0 11 13 15 36 12 6 -1 18 6 25 16 12 15
12 16 -6 9 -12 -4 -6 5 15 23 29 24 31 29 13 24 -15 -3 -25 0 -29 11 -8 22
-12 21 -149 -30z m-2 -153 c18 -52 22 -81 10 -81 -5 0 -18 -3 -29 -6 -19 -5
-24 2 -42 56 l-21 61 22 9 c37 15 42 12 60 -39z m63 -106 c-16 -16 -56 -20
-56 -6 0 5 12 12 28 14 15 2 31 5 35 6 5 0 2 -6 -7 -14z m-86 -84 c0 -5 -7
-14 -15 -21 -8 -7 -13 -16 -10 -20 4 -7 -48 -40 -62 -40 -11 0 13 58 31 72 22
19 56 24 56 9z m-25 -245 c0 -29 -24 -39 -49 -20 -22 16 -11 38 15 31 11 -3
19 -1 19 4 0 5 3 9 8 9 4 0 7 -11 7 -24z"/>
<path d="M6633 5119 c3 -8 11 -31 18 -51 7 -21 16 -38 20 -38 10 0 -20 88 -33
96 -6 4 -8 1 -5 -7z"/>
<path d="M5764 5208 c-3 -4 6 -10 20 -14 14 -3 25 -9 24 -13 -2 -17 3 -25 10
-14 13 21 35 19 37 -4 1 -13 -2 -23 -7 -23 -4 0 -8 -4 -8 -9 0 -5 9 -7 20 -4
14 4 20 0 20 -12 0 -13 6 -16 25 -11 17 4 25 2 25 -7 0 -16 -56 -68 -64 -60
-3 3 0 -8 6 -25 7 -17 17 -28 22 -25 6 3 6 0 -1 -7 -14 -15 -34 -4 -26 15 3 8
2 15 -2 15 -9 0 -115 -112 -115 -121 0 -15 29 -29 46 -22 18 7 18 6 1 -11 -16
-17 -19 -17 -36 -2 -10 9 -24 16 -33 16 -8 0 -51 -36 -94 -81 -43 -44 -132
-133 -197 -198 l-117 -116 105 -105 c100 -100 105 -103 105 -74 0 19 -11 43
-30 64 -16 19 -29 41 -30 48 -1 31 33 -1 45 -43 l9 -30 4 34 c3 27 -3 40 -27
65 -46 48 -41 78 6 34 13 -12 23 -17 23 -11 0 5 -9 18 -20 28 -16 14 -17 21
-8 32 8 10 13 11 18 3 4 -6 8 17 9 51 1 34 5 67 8 73 4 6 -3 2 -15 -8 -12 -11
-25 -17 -28 -14 -3 4 8 14 25 24 17 10 31 22 31 25 0 11 83 65 111 72 13 4 35
17 49 29 14 13 32 24 40 26 8 1 56 45 107 97 50 52 96 95 102 95 10 0 15 14
12 33 0 4 6 7 14 7 21 0 19 17 -5 30 -11 6 -20 15 -20 19 0 18 -60 72 -71 65
-8 -5 -9 -3 -4 5 4 8 -3 24 -20 41 -20 21 -36 28 -62 27 -19 -1 -36 -4 -39 -9z
m190 -157 c3 -5 -1 -11 -9 -15 -15 -6 -29 7 -18 18 9 9 21 8 27 -3z m-32 -43
c-11 -11 -32 -3 -32 12 0 4 9 6 21 3 13 -4 17 -9 11 -15z m8 -21 c0 -1 -26
-27 -57 -57 l-58 -55 55 58 c50 53 60 62 60 54z m-67 -21 c3 -8 0 -19 -7 -26
-10 -8 -15 -6 -20 6 -7 17 0 34 14 34 4 0 10 -6 13 -14z m-33 -26 c0 -5 -4
-10 -10 -10 -5 0 -10 5 -10 10 0 6 5 10 10 10 6 0 10 -4 10 -10z m-15 -20 c4
-6 1 -17 -5 -26 -10 -11 -16 -12 -26 -3 -11 9 -11 15 -3 25 14 17 25 18 34 4z
m-315 -325 c14 -18 13 -19 -1 -8 -13 11 -19 9 -34 -7 -22 -24 -35 -102 -24
-144 4 -17 11 -42 14 -56 5 -17 0 -13 -14 12 -23 42 -28 109 -10 155 9 24 50
78 54 70 0 -1 7 -11 15 -22z"/>
<path d="M6870 5207 c-41 -19 -51 -28 -44 -39 4 -7 9 -6 14 2 5 8 10 3 14 -13
6 -24 41 -46 53 -33 4 3 -1 6 -10 6 -18 0 -21 19 -11 58 8 27 24 29 24 3 0
-11 5 -23 10 -26 6 -4 10 7 10 24 0 34 -15 39 -60 18z"/>
<path d="M5585 5191 c-3 -6 -14 -11 -24 -11 -10 0 -26 -9 -36 -20 -10 -11 -22
-20 -27 -20 -17 0 -55 -35 -51 -47 2 -6 -5 -17 -17 -23 -20 -11 -21 -10 -15
12 7 22 7 22 -11 7 -11 -9 -31 -19 -46 -23 -31 -7 -36 -27 -13 -46 8 -7 15
-16 15 -21 0 -10 93 -142 121 -173 11 -11 19 -26 19 -34 0 -8 6 -12 15 -9 8 4
17 2 21 -4 9 -15 32 21 26 43 -2 10 -11 19 -18 19 -8 1 -18 3 -24 4 -5 1 -13
3 -16 4 -4 0 -1 8 6 16 7 9 19 14 26 11 9 -3 11 0 7 11 -5 13 -2 15 11 10 10
-4 20 -7 22 -7 3 0 0 -9 -6 -20 -14 -25 -3 -25 35 0 17 11 37 20 47 20 11 0
15 6 11 20 -4 16 -14 20 -44 20 -31 0 -47 7 -75 33 -34 31 -36 35 -23 58 7 13
12 28 11 33 -2 5 0 16 4 25 4 9 8 22 10 29 1 7 14 29 29 48 15 19 25 38 22 40
-3 3 -8 1 -12 -5z m-55 -80 c0 -6 -5 -13 -10 -16 -6 -4 -9 -12 -8 -18 1 -7
-10 -25 -25 -41 l-27 -29 0 37 c0 27 7 43 23 57 24 20 47 25 47 10z"/>
<path d="M5760 5156 c0 -8 47 -56 54 -56 4 0 2 9 -4 20 -9 16 -8 20 7 21 12 1
10 3 -7 9 -30 9 -50 12 -50 6z"/>
<path d="M6089 5143 c-13 -16 -12 -17 4 -4 9 7 17 15 17 17 0 8 -8 3 -21 -13z"/>
<path d="M5753 5096 c12 -18 25 -32 30 -29 11 7 8 18 -12 41 -29 34 -42 26
-18 -12z"/>
<path d="M6566 5080 c4 -14 13 -38 20 -55 11 -24 13 -25 8 -5 -4 14 -13 39
-20 55 -11 24 -13 25 -8 5z"/>
<path d="M6822 5079 c2 -6 8 -10 13 -10 5 0 11 4 13 10 2 6 -4 11 -13 11 -9 0
-15 -5 -13 -11z"/>
<path d="M6070 5047 c0 -5 5 -17 10 -28 11 -20 40 -27 40 -9 0 6 -5 10 -11 10
-7 0 -18 8 -25 18 -7 9 -14 13 -14 9z"/>
<path d="M6910 5028 c-25 -9 -25 -10 -5 -24 47 -36 55 -37 55 -5 0 33 -15 42
-50 29z"/>
<path d="M6008 4998 c-23 -23 -23 -31 0 -24 12 4 26 -2 38 -16 l19 -22 -25 14
c-32 19 -49 19 -77 -1 -19 -13 -20 -18 -10 -39 7 -13 18 -25 25 -28 10 -3 10
2 -3 21 -20 30 -9 36 51 27 47 -7 89 16 78 44 -3 9 -10 13 -15 10 -5 -3 -21 3
-37 14 -26 18 -28 18 -44 0z"/>
<path d="M5197 4928 c-4 -12 -9 -19 -13 -15 -4 4 -16 -1 -27 -10 -15 -13 -21
-15 -24 -5 -3 6 -9 12 -15 12 -6 0 -7 -7 -4 -16 3 -8 2 -12 -4 -9 -6 4 -10
-22 -10 -69 0 -62 3 -77 18 -84 9 -5 23 -7 30 -5 6 3 12 -3 12 -12 0 -9 5 -13
10 -10 6 3 10 -1 10 -11 0 -12 -4 -14 -12 -7 -7 6 -25 13 -40 15 -26 5 -27 3
-23 -31 2 -20 4 -38 4 -40 1 -2 10 4 20 13 13 12 21 14 26 6 3 -5 11 -7 17 -4
6 4 15 0 20 -7 8 -11 9 -10 4 3 -3 10 6 29 25 49 16 17 29 37 29 44 0 7 16 37
35 66 19 30 35 61 35 70 0 10 -18 26 -45 39 -25 12 -45 26 -45 31 0 19 -28 8
-33 -13z m103 -69 c0 -13 -18 -20 -25 -9 -9 14 -65 42 -65 32 0 -5 16 -16 35
-25 34 -16 47 -37 24 -37 -15 0 -79 40 -79 49 0 3 7 16 15 29 l16 22 39 -26
c22 -15 40 -30 40 -35z m-128 29 c-7 -7 -12 -8 -12 -2 0 14 12 26 19 19 2 -3
-1 -11 -7 -17z m-32 -52 c0 -3 -4 -8 -10 -11 -5 -3 -10 -1 -10 4 0 6 5 11 10
11 6 0 10 -2 10 -4z m84 -17 c32 -18 34 -23 24 -45 -13 -27 -36 -32 -44 -9 -8
19 -24 20 -24 1 0 -22 -16 -28 -31 -10 -10 12 -10 15 1 12 7 -2 15 3 17 10 3
6 0 12 -6 12 -15 0 -14 23 1 38 16 16 21 15 62 -9z m-84 -80 c0 -6 -4 -7 -10
-4 -5 3 -10 11 -10 16 0 6 5 7 10 4 6 -3 10 -11 10 -16z m67 -41 c-3 -8 -6 -5
-6 6 -1 11 2 17 5 13 3 -3 4 -12 1 -19z"/>
<path d="M5170 4816 c0 -8 10 -18 23 -22 12 -4 25 -12 29 -18 5 -7 8 -6 8 4 0
9 -13 24 -30 33 -25 15 -30 16 -30 3z"/>
<path d="M6129 4926 c10 -12 8 -19 -8 -35 -25 -25 -28 -40 -3 -19 26 22 46 33
38 20 -3 -6 2 -16 13 -22 11 -5 27 -31 35 -58 l15 -47 -5 40 c-9 66 -38 114
-78 129 -16 5 -17 4 -7 -8z"/>
<path d="M5980 4921 c0 -5 7 -11 15 -15 8 -3 15 -1 15 3 0 5 -7 11 -15 15 -8
3 -15 1 -15 -3z"/>
<path d="M5917 4903 c-4 -3 3 -17 15 -30 12 -13 16 -23 10 -23 -6 0 -9 -7 -5
-16 3 -8 -4 -25 -17 -40 -13 -13 -19 -24 -13 -24 19 0 54 47 47 63 -4 12 -1
17 13 17 20 0 43 18 43 34 0 5 -6 1 -14 -10 -14 -18 -15 -18 -36 9 -22 28 -32
32 -43 20z"/>
<path d="M6025 4900 c-3 -5 -2 -10 4 -10 5 0 13 5 16 10 3 6 2 10 -4 10 -5 0
-13 -4 -16 -10z"/>
<path d="M5877 4864 c-3 -3 -3 -12 -1 -19 3 -8 -1 -12 -12 -12 -20 2 -28 -32
-9 -39 27 -11 26 -37 -2 -67 l-28 -30 32 23 c36 26 41 34 39 72 -1 20 3 27 13
25 10 -1 15 6 15 22 0 17 -6 25 -20 27 -12 2 -24 1 -27 -2z m36 -19 c-3 -9 -8
-14 -10 -11 -3 3 -2 9 2 15 9 16 15 13 8 -4z"/>
<path d="M6874 4850 c3 -14 6 -31 6 -37 0 -7 5 -13 11 -13 13 0 3 50 -13 65
-8 7 -9 2 -4 -15z"/>
<path d="M6912 4845 c12 -27 34 -35 24 -9 -3 9 -6 20 -6 25 0 5 -7 9 -15 9
-12 0 -13 -4 -3 -25z"/>
<path d="M6118 4840 c-7 -11 -17 -20 -23 -21 -12 -1 -69 -68 -63 -74 2 -2 27
15 55 40 40 35 53 41 63 32 10 -10 12 -8 6 6 -3 10 -6 23 -6 28 0 16 -19 10
-32 -11z"/>
<path d="M6054 4826 c-16 -13 -25 -28 -21 -32 4 -4 20 4 34 19 35 34 24 45
-13 13z"/>
<path d="M6173 4793 c1 -19 6 -28 11 -23 6 6 5 18 -2 32 -10 22 -10 21 -9 -9z"/>
<path d="M5826 4788 c4 -13 8 -31 8 -40 0 -16 2 -16 18 -1 18 16 17 17 -4 40
-27 29 -31 29 -22 1z"/>
<path d="M6007 4783 c-4 -3 -7 -11 -7 -17 0 -6 5 -5 12 2 6 6 9 14 7 17 -3 3
-9 2 -12 -2z"/>
<path d="M6225 4753 c-12 -15 -28 -19 -61 -18 -24 1 -44 -2 -44 -7 0 -6 -6 -8
-13 -5 -16 6 -69 -54 -74 -82 -1 -11 -3 -24 -4 -28 -7 -39 5 -75 34 -107 18
-20 39 -36 45 -36 8 0 10 -9 6 -25 -7 -30 0 -31 76 -6 l55 18 1 104 c1 92 -1
107 -19 127 -21 22 -11 32 11 10 9 -9 12 -8 12 5 0 9 -7 17 -17 17 -14 0 -14
2 2 20 10 11 16 23 12 26 -3 3 -13 -3 -22 -13z m-7 -103 c31 -29 31 -93 0
-114 -50 -36 -128 1 -128 59 0 35 42 75 78 75 15 0 38 -9 50 -20z"/>
<path d="M6147 4653 c-17 -27 47 -94 74 -77 17 10 9 20 -23 29 -22 7 -34 18
-38 35 -4 15 -9 20 -13 13z"/>
<path d="M6110 4611 c0 -18 69 -78 81 -71 7 5 -2 20 -27 44 -39 36 -54 43 -54
27z"/>
<path d="M5440 4740 c0 -5 -7 -6 -17 -3 -11 4 -14 3 -9 -5 4 -7 0 -19 -8 -28
-15 -14 -20 -11 -17 9 1 5 -3 5 -9 2 -6 -4 -9 -14 -6 -22 4 -9 -1 -21 -11 -28
-10 -8 -15 -16 -12 -19 6 -7 47 29 89 77 13 15 18 27 12 27 -7 0 -12 -4 -12
-10z"/>
<path d="M5950 4725 c-13 -14 -19 -25 -13 -25 5 0 20 11 33 25 13 14 19 25 13
25 -5 0 -20 -11 -33 -25z"/>
<path d="M5978 4706 c-15 -18 -25 -36 -22 -39 7 -7 44 29 44 43 0 6 7 10 16
10 8 0 12 5 9 10 -10 15 -18 11 -47 -24z"/>
<path d="M5895 4670 c-10 -11 -14 -20 -9 -20 12 1 44 25 44 34 0 12 -17 6 -35
-14z"/>
<path d="M5291 4664 c0 -11 3 -14 6 -6 3 7 2 16 -1 19 -3 4 -6 -2 -5 -13z"/>
<path d="M5920 4645 c-17 -21 -9 -27 13 -10 10 7 14 16 9 19 -5 3 -15 -1 -22
-9z"/>
<path d="M5265 4620 c-3 -5 -1 -10 4 -10 6 0 11 5 11 10 0 6 -2 10 -4 10 -3 0
-8 -4 -11 -10z"/>
<path d="M5314 4608 l-19 -23 23 19 c12 11 22 21 22 23 0 8 -8 2 -26 -19z"/>
<path d="M5876 4604 c-11 -7 -16 -17 -13 -21 4 -4 15 1 24 10 22 21 14 30 -11
11z"/>
<path d="M5255 4577 c-19 -23 -45 -67 -40 -67 10 0 49 40 39 41 -5 0 1 4 14
10 13 5 20 13 17 19 -8 13 -18 12 -30 -3z"/>
<path d="M6813 4558 c-36 -12 -37 -15 -23 -52 8 -23 6 -26 -25 -36 -18 -6 -39
-18 -45 -26 -7 -7 -16 -14 -21 -14 -17 0 31 40 56 46 29 7 28 5 16 38 l-10 24
-68 -24 c-37 -14 -87 -32 -110 -40 -34 -13 -43 -21 -43 -39 0 -29 13 -38 51
-37 26 1 27 -1 16 -19 -9 -15 -19 -19 -39 -15 -28 5 -28 5 -28 -45 0 -28 5
-59 10 -69 7 -13 7 -21 0 -25 -5 -3 -10 -12 -10 -20 0 -11 7 -12 32 -4 42 12
42 12 24 -6 -8 -8 -20 -15 -26 -15 -6 0 -8 -5 -4 -12 5 -9 2 -9 -9 1 -15 12
-17 10 -17 -24 l0 -37 46 48 47 47 -6 74 c-3 43 -1 75 4 79 6 3 8 12 6 19 -10
23 31 10 53 -18 16 -21 27 -26 44 -21 21 6 21 6 1 -10 -24 -18 -17 -20 22 -5
22 8 24 12 13 19 -12 8 -12 10 4 10 14 0 17 5 12 23 -3 12 -6 28 -6 35 0 6 -6
12 -14 12 -9 0 -13 -10 -12 -31 1 -38 -19 -50 -27 -17 -6 22 -5 22 8 4 11 -14
15 -16 15 -5 0 30 -16 42 -39 29 -12 -6 -27 -10 -34 -7 -18 6 74 64 133 83 52
17 53 18 30 28 -31 14 -39 46 -11 46 11 0 23 5 26 10 7 12 1 11 -42 -2z"/>
<path d="M6860 4530 c-11 -20 -4 -26 15 -12 14 10 17 32 5 32 -5 0 -14 -9 -20
-20z"/>
<path d="M5921 4473 c0 -11 59 -56 59 -46 0 5 -13 19 -30 31 -16 13 -30 19
-29 15z"/>
<path d="M6941 4468 c0 -7 4 -22 9 -33 7 -17 9 -15 9 13 1 17 -3 32 -9 32 -5
0 -10 -6 -9 -12z"/>
<path d="M6880 4450 c0 -5 5 -10 10 -10 6 0 10 5 10 10 0 6 -4 10 -10 10 -5 0
-10 -4 -10 -10z"/>
<path d="M5910 4425 c13 -14 28 -25 33 -25 6 0 0 11 -13 25 -13 14 -28 25 -33
25 -6 0 0 -11 13 -25z"/>
<path d="M6848 4445 c-3 -6 -5 -27 -4 -47 1 -21 -3 -39 -9 -41 -5 -2 1 -2 15
0 14 3 30 9 35 14 7 7 3 8 -10 3 -16 -6 -18 -5 -8 7 8 11 8 21 -1 44 -7 16
-15 25 -18 20z"/>
<path d="M6794 4408 c3 -13 6 -26 6 -30 0 -15 30 -8 30 6 0 26 -12 46 -27 46
-11 0 -14 -6 -9 -22z"/>
<path d="M6895 4410 c-3 -5 -1 -10 4 -10 6 0 11 5 11 10 0 6 -2 10 -4 10 -3 0
-8 -4 -11 -10z"/>
<path d="M5158 4398 c5 -5 16 -8 23 -6 8 3 3 7 -10 11 -17 4 -21 3 -13 -5z"/>
<path d="M6228 4347 c-15 -11 -15 -16 2 -57 19 -44 19 -44 19 -13 1 17 -5 33
-11 36 -10 3 -10 8 1 21 17 21 10 30 -11 13z"/>
<path d="M6898 4308 c-16 -5 -28 -14 -28 -20 0 -5 6 -7 13 -4 6 3 20 9 30 12
9 4 17 10 17 15 0 5 -1 9 -2 8 -2 0 -15 -5 -30 -11z"/>
<path d="M5256 4277 c-31 -40 -34 -77 -8 -77 19 0 29 -44 12 -55 -6 -3 -10
-21 -10 -38 0 -18 -7 -41 -15 -51 -14 -19 -15 -19 -15 7 0 38 -20 76 -36 70
-8 -3 -14 0 -14 7 0 7 -7 10 -15 6 -13 -4 -13 -2 -5 14 13 24 13 27 -2 27 -7
0 -21 4 -30 8 -16 6 -18 -1 -18 -75 0 -72 2 -81 15 -70 22 18 20 -8 -2 -33
-17 -20 -17 -20 2 -14 19 7 19 6 3 -7 -11 -8 -18 -27 -18 -46 l0 -32 33 24
c17 13 68 46 112 73 44 27 91 60 105 72 14 13 31 23 38 23 30 0 3 24 -41 37
-49 14 -54 21 -37 54 13 24 23 24 82 -3 61 -28 67 -52 7 -31 -23 7 -44 12 -46
9 -3 -2 13 -10 36 -17 23 -7 41 -18 41 -26 0 -12 3 -12 15 1 9 8 23 12 32 9
14 -6 14 -4 0 18 -10 15 -42 34 -82 49 -60 23 -79 40 -56 55 5 3 12 1 16 -5 3
-5 11 -10 17 -10 6 0 1 11 -12 25 -18 19 -26 22 -37 14 -7 -6 -13 -20 -13 -30
0 -11 -7 -19 -16 -19 -10 0 -14 -6 -10 -15 6 -17 -2 -19 -23 -6 -11 7 -9 13 7
29 11 11 18 23 15 26 -3 3 0 12 7 21 8 9 9 15 2 15 -6 0 -22 -15 -36 -33z m77
-141 c23 -18 22 -30 -3 -23 -13 3 -20 0 -20 -9 0 -8 -10 -14 -25 -14 -29 0
-30 3 -9 35 18 28 31 30 57 11z"/>
<path d="M6670 4275 c0 -8 7 -15 15 -15 8 0 15 7 15 15 0 8 -7 15 -15 15 -8 0
-15 -7 -15 -15z"/>
<path d="M6820 4275 c-15 -8 -19 -14 -10 -14 18 -1 46 16 40 23 -3 2 -16 -2
-30 -9z"/>
<path d="M6940 4280 c0 -5 5 -10 11 -10 5 0 7 5 4 10 -3 6 -8 10 -11 10 -2 0
-4 -4 -4 -10z"/>
<path d="M6910 4269 c0 -5 5 -7 10 -4 6 3 10 8 10 11 0 2 -4 4 -10 4 -5 0 -10
-5 -10 -11z"/>
<path d="M6120 4256 c0 -11 -5 -15 -12 -10 -7 4 -4 -2 6 -14 24 -27 24 -27 20
4 -3 30 -14 46 -14 20z"/>
<path d="M6875 4259 c-4 -6 -5 -13 -2 -16 7 -7 27 6 27 18 0 12 -17 12 -25 -2z"/>
<path d="M6828 4242 c-10 -2 -18 -8 -18 -13 0 -11 11 -11 30 1 18 11 11 18
-12 12z"/>
<path d="M5196 4213 c-6 -14 -5 -15 5 -6 7 7 10 15 7 18 -3 3 -9 -2 -12 -12z"/>
<path d="M5830 4190 c0 -33 4 -40 19 -40 10 0 21 -7 25 -15 3 -9 12 -12 22 -8
12 4 15 3 10 -5 -5 -8 2 -12 19 -12 58 0 138 -80 122 -122 -3 -7 -6 -3 -6 9
-1 13 -12 30 -26 39 -22 14 -32 15 -64 5 -47 -14 -51 -14 -51 -1 0 6 8 10 18
11 11 1 8 4 -8 8 -14 4 -24 13 -22 19 1 7 -2 12 -8 12 -5 0 -7 7 -4 15 5 11
-1 15 -20 15 -32 0 -33 -16 -3 -48 l22 -25 -22 12 c-23 11 -23 11 -23 -43 l0
-54 125 -126 c80 -81 127 -121 131 -113 4 7 4 9 -1 5 -10 -10 -34 21 -35 44 0
9 -16 30 -35 45 -21 17 -35 36 -34 48 1 13 3 15 5 5 3 -8 18 -23 35 -32 16
-10 35 -31 41 -48 5 -17 14 -30 19 -28 16 6 169 161 169 172 -1 13 -77 96 -89
96 -5 0 -14 -7 -21 -15 -7 -8 -16 -12 -22 -9 -5 3 -16 0 -24 -7 -18 -14 -17
-15 -33 39 -17 60 -62 107 -137 142 -35 17 -64 35 -64 41 0 5 -7 9 -15 9 -11
0 -15 -11 -15 -40z m246 -236 c-25 -25 -46 -49 -46 -54 0 -4 -7 -11 -16 -14
-9 -4 -3 10 15 31 52 62 72 82 84 83 5 0 -12 -21 -37 -46z m115 19 c34 -33 36
-44 8 -69 -20 -18 -21 -18 -55 18 -44 47 -25 63 22 17 19 -18 34 -29 34 -23 0
5 -14 22 -31 37 -17 14 -28 31 -24 37 9 15 14 13 46 -17z m-54 -63 c28 -27 31
-33 21 -50 -20 -31 -34 -30 -68 5 -28 29 -30 35 -18 54 17 28 27 27 65 -9z
m-31 -99 c-5 -7 -20 1 -43 23 -22 21 -33 38 -28 46 5 9 18 2 43 -23 19 -19 31
-40 28 -46z"/>
<path d="M6105 3890 c16 -16 33 -30 39 -30 5 0 -3 14 -19 30 -16 17 -33 30
-39 30 -5 0 3 -13 19 -30z"/>
<path d="M6750 4216 c0 -9 8 -12 25 -8 14 2 25 8 25 13 0 5 -11 9 -25 9 -14 0
-25 -6 -25 -14z"/>
<path d="M6932 4196 c-52 -25 -51 -145 1 -194 l23 -21 2 23 c1 13 -6 30 -16
37 -15 12 -16 12 -5 -2 7 -9 10 -19 6 -22 -9 -10 -35 31 -28 43 4 6 13 7 24 1
15 -9 17 -2 18 70 1 43 1 78 0 78 -1 -1 -12 -6 -25 -13z m-15 -108 c-3 -8 -6
-5 -6 6 -1 11 2 17 5 13 3 -3 4 -12 1 -19z"/>
<path d="M6750 4085 c1 -6 7 -21 16 -35 l15 -25 -7 25 c-7 26 -24 52 -24 35z"/>
<path d="M5431 4025 c-92 -68 -97 -73 -46 -46 26 14 58 21 92 21 l53 0 0 40
c0 25 -5 40 -13 40 -6 0 -46 -25 -86 -55z"/>
<path d="M6726 4050 c3 -14 10 -29 15 -34 14 -16 10 6 -7 34 l-15 25 7 -25z"/>
<path d="M6206 4005 c4 -8 11 -15 16 -15 6 0 5 6 -2 15 -7 8 -14 15 -16 15 -2
0 -1 -7 2 -15z"/>
<path d="M5430 3979 c0 -4 -13 -10 -28 -14 -38 -8 -90 -62 -102 -106 -19 -66
-12 -112 28 -178 1 -2 4 -2 7 1 3 3 -2 22 -11 42 -20 40 -12 60 11 30 18 -23
16 -76 -3 -82 -7 -2 -16 5 -19 17 -3 12 -9 21 -13 21 -4 0 -15 19 -24 41 -15
38 -15 46 -1 94 8 30 28 68 43 86 33 41 22 34 -103 -56 l-34 -25 82 -121 c45
-66 87 -127 92 -137 21 -36 94 -138 119 -167 14 -16 26 -35 26 -42 0 -7 7 -10
15 -7 9 4 15 19 15 36 0 16 -4 27 -9 23 -17 -10 -21 12 -6 25 18 15 21 100 4
117 -8 8 -8 17 0 31 14 27 15 85 0 77 -6 -4 -8 -13 -5 -21 3 -7 -4 -18 -14
-24 -11 -6 -20 -17 -20 -25 0 -8 -4 -15 -10 -15 -5 0 -10 16 -10 35 0 35 30
75 57 75 9 0 13 17 13 57 0 44 -3 54 -12 45 -21 -21 -35 -13 -69 39 l-33 51
25 19 c27 20 20 24 69 -41 l19 -25 1 53 c0 34 -4 54 -12 56 -7 2 -22 8 -33 12
-28 11 -55 13 -55 3z m-43 -48 c-1 -18 -37 -27 -37 -9 0 5 27 26 37 28 1 0 1
-9 0 -19z m53 -91 c32 -50 32 -63 1 -79 -15 -8 -25 -1 -56 41 l-39 51 23 18
c13 11 27 19 31 19 4 0 22 -22 40 -50z m-215 0 c-3 -5 -10 -10 -16 -10 -5 0
-9 5 -9 10 0 6 7 10 16 10 8 0 12 -4 9 -10z m153 -52 c23 -36 29 -54 21 -59
-11 -7 -79 81 -79 102 0 24 28 3 58 -43z m58 -124 c-25 -18 -31 -12 -16 16 9
17 15 19 23 10 9 -9 7 -15 -7 -26z"/>
<path d="M5380 3865 c0 -10 53 -86 57 -81 3 2 -4 17 -14 33 -20 32 -43 57 -43
48z"/>
<path d="M6590 3950 c0 -5 -11 -10 -25 -10 -19 0 -25 -5 -25 -21 0 -16 4 -19
22 -13 49 15 90 36 84 42 -12 11 -56 13 -56 2z"/>
<path d="M5450 3902 c0 -13 52 -84 57 -78 3 3 -7 24 -22 46 -28 40 -35 47 -35
32z"/>
<path d="M6236 3891 c-4 -7 -5 -15 -2 -18 9 -9 19 4 14 18 -4 11 -6 11 -12 0z"/>
<path d="M6775 3874 c-28 -7 -86 -27 -130 -43 -62 -24 -71 -29 -40 -25 23 3
61 -1 88 -10 27 -8 56 -12 65 -9 11 3 9 -2 -6 -16 -19 -16 -28 -18 -43 -11
-10 6 -19 15 -19 19 0 5 -16 11 -35 13 -19 2 -35 0 -35 -4 0 -4 -6 -8 -14 -8
-8 0 -18 -9 -21 -20 -4 -12 -14 -19 -23 -18 -11 2 -18 -5 -20 -20 -3 -20 0
-22 22 -16 22 5 27 1 40 -28 16 -37 21 -24 6 17 -9 23 -7 27 16 35 37 14 43
13 50 -15 7 -30 14 -31 37 -5 9 11 25 20 35 20 18 0 40 19 57 50 8 13 7 13 -8
1 -11 -9 -17 -10 -17 -2 0 6 6 12 13 12 6 1 17 2 22 4 6 1 15 3 21 3 7 1 15
10 19 20 5 14 4 15 -6 5 -7 -7 -17 -13 -22 -13 -6 0 6 14 24 30 20 18 26 28
15 24 -12 -5 -23 -2 -30 8 -10 13 -18 14 -61 2z"/>
<path d="M5830 3793 c0 -13 5 -22 11 -20 6 1 12 -8 14 -20 1 -13 -2 -23 -7
-23 -4 0 -8 -4 -8 -9 0 -5 8 -7 19 -4 13 3 20 -2 24 -17 5 -18 9 -20 26 -10
16 8 21 8 21 -1 0 -16 -57 -69 -65 -61 -4 4 -2 -4 5 -17 9 -18 9 -26 -1 -35
-9 -8 -11 -7 -6 7 9 24 -10 21 -24 -4 -8 -16 -8 -20 1 -14 6 4 20 -2 31 -14
11 -12 16 -22 12 -22 -28 -4 -39 -3 -45 6 -4 6 -7 -9 -6 -32 1 -23 5 -40 10
-37 5 4 7 12 4 19 -5 15 17 39 27 28 4 -3 22 10 40 31 18 20 39 36 45 36 7 0
12 4 12 10 0 5 10 19 23 31 13 13 16 20 7 17 -15 -4 -53 26 -44 35 3 3 -24 36
-60 73 -55 57 -66 65 -66 47z m124 -152 c3 -5 -1 -11 -9 -15 -15 -6 -29 7 -18
18 9 9 21 8 27 -3z m-35 -30 c9 -6 10 -11 2 -15 -13 -8 -31 1 -31 15 0 11 11
11 29 0z m-24 -41 c-9 -14 8 -12 25 3 8 6 6 2 -4 -10 -14 -17 -21 -19 -31 -10
-9 9 -10 14 -1 19 15 10 18 10 11 -2z"/>
<path d="M5106 3731 c-3 -5 1 -11 9 -15 9 -3 15 0 15 9 0 16 -16 20 -24 6z"/>
<path d="M6630 3715 c0 -15 18 -40 24 -34 3 3 -1 14 -9 25 -8 10 -14 15 -15 9z"/>
<path d="M6560 3680 c0 -8 5 -22 10 -30 9 -13 10 -13 10 0 0 8 -5 22 -10 30
-9 13 -10 13 -10 0z"/>
<path d="M6070 3637 c0 -5 5 -17 10 -28 11 -20 40 -27 40 -9 0 6 -5 10 -11 10
-7 0 -18 8 -25 18 -7 9 -14 13 -14 9z"/>
<path d="M6008 3588 c-22 -23 -23 -32 -2 -24 18 7 57 -21 49 -35 -11 -16 12
-17 33 0 15 11 21 23 16 34 -3 9 -10 14 -15 11 -5 -3 -21 3 -37 14 -26 18 -28
18 -44 0z"/>
<path d="M5963 3540 c-18 -14 -20 -20 -10 -40 7 -13 19 -25 27 -28 12 -4 13
-2 3 9 -7 7 -13 21 -13 31 0 16 5 18 34 13 20 -4 36 -2 40 4 4 6 6 11 4 11 -2
0 -17 4 -34 9 -23 6 -35 4 -51 -9z"/>
<path d="M5200 3526 c0 -8 -9 -24 -21 -37 -17 -20 -20 -21 -15 -5 6 17 5 17
-10 5 -12 -10 -18 -10 -21 -3 -2 6 -10 20 -17 30 -12 16 -14 5 -15 -83 -1 -88
1 -103 16 -111 10 -5 24 -7 31 -5 6 3 12 -3 12 -12 0 -9 5 -13 10 -10 6 3 10
-1 10 -11 0 -12 -4 -14 -12 -7 -7 6 -26 13 -41 15 -27 5 -28 4 -22 -30 7 -45
14 -52 27 -29 7 13 13 15 22 8 12 -10 38 0 37 15 -1 5 4 9 10 9 14 0 49 46 49
66 0 9 7 22 15 29 8 7 15 17 15 22 0 5 9 21 20 35 29 37 25 60 -12 76 -18 8
-39 21 -47 30 -16 21 -41 22 -41 3z m100 -77 c0 -13 -18 -20 -25 -9 -9 14 -65
42 -65 32 0 -5 16 -16 35 -25 34 -16 47 -37 24 -37 -15 0 -79 40 -79 49 0 3 7
16 15 29 l16 22 39 -26 c22 -15 40 -30 40 -35z m-76 -40 c32 -18 34 -23 24
-45 -12 -26 -16 -28 -37 -15 -7 5 -10 14 -6 21 6 9 9 9 16 -1 6 -9 9 -10 9 -2
0 17 -54 57 -58 43 -2 -6 4 -18 14 -25 11 -9 14 -14 7 -15 -7 0 -13 -6 -13
-14 0 -22 -16 -28 -31 -10 -10 12 -10 15 1 12 7 -2 15 3 17 10 3 6 0 12 -6 12
-15 0 -14 23 1 38 16 16 21 15 62 -9z"/>
<path d="M6127 3519 c9 -9 9 -18 2 -31 -9 -18 -8 -18 10 -8 12 6 20 7 19 3 -2
-5 9 -22 25 -38 28 -31 36 -21 15 17 -19 33 -41 54 -63 62 -16 6 -17 5 -8 -5z"/>
<path d="M5980 3511 c0 -5 7 -11 15 -15 8 -3 15 -1 15 3 0 5 -7 11 -15 15 -8
3 -15 1 -15 -3z"/>
<path d="M5855 3500 c-3 -5 -1 -10 4 -10 6 0 11 5 11 10 0 6 -2 10 -4 10 -3 0
-8 -4 -11 -10z"/>
<path d="M5918 3499 c-3 -8 4 -24 15 -36 11 -13 16 -23 10 -23 -6 0 -9 -8 -6
-18 2 -10 -6 -27 -19 -39 l-24 -22 1 35 c1 19 7 40 15 47 10 10 10 8 1 -10 -7
-14 -8 -24 -1 -28 11 -7 12 -5 13 27 1 18 -4 23 -23 23 -18 0 -24 -5 -22 -16
1 -11 -4 -16 -15 -15 -10 0 -18 -4 -18 -11 0 -6 -3 -15 -7 -19 -21 -20 -1 -63
23 -49 7 5 4 14 -8 28 l-18 21 27 -20 26 -19 -31 -34 c-24 -25 -25 -29 -7 -15
72 56 110 98 104 116 -4 13 0 18 13 18 20 0 43 18 43 34 0 5 -6 1 -14 -9 -13
-17 -15 -17 -43 15 -22 25 -32 30 -35 19z"/>
<path d="M6025 3490 c-3 -5 -2 -10 4 -10 5 0 13 5 16 10 3 6 2 10 -4 10 -5 0
-13 -4 -16 -10z"/>
<path d="M6118 3430 c-7 -11 -17 -20 -23 -21 -12 -1 -69 -68 -63 -74 2 -2 27
15 55 40 34 30 53 41 60 34 8 -8 13 -7 18 2 5 8 4 10 -3 5 -8 -5 -12 0 -12 13
0 27 -16 27 -32 1z"/>
<path d="M6055 3415 c-15 -14 -24 -29 -21 -33 4 -3 19 6 33 21 15 14 24 29 21
33 -4 3 -19 -6 -33 -21z"/>
<path d="M6000 3364 c0 -8 5 -12 10 -9 6 4 8 11 5 16 -9 14 -15 11 -15 -7z"/>
<path d="M5440 3330 c0 -5 -7 -6 -17 -3 -11 5 -14 3 -8 -6 4 -8 2 -17 -6 -22
-20 -12 -31 -11 -23 3 5 7 3 8 -5 4 -7 -5 -10 -15 -7 -23 4 -9 -1 -21 -11 -28
-10 -8 -15 -16 -11 -20 6 -6 108 89 108 100 0 3 -4 5 -10 5 -5 0 -10 -4 -10
-10z"/>
<path d="M5950 3315 c-13 -14 -19 -25 -13 -25 5 0 20 11 33 25 13 14 19 25 13
25 -5 0 -20 -11 -33 -25z"/>
<path d="M5992 3309 c-8 -12 -8 -19 -2 -19 5 0 10 4 10 9 0 5 8 11 18 13 15 3
15 4 1 10 -9 4 -20 -1 -27 -13z"/>
<path d="M5895 3260 c-10 -11 -14 -20 -9 -20 12 1 44 25 44 34 0 12 -17 6 -35
-14z"/>
<path d="M5291 3254 c0 -11 3 -14 6 -6 3 7 2 16 -1 19 -3 4 -6 -2 -5 -13z"/>
<path d="M5428 3172 c-54 -54 -98 -102 -98 -108 0 -14 83 -94 99 -94 9 0 11 6
5 18 -13 30 -16 110 -5 145 11 34 81 111 81 90 0 -7 -5 -15 -10 -18 -8 -5 -7
-12 2 -23 11 -15 11 -15 -3 -5 -13 11 -19 8 -38 -17 -34 -47 -31 -180 4 -180
9 0 12 6 8 17 -5 12 -2 15 10 10 25 -9 29 7 7 31 -37 39 -22 57 17 20 13 -12
23 -17 23 -11 0 5 -9 18 -20 28 -16 14 -17 21 -8 32 8 10 13 11 19 2 4 -7 7
27 7 75 0 47 0 86 -1 85 -1 0 -46 -44 -99 -97z"/>
<path d="M5309 3193 c-13 -16 -12 -17 4 -4 9 7 17 15 17 17 0 8 -8 3 -21 -13z"/>
<path d="M5100 3169 c0 -5 5 -7 10 -4 6 3 10 8 10 11 0 2 -4 4 -10 4 -5 0 -10
-5 -10 -11z"/>
<path d="M5254 3172 c3 -6 0 -13 -6 -16 -7 -3 -3 -4 10 -3 26 2 31 20 6 25 -9
2 -14 -1 -10 -6z"/>
<path d="M5222 3120 c-14 -23 -5 -26 21 -6 20 16 22 26 4 26 -7 0 -18 -9 -25
-20z"/>
<path d="M5155 2990 c3 -5 14 -10 23 -10 15 0 15 2 2 10 -20 13 -33 13 -25 0z"/>
<path d="M5279 2890 c-13 -10 -19 -19 -13 -20 6 0 19 9 29 20 23 26 14 26 -16
0z"/>
</g>
</svg>
