<?xml version="1.0" standalone="no"?>
<!DOCTYPE svg PUBLIC "-//W3C//DTD SVG 20010904//EN"
 "http://www.w3.org/TR/2001/REC-SVG-20010904/DTD/svg10.dtd">
<svg version="1.0" xmlns="http://www.w3.org/2000/svg"
 width="1000.000000pt" height="1000.000000pt" viewBox="0 0 1000.000000 1000.000000"
 preserveAspectRatio="xMidYMid meet">

<g transform="translate(0.000000,1000.000000) scale(0.100000,-0.100000)"
fill="#000000" stroke="none">
<path d="M4948 7505 c-20 -13 -39 -29 -43 -35 -3 -5 -15 -10 -25 -10 -10 0
-25 -8 -32 -18 -7 -10 -26 -22 -41 -26 -15 -4 -47 -20 -69 -36 -23 -17 -47
-30 -54 -30 -7 0 -21 -8 -31 -19 -10 -10 -29 -22 -43 -26 -14 -4 -31 -16 -38
-26 -7 -11 -19 -19 -27 -19 -19 0 -91 -38 -106 -56 -6 -8 -20 -14 -30 -14 -10
0 -24 -8 -31 -19 -7 -10 -28 -22 -46 -25 -17 -4 -32 -11 -32 -16 0 -5 -29 -23
-65 -40 -36 -17 -65 -35 -65 -40 0 -4 -12 -11 -27 -15 -16 -4 -36 -15 -46 -26
-10 -10 -24 -19 -32 -19 -7 0 -20 -6 -27 -14 -8 -7 -39 -26 -70 -40 -31 -15
-61 -33 -68 -41 -7 -8 -20 -15 -30 -15 -9 0 -29 -11 -44 -25 -15 -14 -31 -25
-36 -25 -5 0 -30 -14 -55 -31 -61 -42 -133 -79 -150 -79 -8 0 -19 -9 -25 -19
-5 -11 -23 -22 -39 -26 -16 -3 -35 -13 -42 -21 -6 -8 -17 -14 -24 -14 -6 0
-20 -9 -30 -20 -10 -11 -25 -20 -32 -20 -8 0 -26 -9 -40 -20 -14 -11 -34 -20
-44 -20 -10 0 -22 -6 -26 -14 -4 -7 -33 -28 -63 -45 -30 -18 -62 -36 -70 -41
-8 -6 -26 -15 -40 -21 -14 -5 -41 -20 -61 -32 -20 -12 -63 -37 -95 -56 -33
-19 -62 -39 -66 -45 -3 -5 -21 -14 -40 -20 l-33 -11 0 -1275 0 -1275 33 -11
c19 -6 37 -15 40 -21 4 -6 21 -18 37 -27 17 -9 44 -25 60 -36 30 -20 61 -37
120 -66 17 -8 37 -19 45 -24 8 -5 40 -23 70 -41 30 -17 59 -38 63 -45 4 -8 16
-14 26 -14 10 0 30 -9 44 -20 14 -11 32 -20 40 -20 7 0 22 -9 32 -20 10 -11
24 -20 30 -20 7 0 18 -6 24 -14 7 -8 26 -18 42 -21 16 -4 34 -15 39 -26 6 -10
17 -19 25 -19 17 0 89 -37 150 -79 25 -17 50 -31 55 -31 5 0 21 -11 36 -25 15
-14 37 -25 49 -25 13 0 25 -6 28 -14 3 -8 31 -26 63 -41 32 -15 64 -34 72 -41
7 -8 19 -14 26 -14 7 0 25 -11 40 -25 15 -14 36 -25 47 -25 10 0 19 -4 19 -9
0 -5 29 -24 65 -41 36 -17 65 -35 65 -40 0 -5 15 -12 32 -16 18 -3 39 -15 46
-25 7 -11 21 -19 31 -19 10 0 24 -6 30 -14 14 -17 86 -56 102 -56 6 0 24 -11
41 -25 16 -14 36 -25 44 -25 8 0 14 -4 14 -10 0 -5 15 -16 33 -23 17 -8 54
-28 81 -46 28 -17 57 -31 66 -31 8 0 21 -9 28 -20 7 -11 21 -20 31 -20 11 0
23 -5 26 -10 4 -6 25 -22 47 -36 40 -26 41 -26 79 -9 21 10 46 26 55 36 10 11
25 19 35 19 11 0 24 9 31 20 7 11 20 20 28 20 9 0 37 14 63 30 26 17 63 37 82
45 19 7 35 18 35 23 0 6 12 13 27 17 15 3 33 15 41 26 7 10 19 19 27 19 19 0
91 38 106 56 6 8 20 14 30 14 10 0 24 9 31 20 7 11 20 20 29 20 9 0 27 8 40
18 13 10 50 30 82 46 31 16 57 32 57 36 0 5 14 11 31 15 17 4 33 13 36 20 2 8
20 19 39 25 19 6 34 15 34 19 0 5 26 20 59 35 32 14 64 33 71 41 7 8 20 15 30
15 9 0 29 11 44 25 15 14 31 25 36 25 5 0 30 14 55 31 61 42 133 79 150 79 8
0 19 9 25 20 6 11 18 20 28 20 9 0 28 9 42 20 14 11 30 20 35 20 6 0 18 9 28
20 9 11 24 20 33 20 9 0 27 9 41 20 14 11 34 20 44 20 10 0 22 6 26 13 9 14
54 45 93 64 14 7 32 17 40 23 8 5 26 15 40 20 14 6 42 20 62 33 20 12 63 37
95 56 32 19 61 39 65 45 3 5 21 14 40 20 l33 11 3 1255 c1 690 0 1265 -3 1277
-3 14 -16 25 -33 29 -15 4 -31 12 -37 18 -5 7 -36 28 -68 47 -32 18 -75 44
-95 56 -20 13 -48 27 -62 33 -14 5 -32 14 -40 20 -8 5 -40 23 -70 41 -30 17
-59 38 -63 45 -4 8 -16 14 -26 14 -10 0 -30 9 -44 20 -14 11 -32 20 -40 20 -7
0 -22 9 -32 20 -10 11 -24 20 -30 20 -7 0 -18 6 -24 14 -7 8 -26 18 -42 21
-16 4 -34 15 -39 26 -6 10 -17 19 -25 19 -25 0 -153 74 -168 97 -4 7 -17 13
-27 13 -11 0 -29 9 -40 20 -11 11 -34 23 -50 26 -16 4 -31 12 -34 19 -2 7 -32
26 -65 41 -34 14 -61 30 -61 35 0 4 -15 13 -34 19 -19 6 -37 17 -39 25 -3 7
-19 16 -36 20 -17 4 -31 10 -31 15 0 4 -26 20 -57 36 -32 16 -69 36 -82 46
-13 10 -31 18 -40 18 -9 0 -22 9 -29 20 -7 11 -21 20 -31 20 -10 0 -24 6 -30
14 -15 18 -87 56 -106 56 -8 0 -20 9 -27 19 -8 11 -26 23 -42 27 -15 3 -30 13
-33 20 -3 8 -10 14 -17 14 -6 0 -40 18 -76 40 -36 22 -72 40 -80 40 -8 0 -21
9 -28 20 -7 11 -21 20 -31 20 -10 0 -24 7 -32 16 -13 16 -82 54 -96 53 -4 0
-25 -11 -45 -24z m87 -255 c4 -6 21 -17 38 -25 18 -8 46 -24 62 -35 17 -11 47
-28 68 -37 20 -9 37 -19 37 -24 0 -4 30 -22 68 -40 37 -18 83 -44 102 -59 19
-15 46 -31 60 -35 14 -4 33 -16 43 -26 10 -11 26 -19 37 -19 10 0 21 -4 25 -9
5 -9 19 -18 98 -58 17 -9 36 -22 40 -30 4 -7 16 -13 26 -13 10 0 24 -7 32 -16
13 -16 32 -27 142 -82 37 -18 67 -38 67 -43 0 -5 12 -12 28 -15 15 -4 40 -18
55 -31 16 -12 35 -23 43 -23 8 0 14 -4 14 -9 0 -4 28 -21 63 -36 34 -15 70
-36 80 -46 10 -11 27 -19 37 -19 11 0 20 -5 20 -10 0 -6 12 -16 28 -23 15 -6
49 -27 77 -44 27 -18 57 -33 66 -33 9 0 24 -9 33 -19 10 -11 28 -22 42 -25 13
-4 24 -10 24 -15 0 -5 29 -23 64 -41 35 -17 70 -37 76 -45 7 -8 18 -15 25 -15
7 0 23 -8 36 -18 13 -11 36 -22 50 -25 47 -12 45 -77 -2 -77 -10 0 -26 -8 -36
-18 -10 -10 -44 -30 -75 -45 -31 -15 -60 -32 -63 -37 -3 -6 -14 -10 -24 -10
-10 0 -30 -11 -45 -25 -15 -14 -31 -25 -36 -25 -5 0 -28 -13 -52 -29 -24 -16
-53 -31 -64 -35 -12 -4 -29 -15 -39 -26 -10 -11 -29 -20 -42 -20 -13 0 -26 -7
-30 -15 -3 -9 -20 -23 -37 -31 -17 -8 -62 -32 -101 -54 -38 -22 -84 -46 -101
-54 -17 -8 -36 -22 -44 -30 -7 -9 -18 -16 -24 -16 -6 0 -38 -18 -71 -40 -33
-22 -65 -40 -71 -40 -6 0 -17 -7 -24 -15 -7 -8 -20 -15 -30 -15 -9 0 -34 -13
-55 -30 -43 -34 -49 -35 -91 -12 -17 9 -62 32 -100 51 -38 19 -72 40 -77 47
-4 7 -21 15 -38 19 -17 4 -33 13 -35 20 -3 7 -31 25 -62 41 -31 15 -61 34 -65
41 -4 7 -17 13 -28 13 -10 0 -27 9 -36 20 -10 11 -27 20 -40 20 -12 0 -29 8
-39 17 -19 20 -44 35 -90 57 -17 9 -34 22 -37 31 -4 9 -18 15 -35 15 -16 0
-37 9 -47 20 -10 11 -26 20 -36 20 -10 0 -22 6 -26 13 -8 14 -36 31 -100 61
-18 8 -33 19 -33 25 0 5 -13 12 -29 16 -16 3 -35 13 -42 21 -6 8 -19 14 -28
14 -10 0 -42 18 -71 40 -29 22 -60 40 -67 40 -7 0 -21 9 -30 20 -10 11 -25 20
-35 20 -9 0 -20 5 -24 11 -3 6 -25 19 -49 29 -24 10 -46 23 -49 29 -11 18 -84
13 -104 -6 -9 -10 -42 -29 -72 -42 -84 -38 -106 -79 -52 -100 24 -10 53 -25
102 -53 8 -4 26 -14 40 -21 14 -6 47 -27 75 -44 27 -18 55 -33 61 -33 6 0 19
-9 29 -20 10 -11 24 -20 30 -20 7 0 24 -9 38 -20 14 -11 31 -20 38 -20 12 0
88 -47 99 -62 3 -3 17 -9 32 -13 15 -4 34 -15 44 -26 9 -10 25 -19 34 -19 10
0 23 -7 30 -14 6 -8 27 -20 46 -26 19 -6 34 -15 34 -20 0 -4 14 -13 30 -19 17
-5 30 -15 30 -20 0 -6 6 -11 13 -11 7 0 28 -11 47 -25 19 -14 42 -25 52 -25 9
0 22 -9 28 -20 6 -11 17 -20 25 -20 19 0 91 -38 106 -56 6 -8 18 -14 27 -14 8
0 23 -7 33 -16 20 -18 55 -38 146 -83 83 -41 107 -83 56 -96 -16 -4 -36 -15
-46 -26 -10 -10 -26 -19 -37 -19 -10 0 -22 -5 -25 -10 -4 -6 -21 -17 -38 -26
-55 -26 -91 -47 -105 -61 -7 -7 -20 -13 -27 -13 -8 0 -26 -11 -41 -25 -15 -14
-35 -25 -44 -25 -10 0 -23 -7 -30 -15 -7 -8 -18 -15 -26 -15 -16 0 -89 38
-149 79 -25 17 -57 34 -70 37 -14 3 -29 11 -33 18 -4 6 -46 31 -94 55 -48 24
-95 52 -104 62 -9 11 -25 19 -34 19 -9 0 -25 9 -34 19 -10 11 -31 23 -47 26
-16 4 -29 10 -29 15 0 4 -12 13 -27 19 -16 7 -46 23 -68 36 -22 14 -51 30 -65
37 -14 7 -33 20 -43 30 -10 10 -26 18 -37 18 -10 0 -22 5 -25 10 -4 6 -21 17
-38 26 -64 30 -92 47 -100 61 -4 7 -17 13 -27 13 -10 0 -31 11 -46 25 -15 14
-33 25 -40 25 -7 0 -19 6 -26 14 -8 7 -39 26 -69 41 -88 44 -119 62 -137 78
-9 9 -29 19 -44 22 -16 4 -28 11 -28 16 0 4 -28 22 -62 39 -95 47 -123 63
-142 83 -10 9 -25 17 -34 17 -8 0 -25 8 -36 18 -12 10 -41 27 -66 37 -25 10
-50 25 -56 32 -7 8 -28 19 -48 24 -25 7 -36 16 -36 29 0 22 26 50 47 50 8 0
26 9 40 20 14 11 31 20 38 20 7 0 18 7 25 15 6 8 41 28 76 45 35 18 64 36 64
41 0 5 11 11 24 15 14 3 32 14 42 25 9 10 24 19 33 19 9 0 40 16 70 35 29 19
59 35 66 35 8 0 20 8 27 18 7 10 26 22 42 26 16 4 36 15 45 25 9 10 36 26 61
37 45 18 86 43 125 75 11 9 32 19 48 23 15 3 27 10 27 15 0 5 29 23 64 40 35
17 67 35 71 41 3 5 15 10 26 10 10 0 29 11 41 25 15 17 32 25 54 25 34 0 133
-45 147 -67 4 -7 14 -13 21 -13 7 0 25 -9 39 -20 14 -11 32 -20 39 -20 8 0 39
-18 68 -40 29 -22 61 -40 70 -40 9 0 25 -9 35 -20 10 -11 26 -20 35 -20 9 0
25 -9 35 -20 10 -11 25 -20 32 -20 8 0 26 -9 40 -20 14 -11 32 -20 39 -20 8 0
14 -4 14 -10 0 -5 16 -16 35 -24 19 -8 35 -20 35 -25 0 -6 12 -14 28 -17 33
-9 102 -43 120 -61 7 -7 19 -13 26 -13 7 0 21 -9 31 -20 10 -11 26 -20 35 -20
10 0 23 -7 31 -16 7 -9 27 -23 45 -32 102 -53 141 -75 154 -87 8 -7 27 -17 43
-20 15 -4 32 -16 38 -26 5 -11 18 -19 29 -19 11 0 27 -8 37 -18 22 -23 119
-64 150 -64 12 0 34 9 49 21 15 11 35 21 45 21 10 0 26 8 36 19 10 10 30 21
46 25 55 13 17 69 -68 101 -28 11 -56 27 -63 37 -7 10 -21 18 -31 18 -10 0
-26 9 -36 20 -10 11 -23 20 -29 20 -6 0 -38 18 -71 40 -33 22 -65 40 -71 40
-6 0 -17 6 -23 14 -7 8 -23 17 -37 20 -13 4 -45 22 -70 41 -25 19 -52 35 -60
35 -8 0 -22 9 -31 20 -10 11 -25 20 -35 20 -10 0 -26 9 -35 20 -10 11 -28 20
-40 20 -12 0 -30 8 -40 18 -10 10 -29 24 -43 30 -43 22 -66 37 -84 55 -10 9
-25 17 -35 17 -10 0 -28 9 -41 20 -13 11 -32 20 -42 20 -10 0 -21 6 -24 14 -3
8 -18 20 -32 26 -44 18 -88 44 -106 63 -10 9 -26 17 -36 17 -11 0 -23 6 -27
14 -4 7 -36 26 -70 41 -56 24 -63 31 -63 56 0 30 -1 29 124 92 42 21 76 42 76
48 0 5 12 12 27 15 15 4 52 25 83 46 30 21 60 38 66 38 6 0 17 7 24 15 14 17
66 20 75 5z m-1958 -1252 c12 -19 70 -58 86 -58 8 0 26 -9 40 -20 14 -11 32
-20 40 -20 8 0 20 -6 26 -14 7 -8 36 -26 66 -42 30 -15 62 -35 71 -46 10 -10
24 -18 31 -18 8 0 26 -9 40 -20 14 -11 32 -20 39 -20 8 0 34 -15 59 -34 24
-19 54 -38 66 -41 11 -4 30 -16 40 -26 10 -10 28 -19 39 -19 10 0 23 -6 27
-13 4 -8 35 -26 67 -42 33 -15 66 -34 74 -41 7 -8 20 -14 27 -14 8 0 20 -8 27
-19 7 -10 28 -22 46 -25 17 -4 32 -11 32 -16 0 -5 29 -23 65 -40 36 -17 65
-35 65 -40 0 -5 13 -11 29 -15 16 -3 37 -15 47 -26 9 -10 23 -19 31 -19 7 0
21 -9 30 -20 10 -11 22 -20 27 -20 17 0 101 -43 108 -56 4 -6 19 -15 33 -18
14 -4 34 -15 45 -26 11 -11 29 -20 40 -20 11 0 23 -6 26 -14 3 -8 31 -26 63
-40 32 -14 64 -33 71 -41 7 -8 21 -15 31 -15 10 0 23 -9 29 -20 6 -11 19 -20
29 -20 10 0 30 -9 44 -20 14 -11 29 -20 34 -20 5 0 19 -13 31 -30 21 -28 22
-38 22 -279 0 -256 -3 -277 -38 -249 -29 23 -79 48 -96 48 -9 0 -19 7 -22 15
-3 8 -21 19 -39 25 -18 6 -36 17 -38 25 -3 7 -19 16 -36 20 -17 4 -31 11 -31
16 0 6 -28 24 -62 41 -106 52 -132 67 -140 83 -5 8 -17 15 -27 15 -10 0 -29 8
-42 18 -13 10 -46 29 -74 42 -27 13 -53 29 -58 36 -4 7 -21 15 -37 19 -16 4
-33 12 -37 18 -5 7 -19 18 -33 25 -14 7 -47 26 -75 42 -27 16 -58 29 -68 29
-10 1 -20 8 -24 16 -3 9 -20 22 -37 30 -17 8 -44 24 -61 35 -16 11 -43 27 -60
36 -16 9 -34 23 -38 30 -4 8 -14 14 -21 14 -22 0 -132 59 -161 86 -18 16 -36
24 -54 22 l-26 -3 0 -124 c0 -113 2 -125 20 -135 11 -6 46 -28 79 -48 32 -21
62 -38 67 -38 5 0 18 -9 29 -20 11 -11 28 -20 39 -20 10 0 25 -7 32 -16 7 -9
36 -27 64 -41 87 -43 120 -62 131 -78 6 -8 25 -18 43 -21 17 -4 31 -10 31 -14
0 -5 26 -21 58 -37 31 -15 60 -33 64 -39 4 -7 20 -15 35 -19 16 -4 36 -15 46
-26 10 -10 24 -19 31 -19 7 0 21 -9 31 -20 10 -11 22 -20 28 -20 16 0 107 -44
107 -52 0 -4 15 -15 33 -23 17 -9 50 -27 72 -40 22 -13 52 -31 68 -40 15 -8
27 -20 27 -25 0 -6 8 -10 19 -10 10 0 30 -9 44 -20 14 -11 32 -20 40 -20 9 0
23 -8 33 -17 9 -9 41 -29 70 -44 103 -50 94 17 94 -742 0 -460 -3 -668 -11
-672 -5 -4 -18 0 -28 9 -10 9 -25 16 -34 16 -10 0 -25 9 -34 20 -10 11 -23 20
-30 20 -6 0 -18 6 -25 14 -8 7 -28 21 -46 30 -18 9 -32 21 -32 26 0 6 -11 10
-24 10 -13 0 -34 8 -47 19 -13 10 -34 21 -46 25 -13 4 -23 11 -23 15 0 5 -13
14 -30 21 -16 7 -30 16 -30 21 0 5 -6 9 -14 9 -8 0 -28 11 -44 25 -17 14 -35
25 -40 25 -23 0 -152 76 -165 97 -4 7 -16 13 -27 13 -10 0 -31 10 -47 23 -53
42 -154 97 -178 97 -9 0 -18 7 -22 15 -3 9 -20 22 -37 30 -17 9 -49 26 -71 40
-22 13 -50 28 -62 34 -11 5 -24 15 -28 20 -3 6 -15 11 -25 11 -10 0 -31 11
-46 25 -15 14 -32 25 -39 25 -7 0 -32 16 -57 34 -25 19 -57 38 -71 41 -15 4
-31 13 -38 21 -6 8 -19 14 -29 14 -10 0 -23 7 -30 15 -7 8 -24 21 -39 29 -14
7 -41 21 -58 30 -18 10 -35 22 -38 27 -4 5 -21 16 -38 24 -18 8 -39 19 -47 24
-8 5 -26 14 -40 20 -38 18 -72 38 -79 48 -3 5 -18 14 -33 20 l-28 13 0 264 c0
202 3 265 13 269 16 6 57 -10 57 -23 0 -5 7 -10 15 -10 8 0 23 -9 32 -20 10
-11 25 -20 35 -20 9 0 29 -11 44 -25 15 -14 35 -25 45 -25 10 0 20 -4 24 -9 3
-6 19 -17 35 -25 17 -9 43 -23 59 -31 16 -9 34 -22 41 -30 7 -8 21 -15 31 -15
10 0 23 -8 28 -19 6 -10 25 -22 43 -25 18 -4 51 -20 72 -36 22 -17 45 -30 51
-30 7 0 24 -11 39 -25 15 -14 36 -25 46 -25 10 0 23 -6 27 -13 4 -8 33 -26 63
-41 96 -48 124 -65 132 -80 4 -7 19 -17 33 -20 13 -3 45 -20 70 -37 62 -42
133 -79 151 -79 8 0 17 -7 21 -15 3 -9 20 -22 37 -30 17 -8 45 -24 61 -35 17
-11 41 -25 55 -31 14 -6 33 -15 43 -20 10 -6 22 -7 27 -4 6 4 10 60 10 126 0
96 -3 121 -15 125 -8 3 -17 14 -20 25 -4 10 -14 19 -24 19 -10 0 -29 8 -42 18
-13 10 -47 28 -76 41 -29 13 -54 30 -57 37 -2 6 -19 15 -36 19 -17 4 -34 13
-37 21 -3 8 -10 14 -16 14 -5 0 -34 16 -63 35 -29 19 -67 38 -84 41 -17 4 -35
15 -41 25 -5 11 -17 19 -26 19 -9 0 -25 7 -35 17 -21 19 -49 36 -95 58 -17 8
-34 19 -38 25 -3 5 -15 10 -25 10 -10 0 -31 11 -46 25 -15 14 -33 25 -40 25
-7 0 -32 15 -57 34 -24 19 -55 37 -68 41 -13 4 -30 16 -37 26 -7 11 -23 19
-34 19 -12 0 -29 6 -37 14 -9 8 -39 26 -68 41 -28 14 -57 33 -64 41 -6 8 -20
14 -30 14 -10 0 -24 9 -32 20 -8 11 -28 23 -45 26 -17 4 -37 13 -43 20 -6 8
-17 14 -24 14 -7 0 -19 7 -26 16 -7 9 -23 20 -36 25 l-23 9 0 675 0 675 30 0
c16 0 33 -6 37 -12z m3913 -1071 l0 -1083 -40 -26 c-22 -15 -48 -29 -59 -33
-10 -3 -22 -12 -25 -20 -3 -8 -14 -15 -24 -15 -11 0 -31 -9 -45 -20 -14 -11
-32 -20 -40 -20 -8 0 -20 -6 -26 -14 -7 -8 -36 -27 -64 -41 -29 -15 -61 -35
-72 -45 -26 -22 -49 -30 -64 -21 -9 6 -11 201 -11 804 l0 797 -25 0 c-15 0
-47 -16 -72 -35 -25 -19 -51 -35 -56 -35 -6 0 -28 -12 -49 -26 l-38 -27 0
-812 0 -812 -22 -20 c-13 -11 -30 -23 -38 -26 -8 -4 -33 -18 -55 -32 -22 -14
-55 -32 -72 -40 -18 -8 -33 -20 -33 -25 0 -6 -8 -13 -17 -17 -53 -18 -109 -47
-116 -59 -4 -8 -17 -14 -27 -14 -10 0 -25 -8 -32 -19 -16 -22 -48 -33 -66 -23
-10 7 -13 170 -15 798 l-2 789 -22 3 c-12 2 -41 -8 -65 -22 -24 -15 -58 -33
-77 -42 -19 -8 -42 -25 -52 -37 -18 -21 -19 -60 -18 -830 l0 -808 -23 -24
c-13 -14 -28 -25 -34 -25 -6 0 -21 -9 -34 -20 -13 -11 -27 -20 -32 -20 -6 0
-21 -9 -35 -20 -14 -11 -36 -20 -49 -20 -13 0 -24 -4 -24 -10 0 -5 -14 -17
-32 -26 -18 -9 -38 -23 -46 -30 -7 -8 -20 -14 -28 -14 -8 0 -17 -6 -20 -14 -3
-8 -17 -17 -32 -21 -15 -4 -35 -13 -44 -22 -9 -8 -22 -12 -27 -8 -8 4 -11 333
-11 1082 0 1071 0 1075 21 1104 11 16 26 29 33 29 8 0 19 6 25 14 7 8 26 18
42 21 16 4 34 15 39 26 6 10 19 19 29 19 10 0 24 7 31 15 7 8 39 27 71 41 32
14 60 32 63 40 3 8 14 14 25 14 11 0 32 11 47 25 15 14 35 25 45 25 10 0 22 6
26 13 8 14 91 57 109 57 5 0 17 9 27 20 9 11 23 20 30 20 8 0 22 9 31 19 10
11 31 23 47 26 16 4 32 12 36 18 5 7 34 25 66 40 31 15 57 32 57 37 0 4 15 12
32 16 18 3 39 15 46 25 7 11 19 19 27 19 7 0 20 6 27 13 18 18 96 57 113 57 8
0 20 9 27 20 7 11 21 20 31 20 9 0 25 9 34 20 10 11 22 20 28 20 5 0 36 18 68
40 31 22 63 40 71 40 7 0 25 9 39 20 14 11 32 20 40 20 8 0 20 7 27 16 8 8 27
22 44 30 45 21 73 39 94 57 10 10 24 17 31 17 7 0 24 9 38 20 14 11 32 20 40
20 16 0 74 39 86 58 4 6 21 12 37 12 l30 0 0 -1083z"/>
<path d="M4905 7185 c-44 -30 -87 -55 -96 -55 -9 0 -22 -6 -28 -14 -7 -8 -36
-27 -64 -41 -29 -15 -59 -33 -67 -40 -8 -7 -24 -15 -35 -17 -11 -2 -21 -12
-23 -23 -2 -16 10 -26 55 -48 80 -37 116 -59 131 -79 7 -10 23 -18 36 -18 13
0 31 -9 41 -20 10 -11 24 -20 30 -20 7 0 18 -6 24 -14 15 -18 77 -51 114 -60
15 -3 27 -11 27 -16 0 -5 15 -17 33 -25 47 -24 86 -46 140 -83 26 -17 56 -32
66 -32 10 0 26 -9 36 -20 10 -11 26 -20 36 -20 10 0 26 -9 36 -19 18 -18 104
-71 152 -91 13 -6 35 -19 49 -30 13 -11 32 -20 42 -20 9 0 25 -9 35 -20 10
-11 22 -20 26 -20 11 0 97 -58 104 -71 4 -5 17 -9 30 -9 13 0 27 -5 30 -10 4
-6 22 -17 40 -24 57 -24 62 -91 9 -110 -17 -6 -39 -19 -48 -28 -10 -10 -24
-18 -31 -18 -19 0 -85 -40 -85 -51 0 -15 -50 -10 -56 5 -3 8 -17 16 -32 19
-31 6 -150 74 -176 100 -10 9 -25 17 -35 17 -10 0 -26 9 -36 20 -10 11 -26 20
-36 20 -10 0 -20 4 -23 9 -3 4 -30 21 -61 36 -30 16 -62 36 -71 47 -10 10 -25
18 -34 18 -9 0 -31 11 -50 25 -19 14 -40 25 -47 25 -7 0 -13 5 -13 10 0 6 -29
24 -64 40 -35 17 -69 37 -76 45 -7 8 -20 15 -30 15 -9 0 -25 9 -35 20 -10 11
-23 20 -29 20 -6 0 -35 16 -65 35 -29 19 -59 35 -66 35 -8 0 -22 8 -32 19 -10
10 -29 22 -43 26 -14 4 -32 13 -40 21 -9 7 -38 25 -64 39 -26 14 -55 32 -63
40 -8 8 -22 15 -32 15 -10 0 -26 9 -36 20 -10 11 -26 20 -35 20 -9 0 -27 9
-40 20 -26 23 -78 27 -86 6 -3 -7 -34 -28 -70 -47 -36 -18 -67 -36 -70 -41 -3
-4 -13 -8 -23 -8 -10 0 -30 -11 -45 -25 -15 -14 -31 -25 -37 -25 -5 0 -31 -16
-59 -35 -27 -19 -60 -37 -74 -41 -14 -3 -30 -12 -37 -20 -6 -8 -19 -14 -29
-14 -10 0 -23 -7 -30 -15 -7 -9 -42 -32 -76 -51 -35 -20 -66 -40 -70 -45 -3
-5 -13 -9 -23 -9 -10 0 -24 -6 -30 -14 -7 -8 -25 -18 -41 -21 -15 -3 -36 -15
-46 -26 -9 -10 -21 -19 -25 -19 -5 0 -35 -18 -66 -40 -32 -22 -66 -40 -76 -40
-10 0 -20 -6 -23 -14 -3 -8 -18 -19 -33 -24 -40 -14 -111 -60 -111 -72 0 -6 9
-10 20 -10 11 0 29 -9 40 -20 11 -11 31 -22 45 -26 14 -3 27 -10 30 -14 2 -4
31 -20 62 -36 32 -15 64 -36 71 -46 7 -10 21 -18 31 -18 10 0 26 -9 36 -20 10
-11 25 -20 34 -21 9 0 39 -13 66 -30 28 -16 59 -33 70 -38 12 -5 26 -16 33
-24 7 -8 25 -18 39 -22 15 -3 33 -15 41 -26 7 -10 19 -19 26 -19 20 0 149 -69
169 -91 10 -10 25 -19 34 -19 9 0 24 -7 34 -16 20 -18 59 -40 138 -80 29 -15
62 -35 72 -45 11 -11 27 -19 37 -19 10 0 25 -9 35 -20 9 -11 26 -20 36 -20 11
0 23 -5 26 -10 10 -16 82 -60 98 -60 8 0 22 -9 32 -20 10 -11 26 -20 36 -20
10 0 25 -8 35 -17 18 -19 39 -32 129 -78 33 -16 67 -38 77 -47 10 -10 26 -18
36 -18 11 0 27 -9 37 -20 10 -11 23 -20 28 -20 5 0 34 -16 63 -35 59 -39 66
-41 84 -20 7 8 20 15 30 15 9 0 29 11 43 24 14 13 45 33 70 45 25 12 51 29 57
37 7 7 18 14 25 14 38 0 173 89 162 107 -3 5 -44 29 -91 53 -47 23 -93 51
-102 61 -9 11 -25 19 -34 19 -10 0 -28 8 -41 19 -13 10 -60 37 -104 61 -44 23
-89 51 -101 61 -11 11 -27 19 -36 19 -8 0 -23 9 -33 20 -10 11 -23 20 -29 20
-6 0 -35 16 -65 35 -29 19 -59 35 -67 35 -8 0 -22 9 -31 20 -10 11 -32 23 -49
26 -18 3 -35 12 -37 18 -3 7 -29 25 -59 41 -29 15 -60 33 -69 41 -8 8 -22 14
-31 14 -8 0 -23 9 -33 20 -10 11 -26 20 -35 20 -9 0 -31 11 -50 25 -19 14 -38
25 -43 25 -5 0 -26 13 -46 29 -20 16 -50 32 -68 35 -17 4 -34 13 -36 21 -3 7
-19 16 -36 20 -57 12 -50 100 9 111 16 4 35 13 41 20 6 8 19 14 28 14 9 1 32
14 51 30 19 17 41 30 50 30 30 0 101 -30 142 -60 22 -16 49 -30 58 -30 9 0 25
-9 35 -20 10 -11 26 -20 35 -20 9 0 29 -11 44 -25 15 -14 31 -25 36 -25 5 0
28 -13 52 -29 24 -16 54 -32 68 -36 14 -4 31 -16 38 -26 7 -11 23 -19 36 -19
13 0 31 -9 41 -20 10 -11 22 -20 26 -20 4 0 31 -16 60 -35 30 -19 61 -35 71
-35 9 0 25 -9 35 -19 10 -11 30 -22 46 -26 15 -4 27 -11 27 -16 0 -4 24 -20
53 -34 28 -15 61 -35 73 -46 11 -10 29 -19 41 -19 11 0 28 -9 38 -20 10 -11
26 -20 36 -20 10 0 26 -8 36 -19 10 -10 41 -31 70 -46 28 -14 53 -30 55 -33 4
-9 107 -62 120 -62 5 0 21 -9 35 -20 32 -25 65 -26 87 -1 10 11 31 23 46 26
16 3 34 13 41 21 6 8 15 14 20 14 5 0 35 18 66 40 32 22 64 40 72 40 8 0 24 9
35 19 12 10 45 31 74 46 29 15 55 31 58 36 3 5 14 9 25 9 10 0 27 8 37 18 9 9
28 23 42 30 14 7 48 26 75 43 28 16 73 41 102 55 28 13 57 31 63 39 7 8 21 15
31 15 10 0 24 8 31 18 7 9 40 30 73 47 33 16 62 33 63 37 2 4 9 8 16 8 7 0 27
11 46 25 19 14 42 25 52 25 10 0 18 4 18 10 0 12 -71 58 -111 72 -15 5 -30 16
-33 24 -3 8 -13 14 -23 14 -10 0 -44 18 -76 40 -31 22 -61 40 -66 40 -4 0 -16
9 -26 20 -10 11 -26 20 -35 20 -10 0 -29 9 -43 20 -14 11 -32 20 -40 20 -9 0
-19 4 -22 10 -3 5 -35 26 -69 45 -35 20 -67 42 -70 50 -3 8 -16 15 -29 15 -14
0 -30 6 -36 14 -7 8 -23 17 -37 20 -25 7 -73 36 -102 64 -7 6 -20 12 -27 12
-8 0 -26 11 -41 25 -15 14 -35 25 -45 25 -11 0 -19 4 -19 9 0 5 -15 14 -34 21
-18 6 -55 26 -82 45 -27 19 -54 35 -60 35 -6 0 -19 9 -29 20 -10 11 -25 20
-34 20 -15 0 -93 49 -99 63 -2 4 -12 7 -21 7 -10 0 -30 11 -45 25 -15 14 -35
25 -45 25 -10 0 -26 9 -36 20 -10 11 -24 20 -31 20 -7 0 -36 16 -65 35 -30 19
-59 35 -65 35 -6 0 -19 9 -29 20 -10 11 -25 20 -35 20 -9 0 -25 7 -35 15 -44
34 -145 95 -157 95 -7 -1 -49 -25 -93 -55z"/>
<path d="M3040 5327 l0 -652 32 -20 c18 -11 48 -30 68 -42 19 -12 43 -22 53
-23 10 0 20 -7 23 -15 3 -8 21 -19 39 -25 18 -6 36 -17 38 -24 3 -7 18 -17 33
-20 15 -4 44 -21 65 -37 20 -16 44 -29 52 -29 9 0 29 -11 45 -25 17 -14 37
-25 45 -25 8 0 20 -7 27 -16 8 -8 27 -22 44 -29 38 -18 63 -34 88 -57 10 -10
26 -18 37 -18 10 0 24 -6 30 -14 7 -8 23 -17 36 -20 14 -4 65 -33 114 -66 48
-33 95 -60 104 -60 9 0 19 -5 22 -10 4 -6 21 -17 38 -25 18 -8 46 -24 62 -35
17 -11 45 -27 63 -35 18 -9 35 -22 39 -30 3 -8 11 -15 19 -15 27 0 150 -72
182 -107 l32 -35 0 -123 c0 -150 -8 -167 -68 -135 -20 11 -42 20 -49 20 -7 0
-22 9 -33 20 -11 11 -27 20 -35 20 -8 0 -35 15 -59 33 -67 48 -110 73 -139 81
-15 3 -27 10 -27 15 0 5 -15 14 -32 22 -39 15 -90 49 -101 67 -4 6 -16 12 -26
12 -10 0 -30 11 -45 25 -15 14 -36 25 -46 25 -10 0 -21 4 -24 9 -3 5 -29 21
-58 36 -29 15 -62 35 -73 45 -11 9 -32 20 -47 24 -16 3 -28 10 -28 15 0 5 -28
23 -62 40 -72 36 -92 47 -131 79 -16 12 -37 22 -47 22 -9 0 -23 7 -30 15 -7 9
-37 27 -66 41 -28 13 -55 31 -58 39 -3 8 -15 15 -28 15 -12 0 -31 9 -42 19
-12 11 -33 23 -48 26 l-28 7 0 -238 0 -239 32 -20 c18 -11 55 -33 83 -49 27
-15 57 -34 66 -42 8 -8 23 -14 32 -14 10 0 25 -9 34 -20 10 -11 25 -20 33 -20
9 0 30 -10 47 -22 32 -23 39 -28 106 -73 21 -14 48 -25 61 -25 13 0 26 -7 29
-15 4 -8 21 -21 39 -30 47 -22 75 -39 96 -58 10 -10 26 -17 34 -17 9 0 21 -6
27 -14 7 -8 26 -18 42 -21 17 -4 33 -13 36 -21 2 -7 14 -16 25 -20 23 -7 79
-44 103 -68 9 -9 27 -16 41 -16 13 0 24 -4 24 -8 0 -5 17 -16 38 -25 42 -19
67 -34 94 -59 10 -10 27 -18 38 -18 10 0 24 -9 30 -19 5 -11 23 -22 40 -26 16
-4 30 -10 30 -14 0 -4 27 -19 59 -35 33 -15 68 -37 77 -47 9 -10 25 -19 34
-19 9 0 25 -9 35 -20 10 -11 24 -20 32 -20 8 0 35 -16 60 -35 25 -19 56 -35
69 -35 13 0 28 -9 34 -19 5 -11 23 -22 40 -26 16 -4 30 -11 30 -16 0 -5 12
-15 28 -21 15 -7 34 -17 42 -24 8 -6 25 -15 38 -18 l22 -7 0 649 0 650 -31 26
c-17 14 -37 26 -45 26 -8 0 -24 9 -36 20 -12 11 -28 20 -35 20 -7 0 -13 4 -13
9 0 5 -8 12 -19 16 -10 3 -29 14 -41 25 -13 11 -34 20 -46 20 -13 0 -29 9 -36
20 -7 11 -17 20 -21 20 -12 0 -149 80 -172 101 -11 9 -32 21 -47 24 -16 4 -28
11 -28 15 0 4 -12 11 -27 15 -26 6 -82 40 -93 57 -3 4 -22 14 -41 22 -20 8
-41 22 -49 30 -7 9 -20 16 -29 16 -9 0 -21 4 -26 9 -6 6 -37 24 -70 42 -33 17
-64 38 -68 45 -4 8 -17 14 -28 14 -10 0 -27 9 -36 20 -10 11 -21 20 -25 20
-11 0 -51 19 -83 40 -16 11 -44 27 -61 34 -17 8 -36 22 -44 30 -7 9 -19 16
-28 16 -8 0 -24 8 -34 17 -11 9 -42 29 -71 44 l-52 26 0 144 0 144 47 3 c39 3
49 0 58 -17 6 -12 16 -21 22 -21 6 0 36 -16 68 -35 32 -19 65 -35 73 -35 9 0
22 -8 29 -19 7 -10 24 -22 38 -26 14 -4 36 -16 49 -26 13 -11 28 -19 33 -19 6
0 33 -18 60 -40 28 -22 57 -40 65 -40 8 0 21 -7 29 -15 9 -8 24 -15 33 -15 10
0 24 -7 31 -16 8 -8 27 -22 44 -30 45 -21 73 -39 94 -57 10 -10 24 -17 31 -17
7 0 24 -9 38 -20 14 -11 32 -20 39 -20 8 0 40 -18 71 -40 32 -22 63 -40 68
-40 6 0 16 -9 23 -20 7 -11 23 -20 36 -20 14 0 28 -5 31 -10 4 -6 21 -17 38
-25 43 -21 73 -39 94 -56 10 -9 30 -20 46 -27 15 -6 27 -16 27 -22 0 -5 6 -10
13 -10 7 0 29 -9 50 -20 20 -11 41 -20 47 -20 6 0 10 84 10 234 l0 234 -31 26
c-17 14 -35 26 -40 26 -5 0 -32 16 -59 35 -27 19 -54 35 -58 35 -5 0 -21 11
-36 25 -15 14 -35 25 -45 25 -10 0 -24 7 -31 15 -7 8 -18 15 -24 15 -6 0 -38
18 -71 40 -33 22 -64 40 -69 40 -4 0 -21 11 -38 25 -16 14 -38 25 -49 25 -10
0 -19 4 -19 9 0 5 -12 12 -26 15 -27 7 -73 37 -106 69 -10 9 -26 17 -35 17 -9
0 -24 7 -32 15 -9 7 -57 35 -106 61 -50 26 -93 52 -98 60 -4 7 -21 15 -37 19
-17 4 -30 11 -30 16 0 4 -17 17 -37 27 -83 42 -159 84 -174 98 -8 8 -23 14
-32 14 -9 0 -24 8 -34 19 -10 10 -42 31 -71 46 -29 15 -55 31 -58 36 -3 5 -12
9 -21 9 -8 0 -28 11 -45 25 -16 14 -38 25 -49 25 -10 0 -19 4 -19 8 0 5 -12
15 -27 23 -16 7 -49 28 -75 46 -26 18 -55 33 -65 33 -9 0 -26 8 -37 18 -12 10
-33 23 -48 30 l-28 12 0 -653z"/>
<path d="M6924 5964 c-17 -7 -36 -20 -43 -28 -8 -9 -22 -16 -32 -16 -11 0 -42
-16 -69 -35 -27 -19 -54 -35 -58 -35 -5 0 -17 -9 -26 -19 -10 -11 -31 -23 -46
-26 -15 -3 -36 -15 -46 -26 -9 -10 -25 -19 -35 -19 -10 0 -20 -4 -23 -9 -3 -5
-29 -21 -58 -36 -29 -15 -62 -36 -74 -46 -11 -10 -27 -19 -36 -19 -8 0 -23 -9
-33 -20 -10 -11 -23 -20 -28 -20 -5 0 -34 -16 -63 -35 -29 -19 -59 -35 -68
-35 -8 0 -27 -11 -42 -25 -15 -14 -35 -25 -45 -25 -10 0 -22 -6 -26 -14 -4 -7
-48 -34 -98 -60 -49 -26 -97 -54 -106 -61 -8 -8 -23 -15 -32 -15 -9 0 -27 -11
-41 -24 -14 -13 -47 -34 -73 -47 -27 -13 -50 -27 -53 -31 -3 -3 -17 -9 -32
-13 -15 -4 -34 -15 -44 -26 -9 -10 -24 -19 -32 -19 -9 0 -24 -7 -34 -17 -21
-19 -49 -36 -95 -58 -17 -8 -34 -19 -38 -25 -3 -5 -15 -10 -25 -10 -10 0 -31
-11 -46 -25 -15 -14 -31 -25 -36 -25 -4 0 -31 -16 -58 -35 -27 -19 -54 -35
-59 -35 -5 0 -23 -12 -40 -26 l-31 -26 0 -1059 c0 -582 2 -1059 5 -1059 13 0
112 55 128 72 10 10 26 18 37 18 11 0 24 9 30 20 6 11 21 20 35 20 13 0 44 16
69 35 26 19 52 35 59 35 7 0 25 13 40 28 l27 28 0 800 c0 749 1 801 18 826 19
28 85 78 104 78 6 0 32 13 57 29 62 38 89 45 107 30 12 -10 14 -119 14 -803 0
-435 0 -795 0 -799 0 -5 18 5 39 22 22 18 53 36 70 42 17 6 31 14 31 19 0 4
14 10 32 14 17 3 37 15 45 26 8 11 18 20 24 20 5 0 32 16 59 35 28 20 64 38
79 41 19 4 31 14 35 28 3 11 6 384 6 827 l0 806 65 42 c37 23 76 46 89 51 13
5 26 16 30 25 4 12 17 15 53 13 l48 -3 3 -790 c1 -540 5 -792 13 -800 7 -7 14
-5 22 5 18 22 91 70 108 70 8 0 22 9 32 20 9 11 25 20 35 20 10 0 23 5 29 11
12 12 42 31 83 51 14 6 33 18 43 27 9 8 26 19 38 25 20 11 20 13 19 1070 0
583 -1 1060 -3 1061 -1 1 -16 -4 -33 -11z"/>
</g>
</svg>
