<?xml version="1.0" encoding="UTF-8"?>
<svg xmlns="http://www.w3.org/2000/svg" xmlns:xlink="http://www.w3.org/1999/xlink" width="800px" height="800px" viewBox="0 0 800 800" version="1.1">
<g id="surface1">
<path style=" stroke:none;fill-rule:nonzero;fill:rgb(0%,0%,0%);fill-opacity:1;" d="M 395.839844 199.601562 C 394.238281 200.640625 392.71875 201.921875 392.398438 202.398438 C 392.160156 202.800781 391.199219 203.199219 390.398438 203.199219 C 389.601562 203.199219 388.398438 203.839844 387.839844 204.640625 C 387.28125 205.441406 385.761719 206.398438 384.558594 206.71875 C 383.359375 207.039062 380.800781 208.320312 379.039062 209.601562 C 377.199219 210.960938 375.28125 212 374.71875 212 C 374.160156 212 373.039062 212.640625 372.238281 213.519531 C 371.441406 214.320312 369.921875 215.28125 368.800781 215.601562 C 367.679688 215.921875 366.320312 216.878906 365.761719 217.679688 C 365.199219 218.558594 364.238281 219.199219 363.601562 219.199219 C 362.078125 219.199219 356.320312 222.238281 355.121094 223.679688 C 354.640625 224.320312 353.519531 224.800781 352.71875 224.800781 C 351.921875 224.800781 350.800781 225.441406 350.238281 226.320312 C 349.679688 227.121094 348 228.078125 346.558594 228.320312 C 345.199219 228.640625 344 229.199219 344 229.601562 C 344 230 341.679688 231.441406 338.800781 232.800781 C 335.921875 234.160156 333.601562 235.601562 333.601562 236 C 333.601562 236.320312 332.640625 236.878906 331.441406 237.199219 C 330.160156 237.519531 328.558594 238.398438 327.761719 239.28125 C 326.960938 240.078125 325.839844 240.800781 325.199219 240.800781 C 324.640625 240.800781 323.601562 241.28125 323.039062 241.921875 C 322.398438 242.480469 319.921875 244 317.441406 245.121094 C 314.960938 246.320312 312.558594 247.761719 312 248.398438 C 311.441406 249.039062 310.398438 249.601562 309.601562 249.601562 C 308.878906 249.601562 307.28125 250.480469 306.078125 251.601562 C 304.878906 252.71875 303.601562 253.601562 303.199219 253.601562 C 302.800781 253.601562 300.800781 254.71875 298.800781 256.078125 C 293.921875 259.441406 288.160156 262.398438 286.800781 262.398438 C 286.160156 262.398438 285.28125 263.121094 284.800781 263.921875 C 284.398438 264.800781 282.960938 265.679688 281.679688 266 C 280.398438 266.238281 278.878906 267.039062 278.320312 267.679688 C 277.839844 268.320312 276.960938 268.800781 276.398438 268.800781 C 275.921875 268.800781 274.800781 269.519531 274 270.398438 C 273.199219 271.28125 272 272 271.441406 272 C 270.800781 272 269.359375 272.71875 268.238281 273.601562 C 267.121094 274.480469 265.519531 275.199219 264.71875 275.199219 C 263.921875 275.199219 262.960938 275.679688 262.640625 276.320312 C 262.320312 276.878906 260 278.558594 257.601562 279.921875 C 255.199219 281.359375 252.640625 282.800781 252 283.199219 C 251.359375 283.679688 249.921875 284.398438 248.800781 284.878906 C 247.679688 285.28125 245.519531 286.480469 243.921875 287.441406 C 242.320312 288.398438 238.878906 290.398438 236.320312 291.921875 C 233.679688 293.441406 231.359375 295.039062 231.039062 295.519531 C 230.800781 295.921875 229.359375 296.640625 227.839844 297.121094 L 225.199219 298 L 225.199219 502 L 227.839844 502.878906 C 229.359375 503.359375 230.800781 504.078125 231.039062 504.558594 C 231.359375 505.039062 232.71875 506 234 506.71875 C 235.359375 507.441406 237.519531 508.71875 238.800781 509.601562 C 241.199219 511.199219 243.679688 512.558594 248.398438 514.878906 C 249.761719 515.519531 251.359375 516.398438 252 516.800781 C 252.640625 517.199219 255.199219 518.640625 257.601562 520.078125 C 260 521.441406 262.320312 523.121094 262.640625 523.679688 C 262.960938 524.320312 263.921875 524.800781 264.71875 524.800781 C 265.519531 524.800781 267.121094 525.519531 268.238281 526.398438 C 269.359375 527.28125 270.800781 528 271.441406 528 C 272 528 273.199219 528.71875 274 529.601562 C 274.800781 530.480469 275.921875 531.199219 276.398438 531.199219 C 276.960938 531.199219 277.839844 531.679688 278.320312 532.320312 C 278.878906 532.960938 280.398438 533.761719 281.679688 534 C 282.960938 534.320312 284.398438 535.199219 284.800781 536.078125 C 285.28125 536.878906 286.160156 537.601562 286.800781 537.601562 C 288.160156 537.601562 293.921875 540.558594 298.800781 543.921875 C 300.800781 545.28125 302.800781 546.398438 303.199219 546.398438 C 303.601562 546.398438 304.878906 547.28125 306.078125 548.398438 C 307.28125 549.519531 309.039062 550.398438 310 550.398438 C 311.039062 550.398438 312 550.878906 312.238281 551.519531 C 312.480469 552.160156 314.71875 553.601562 317.28125 554.800781 C 319.839844 556 322.398438 557.519531 323.039062 558.078125 C 323.601562 558.71875 324.558594 559.199219 325.121094 559.199219 C 325.679688 559.199219 327.121094 560.078125 328.320312 561.199219 C 329.519531 562.320312 331.199219 563.199219 332.078125 563.199219 C 332.878906 563.199219 333.601562 563.519531 333.601562 563.921875 C 333.601562 564.320312 335.921875 565.839844 338.800781 567.199219 C 341.679688 568.558594 344 570 344 570.398438 C 344 570.800781 345.199219 571.359375 346.558594 571.679688 C 348 571.921875 349.679688 572.878906 350.238281 573.679688 C 350.800781 574.558594 351.921875 575.199219 352.71875 575.199219 C 353.519531 575.199219 354.640625 575.679688 355.121094 576.320312 C 356.238281 577.679688 362 580.800781 363.28125 580.800781 C 363.761719 580.800781 365.199219 581.679688 366.558594 582.800781 C 367.839844 583.921875 369.441406 584.800781 370.078125 584.800781 C 370.71875 584.800781 371.199219 585.121094 371.199219 585.601562 C 371.199219 586 372.398438 586.878906 373.839844 587.441406 C 375.199219 588.078125 378.160156 589.679688 380.320312 591.121094 C 382.558594 592.480469 384.878906 593.601562 385.601562 593.601562 C 386.238281 593.601562 387.28125 594.320312 387.839844 595.199219 C 388.398438 596.078125 389.519531 596.800781 390.320312 596.800781 C 391.199219 596.800781 392.160156 597.199219 392.398438 597.601562 C 392.71875 598.078125 394.398438 599.359375 396.160156 600.480469 C 399.359375 602.558594 399.441406 602.558594 402.480469 601.199219 C 404.160156 600.398438 406.160156 599.121094 406.878906 598.320312 C 407.679688 597.441406 408.878906 596.800781 409.679688 596.800781 C 410.558594 596.800781 411.601562 596.078125 412.160156 595.199219 C 412.71875 594.320312 413.761719 593.601562 414.398438 593.601562 C 415.121094 593.601562 417.359375 592.480469 419.441406 591.199219 C 421.519531 589.839844 424.480469 588.238281 426 587.601562 C 427.519531 587.039062 428.800781 586.160156 428.800781 585.761719 C 428.800781 585.28125 429.761719 584.71875 430.960938 584.398438 C 432.160156 584.160156 433.601562 583.199219 434.238281 582.320312 C 434.800781 581.519531 435.761719 580.800781 436.398438 580.800781 C 437.921875 580.800781 443.679688 577.761719 444.878906 576.320312 C 445.359375 575.679688 446.480469 575.199219 447.28125 575.199219 C 448.078125 575.199219 449.199219 574.480469 449.761719 573.601562 C 450.320312 572.71875 451.359375 572 452.078125 572 C 452.800781 572 454.238281 571.359375 455.28125 570.558594 C 456.320312 569.761719 459.28125 568.160156 461.839844 566.878906 C 464.320312 565.601562 466.398438 564.320312 466.398438 564 C 466.398438 563.601562 467.519531 563.121094 468.878906 562.800781 C 470.238281 562.480469 471.519531 561.761719 471.761719 561.199219 C 471.921875 560.558594 473.359375 559.679688 474.878906 559.199219 C 476.398438 558.71875 477.601562 558 477.601562 557.679688 C 477.601562 557.28125 479.679688 556.078125 482.320312 554.878906 C 484.878906 553.761719 487.441406 552.238281 488 551.601562 C 488.558594 550.960938 489.601562 550.398438 490.398438 550.398438 C 491.121094 550.398438 492.71875 549.519531 493.921875 548.398438 C 495.121094 547.28125 496.398438 546.398438 496.800781 546.398438 C 497.199219 546.398438 499.199219 545.28125 501.199219 543.921875 C 506.078125 540.558594 511.839844 537.601562 513.199219 537.601562 C 513.839844 537.601562 514.71875 536.878906 515.199219 536 C 515.679688 535.121094 516.640625 534.398438 517.441406 534.398438 C 518.160156 534.398438 519.679688 533.679688 520.800781 532.800781 C 521.921875 531.921875 523.199219 531.199219 523.601562 531.199219 C 524.078125 531.199219 525.039062 530.480469 525.839844 529.601562 C 526.558594 528.71875 527.761719 528 528.480469 528 C 529.199219 528 530.640625 527.28125 531.761719 526.398438 C 532.878906 525.519531 534.480469 524.800781 535.28125 524.800781 C 536.078125 524.800781 537.039062 524.320312 537.359375 523.761719 C 538.078125 522.640625 541.679688 520.160156 544.800781 518.640625 C 545.921875 518.078125 547.359375 517.28125 548 516.800781 C 548.640625 516.398438 550.078125 515.601562 551.199219 515.199219 C 552.320312 514.71875 554.558594 513.601562 556.160156 512.558594 C 557.761719 511.601562 561.199219 509.601562 563.761719 508.078125 C 566.320312 506.558594 568.640625 504.960938 568.960938 504.480469 C 569.199219 504.078125 570.640625 503.359375 572.160156 502.878906 L 574.800781 502 L 575.039062 401.601562 C 575.121094 346.398438 575.039062 300.398438 574.800781 299.441406 C 574.558594 298.320312 573.519531 297.441406 572.160156 297.121094 C 570.960938 296.800781 569.679688 296.160156 569.199219 295.679688 C 568.800781 295.121094 566.320312 293.441406 563.761719 291.921875 C 561.199219 290.480469 557.761719 288.398438 556.160156 287.441406 C 554.558594 286.398438 552.320312 285.28125 551.199219 284.800781 C 550.078125 284.398438 548.640625 283.679688 548 283.199219 C 547.359375 282.800781 544.800781 281.359375 542.398438 279.921875 C 540 278.558594 537.679688 276.878906 537.359375 276.320312 C 537.039062 275.679688 536.078125 275.199219 535.28125 275.199219 C 534.480469 275.199219 532.878906 274.480469 531.761719 273.601562 C 530.640625 272.71875 529.199219 272 528.558594 272 C 528 272 526.800781 271.28125 526 270.398438 C 525.199219 269.519531 524.078125 268.800781 523.601562 268.800781 C 523.039062 268.800781 522.160156 268.320312 521.679688 267.679688 C 521.121094 267.039062 519.601562 266.238281 518.320312 266 C 517.039062 265.679688 515.601562 264.800781 515.199219 263.921875 C 514.71875 263.121094 513.839844 262.398438 513.199219 262.398438 C 511.199219 262.398438 500.960938 256.480469 499.761719 254.640625 C 499.441406 254.078125 498.398438 253.601562 497.601562 253.601562 C 496.71875 253.601562 495.28125 252.878906 494.398438 252 C 493.519531 251.121094 491.679688 250.160156 490.398438 249.921875 C 489.121094 249.601562 487.921875 248.960938 487.679688 248.398438 C 487.519531 247.839844 485.121094 246.320312 482.480469 245.121094 C 479.761719 244 477.601562 242.71875 477.601562 242.320312 C 477.601562 242 476.398438 241.28125 474.878906 240.800781 C 473.359375 240.320312 471.921875 239.441406 471.761719 238.800781 C 471.519531 238.238281 470.238281 237.519531 468.878906 237.199219 C 467.519531 236.878906 466.398438 236.398438 466.398438 236 C 466.398438 235.679688 464.320312 234.398438 461.839844 233.121094 C 459.28125 231.839844 456.320312 230.238281 455.28125 229.441406 C 454.238281 228.640625 452.800781 228 452.078125 228 C 451.359375 228 450.320312 227.28125 449.761719 226.398438 C 449.199219 225.519531 448.078125 224.800781 447.28125 224.800781 C 446.480469 224.800781 445.359375 224.320312 444.878906 223.679688 C 443.679688 222.238281 437.921875 219.199219 436.398438 219.199219 C 435.761719 219.199219 434.800781 218.480469 434.238281 217.679688 C 433.601562 216.800781 432.160156 215.839844 430.878906 215.519531 C 429.679688 215.28125 428.480469 214.480469 428.238281 213.921875 C 428 213.28125 427.441406 212.800781 426.878906 212.800781 C 426.398438 212.800781 423.679688 211.359375 420.800781 209.601562 C 417.921875 207.839844 415.039062 206.398438 414.398438 206.398438 C 413.761719 206.398438 412.71875 205.679688 412.160156 204.800781 C 411.601562 203.921875 410.480469 203.199219 409.679688 203.199219 C 408.878906 203.199219 407.761719 202.640625 407.121094 201.921875 C 406.078125 200.640625 400.558594 197.601562 399.441406 197.679688 C 399.121094 197.679688 397.441406 198.558594 395.839844 199.601562 Z M 402.800781 220 C 403.121094 220.480469 404.480469 221.359375 405.839844 222 C 407.28125 222.640625 409.519531 223.921875 410.800781 224.800781 C 412.160156 225.679688 414.558594 227.039062 416.238281 227.761719 C 417.839844 228.480469 419.199219 229.28125 419.199219 229.679688 C 419.199219 230 421.601562 231.441406 424.640625 232.878906 C 427.601562 234.320312 431.28125 236.398438 432.800781 237.601562 C 434.320312 238.800781 436.480469 240.078125 437.601562 240.398438 C 438.71875 240.71875 440.238281 241.679688 441.039062 242.480469 C 441.839844 243.359375 443.121094 244 444 244 C 444.800781 244 445.679688 244.320312 446 244.71875 C 446.398438 245.441406 447.519531 246.160156 453.839844 249.359375 C 455.199219 250.078125 456.71875 251.121094 457.039062 251.761719 C 457.359375 252.320312 458.320312 252.800781 459.121094 252.800781 C 459.921875 252.800781 461.039062 253.359375 461.679688 254.078125 C 462.71875 255.359375 464.238281 256.238281 473.039062 260.640625 C 476 262.078125 478.398438 263.679688 478.398438 264.078125 C 478.398438 264.480469 479.359375 265.039062 480.640625 265.28125 C 481.839844 265.601562 483.839844 266.71875 485.039062 267.761719 C 486.320312 268.71875 487.839844 269.601562 488.480469 269.601562 C 489.121094 269.601562 489.601562 269.921875 489.601562 270.320312 C 489.601562 270.640625 491.839844 272 494.640625 273.199219 C 497.359375 274.398438 500.238281 276.078125 501.039062 276.878906 C 501.839844 277.761719 503.199219 278.398438 504 278.398438 C 504.878906 278.398438 505.601562 278.800781 505.601562 279.199219 C 505.601562 279.679688 506.558594 280.480469 507.839844 281.039062 C 509.039062 281.519531 511.761719 283.199219 514 284.558594 C 516.160156 286 518.558594 287.199219 519.28125 287.199219 C 520 287.199219 521.199219 287.921875 521.921875 288.71875 C 522.71875 289.601562 524.160156 290.480469 525.28125 290.71875 C 526.320312 291.039062 527.199219 291.519531 527.199219 291.921875 C 527.199219 292.320312 529.519531 293.761719 532.320312 295.199219 C 535.121094 296.558594 537.921875 298.160156 538.398438 298.800781 C 538.960938 299.441406 539.839844 300 540.398438 300 C 540.960938 300 542.238281 300.640625 543.28125 301.441406 C 544.320312 302.320312 546.160156 303.199219 547.28125 303.441406 C 551.039062 304.398438 550.878906 309.601562 547.121094 309.601562 C 546.320312 309.601562 545.039062 310.238281 544.238281 311.039062 C 543.441406 311.839844 540.71875 313.441406 538.238281 314.640625 C 535.761719 315.839844 533.441406 317.199219 533.199219 317.601562 C 532.960938 318.078125 532.078125 318.398438 531.28125 318.398438 C 530.480469 318.398438 528.878906 319.28125 527.679688 320.398438 C 526.480469 321.519531 525.199219 322.398438 524.800781 322.398438 C 524.398438 322.398438 522.558594 323.441406 520.640625 324.71875 C 518.71875 326 516.398438 327.199219 515.519531 327.519531 C 514.558594 327.839844 513.199219 328.71875 512.398438 329.601562 C 511.601562 330.480469 510.078125 331.199219 509.039062 331.199219 C 508 331.199219 506.960938 331.761719 506.640625 332.398438 C 506.398438 333.121094 505.039062 334.238281 503.679688 334.878906 C 502.320312 335.519531 498.71875 337.441406 495.601562 339.199219 C 492.558594 340.960938 488.878906 342.878906 487.519531 343.519531 C 486.160156 344.160156 484.640625 345.28125 484 345.921875 C 483.441406 346.640625 482.558594 347.199219 482.078125 347.199219 C 481.601562 347.199219 479.039062 348.640625 476.398438 350.398438 C 473.761719 352.160156 471.199219 353.601562 470.71875 353.601562 C 470.238281 353.601562 469.359375 354.160156 468.800781 354.800781 C 468.238281 355.441406 467.199219 356 466.398438 356 C 465.679688 356 463.679688 357.039062 462 358.398438 C 458.558594 361.121094 458.078125 361.199219 454.71875 359.359375 C 453.359375 358.640625 449.761719 356.800781 446.71875 355.28125 C 443.679688 353.761719 440.960938 352.078125 440.558594 351.519531 C 440.238281 350.960938 438.878906 350.320312 437.519531 350 C 436.160156 349.679688 434.878906 348.960938 434.71875 348.398438 C 434.480469 347.839844 432.238281 346.398438 429.761719 345.121094 C 427.28125 343.921875 424.878906 342.398438 424.558594 341.839844 C 424.238281 341.28125 423.199219 340.800781 422.320312 340.800781 C 421.519531 340.800781 420.160156 340.078125 419.441406 339.199219 C 418.640625 338.320312 417.28125 337.601562 416.238281 337.601562 C 415.28125 337.601562 413.921875 336.960938 413.121094 336.238281 C 411.601562 334.640625 409.601562 333.441406 405.921875 331.679688 C 404.558594 330.960938 403.199219 329.921875 402.960938 329.199219 C 402.640625 328.480469 401.519531 328 400.160156 328 C 398.878906 328 397.199219 327.28125 396.398438 326.398438 C 395.601562 325.519531 394.320312 324.800781 393.519531 324.800781 C 392.71875 324.800781 391.761719 324.320312 391.441406 323.761719 C 390.800781 322.640625 388.558594 321.28125 383.441406 318.878906 C 382 318.238281 380.800781 317.359375 380.800781 316.878906 C 380.800781 316.480469 379.761719 315.921875 378.480469 315.601562 C 377.199219 315.359375 375.679688 314.558594 375.121094 313.921875 C 374.640625 313.28125 373.601562 312.800781 372.878906 312.800781 C 372.078125 312.800781 369.519531 311.359375 367.199219 309.601562 C 364.878906 307.839844 362.398438 306.398438 361.839844 306.398438 C 361.28125 306.398438 360.160156 305.679688 359.441406 304.800781 C 358.640625 303.921875 357.441406 303.199219 356.640625 303.199219 C 355.921875 303.199219 355.039062 302.800781 354.71875 302.320312 C 354.480469 301.839844 352.71875 300.800781 350.800781 300 C 348.878906 299.199219 347.121094 298.160156 346.878906 297.679688 C 346 296.238281 340.160156 296.640625 338.558594 298.160156 C 337.839844 298.960938 335.199219 300.480469 332.800781 301.519531 C 326.078125 304.558594 324.320312 307.839844 328.640625 309.519531 C 330.558594 310.320312 332.878906 311.519531 336.800781 313.761719 C 337.441406 314.078125 338.878906 314.878906 340 315.441406 C 341.121094 315.921875 343.761719 317.601562 346 318.960938 C 348.160156 320.398438 350.398438 321.601562 350.878906 321.601562 C 351.359375 321.601562 352.398438 322.320312 353.199219 323.199219 C 354 324.078125 355.121094 324.800781 355.601562 324.800781 C 356.160156 324.800781 357.519531 325.519531 358.640625 326.398438 C 359.761719 327.28125 361.121094 328 361.679688 328 C 362.640625 328 368.71875 331.761719 369.601562 332.960938 C 369.839844 333.199219 370.960938 333.679688 372.160156 334 C 373.359375 334.320312 374.878906 335.199219 375.679688 336.078125 C 376.398438 336.878906 377.679688 337.601562 378.398438 337.601562 C 379.199219 337.601562 380.238281 338.160156 380.800781 338.71875 C 381.28125 339.359375 382.960938 340.320312 384.480469 340.800781 C 386 341.28125 387.199219 342 387.199219 342.398438 C 387.199219 342.71875 388.320312 343.441406 389.601562 343.921875 C 390.960938 344.320312 392 345.121094 392 345.519531 C 392 346 392.480469 346.398438 393.039062 346.398438 C 393.601562 346.398438 395.28125 347.28125 396.800781 348.398438 C 398.320312 349.519531 400.160156 350.398438 400.960938 350.398438 C 401.679688 350.398438 402.71875 351.121094 403.199219 352 C 403.679688 352.878906 404.558594 353.601562 405.199219 353.601562 C 406.71875 353.601562 412.480469 356.640625 413.679688 358.078125 C 414.160156 358.71875 415.121094 359.199219 415.839844 359.199219 C 416.480469 359.199219 417.679688 359.761719 418.480469 360.480469 C 420.078125 361.921875 422.878906 363.519531 430.160156 367.121094 C 436.800781 370.398438 438.71875 373.761719 434.640625 374.800781 C 433.359375 375.121094 431.761719 376 430.960938 376.878906 C 430.160156 377.679688 428.878906 378.398438 428 378.398438 C 427.199219 378.398438 426.238281 378.800781 426 379.199219 C 425.679688 379.679688 424.320312 380.558594 422.960938 381.28125 C 418.558594 383.359375 415.679688 385.039062 414.558594 386.160156 C 414 386.71875 412.960938 387.199219 412.398438 387.199219 C 411.761719 387.199219 410.320312 388.078125 409.121094 389.199219 C 407.921875 390.320312 406.320312 391.199219 405.601562 391.199219 C 404.800781 391.199219 403.761719 391.761719 403.199219 392.398438 C 402.640625 393.039062 401.761719 393.601562 401.121094 393.601562 C 399.839844 393.601562 394 390.558594 389.199219 387.28125 C 387.199219 385.921875 384.640625 384.558594 383.601562 384.320312 C 382.480469 384.078125 381.28125 383.441406 380.960938 382.878906 C 380.640625 382.398438 377.28125 380.398438 373.441406 378.480469 C 369.601562 376.558594 365.839844 374.320312 365.121094 373.519531 C 364.398438 372.640625 363.121094 372 362.398438 372 C 361.679688 372 360.398438 371.28125 359.679688 370.480469 C 358.878906 369.601562 357.199219 368.640625 355.921875 368.398438 C 354.640625 368.078125 353.601562 367.601562 353.601562 367.199219 C 353.601562 366.878906 352.640625 366.160156 351.441406 365.679688 C 350.160156 365.121094 347.761719 363.839844 346 362.800781 C 344.238281 361.679688 341.921875 360.398438 340.800781 359.839844 C 339.679688 359.28125 338.160156 358.238281 337.359375 357.441406 C 336.558594 356.640625 335.28125 356 334.398438 356 C 333.601562 356 332.640625 355.601562 332.398438 355.199219 C 332.078125 354.71875 330.71875 353.839844 329.359375 353.121094 C 324.238281 350.71875 322 349.359375 321.359375 348.238281 C 321.039062 347.679688 320 347.199219 319.199219 347.199219 C 318.398438 347.199219 316.71875 346.320312 315.519531 345.199219 C 314.320312 344.078125 312.878906 343.199219 312.320312 343.199219 C 311.761719 343.199219 310.800781 342.71875 310.238281 342.078125 C 309.601562 341.519531 307.121094 340 304.71875 338.800781 C 297.679688 335.28125 295.199219 333.839844 293.761719 332.558594 C 293.039062 331.839844 291.441406 331.039062 290.238281 330.800781 C 288.960938 330.480469 288 329.921875 288 329.519531 C 288 329.199219 285.761719 327.761719 283.039062 326.398438 C 275.441406 322.640625 273.199219 321.359375 271.679688 319.761719 C 270.878906 319.039062 269.679688 318.398438 268.960938 318.398438 C 268.320312 318.398438 266.960938 317.761719 266.078125 316.960938 C 265.121094 316.160156 262.800781 314.800781 260.800781 314 C 258.800781 313.199219 256.800781 312 256.320312 311.441406 C 255.761719 310.800781 254.078125 309.921875 252.480469 309.519531 C 250.480469 308.960938 249.601562 308.238281 249.601562 307.199219 C 249.601562 305.441406 251.679688 303.199219 253.359375 303.199219 C 254 303.199219 255.441406 302.480469 256.558594 301.601562 C 257.679688 300.71875 259.039062 300 259.601562 300 C 260.160156 300 261.039062 299.441406 261.601562 298.800781 C 262.078125 298.160156 264.878906 296.558594 267.679688 295.199219 C 270.480469 293.761719 272.800781 292.320312 272.800781 291.921875 C 272.800781 291.519531 273.679688 291.039062 274.71875 290.71875 C 275.839844 290.480469 277.28125 289.601562 278.078125 288.71875 C 278.800781 287.921875 280 287.199219 280.71875 287.199219 C 281.441406 287.199219 283.921875 285.921875 286.320312 284.398438 C 288.640625 282.878906 291.039062 281.601562 291.601562 281.601562 C 292.238281 281.601562 293.199219 280.960938 293.761719 280.160156 C 294.320312 279.359375 295.839844 278.398438 297.121094 278.078125 C 298.398438 277.761719 300 276.878906 300.71875 276.078125 C 301.441406 275.28125 303.601562 274 305.601562 273.121094 C 309.199219 271.679688 312.480469 269.679688 315.601562 267.121094 C 316.480469 266.398438 318.160156 265.601562 319.441406 265.28125 C 320.640625 265.039062 321.601562 264.480469 321.601562 264.078125 C 321.601562 263.679688 323.921875 262.238281 326.71875 260.878906 C 329.519531 259.519531 332.078125 258.078125 332.398438 257.601562 C 332.640625 257.199219 333.601562 256.800781 334.480469 256.800781 C 335.28125 256.800781 336.800781 255.921875 337.761719 254.800781 C 338.960938 253.441406 340.320312 252.800781 342.078125 252.800781 C 344.800781 252.800781 352.71875 256.398438 353.839844 258.160156 C 354.160156 258.71875 354.960938 259.199219 355.519531 259.199219 C 356.078125 259.199219 357.519531 259.921875 358.640625 260.800781 C 359.761719 261.679688 361.199219 262.398438 361.761719 262.398438 C 362.398438 262.398438 364.878906 263.839844 367.199219 265.601562 C 369.519531 267.359375 372.078125 268.800781 372.800781 268.800781 C 373.519531 268.800781 374.800781 269.519531 375.601562 270.398438 C 376.398438 271.28125 377.679688 272 378.398438 272 C 379.121094 272 380.398438 272.71875 381.199219 273.601562 C 382 274.480469 383.199219 275.199219 383.761719 275.199219 C 384.398438 275.199219 385.839844 275.921875 386.960938 276.800781 C 388.078125 277.679688 389.519531 278.398438 390.078125 278.398438 C 390.71875 278.398438 391.199219 278.71875 391.199219 279.199219 C 391.199219 279.601562 392.480469 280.480469 394 281.121094 C 395.519531 281.761719 396.800781 282.71875 396.800781 283.121094 C 396.800781 283.601562 397.761719 284.238281 399.039062 284.480469 C 401.679688 285.199219 407.199219 287.921875 408.640625 289.359375 C 409.199219 289.921875 410.160156 290.398438 410.71875 290.398438 C 411.28125 290.398438 412.398438 291.121094 413.199219 292 C 414 292.878906 415.28125 293.601562 416 293.601562 C 416.800781 293.601562 417.839844 294.160156 418.480469 294.878906 C 419.039062 295.601562 420.640625 296.71875 422.078125 297.441406 C 430.238281 301.679688 433.359375 303.441406 434.398438 304.398438 C 435.039062 304.960938 436.558594 305.761719 437.839844 306 C 439.039062 306.320312 440.398438 307.28125 440.878906 308.078125 C 441.28125 308.960938 442.320312 309.601562 443.199219 309.601562 C 444.078125 309.601562 445.359375 310.238281 446.160156 311.039062 C 447.921875 312.878906 455.679688 316.160156 458.160156 316.160156 C 459.121094 316.160156 460.878906 315.441406 462.078125 314.480469 C 463.28125 313.601562 464.878906 312.800781 465.679688 312.800781 C 466.480469 312.800781 467.761719 312.160156 468.558594 311.28125 C 469.359375 310.480469 470.960938 309.601562 472.238281 309.28125 C 476.640625 308.238281 473.601562 303.761719 466.800781 301.199219 C 464.558594 300.320312 462.320312 299.039062 461.761719 298.238281 C 461.199219 297.441406 460.078125 296.800781 459.28125 296.800781 C 458.480469 296.800781 457.199219 296.078125 456.398438 295.199219 C 455.601562 294.320312 454.558594 293.601562 454.078125 293.601562 C 453.601562 293.601562 451.039062 292.160156 448.398438 290.398438 C 445.761719 288.640625 443.199219 287.199219 442.71875 287.199219 C 442.238281 287.199219 441.359375 286.71875 440.878906 286.078125 C 440.320312 285.441406 439.039062 284.71875 437.921875 284.480469 C 436.878906 284.160156 434.320312 282.71875 432.320312 281.199219 C 430.320312 279.679688 428.160156 278.398438 427.519531 278.398438 C 426.878906 278.398438 425.761719 277.679688 425.039062 276.800781 C 424.238281 275.921875 423.039062 275.199219 422.238281 275.199219 C 421.441406 275.199219 420.160156 274.480469 419.441406 273.601562 C 418.640625 272.71875 417.199219 272 416.238281 272 C 415.28125 272 413.839844 271.359375 413.039062 270.558594 C 412.238281 269.761719 410.71875 268.640625 409.601562 268.160156 C 406.160156 266.398438 404.320312 265.199219 402.878906 263.761719 C 402.078125 263.039062 400.878906 262.398438 400.078125 262.398438 C 399.28125 262.398438 397.839844 261.679688 396.800781 260.800781 C 395.761719 259.921875 394.238281 259.199219 393.441406 259.199219 C 392.640625 259.199219 391.761719 258.71875 391.519531 258.078125 C 391.28125 257.441406 390.078125 256.480469 388.960938 256 C 385.441406 254.558594 381.921875 252.480469 380.480469 250.960938 C 379.679688 250.238281 378.398438 249.601562 377.601562 249.601562 C 376.71875 249.601562 375.761719 249.121094 375.441406 248.480469 C 375.121094 247.921875 372.558594 246.398438 369.839844 245.199219 C 365.359375 243.28125 364.800781 242.71875 364.800781 240.71875 C 364.800781 238.320312 364.71875 238.398438 374.71875 233.359375 C 378.078125 231.679688 380.800781 230 380.800781 229.519531 C 380.800781 229.121094 381.761719 228.558594 382.960938 228.320312 C 384.160156 228 387.121094 226.320312 389.601562 224.640625 C 392 222.960938 394.398438 221.601562 394.878906 221.601562 C 395.359375 221.601562 396.238281 221.039062 396.800781 220.398438 C 397.921875 219.039062 402.078125 218.800781 402.800781 220 Z M 246.160156 320.160156 C 247.121094 321.679688 251.761719 324.800781 253.039062 324.800781 C 253.679688 324.800781 255.121094 325.519531 256.238281 326.398438 C 257.359375 327.28125 258.800781 328 259.441406 328 C 260.078125 328 261.039062 328.480469 261.519531 329.121094 C 262.078125 329.761719 264.398438 331.199219 266.800781 332.480469 C 269.199219 333.679688 271.761719 335.28125 272.480469 336.160156 C 273.28125 336.960938 274.398438 337.601562 274.960938 337.601562 C 275.601562 337.601562 277.039062 338.320312 278.160156 339.199219 C 279.28125 340.078125 280.71875 340.800781 281.28125 340.800781 C 281.921875 340.800781 284 342 286 343.519531 C 287.921875 345.039062 290.320312 346.558594 291.28125 346.800781 C 292.160156 347.121094 293.679688 348.078125 294.480469 348.878906 C 295.28125 349.679688 296.71875 350.398438 297.601562 350.398438 C 298.398438 350.398438 299.441406 350.878906 299.761719 351.441406 C 300.078125 352.078125 302.558594 353.519531 305.121094 354.800781 C 307.761719 356 310.398438 357.519531 311.039062 358.078125 C 311.601562 358.71875 312.640625 359.199219 313.199219 359.199219 C 313.839844 359.199219 314.800781 359.839844 315.359375 360.71875 C 315.921875 361.519531 317.601562 362.480469 319.039062 362.71875 C 320.398438 363.039062 321.601562 363.601562 321.601562 364 C 321.601562 364.398438 323.921875 365.839844 326.800781 367.199219 C 329.679688 368.558594 332 370 332 370.398438 C 332 370.800781 333.039062 371.28125 334.320312 371.601562 C 335.601562 371.839844 337.28125 372.800781 338.078125 373.679688 C 338.800781 374.480469 339.921875 375.199219 340.558594 375.199219 C 341.121094 375.199219 342.238281 375.921875 342.960938 376.800781 C 343.761719 377.679688 344.71875 378.398438 345.121094 378.398438 C 346.480469 378.398438 353.199219 381.839844 353.761719 382.878906 C 354.078125 383.359375 355.28125 384.078125 356.398438 384.320312 C 357.519531 384.640625 359.121094 385.519531 360 386.398438 C 360.878906 387.28125 362.320312 388 363.199219 388 C 364.078125 388 365.039062 388.480469 365.28125 389.121094 C 365.519531 389.761719 367.761719 391.199219 370.320312 392.320312 C 372.878906 393.441406 375.441406 394.960938 376 395.601562 C 376.558594 396.238281 377.679688 396.800781 378.480469 396.800781 C 379.28125 396.800781 380.320312 397.519531 380.800781 398.398438 C 381.28125 399.28125 382.320312 400 383.121094 400 C 383.921875 400 385.519531 400.71875 386.640625 401.601562 C 387.761719 402.480469 388.960938 403.199219 389.359375 403.199219 C 389.761719 403.199219 390.878906 404.238281 391.839844 405.601562 C 393.519531 407.839844 393.601562 408.640625 393.601562 427.921875 C 393.601562 448.398438 393.359375 450.078125 390.558594 447.839844 C 388.238281 446 384.238281 444 382.878906 444 C 382.160156 444 381.359375 443.441406 381.121094 442.800781 C 380.878906 442.160156 379.441406 441.28125 378 440.800781 C 376.558594 440.320312 375.121094 439.441406 374.960938 438.800781 C 374.71875 438.238281 373.441406 437.519531 372.078125 437.199219 C 370.71875 436.878906 369.601562 436.320312 369.601562 435.921875 C 369.601562 435.441406 367.359375 434 364.640625 432.640625 C 356.160156 428.480469 354.078125 427.28125 353.441406 426 C 353.039062 425.359375 352.078125 424.800781 351.28125 424.800781 C 350.480469 424.800781 348.960938 424.160156 347.921875 423.359375 C 346.878906 422.558594 344.238281 421.039062 342 420 C 339.839844 418.960938 337.761719 417.679688 337.359375 417.121094 C 337.039062 416.558594 335.679688 415.921875 334.398438 415.601562 C 333.121094 415.28125 331.761719 414.640625 331.441406 414.160156 C 331.039062 413.601562 329.921875 412.71875 328.800781 412.160156 C 327.679688 411.601562 325.039062 410.078125 322.800781 408.800781 C 320.640625 407.519531 318.160156 406.480469 317.359375 406.480469 C 316.558594 406.398438 315.761719 405.839844 315.441406 405.199219 C 315.199219 404.480469 313.839844 403.441406 312.480469 402.800781 C 311.121094 402.160156 308.960938 400.878906 307.601562 400 C 306.320312 399.121094 304.160156 397.839844 302.800781 397.121094 C 301.519531 396.398438 300.078125 395.28125 299.761719 394.71875 C 299.441406 394.078125 298.640625 393.601562 298.078125 393.601562 C 296.320312 393.601562 287.519531 388.878906 285.199219 386.71875 C 283.761719 385.441406 282.320312 384.800781 280.878906 384.960938 L 278.800781 385.199219 L 278.800781 395.121094 C 278.800781 404.160156 278.960938 405.121094 280.398438 405.921875 C 281.28125 406.398438 284.078125 408.160156 286.71875 409.761719 C 289.28125 411.441406 291.679688 412.800781 292.078125 412.800781 C 292.480469 412.800781 293.519531 413.519531 294.398438 414.398438 C 295.28125 415.28125 296.640625 416 297.519531 416 C 298.320312 416 299.519531 416.558594 300.078125 417.28125 C 300.640625 418 302.960938 419.441406 305.199219 420.558594 C 312.160156 424 314.800781 425.519531 315.679688 426.800781 C 316.160156 427.441406 317.679688 428.238281 319.121094 428.480469 C 320.480469 428.800781 321.601562 429.28125 321.601562 429.601562 C 321.601562 430 323.679688 431.28125 326.238281 432.558594 C 328.71875 433.761719 331.039062 435.199219 331.359375 435.679688 C 331.679688 436.238281 332.960938 436.878906 334.160156 437.199219 C 335.441406 437.519531 337.039062 438.398438 337.839844 439.28125 C 338.640625 440.078125 339.761719 440.800781 340.320312 440.800781 C 340.878906 440.800781 342 441.519531 342.800781 442.398438 C 343.601562 443.28125 344.558594 444 345.039062 444 C 346.320312 444 353.601562 447.519531 353.601562 448.160156 C 353.601562 448.480469 354.800781 449.359375 356.238281 450 C 357.601562 450.71875 360.238281 452.160156 362 453.199219 C 363.761719 454.238281 366.160156 455.679688 367.441406 456.398438 C 368.640625 457.039062 369.601562 458 369.601562 458.398438 C 369.601562 458.878906 370.238281 459.199219 371.121094 459.199219 C 371.921875 459.199219 373.519531 459.921875 374.640625 460.800781 C 375.761719 461.679688 377.199219 462.398438 377.839844 462.398438 C 378.558594 462.398438 379.679688 463.039062 380.480469 463.761719 C 381.199219 464.480469 383.761719 466.078125 386.078125 467.28125 C 394.320312 471.28125 393.601562 465.921875 393.601562 526.640625 C 393.601562 563.441406 393.359375 580.078125 392.71875 580.398438 C 392.320312 580.71875 391.28125 580.398438 390.480469 579.679688 C 389.679688 578.960938 388.480469 578.398438 387.761719 578.398438 C 386.960938 578.398438 385.761719 577.679688 385.039062 576.800781 C 384.238281 575.921875 383.199219 575.199219 382.640625 575.199219 C 382.160156 575.199219 381.199219 574.71875 380.640625 574.078125 C 380 573.519531 378.398438 572.398438 376.960938 571.679688 C 375.519531 570.960938 374.398438 570 374.398438 569.601562 C 374.398438 569.121094 373.519531 568.800781 372.480469 568.800781 C 371.441406 568.800781 369.761719 568.160156 368.71875 567.28125 C 367.679688 566.480469 366 565.601562 365.039062 565.28125 C 364 564.960938 363.199219 564.398438 363.199219 564.078125 C 363.199219 563.679688 362.160156 562.960938 360.800781 562.398438 C 359.519531 561.839844 358.398438 561.121094 358.398438 560.71875 C 358.398438 560.320312 357.921875 560 357.28125 560 C 356.640625 560 355.039062 559.121094 353.761719 558 C 352.398438 556.878906 350.960938 556 350.558594 556 C 348.71875 556 338.398438 549.921875 337.359375 548.238281 C 337.039062 547.679688 336.078125 547.199219 335.199219 547.199219 C 334.398438 547.199219 332.71875 546.398438 331.441406 545.359375 C 327.199219 542 319.121094 537.601562 317.199219 537.601562 C 316.480469 537.601562 315.761719 537.039062 315.441406 536.398438 C 315.199219 535.679688 313.839844 534.640625 312.480469 534 C 311.121094 533.28125 308.558594 531.921875 306.800781 530.800781 C 305.039062 529.761719 302.800781 528.558594 301.839844 528.078125 C 300.960938 527.679688 299.921875 526.878906 299.601562 526.480469 C 299.359375 526 298.398438 525.601562 297.601562 525.601562 C 296.800781 525.601562 295.121094 524.71875 293.921875 523.601562 C 292.71875 522.480469 291.359375 521.601562 290.800781 521.601562 C 290.238281 521.601562 288.238281 520.320312 286.238281 518.878906 C 284.238281 517.359375 281.679688 515.839844 280.558594 515.601562 C 279.359375 515.28125 278.078125 514.558594 277.519531 513.921875 C 277.039062 513.28125 276 512.800781 275.199219 512.800781 C 274.398438 512.800781 273.359375 512.238281 272.800781 511.601562 C 272.238281 510.960938 270.878906 509.921875 269.679688 509.28125 C 268.558594 508.71875 266.398438 507.601562 265.039062 506.878906 C 263.601562 506.078125 262.238281 505.121094 262 504.71875 C 261.679688 504.320312 260.320312 503.441406 258.960938 502.800781 C 257.519531 502.160156 255.839844 501.28125 255.199219 500.878906 C 254.558594 500.480469 253.121094 499.761719 252 499.28125 C 248.960938 497.839844 246.238281 496.238281 245.679688 495.441406 C 245.441406 495.039062 244.238281 494.320312 243.039062 493.839844 L 240.800781 492.800781 L 240.800781 471.679688 C 240.800781 455.519531 241.039062 450.480469 241.839844 450.160156 C 243.121094 449.679688 246.398438 450.960938 246.398438 452 C 246.398438 452.398438 246.960938 452.800781 247.601562 452.800781 C 248.238281 452.800781 249.441406 453.519531 250.160156 454.398438 C 250.960938 455.28125 252.160156 456 252.960938 456 C 253.679688 456 255.28125 456.878906 256.480469 458 C 257.679688 459.121094 259.28125 460 260.078125 460 C 260.878906 460 261.679688 460.320312 262 460.71875 C 262.238281 461.199219 263.519531 462.078125 264.800781 462.71875 C 266.160156 463.441406 268.238281 464.558594 269.519531 465.199219 C 270.800781 465.921875 272.238281 466.960938 272.800781 467.601562 C 273.359375 468.238281 274.480469 468.800781 275.28125 468.800781 C 276.078125 468.800781 277.121094 469.441406 277.519531 470.320312 C 278 471.121094 279.519531 472.078125 280.960938 472.320312 C 282.398438 472.640625 285.039062 473.921875 286.71875 475.199219 C 288.480469 476.558594 290.320312 477.601562 290.800781 477.601562 C 291.359375 477.601562 292.71875 478.480469 293.921875 479.601562 C 295.121094 480.71875 296.800781 481.601562 297.601562 481.601562 C 298.398438 481.601562 299.441406 482.078125 299.761719 482.640625 C 300.078125 483.28125 302.398438 484.71875 304.800781 485.921875 C 312.480469 489.761719 314.71875 491.121094 315.359375 492.320312 C 315.679688 492.878906 316.878906 493.679688 318 493.921875 C 319.039062 494.160156 321.601562 495.519531 323.601562 496.878906 C 328.558594 500.238281 334.238281 503.199219 335.679688 503.199219 C 336.320312 503.199219 337.039062 503.761719 337.359375 504.398438 C 337.601562 505.121094 338.960938 506.160156 340.320312 506.800781 C 341.679688 507.441406 343.921875 508.71875 345.199219 509.601562 C 346.558594 510.480469 348.480469 511.601562 349.601562 512.078125 C 350.71875 512.558594 352.238281 513.28125 353.039062 513.679688 C 353.839844 514.160156 354.800781 514.238281 355.199219 514 C 355.679688 513.679688 356 509.199219 356 503.921875 C 356 496.238281 355.761719 494.238281 354.800781 493.921875 C 354.160156 493.679688 353.441406 492.800781 353.199219 491.921875 C 352.878906 491.121094 352.078125 490.398438 351.28125 490.398438 C 350.480469 490.398438 348.960938 489.761719 347.921875 488.960938 C 346.878906 488.160156 344.160156 486.71875 341.839844 485.679688 C 339.519531 484.640625 337.519531 483.28125 337.28125 482.71875 C 337.121094 482.238281 335.761719 481.519531 334.398438 481.199219 C 333.039062 480.878906 331.679688 480.160156 331.441406 479.519531 C 331.199219 478.878906 330.640625 478.398438 330.160156 478.398438 C 329.761719 478.398438 327.441406 477.121094 325.121094 475.601562 C 322.800781 474.078125 319.761719 472.558594 318.398438 472.320312 C 317.039062 472 315.601562 471.121094 315.121094 470.320312 C 314.71875 469.441406 313.761719 468.800781 313.039062 468.800781 C 312.320312 468.800781 311.039062 468.238281 310.238281 467.441406 C 308.558594 465.921875 306.320312 464.558594 302.640625 462.800781 C 301.28125 462.160156 299.921875 461.28125 299.601562 460.800781 C 299.359375 460.398438 298.398438 460 297.601562 460 C 296.800781 460 295.121094 459.121094 293.921875 458 C 292.71875 456.878906 291.28125 456 290.71875 456 C 290.160156 456 288.160156 454.800781 286.160156 453.28125 C 284.238281 451.761719 281.761719 450.320312 280.71875 450 C 279.679688 449.679688 278.320312 448.71875 277.761719 447.921875 C 277.199219 447.039062 275.921875 446.398438 275.039062 446.398438 C 274.078125 446.398438 272.71875 445.921875 272.078125 445.28125 C 271.359375 444.640625 268.960938 443.199219 266.640625 442 C 264.398438 440.878906 262.078125 439.359375 261.519531 438.71875 C 261.039062 438.078125 259.921875 437.601562 259.121094 437.601562 C 258.320312 437.601562 257.199219 436.878906 256.558594 436 C 255.921875 435.121094 254.320312 434.160156 252.960938 433.921875 C 251.601562 433.601562 250 432.878906 249.519531 432.320312 C 249.039062 431.679688 248.160156 431.199219 247.601562 431.199219 C 247.039062 431.199219 246.078125 430.640625 245.519531 429.921875 C 244.960938 429.199219 243.679688 428.320312 242.640625 427.921875 L 240.800781 427.199219 L 240.800781 319.199219 L 243.199219 319.199219 C 244.480469 319.199219 245.839844 319.679688 246.160156 320.160156 Z M 559.199219 405.839844 L 559.199219 492.480469 L 556 494.558594 C 554.238281 495.761719 552.160156 496.878906 551.28125 497.199219 C 550.480469 497.441406 549.519531 498.160156 549.28125 498.800781 C 549.039062 499.441406 548.160156 500 547.359375 500 C 546.480469 500 544.878906 500.71875 543.761719 501.601562 C 542.640625 502.480469 541.199219 503.199219 540.558594 503.199219 C 539.921875 503.199219 538.960938 503.679688 538.480469 504.320312 C 537.921875 504.960938 535.601562 506.480469 533.359375 507.601562 C 531.039062 508.800781 528.480469 510.398438 527.601562 511.199219 C 525.519531 512.960938 523.679688 513.601562 522.480469 512.878906 C 521.761719 512.398438 521.601562 496.800781 521.601562 448.558594 L 521.601562 384.800781 L 519.601562 384.800781 C 518.398438 384.800781 515.839844 386.078125 513.839844 387.601562 C 511.839844 389.121094 509.761719 390.398438 509.359375 390.398438 C 508.878906 390.398438 507.121094 391.359375 505.441406 392.480469 L 502.398438 394.640625 L 502.398438 524.558594 L 500.640625 526.160156 C 499.601562 527.039062 498.238281 528 497.601562 528.238281 C 496.960938 528.558594 494.960938 529.679688 493.199219 530.800781 C 491.441406 531.921875 488.800781 533.359375 487.441406 534 C 486 534.640625 484.800781 535.601562 484.800781 536 C 484.800781 536.480469 484.160156 537.039062 483.441406 537.359375 C 479.199219 538.800781 474.71875 541.121094 474.160156 542.078125 C 473.839844 542.71875 472.800781 543.199219 472 543.199219 C 471.199219 543.199219 470 543.839844 469.441406 544.71875 C 468.160156 546.480469 465.601562 547.359375 464.160156 546.558594 C 463.359375 546 463.121094 532.960938 462.960938 482.71875 L 462.800781 419.601562 L 461.039062 419.359375 C 460.078125 419.199219 457.761719 420 455.839844 421.121094 C 453.921875 422.320312 451.199219 423.761719 449.679688 424.480469 C 448.160156 425.121094 446.320312 426.480469 445.519531 427.441406 C 444.078125 429.121094 444 432.238281 444.078125 493.839844 L 444.078125 558.480469 L 442.238281 560.398438 C 441.199219 561.519531 440 562.398438 439.519531 562.398438 C 439.039062 562.398438 437.839844 563.121094 436.800781 564 C 435.761719 564.878906 434.640625 565.601562 434.238281 565.601562 C 433.761719 565.601562 432.558594 566.320312 431.441406 567.199219 C 430.320312 568.078125 428.558594 568.800781 427.519531 568.800781 C 426.480469 568.800781 425.601562 569.121094 425.601562 569.601562 C 425.601562 570 424.480469 570.960938 423.039062 571.679688 C 421.601562 572.398438 420 573.519531 419.359375 574.078125 C 418.800781 574.71875 417.761719 575.199219 417.121094 575.199219 C 416.480469 575.199219 415.761719 575.679688 415.519531 576.320312 C 415.28125 576.960938 414.160156 577.679688 412.960938 578 C 411.761719 578.320312 410.160156 579.039062 409.441406 579.761719 C 408.71875 580.398438 407.679688 580.71875 407.28125 580.398438 C 406.640625 580.078125 406.398438 553.761719 406.398438 493.839844 C 406.398438 408.160156 406.398438 407.839844 408.078125 405.519531 C 408.960938 404.238281 410.160156 403.199219 410.71875 403.199219 C 411.359375 403.199219 412.238281 402.71875 412.71875 402.078125 C 413.28125 401.441406 414.800781 400.640625 416.078125 400.398438 C 417.359375 400.078125 418.800781 399.199219 419.199219 398.320312 C 419.679688 397.519531 420.71875 396.800781 421.519531 396.800781 C 422.320312 396.800781 423.441406 396.238281 424 395.601562 C 424.558594 394.960938 427.121094 393.441406 429.679688 392.320312 C 432.238281 391.199219 434.480469 389.761719 434.71875 389.121094 C 434.960938 388.480469 435.839844 388 436.71875 388 C 437.601562 388 439.28125 387.121094 440.480469 386 C 441.679688 384.878906 443.28125 384 444.078125 384 C 444.878906 384 445.839844 383.519531 446.160156 382.960938 C 446.800781 381.839844 453.441406 378.398438 454.878906 378.398438 C 455.28125 378.398438 456.238281 377.679688 457.039062 376.800781 C 457.761719 375.921875 458.878906 375.199219 459.441406 375.199219 C 460.078125 375.199219 461.199219 374.480469 461.921875 373.679688 C 462.71875 372.800781 464.398438 371.839844 465.679688 371.601562 C 466.960938 371.28125 468.238281 370.640625 468.558594 370.160156 C 468.960938 369.601562 471.28125 368.160156 473.839844 366.960938 C 476.320312 365.761719 478.398438 364.398438 478.398438 364 C 478.398438 363.679688 479.601562 363.039062 480.960938 362.71875 C 482.398438 362.480469 484.078125 361.519531 484.640625 360.71875 C 485.199219 359.839844 486.160156 359.199219 486.800781 359.199219 C 487.359375 359.199219 488.398438 358.71875 488.960938 358.160156 C 490.398438 356.71875 496.640625 353.601562 498 353.601562 C 498.640625 353.601562 499.601562 352.878906 500.160156 352 C 500.71875 351.121094 501.839844 350.398438 502.640625 350.398438 C 503.359375 350.398438 504.640625 349.679688 505.359375 348.800781 C 506.160156 347.921875 507.121094 347.199219 507.601562 347.199219 C 508 347.199219 510.480469 345.761719 513.039062 344 C 515.519531 342.238281 518.078125 340.800781 518.71875 340.800781 C 519.28125 340.800781 520.71875 340.078125 521.839844 339.199219 C 522.960938 338.320312 524.398438 337.601562 525.039062 337.601562 C 525.679688 337.601562 526.640625 337.039062 527.199219 336.320312 C 527.839844 335.679688 529.359375 334.558594 530.71875 333.921875 C 534.320312 332.238281 536.558594 330.800781 538.238281 329.359375 C 539.039062 328.558594 540.160156 328 540.71875 328 C 541.28125 328 542.640625 327.28125 543.761719 326.398438 C 544.878906 325.519531 546.320312 324.800781 546.960938 324.800781 C 548.238281 324.800781 552.878906 321.679688 553.839844 320.160156 C 554.160156 319.679688 555.519531 319.199219 556.800781 319.199219 L 559.199219 319.199219 Z M 559.199219 405.839844 "/>
<path style=" stroke:none;fill-rule:nonzero;fill:rgb(0%,0%,0%);fill-opacity:1;" d="M 392.398438 225.199219 C 388.878906 227.601562 385.441406 229.601562 384.71875 229.601562 C 384 229.601562 382.960938 230.078125 382.480469 230.71875 C 381.921875 231.359375 379.601562 232.878906 377.359375 234 C 375.039062 235.199219 372.640625 236.640625 372 237.199219 C 371.359375 237.761719 370.078125 238.398438 369.199219 238.558594 C 368.320312 238.71875 367.519531 239.519531 367.359375 240.398438 C 367.199219 241.679688 368.160156 242.480469 371.761719 244.238281 C 378.160156 247.199219 381.039062 248.960938 382.238281 250.558594 C 382.800781 251.359375 384.078125 252 385.121094 252 C 386.160156 252 387.601562 252.71875 388.398438 253.601562 C 389.199219 254.480469 390.320312 255.199219 390.800781 255.199219 C 391.359375 255.199219 392.238281 255.679688 392.71875 256.320312 C 393.921875 257.761719 398.878906 260.398438 401.839844 261.121094 C 403.039062 261.359375 404 262 404 262.398438 C 404 262.800781 405.199219 263.761719 406.640625 264.398438 C 410.398438 266.320312 413.519531 268.078125 417.839844 271.039062 C 419.921875 272.398438 422.320312 273.601562 423.121094 273.601562 C 423.921875 273.601562 425.199219 274.320312 426 275.199219 C 426.800781 276.078125 428.078125 276.800781 428.878906 276.800781 C 429.679688 276.800781 430.960938 277.519531 431.761719 278.320312 C 433.199219 279.761719 440.078125 284 443.921875 285.601562 C 444.960938 286.078125 446.71875 287.121094 447.839844 288 C 448.878906 288.878906 450.398438 289.601562 451.199219 289.601562 C 451.921875 289.601562 453.199219 290.320312 454 291.199219 C 454.800781 292.078125 455.761719 292.800781 456.078125 292.800781 C 456.960938 292.800781 463.839844 297.441406 464.398438 298.480469 C 464.71875 298.878906 465.761719 299.199219 466.800781 299.199219 C 467.839844 299.199219 468.960938 299.601562 469.199219 300 C 469.519531 300.480469 470.960938 301.359375 472.398438 301.921875 C 476.960938 303.839844 477.359375 309.199219 473.121094 310.71875 C 471.761719 311.199219 470 312.238281 469.28125 312.960938 C 468.480469 313.761719 467.359375 314.398438 466.800781 314.398438 C 465.28125 314.398438 460 317.601562 460 318.480469 C 460 319.679688 456 319.28125 455.519531 318.078125 C 455.28125 317.441406 454.160156 316.800781 452.960938 316.558594 C 450.480469 316.078125 440.960938 310.640625 438.878906 308.558594 C 438.078125 307.839844 436.878906 307.199219 436.078125 307.199219 C 435.28125 307.199219 434 306.480469 433.199219 305.601562 C 432.398438 304.71875 431.121094 304 430.320312 304 C 429.519531 304 428.71875 303.679688 428.480469 303.28125 C 428.238281 302.960938 426.078125 301.601562 423.601562 300.398438 C 421.199219 299.121094 418.640625 297.519531 417.921875 296.640625 C 417.121094 295.839844 415.921875 295.199219 415.199219 295.199219 C 414.480469 295.199219 412.71875 294.320312 411.199219 293.199219 C 409.679688 292.078125 408 291.199219 407.441406 291.199219 C 406.878906 291.199219 406.398438 290.800781 406.398438 290.398438 C 406.398438 289.921875 404.078125 288.480469 401.28125 287.199219 C 398.480469 285.839844 395.761719 284.238281 395.199219 283.601562 C 394.640625 282.960938 393.601562 282.398438 392.800781 282.398438 C 392.078125 282.398438 390.800781 281.679688 390 280.800781 C 389.199219 279.921875 388.160156 279.199219 387.679688 279.199219 C 387.199219 279.199219 384.878906 277.921875 382.480469 276.398438 C 380.160156 274.878906 377.761719 273.601562 377.199219 273.601562 C 376.558594 273.601562 375.441406 272.960938 374.640625 272.078125 C 373.839844 271.28125 372.320312 270.320312 371.199219 270 C 370.078125 269.679688 368.640625 268.960938 368 268.320312 C 367.28125 267.761719 364.960938 266.320312 362.878906 265.199219 C 360.800781 264.078125 358.480469 262.640625 357.839844 262 C 357.199219 261.359375 356.078125 260.800781 355.28125 260.800781 C 354.480469 260.800781 353.199219 260.078125 352.398438 259.199219 C 351.601562 258.320312 350.320312 257.601562 349.601562 257.601562 C 348.878906 257.601562 347.441406 256.878906 346.398438 256 C 344.320312 254.160156 340.160156 253.839844 339.519531 255.519531 C 339.28125 256.078125 336.800781 257.761719 333.921875 259.28125 C 331.039062 260.71875 328.558594 262.160156 328.320312 262.558594 C 328.078125 262.878906 327.28125 263.199219 326.480469 263.199219 C 325.679688 263.199219 324.078125 264.078125 322.878906 265.199219 C 321.679688 266.320312 320.398438 267.199219 319.921875 267.199219 C 319.519531 267.199219 317.441406 268.480469 315.199219 270 C 313.039062 271.519531 310.398438 272.960938 309.28125 273.28125 C 308.160156 273.519531 306.878906 274.238281 306.320312 274.878906 C 305.839844 275.519531 304.800781 276 304 276 C 303.199219 276 302.160156 276.558594 301.601562 277.199219 C 301.039062 277.921875 298.238281 279.761719 295.519531 281.28125 C 292.71875 282.878906 290.238281 284.480469 289.921875 284.878906 C 289.679688 285.28125 288.878906 285.601562 288.078125 285.601562 C 287.28125 285.601562 286.160156 286.078125 285.679688 286.71875 C 285.121094 287.359375 283.679688 288.160156 282.398438 288.398438 C 281.199219 288.640625 279.519531 289.601562 278.71875 290.480469 C 278 291.28125 277.039062 292 276.71875 292 C 276.320312 292 273.921875 293.441406 271.441406 295.199219 C 268.878906 296.960938 266.160156 298.398438 265.359375 298.398438 C 264.558594 298.398438 263.761719 298.878906 263.519531 299.519531 C 263.28125 300.160156 262.078125 301.039062 260.878906 301.441406 C 257.679688 302.558594 252 306.238281 252 307.199219 C 252 307.679688 252.71875 308 253.601562 308 C 254.480469 308 255.921875 308.71875 256.800781 309.601562 C 257.679688 310.480469 259.28125 311.359375 260.398438 311.679688 C 261.519531 311.921875 262.558594 312.480469 262.800781 312.800781 C 262.960938 313.121094 265.28125 314.398438 267.761719 315.679688 C 270.320312 316.878906 272.878906 318.558594 273.441406 319.359375 C 274 320.160156 275.121094 320.800781 275.921875 320.800781 C 276.71875 320.800781 278 321.519531 278.800781 322.398438 C 279.601562 323.28125 280.800781 324 281.519531 324.078125 C 282.238281 324.078125 284.640625 325.121094 286.800781 326.480469 C 289.039062 327.761719 291.519531 329.121094 292.398438 329.519531 C 293.359375 329.921875 294.480469 330.800781 295.039062 331.441406 C 295.601562 332.078125 297.039062 332.878906 298.160156 333.199219 C 299.359375 333.441406 300.800781 334.398438 301.441406 335.28125 C 302 336.078125 302.960938 336.800781 303.519531 336.800781 C 305.121094 336.800781 315.441406 342.320312 317.039062 344.078125 C 317.839844 344.878906 319.039062 345.601562 319.761719 345.601562 C 320.480469 345.601562 321.679688 346.160156 322.480469 346.878906 C 324.078125 348.320312 327.199219 350.078125 333.519531 353.28125 C 335.839844 354.480469 338.480469 356.078125 339.28125 356.878906 C 340.160156 357.761719 341.441406 358.398438 342.238281 358.398438 C 343.039062 358.398438 344.238281 359.121094 345.039062 360 C 345.761719 360.878906 347.121094 361.601562 347.921875 361.601562 C 348.800781 361.601562 349.761719 362 350 362.398438 C 350.800781 363.679688 356.558594 367.199219 357.839844 367.199219 C 358.480469 367.199219 359.601562 367.921875 360.398438 368.800781 C 361.199219 369.679688 362.480469 370.398438 363.28125 370.398438 C 364.078125 370.398438 365.28125 371.039062 366.078125 371.761719 C 367.519531 373.28125 369.199219 374.320312 376.398438 378 C 379.039062 379.28125 381.761719 381.039062 382.558594 381.761719 C 383.359375 382.558594 384.640625 383.199219 385.441406 383.199219 C 386.320312 383.199219 387.601562 383.921875 388.398438 384.800781 C 389.199219 385.679688 390.238281 386.398438 390.640625 386.398438 C 391.039062 386.398438 393.359375 387.679688 395.679688 389.199219 C 400.398438 392.320312 400.960938 392.480469 402.398438 390.800781 C 402.960938 390.160156 404 389.601562 404.800781 389.601562 C 405.519531 389.601562 407.121094 388.71875 408.238281 387.679688 C 409.359375 386.640625 411.839844 385.039062 413.839844 384.078125 C 415.839844 383.121094 417.921875 381.761719 418.398438 381.121094 C 418.960938 380.558594 419.839844 380 420.398438 380 C 423.441406 380 434.238281 372.878906 433.359375 371.441406 C 433.121094 371.039062 429.839844 369.121094 426.078125 367.199219 C 422.320312 365.359375 418.640625 363.121094 417.921875 362.320312 C 417.199219 361.441406 415.921875 360.800781 415.199219 360.800781 C 414.398438 360.800781 412.960938 360.160156 411.921875 359.28125 C 410.878906 358.480469 407.121094 356.320312 403.601562 354.398438 C 400.078125 352.558594 396.480469 350.320312 395.519531 349.519531 C 394.640625 348.640625 393.359375 348 392.640625 348 C 392 348 390.800781 347.28125 390 346.398438 C 389.199219 345.519531 388.160156 344.800781 387.679688 344.800781 C 387.199219 344.800781 384.878906 343.519531 382.480469 342 C 380.160156 340.480469 377.761719 339.199219 377.121094 339.199219 C 376.480469 339.199219 375.359375 338.480469 374.640625 337.601562 C 373.839844 336.71875 372.078125 335.761719 370.71875 335.519531 C 369.28125 335.28125 367.921875 334.558594 367.761719 334.078125 C 367.519531 333.519531 365.441406 332.078125 363.039062 330.800781 C 360.71875 329.601562 358.238281 328.160156 357.519531 327.519531 C 356.878906 326.878906 355.761719 326.398438 355.039062 326.398438 C 354.398438 326.398438 353.199219 325.679688 352.398438 324.800781 C 351.601562 323.921875 350.320312 323.199219 349.601562 323.199219 C 348.878906 323.199219 347.121094 322.320312 345.601562 321.199219 C 344.078125 320.078125 342.558594 319.199219 342.160156 319.199219 C 341.761719 319.199219 340.078125 318.160156 338.480469 316.878906 C 336.878906 315.601562 334.480469 314.320312 333.039062 314.078125 C 331.679688 313.761719 330.320312 313.039062 330.160156 312.398438 C 329.921875 311.839844 328.640625 311.121094 327.28125 310.800781 C 322.71875 309.839844 323.28125 302.800781 328 301.921875 C 329.28125 301.601562 330.800781 300.878906 331.28125 300.320312 C 331.761719 299.679688 332.800781 299.199219 333.519531 299.199219 C 334.238281 299.121094 336.078125 298.078125 337.601562 296.800781 C 339.121094 295.441406 340.878906 294.398438 341.601562 294.398438 C 344 294.398438 349.679688 296.800781 352.960938 299.199219 C 354.71875 300.480469 356.878906 301.601562 357.601562 301.601562 C 358.320312 301.601562 359.601562 302.320312 360.398438 303.199219 C 361.199219 304.078125 362.480469 304.800781 363.199219 304.800781 C 363.921875 304.800781 365.519531 305.679688 366.71875 306.800781 C 367.921875 307.921875 369.199219 308.800781 369.601562 308.800781 C 370 308.800781 371.839844 309.839844 373.761719 311.121094 C 375.679688 312.398438 378.078125 313.679688 379.199219 314 C 380.320312 314.320312 381.679688 315.28125 382.238281 316.078125 C 382.800781 316.960938 384.078125 317.601562 385.121094 317.601562 C 386.160156 317.601562 387.601562 318.320312 388.398438 319.199219 C 389.199219 320.078125 390.160156 320.800781 390.480469 320.800781 C 390.800781 320.800781 392.960938 322.078125 395.28125 323.601562 C 397.679688 325.121094 400.160156 326.398438 400.960938 326.398438 C 401.679688 326.398438 402.960938 327.121094 403.761719 327.921875 C 404.558594 328.800781 406.160156 329.679688 407.441406 330 C 408.640625 330.320312 409.601562 330.878906 409.601562 331.28125 C 409.601562 331.601562 411.519531 332.878906 413.839844 334 C 416.078125 335.199219 418.71875 336.800781 419.679688 337.679688 C 420.558594 338.480469 422 339.199219 422.960938 339.199219 C 423.839844 339.199219 425.199219 339.921875 426 340.800781 C 426.800781 341.679688 428.078125 342.398438 428.878906 342.398438 C 429.679688 342.398438 430.960938 343.039062 431.761719 343.921875 C 432.558594 344.71875 435.039062 346.398438 437.359375 347.601562 C 439.601562 348.71875 441.601562 350 441.761719 350.238281 C 442.078125 350.960938 450.320312 355.199219 451.359375 355.199219 C 451.761719 355.199219 453.039062 355.921875 454.160156 356.800781 C 456.71875 358.800781 459.359375 358.878906 461.121094 356.878906 C 461.921875 356 463.601562 355.039062 464.800781 354.800781 C 466.078125 354.558594 467.519531 353.761719 468.078125 353.121094 C 468.558594 352.480469 469.28125 352 469.679688 352 C 470.078125 352 472.480469 350.558594 474.960938 348.800781 C 477.519531 347.039062 480.078125 345.601562 480.71875 345.601562 C 481.359375 345.601562 482.640625 344.878906 483.519531 344.078125 C 484.480469 343.28125 487.121094 341.601562 489.441406 340.398438 C 491.761719 339.199219 493.839844 337.921875 494.078125 337.519531 C 494.320312 337.121094 495.199219 336.800781 496.078125 336.800781 C 496.878906 336.800781 498.238281 336.160156 499.039062 335.359375 C 499.761719 334.640625 501.28125 333.519531 502.398438 332.960938 C 503.519531 332.398438 506.238281 330.878906 508.398438 329.519531 C 510.640625 328.238281 514.238281 326.238281 516.558594 325.121094 C 518.800781 324.078125 521.121094 322.640625 521.601562 322 C 522.160156 321.359375 523.28125 320.800781 524.078125 320.800781 C 524.878906 320.800781 526 320.160156 526.558594 319.359375 C 527.121094 318.640625 529.761719 316.960938 532.398438 315.601562 C 535.039062 314.320312 537.359375 312.960938 537.441406 312.640625 C 537.601562 312.320312 538.160156 312 538.71875 312 C 539.28125 312 540.878906 311.121094 542.398438 310 C 543.921875 308.878906 545.761719 308 546.558594 308 C 547.359375 308 548 307.679688 548 307.199219 C 548 306.238281 542.320312 302.558594 539.121094 301.441406 C 537.921875 301.039062 536.71875 300.160156 536.480469 299.519531 C 536.238281 298.878906 535.441406 298.398438 534.640625 298.398438 C 533.839844 298.398438 531.121094 296.960938 528.558594 295.199219 C 526.078125 293.441406 523.679688 292 523.28125 292 C 522.960938 292 522 291.28125 521.199219 290.398438 C 520.398438 289.519531 519.121094 288.800781 518.398438 288.800781 C 517.601562 288.800781 516.078125 288.078125 514.960938 287.199219 C 513.839844 286.320312 512.398438 285.601562 511.761719 285.601562 C 511.039062 285.601562 510.238281 285.28125 510 284.800781 C 509.761719 284.398438 507.199219 282.71875 504.480469 281.199219 C 501.679688 279.601562 499.121094 277.839844 498.878906 277.199219 C 498.640625 276.558594 497.601562 276 496.558594 276 C 495.441406 276 494.160156 275.519531 493.679688 274.878906 C 493.121094 274.238281 491.839844 273.519531 490.71875 273.28125 C 488.71875 272.71875 484.878906 270.398438 482.558594 268.160156 C 482 267.679688 480.960938 267.199219 480.398438 267.199219 C 479.761719 267.199219 478.320312 266.320312 477.121094 265.199219 C 475.921875 264.078125 474.320312 263.199219 473.519531 263.199219 C 472.640625 263.199219 472 262.878906 472 262.480469 C 472 262.078125 470.800781 261.359375 469.28125 260.800781 C 467.839844 260.320312 464.878906 258.71875 462.71875 257.199219 C 460.558594 255.679688 458.398438 254.398438 457.921875 254.398438 C 457.441406 254.398438 456.398438 253.679688 455.601562 252.800781 C 454.800781 251.921875 453.601562 251.199219 452.878906 251.199219 C 451.679688 251.199219 445.441406 247.28125 444.960938 246.160156 C 444.800781 245.839844 444 245.601562 443.28125 245.601562 C 442.480469 245.601562 440.878906 244.71875 439.679688 243.601562 C 438.480469 242.480469 436.878906 241.601562 436.078125 241.601562 C 435.28125 241.601562 434 240.878906 433.199219 240 C 432.398438 239.121094 431.28125 238.398438 430.71875 238.398438 C 430.160156 238.398438 427.839844 237.121094 425.519531 235.601562 C 423.121094 234.078125 420.800781 232.800781 420.320312 232.800781 C 419.839844 232.800781 418.800781 232.078125 418 231.199219 C 417.199219 230.320312 416 229.601562 415.199219 229.601562 C 414.480469 229.601562 413.199219 229.039062 412.398438 228.398438 C 408.878906 225.679688 400.800781 220.800781 399.839844 220.800781 C 399.28125 220.878906 395.921875 222.800781 392.398438 225.199219 Z M 392.398438 225.199219 "/>
<path style=" stroke:none;fill-rule:nonzero;fill:rgb(0%,0%,0%);fill-opacity:1;" d="M 243.199219 373.839844 L 243.199219 426 L 245.761719 427.601562 C 247.199219 428.480469 249.601562 430 251.199219 430.960938 C 252.71875 431.921875 254.640625 432.71875 255.441406 432.800781 C 256.238281 432.800781 257.039062 433.359375 257.28125 434 C 257.519531 434.640625 258.960938 435.519531 260.398438 436 C 261.839844 436.480469 263.28125 437.359375 263.441406 437.921875 C 263.679688 438.480469 264.878906 439.28125 266.078125 439.519531 C 267.28125 439.839844 269.601562 441.199219 271.28125 442.480469 C 272.878906 443.761719 274.800781 444.800781 275.441406 444.800781 C 276.160156 444.800781 277.761719 445.679688 279.039062 446.800781 C 280.398438 447.921875 282 448.800781 282.640625 448.800781 C 283.28125 448.800781 284.238281 449.359375 284.800781 450.078125 C 285.441406 450.71875 286.960938 451.839844 288.320312 452.398438 C 291.359375 453.839844 293.359375 455.121094 295.359375 456.960938 C 296.160156 457.761719 297.441406 458.398438 298.320312 458.398438 C 299.121094 458.398438 300.238281 458.878906 300.71875 459.519531 C 301.28125 460.160156 302.558594 460.878906 303.601562 461.121094 C 304.71875 461.441406 308.800781 463.761719 312.71875 466.398438 C 316.558594 469.039062 320.320312 471.199219 321.039062 471.199219 C 321.761719 471.199219 322.558594 471.601562 322.800781 472 C 323.121094 472.480469 324.480469 473.359375 325.839844 474 C 327.28125 474.640625 329.519531 475.921875 330.800781 476.800781 C 332.160156 477.679688 334.398438 478.960938 335.839844 479.601562 C 337.28125 480.320312 338.640625 481.359375 338.960938 482 C 339.199219 482.640625 339.839844 483.199219 340.480469 483.199219 C 342.640625 483.199219 352.480469 488.960938 355.039062 491.761719 L 357.601562 494.558594 L 357.601562 504.398438 C 357.601562 516.398438 356.960938 517.761719 352.160156 515.199219 C 350.558594 514.320312 348.800781 513.601562 348.238281 513.601562 C 347.679688 513.601562 346.480469 512.878906 345.601562 512 C 344.71875 511.121094 343.441406 510.398438 342.800781 510.398438 C 342.160156 510.398438 340 509.199219 338.078125 507.761719 C 332.71875 503.921875 329.28125 501.921875 326.960938 501.28125 C 325.761719 501.039062 324.800781 500.480469 324.800781 500.078125 C 324.800781 499.679688 323.601562 498.960938 322.238281 498.320312 C 319.121094 497.121094 315.039062 494.398438 314.160156 492.960938 C 313.839844 492.480469 312.878906 492 312.078125 492 C 311.28125 492 309.679688 491.121094 308.480469 490 C 307.28125 488.878906 305.601562 488 304.800781 488 C 304 488 303.121094 487.679688 302.878906 487.28125 C 302.640625 486.878906 300.558594 485.601562 298.238281 484.398438 C 295.921875 483.199219 293.28125 481.601562 292.398438 480.800781 C 291.519531 480.078125 289.839844 479.199219 288.640625 478.878906 C 287.359375 478.640625 286.398438 478.078125 286.398438 477.679688 C 286.398438 477.28125 284.160156 475.839844 281.441406 474.480469 C 275.679688 471.601562 274.078125 470.71875 270.960938 468.160156 C 269.679688 467.199219 268 466.398438 267.199219 466.398438 C 266.480469 466.398438 265.359375 465.839844 264.800781 465.199219 C 264.238281 464.480469 261.839844 463.039062 259.519531 461.921875 C 257.28125 460.878906 255.121094 459.441406 254.878906 458.800781 C 254.640625 458.160156 253.679688 457.601562 252.640625 457.601562 C 251.679688 457.601562 250.160156 456.878906 249.28125 456.078125 C 248.320312 455.199219 246.640625 454.238281 245.441406 454 L 243.199219 453.441406 L 243.199219 491.601562 L 245.761719 493.199219 C 247.199219 494.078125 250.160156 495.839844 252.398438 497.121094 C 254.558594 498.320312 256.960938 499.839844 257.679688 500.480469 C 258.320312 501.121094 259.519531 501.601562 260.238281 501.601562 C 261.039062 501.601562 262.238281 502.320312 262.960938 503.199219 C 263.761719 504.078125 264.960938 504.800781 265.601562 504.800781 C 266.320312 504.800781 268 505.601562 269.359375 506.558594 C 271.921875 508.398438 272.480469 508.800781 277.839844 512.398438 C 279.519531 513.519531 281.679688 514.398438 282.71875 514.398438 C 283.761719 514.398438 284.800781 514.960938 285.039062 515.601562 C 285.359375 516.238281 286.71875 517.28125 288.160156 518 C 291.921875 519.761719 294.160156 521.121094 295.839844 522.640625 C 296.640625 523.441406 297.921875 524 298.558594 524 C 299.28125 524 300.238281 524.480469 300.71875 525.121094 C 301.28125 525.761719 302.800781 526.558594 304.078125 526.800781 C 305.441406 527.121094 306.71875 527.839844 306.960938 528.480469 C 307.121094 529.039062 308.078125 529.761719 308.960938 530.078125 C 310.800781 530.640625 315.28125 533.601562 317.199219 535.519531 C 317.921875 536.238281 319.359375 536.800781 320.480469 536.800781 C 321.519531 536.800781 322.398438 537.121094 322.398438 537.441406 C 322.398438 537.839844 323.761719 538.71875 325.441406 539.441406 C 328.800781 540.960938 330.800781 542.160156 332.960938 544.160156 C 333.761719 544.960938 335.121094 545.601562 336 545.601562 C 336.800781 545.601562 337.921875 546.320312 338.398438 547.121094 C 338.800781 548 340.238281 548.878906 341.601562 549.199219 C 342.878906 549.519531 344 550 344 550.320312 C 344 550.640625 346.160156 551.839844 348.71875 553.121094 C 351.359375 554.320312 354.160156 556.078125 354.878906 556.878906 C 355.601562 557.679688 356.878906 558.398438 357.601562 558.398438 C 358.320312 558.398438 359.601562 559.121094 360.398438 560 C 361.199219 560.878906 362.320312 561.601562 362.960938 561.601562 C 363.601562 561.601562 365.761719 562.878906 367.761719 564.398438 C 369.761719 565.921875 372.238281 567.199219 373.28125 567.199219 C 374.320312 567.199219 375.519531 567.921875 376 568.71875 C 376.398438 569.601562 377.839844 570.480469 379.199219 570.800781 C 380.480469 571.121094 381.601562 571.679688 381.601562 572.078125 C 381.601562 572.480469 382.558594 573.28125 383.839844 573.761719 C 385.039062 574.320312 386.558594 575.121094 387.199219 575.679688 C 387.839844 576.160156 389.199219 576.878906 390.238281 577.121094 L 392 577.679688 L 392 473.761719 L 389.519531 471.679688 C 388.160156 470.558594 386.558594 469.601562 385.921875 469.601562 C 385.28125 469.601562 384 468.878906 383.039062 468 C 382.078125 467.121094 380.800781 466.398438 380.238281 466.398438 C 379.679688 466.398438 379.199219 466.078125 379.199219 465.679688 C 379.199219 465.28125 378.558594 464.71875 377.679688 464.398438 C 376.878906 464.160156 375.359375 463.28125 374.398438 462.398438 C 373.359375 461.519531 371.679688 460.800781 370.71875 460.800781 C 369.679688 460.800781 368.398438 460.078125 367.839844 459.199219 C 367.28125 458.320312 366.480469 457.601562 366.160156 457.601562 C 365.199219 457.601562 354.238281 451.199219 352.398438 449.519531 C 351.519531 448.800781 349.839844 447.839844 348.640625 447.601562 C 347.359375 447.28125 346.398438 446.71875 346.398438 446.398438 C 346.398438 446.078125 345.441406 445.519531 344.238281 445.199219 C 342.160156 444.71875 337.679688 442 336.800781 440.640625 C 336.558594 440.320312 335.039062 439.519531 333.519531 438.878906 C 331.921875 438.238281 330.238281 437.121094 329.601562 436.480469 C 329.039062 435.761719 328 435.199219 327.28125 435.199219 C 326.558594 435.199219 325.601562 434.878906 325.199219 434.480469 C 324.71875 434 322.238281 432.558594 319.601562 431.121094 C 316.960938 429.761719 314.480469 428.078125 314.160156 427.519531 C 313.839844 426.878906 312.800781 426.398438 311.921875 426.398438 C 311.121094 426.398438 309.761719 425.679688 309.039062 424.800781 C 308.238281 423.921875 307.359375 423.199219 307.039062 423.199219 C 306.160156 423.199219 302.960938 421.679688 300.398438 420 C 299.121094 419.121094 296.878906 417.839844 295.519531 417.28125 C 294.160156 416.640625 292.640625 415.519531 292 414.878906 C 291.441406 414.160156 290.480469 413.601562 289.761719 413.601562 C 289.121094 413.601562 287.839844 412.960938 287.039062 412.238281 C 286.160156 411.519531 283.679688 409.921875 281.359375 408.71875 L 277.199219 406.640625 L 277.199219 383.601562 L 280.960938 383.359375 C 284.078125 383.121094 284.878906 383.359375 285.601562 384.71875 C 286.078125 385.679688 286.878906 386.398438 287.359375 386.398438 C 287.839844 386.398438 290.238281 387.679688 292.800781 389.199219 C 295.359375 390.71875 298 392 298.640625 392 C 299.359375 392 300.398438 392.640625 300.960938 393.519531 C 301.519531 394.320312 302.878906 395.28125 304 395.601562 C 305.121094 395.921875 306.878906 396.878906 307.921875 397.679688 C 308.960938 398.558594 310.160156 399.199219 310.558594 399.199219 C 311.039062 399.199219 313.199219 400.640625 315.359375 402.398438 C 317.601562 404.160156 319.921875 405.601562 320.558594 405.601562 C 321.199219 405.601562 322.238281 406.160156 322.878906 406.800781 C 323.601562 407.441406 324.800781 408 325.519531 408 C 326.320312 408 327.441406 408.558594 328 409.28125 C 328.640625 409.921875 330.160156 411.039062 331.519531 411.679688 C 335.121094 413.359375 337.359375 414.800781 339.039062 416.238281 C 339.839844 417.039062 340.960938 417.601562 341.519531 417.601562 C 342.078125 417.601562 343.441406 418.320312 344.558594 419.199219 C 345.679688 420.078125 347.121094 420.800781 347.679688 420.800781 C 348.320312 420.800781 350.878906 422.238281 353.359375 424 C 355.921875 425.761719 358.398438 427.199219 358.800781 427.199219 C 359.28125 427.199219 360.078125 427.921875 360.640625 428.800781 C 361.199219 429.679688 362.480469 430.398438 363.519531 430.398438 C 364.640625 430.398438 365.761719 430.800781 366 431.199219 C 366.320312 431.679688 367.679688 432.558594 369.039062 433.199219 C 372.480469 434.878906 374.878906 436.320312 376.558594 437.679688 C 377.359375 438.398438 378.960938 439.28125 380.238281 439.839844 C 381.441406 440.320312 382.398438 441.121094 382.398438 441.601562 C 382.398438 442 382.878906 442.398438 383.441406 442.398438 C 384 442.398438 385.761719 443.121094 387.441406 444 C 389.039062 444.878906 390.71875 445.601562 391.199219 445.601562 C 391.679688 445.601562 392 438.878906 392 426.878906 L 392 408.160156 L 389.519531 406.078125 C 388.160156 404.960938 386.71875 404 386.320312 404 C 385.921875 404 383.761719 402.71875 381.601562 401.199219 C 379.441406 399.679688 377.28125 398.398438 376.960938 398.398438 C 376.558594 398.398438 375.28125 397.519531 374.078125 396.398438 C 372.878906 395.28125 371.28125 394.398438 370.480469 394.398438 C 369.679688 394.398438 368.558594 393.839844 368 393.199219 C 367.441406 392.558594 366.558594 392 366.078125 392 C 365.601562 392 363.039062 390.558594 360.398438 388.800781 C 357.761719 387.039062 355.28125 385.601562 354.878906 385.601562 C 354.558594 385.601562 353.199219 384.71875 351.839844 383.601562 C 350.558594 382.480469 348.800781 381.601562 347.921875 381.601562 C 347.121094 381.601562 346.398438 381.28125 346.398438 380.878906 C 346.398438 380.480469 345.441406 379.921875 344.320312 379.679688 C 342.160156 379.121094 338.480469 376.71875 335.839844 374.160156 C 335.039062 373.441406 333.761719 372.800781 333.039062 372.800781 C 332.320312 372.800781 331.121094 372.238281 330.480469 371.601562 C 329.761719 371.039062 325.921875 368.800781 322 366.71875 C 318 364.640625 314.558594 362.558594 314.160156 361.921875 C 313.839844 361.359375 312.480469 360.71875 311.199219 360.398438 C 309.839844 360.078125 308.800781 359.519531 308.800781 359.121094 C 308.800781 358.800781 307.441406 357.761719 305.839844 356.960938 C 299.199219 353.601562 293.121094 350.238281 291.921875 349.121094 C 291.28125 348.480469 290.078125 348 289.359375 348 C 288.640625 348 287.441406 347.359375 286.640625 346.480469 C 285.839844 345.679688 283.28125 344 280.960938 342.800781 C 278.640625 341.601562 276.558594 340.320312 276.320312 339.921875 C 276.078125 339.519531 275.359375 339.199219 274.640625 339.199219 C 274 339.199219 272.398438 338.320312 271.039062 337.199219 C 269.761719 336.078125 268 335.199219 267.121094 335.199219 C 266.320312 335.199219 265.601562 334.878906 265.601562 334.558594 C 265.601562 334.160156 264.640625 333.359375 263.441406 332.71875 C 262.160156 332.160156 259.519531 330.480469 257.441406 329.039062 C 255.359375 327.601562 253.039062 326.398438 252.238281 326.398438 C 251.519531 326.398438 250.160156 325.761719 249.28125 324.960938 C 248.320312 324.160156 246.640625 323.121094 245.441406 322.558594 L 243.199219 321.601562 Z M 243.199219 373.839844 "/>
<path style=" stroke:none;fill-rule:nonzero;fill:rgb(0%,0%,0%);fill-opacity:1;" d="M 553.921875 322.878906 C 552.558594 323.441406 551.039062 324.480469 550.480469 325.121094 C 549.839844 325.839844 548.71875 326.398438 547.921875 326.398438 C 547.039062 326.398438 544.558594 327.679688 542.398438 329.199219 C 540.238281 330.71875 538.078125 332 537.761719 332 C 537.359375 332 536.398438 332.71875 535.679688 333.519531 C 534.878906 334.398438 533.199219 335.359375 532 335.601562 C 530.800781 335.839844 529.121094 336.800781 528.320312 337.679688 C 527.601562 338.480469 526.320312 339.199219 525.519531 339.199219 C 524.71875 339.199219 523.921875 339.519531 523.679688 339.921875 C 523.441406 340.320312 521.359375 341.601562 519.039062 342.800781 C 516.71875 344 514.078125 345.679688 513.121094 346.480469 C 512.238281 347.28125 510.960938 348 510.238281 348 C 509.601562 348 508.398438 348.71875 507.601562 349.601562 C 506.800781 350.480469 505.761719 351.199219 505.359375 351.199219 C 504.960938 351.199219 502.640625 352.480469 500.320312 354 C 498 355.519531 495.601562 356.800781 494.878906 356.800781 C 494.238281 356.800781 492.71875 357.679688 491.519531 358.800781 C 490.320312 359.921875 488.71875 360.800781 487.921875 360.800781 C 487.121094 360.800781 486.160156 361.28125 485.839844 361.921875 C 485.519531 362.480469 482 364.640625 478 366.71875 C 474.078125 368.800781 470.238281 371.039062 469.519531 371.601562 C 468.878906 372.238281 467.679688 372.800781 466.960938 372.800781 C 466.238281 372.800781 464.800781 373.679688 463.679688 374.71875 C 462.558594 375.761719 459.921875 377.441406 457.839844 378.480469 C 455.679688 379.519531 453.839844 380.640625 453.601562 380.960938 C 453.359375 381.199219 452.238281 381.679688 451.039062 382 C 449.839844 382.320312 448.320312 383.199219 447.519531 384.078125 C 446.800781 384.878906 445.601562 385.601562 444.960938 385.601562 C 444.238281 385.601562 443.039062 386.160156 442.238281 386.960938 C 440.558594 388.480469 438.320312 389.839844 434.640625 391.601562 C 433.28125 392.238281 431.921875 393.121094 431.601562 393.601562 C 431.359375 394 430.398438 394.398438 429.601562 394.398438 C 428.800781 394.398438 427.121094 395.28125 425.921875 396.398438 C 424.71875 397.519531 423.441406 398.398438 423.039062 398.398438 C 422.71875 398.398438 420.558594 399.679688 418.398438 401.199219 C 416.238281 402.71875 414.078125 404 413.679688 404 C 413.28125 404 411.839844 404.960938 410.480469 406.078125 L 408 408.160156 L 408 492.878906 C 408 539.441406 408.160156 577.601562 408.398438 577.601562 C 409.441406 577.601562 417.359375 573.199219 418.640625 571.839844 C 419.441406 571.039062 420.71875 570.398438 421.601562 570.398438 C 422.480469 570.398438 423.519531 569.679688 424 568.800781 C 424.480469 567.921875 425.679688 567.199219 426.800781 567.199219 C 427.839844 567.199219 430.320312 565.921875 432.320312 564.398438 C 434.398438 562.878906 436.480469 561.601562 437.039062 561.601562 C 437.601562 561.601562 439.039062 560.558594 440.238281 559.359375 L 442.398438 557.121094 L 442.398438 493.121094 C 442.398438 433.199219 442.480469 429.039062 443.839844 427.039062 C 445.359375 424.800781 450.640625 420.800781 452.160156 420.800781 C 452.640625 420.800781 454.71875 419.761719 456.71875 418.480469 C 461.679688 415.441406 463.839844 414.878906 465.28125 416.078125 C 466.238281 416.878906 466.398438 425.601562 466.398438 480.320312 C 466.398438 515.121094 466.398438 543.921875 466.398438 544.238281 C 466.398438 544.640625 467.839844 543.839844 469.519531 542.480469 C 471.28125 541.039062 473.761719 539.601562 475.121094 539.121094 C 476.480469 538.640625 477.601562 538 477.601562 537.601562 C 477.601562 537.28125 478.71875 536.800781 480.160156 536.480469 C 481.519531 536.238281 483.121094 535.28125 483.761719 534.398438 C 484.398438 533.519531 485.199219 532.800781 485.679688 532.800781 C 486.078125 532.800781 488.238281 531.519531 490.398438 530 C 492.640625 528.398438 495.519531 526.960938 496.71875 526.71875 C 498.238281 526.398438 499.199219 525.601562 499.519531 524.480469 C 499.761719 523.601562 500 493.761719 500 458.320312 L 500 393.839844 L 505.199219 390.480469 C 508.160156 388.640625 511.28125 386.800781 512.320312 386.398438 C 513.359375 386 514.398438 385.121094 514.71875 384.398438 C 515.039062 383.441406 516.078125 383.199219 518.960938 383.359375 L 522.800781 383.601562 L 523.039062 446.800781 C 523.121094 490 523.441406 510.160156 524.078125 510.800781 C 524.640625 511.359375 525.199219 511.199219 525.839844 510.398438 C 527.28125 508.640625 533.121094 504.800781 534.480469 504.800781 C 535.121094 504.800781 536.238281 504.078125 537.039062 503.199219 C 537.761719 502.320312 539.039062 501.601562 539.839844 501.601562 C 540.640625 501.601562 541.679688 501.199219 542.160156 500.71875 C 543.121094 499.761719 545.519531 498.238281 548.800781 496.640625 C 549.921875 496.160156 551.441406 495.199219 552.238281 494.480469 C 552.960938 493.839844 554.320312 492.960938 555.28125 492.480469 C 556.878906 491.601562 556.878906 491.441406 556.800781 406.878906 C 556.800781 360.238281 556.71875 322.078125 556.558594 322 C 556.480469 321.921875 555.28125 322.320312 553.921875 322.878906 Z M 553.921875 322.878906 "/>
</g>
</svg>
