<?xml version="1.0" standalone="no"?>
<!DOCTYPE svg PUBLIC "-//W3C//DTD SVG 20010904//EN"
 "http://www.w3.org/TR/2001/REC-SVG-20010904/DTD/svg10.dtd">
<svg version="1.0" xmlns="http://www.w3.org/2000/svg"
 width="1000.000000pt" height="1000.000000pt" viewBox="0 0 1000.000000 1000.000000"
 preserveAspectRatio="xMidYMid meet">

<g transform="translate(0.000000,1000.000000) scale(0.100000,-0.100000)"
fill="#000000" stroke="none">
<path d="M4948 7505 c-20 -13 -39 -29 -43 -35 -3 -5 -15 -10 -25 -10 -10 0
-25 -8 -32 -18 -7 -10 -26 -22 -41 -26 -15 -4 -47 -20 -69 -36 -23 -17 -47
-30 -54 -30 -7 0 -21 -8 -31 -19 -10 -10 -29 -22 -43 -26 -14 -4 -31 -16 -38
-26 -7 -11 -19 -19 -27 -19 -19 0 -91 -38 -106 -56 -6 -8 -20 -14 -30 -14 -10
0 -24 -8 -31 -19 -7 -10 -28 -22 -46 -25 -17 -4 -32 -11 -32 -16 0 -5 -29 -23
-65 -40 -36 -17 -65 -35 -65 -40 0 -4 -12 -11 -27 -15 -16 -4 -36 -15 -46 -26
-10 -10 -24 -19 -32 -19 -7 0 -20 -6 -27 -14 -8 -7 -39 -26 -70 -40 -31 -15
-61 -33 -68 -41 -7 -8 -20 -15 -30 -15 -9 0 -29 -11 -44 -25 -15 -14 -31 -25
-36 -25 -5 0 -30 -14 -55 -31 -61 -42 -133 -79 -150 -79 -8 0 -19 -9 -25 -19
-5 -11 -23 -22 -39 -26 -16 -3 -35 -13 -42 -21 -6 -8 -17 -14 -24 -14 -6 0
-20 -9 -30 -20 -10 -11 -25 -20 -32 -20 -8 0 -26 -9 -40 -20 -14 -11 -34 -20
-44 -20 -10 0 -22 -6 -26 -14 -4 -7 -33 -28 -63 -45 -30 -18 -62 -36 -70 -41
-8 -6 -26 -15 -40 -21 -14 -5 -41 -20 -61 -32 -20 -12 -63 -37 -95 -56 -33
-19 -62 -39 -66 -45 -3 -5 -21 -14 -40 -20 l-33 -11 0 -1275 0 -1275 33 -11
c19 -6 37 -15 40 -21 4 -6 21 -18 37 -27 17 -9 44 -25 60 -36 30 -20 61 -37
120 -66 17 -8 37 -19 45 -24 8 -5 40 -23 70 -41 30 -17 59 -38 63 -45 4 -8 16
-14 26 -14 10 0 30 -9 44 -20 14 -11 32 -20 40 -20 7 0 22 -9 32 -20 10 -11
24 -20 30 -20 7 0 18 -6 24 -14 7 -8 26 -18 42 -21 16 -4 34 -15 39 -26 6 -10
17 -19 25 -19 17 0 89 -37 150 -79 25 -17 50 -31 55 -31 5 0 21 -11 36 -25 15
-14 37 -25 49 -25 13 0 25 -6 28 -14 3 -8 31 -26 63 -41 32 -15 64 -34 72 -41
7 -8 19 -14 26 -14 7 0 25 -11 40 -25 15 -14 36 -25 47 -25 10 0 19 -4 19 -9
0 -5 29 -24 65 -41 36 -17 65 -35 65 -40 0 -5 15 -12 32 -16 18 -3 39 -15 46
-25 7 -11 21 -19 31 -19 10 0 24 -6 30 -14 14 -17 86 -56 102 -56 6 0 24 -11
41 -25 16 -14 36 -25 44 -25 8 0 14 -4 14 -10 0 -5 15 -16 33 -23 17 -8 54
-28 81 -46 28 -17 57 -31 66 -31 8 0 21 -9 28 -20 7 -11 21 -20 31 -20 11 0
23 -5 26 -10 4 -6 25 -22 47 -36 40 -26 41 -26 79 -9 21 10 46 26 55 36 10 11
25 19 35 19 11 0 24 9 31 20 7 11 20 20 28 20 9 0 37 14 63 30 26 17 63 37 82
45 19 7 35 18 35 23 0 6 12 13 27 17 15 3 33 15 41 26 7 10 19 19 27 19 19 0
91 38 106 56 6 8 20 14 30 14 10 0 24 9 31 20 7 11 20 20 29 20 9 0 27 8 40
18 13 10 50 30 82 46 31 16 57 32 57 36 0 5 14 11 31 15 17 4 33 13 36 20 2 8
20 19 39 25 19 6 34 15 34 19 0 5 26 20 59 35 32 14 64 33 71 41 7 8 20 15 30
15 9 0 29 11 44 25 15 14 31 25 36 25 5 0 30 14 55 31 61 42 133 79 150 79 8
0 19 9 25 20 6 11 18 20 28 20 9 0 28 9 42 20 14 11 30 20 35 20 6 0 18 9 28
20 9 11 24 20 33 20 9 0 27 9 41 20 14 11 34 20 44 20 10 0 22 6 26 13 9 14
54 45 93 64 14 7 32 17 40 23 8 5 26 15 40 20 14 6 42 20 62 33 20 12 63 37
95 56 32 19 61 39 65 45 3 5 21 14 40 20 l33 11 3 1255 c1 690 0 1265 -3 1277
-3 14 -16 25 -33 29 -15 4 -31 12 -37 18 -5 7 -36 28 -68 47 -32 18 -75 44
-95 56 -20 13 -48 27 -62 33 -14 5 -32 14 -40 20 -8 5 -40 23 -70 41 -30 17
-59 38 -63 45 -4 8 -16 14 -26 14 -10 0 -30 9 -44 20 -14 11 -32 20 -40 20 -7
0 -22 9 -32 20 -10 11 -24 20 -30 20 -7 0 -18 6 -24 14 -7 8 -26 18 -42 21
-16 4 -34 15 -39 26 -6 10 -17 19 -25 19 -25 0 -153 74 -168 97 -4 7 -17 13
-27 13 -11 0 -29 9 -40 20 -11 11 -34 23 -50 26 -16 4 -31 12 -34 19 -2 7 -32
26 -65 41 -34 14 -61 30 -61 35 0 4 -15 13 -34 19 -19 6 -37 17 -39 25 -3 7
-19 16 -36 20 -17 4 -31 10 -31 15 0 4 -26 20 -57 36 -32 16 -69 36 -82 46
-13 10 -31 18 -40 18 -9 0 -22 9 -29 20 -7 11 -21 20 -31 20 -10 0 -24 6 -30
14 -15 18 -87 56 -106 56 -8 0 -20 9 -27 19 -8 11 -26 23 -42 27 -15 3 -30 13
-33 20 -3 8 -10 14 -17 14 -6 0 -40 18 -76 40 -36 22 -72 40 -80 40 -8 0 -21
9 -28 20 -7 11 -21 20 -31 20 -10 0 -24 7 -32 16 -13 16 -82 54 -96 53 -4 0
-25 -11 -45 -24z m87 -255 c4 -6 21 -17 38 -25 18 -8 46 -24 62 -35 17 -11 44
-27 62 -35 17 -8 34 -19 37 -24 4 -5 37 -24 74 -42 37 -18 83 -45 103 -60 19
-15 47 -31 62 -34 15 -4 32 -16 38 -26 5 -11 17 -19 25 -19 9 0 42 -15 73 -34
32 -19 68 -37 79 -40 11 -4 23 -13 26 -21 3 -8 14 -15 24 -15 10 0 29 -11 42
-25 13 -14 31 -25 41 -25 10 0 21 -5 24 -10 4 -6 36 -24 71 -41 35 -17 64 -34
64 -39 0 -4 12 -11 27 -15 15 -3 40 -17 56 -31 16 -13 35 -24 43 -24 8 0 14
-4 14 -9 0 -4 27 -21 61 -36 34 -15 70 -36 80 -46 10 -10 28 -19 39 -19 11 0
20 -5 20 -10 0 -6 12 -16 28 -23 15 -6 49 -27 77 -44 27 -18 57 -33 66 -33 9
0 24 -9 34 -20 10 -11 26 -20 36 -20 11 0 24 -9 31 -20 7 -11 18 -20 24 -20 6
0 23 -9 37 -20 14 -11 32 -20 40 -20 7 0 22 -9 32 -20 10 -11 24 -20 30 -20 7
0 24 -9 38 -20 14 -11 32 -20 40 -20 21 0 47 -28 47 -50 0 -14 -11 -22 -40
-30 -22 -6 -40 -14 -40 -18 0 -5 -29 -23 -65 -40 -35 -18 -67 -37 -70 -42 -3
-6 -15 -10 -26 -10 -10 0 -29 -11 -41 -25 -12 -14 -30 -25 -39 -25 -10 0 -22
-6 -26 -13 -4 -7 -33 -24 -64 -39 -31 -15 -62 -34 -69 -43 -7 -8 -23 -15 -36
-15 -13 0 -28 -9 -34 -20 -6 -11 -19 -20 -29 -20 -10 0 -24 -6 -30 -14 -14
-17 -86 -56 -102 -56 -6 0 -24 -11 -41 -25 -16 -14 -35 -25 -42 -25 -7 0 -21
-9 -31 -20 -10 -11 -23 -20 -29 -20 -6 0 -38 -18 -71 -40 -33 -22 -65 -40 -71
-40 -6 0 -17 -7 -24 -15 -7 -8 -20 -15 -30 -15 -9 0 -34 -13 -55 -30 -43 -34
-49 -35 -91 -12 -17 9 -62 32 -100 51 -38 19 -72 40 -76 47 -4 6 -19 15 -33
18 -14 4 -46 22 -71 41 -25 19 -51 35 -58 35 -7 0 -21 9 -31 20 -10 11 -26 20
-35 20 -9 0 -27 9 -40 20 -13 11 -30 20 -38 20 -9 0 -24 7 -34 17 -21 18 -49
36 -94 57 -17 8 -36 22 -44 30 -7 9 -20 16 -30 16 -9 0 -27 9 -40 20 -13 11
-31 20 -41 20 -10 0 -22 6 -26 13 -4 7 -19 18 -33 25 -62 32 -88 48 -104 65
-10 9 -26 17 -35 17 -10 0 -24 6 -30 14 -6 7 -24 16 -39 19 -15 3 -45 22 -66
42 -22 19 -48 35 -58 35 -10 0 -26 9 -35 20 -10 11 -25 20 -35 20 -9 0 -23 6
-30 13 -25 24 -120 67 -149 67 -15 0 -36 -8 -46 -18 -10 -10 -43 -29 -73 -42
-84 -37 -106 -78 -52 -99 24 -10 58 -28 102 -53 8 -5 26 -14 40 -21 14 -7 45
-25 69 -41 24 -15 57 -33 72 -38 16 -5 29 -14 29 -19 0 -5 15 -15 34 -23 18
-8 37 -19 40 -25 4 -6 15 -11 24 -11 14 0 90 -45 102 -62 3 -3 17 -9 32 -13
15 -4 34 -15 44 -26 9 -10 25 -19 35 -19 10 0 20 -4 24 -10 3 -5 35 -24 71
-41 36 -18 68 -39 71 -46 3 -7 11 -13 17 -13 7 0 27 -11 46 -25 19 -14 42 -25
52 -25 9 0 22 -9 28 -20 6 -11 17 -20 25 -20 8 0 41 -16 74 -35 32 -19 64 -35
69 -35 6 0 18 -8 27 -17 19 -18 49 -36 142 -82 83 -41 107 -83 56 -96 -16 -4
-36 -15 -46 -26 -10 -10 -26 -19 -37 -19 -10 0 -22 -5 -25 -10 -4 -6 -21 -17
-38 -26 -55 -26 -91 -47 -105 -61 -7 -7 -20 -13 -27 -13 -8 0 -26 -11 -41 -25
-15 -14 -35 -25 -44 -25 -10 0 -23 -7 -30 -15 -7 -8 -18 -15 -26 -15 -16 0
-88 38 -147 78 -25 16 -56 33 -69 37 -12 4 -31 16 -41 26 -10 11 -26 19 -37
19 -10 0 -21 4 -24 9 -3 4 -30 21 -61 36 -30 16 -62 36 -71 47 -10 10 -25 18
-34 18 -10 0 -23 6 -29 14 -7 8 -40 28 -74 45 -34 17 -80 42 -102 56 -22 14
-55 32 -72 40 -18 8 -33 20 -33 25 0 5 -12 13 -27 16 -15 4 -48 20 -73 35 -25
16 -55 33 -68 39 -13 5 -30 17 -38 25 -9 8 -22 15 -29 15 -8 0 -26 11 -41 25
-15 14 -35 25 -45 25 -11 0 -19 5 -19 10 0 6 -26 22 -57 36 -32 15 -69 35 -82
45 -13 11 -31 19 -40 19 -9 0 -22 9 -28 19 -7 11 -26 22 -43 26 -16 4 -30 10
-30 15 0 5 -29 22 -64 39 -35 17 -67 35 -71 41 -3 5 -14 10 -24 10 -9 0 -27
11 -39 25 -12 14 -30 25 -41 25 -10 0 -24 7 -31 15 -7 8 -39 27 -71 41 -33 15
-59 30 -59 35 0 5 -18 13 -40 19 -29 8 -40 16 -40 30 0 22 26 50 47 50 8 0 26
9 40 20 14 11 31 20 38 20 7 0 18 6 24 14 7 8 38 27 69 42 31 16 63 37 70 46
7 10 24 18 37 18 14 0 29 9 35 20 6 11 19 20 28 20 10 0 41 16 71 35 29 19 59
35 67 35 8 0 19 9 26 20 7 11 20 20 29 20 9 0 27 8 40 18 13 10 47 30 74 43
28 13 56 30 63 37 7 6 17 12 22 12 5 0 21 11 37 23 15 13 40 27 56 31 15 3 27
10 27 15 0 5 29 23 64 40 35 17 67 35 71 41 3 5 15 10 26 10 10 0 29 11 41 25
31 36 79 33 148 -10 30 -19 69 -41 86 -49 17 -8 35 -19 38 -25 4 -6 15 -11 24
-11 15 0 82 -41 110 -67 7 -7 22 -13 33 -13 11 0 22 -7 25 -15 3 -8 21 -19 39
-25 18 -6 39 -18 45 -26 7 -7 20 -14 30 -14 9 0 27 -9 40 -20 13 -11 29 -20
37 -20 7 0 13 -4 13 -10 0 -5 16 -16 35 -24 19 -8 35 -20 35 -25 0 -6 16 -13
35 -17 19 -3 39 -12 46 -20 6 -8 17 -14 25 -14 7 0 19 -6 26 -13 14 -14 50
-35 105 -61 17 -9 35 -21 39 -27 3 -6 22 -17 40 -25 19 -8 34 -18 34 -23 0 -5
12 -12 27 -16 15 -3 47 -20 70 -36 24 -16 55 -32 69 -35 13 -3 29 -15 35 -25
5 -11 18 -19 29 -19 11 0 27 -8 37 -18 26 -26 140 -73 160 -65 10 3 30 15 45
25 14 10 35 18 47 18 11 0 25 9 31 20 6 11 18 20 28 20 66 1 48 57 -31 94 -30
15 -58 26 -63 26 -5 0 -15 9 -22 20 -7 11 -20 20 -31 20 -10 0 -26 9 -36 20
-10 11 -23 20 -29 20 -6 0 -38 18 -71 40 -33 22 -65 40 -71 40 -6 0 -17 6 -23
14 -7 8 -24 17 -39 21 -15 4 -35 14 -45 22 -18 17 -44 33 -87 55 -14 7 -29 18
-33 25 -4 7 -17 13 -28 13 -10 0 -27 9 -36 20 -10 11 -28 20 -40 20 -12 0 -30
8 -40 18 -10 10 -29 24 -43 30 -43 22 -66 37 -84 55 -10 9 -28 17 -42 17 -14
0 -27 6 -30 14 -3 8 -19 18 -35 21 -16 4 -32 12 -36 19 -8 13 -36 30 -98 59
-16 8 -36 21 -44 30 -7 10 -22 17 -32 17 -11 0 -19 5 -19 10 0 6 -31 24 -70
41 -63 28 -70 35 -70 60 0 30 -1 29 123 92 41 20 80 44 87 52 7 8 18 15 24 15
6 0 38 18 71 40 33 22 65 40 71 40 6 0 17 7 24 15 14 17 66 20 75 5z m-1959
-1255 c4 -8 12 -15 19 -15 6 0 20 -9 30 -20 10 -11 26 -20 35 -20 10 0 29 -9
43 -20 14 -11 32 -20 40 -20 8 0 20 -6 26 -14 7 -8 36 -26 66 -42 30 -15 62
-35 71 -46 10 -10 24 -18 31 -18 8 0 26 -9 40 -20 14 -11 33 -20 43 -20 9 0
25 -9 35 -20 10 -11 24 -20 32 -20 7 0 13 -4 13 -9 0 -5 15 -14 33 -22 17 -7
35 -18 40 -25 4 -7 21 -15 37 -19 16 -4 33 -12 37 -19 5 -7 35 -25 67 -41 33
-15 66 -34 74 -41 7 -8 20 -14 27 -14 8 0 20 -8 27 -19 7 -10 28 -22 46 -25
17 -4 32 -11 32 -16 0 -4 26 -20 58 -36 31 -16 60 -34 65 -41 4 -6 20 -14 36
-18 16 -3 37 -15 47 -26 9 -10 23 -19 30 -19 7 0 19 -6 26 -13 7 -7 40 -26 73
-41 33 -16 64 -35 68 -42 4 -8 16 -14 26 -14 10 0 30 -11 45 -25 15 -14 36
-25 47 -25 11 0 22 -6 25 -14 3 -8 31 -26 63 -40 32 -14 64 -33 71 -41 7 -8
21 -15 31 -15 10 0 23 -9 29 -20 6 -11 18 -20 27 -20 24 0 99 -52 117 -82 13
-22 16 -64 16 -265 0 -131 -4 -245 -10 -253 -8 -12 -11 -12 -27 1 -29 23 -80
49 -97 49 -8 0 -20 9 -26 20 -6 11 -19 20 -29 20 -10 0 -30 11 -45 25 -15 14
-36 25 -47 25 -10 0 -19 5 -19 11 0 5 -28 24 -62 40 -81 39 -120 61 -139 77
-15 14 -47 32 -139 78 -30 15 -58 33 -62 40 -4 6 -19 15 -32 18 -13 3 -58 28
-99 56 -41 28 -89 53 -107 56 -17 4 -34 13 -37 21 -3 7 -20 20 -37 28 -17 8
-44 24 -61 35 -16 11 -44 27 -61 35 -17 8 -34 21 -37 30 -4 8 -17 15 -31 15
-14 0 -28 5 -32 11 -3 6 -25 19 -48 29 -22 9 -54 30 -70 44 -19 18 -37 26 -55
24 l-26 -3 -3 -105 c-3 -125 1 -148 31 -159 12 -5 46 -25 76 -45 29 -20 58
-36 65 -36 6 0 19 -9 29 -20 9 -11 25 -20 36 -20 10 0 25 -7 32 -16 12 -15 71
-48 157 -89 18 -9 35 -22 39 -30 3 -8 13 -15 23 -15 9 0 28 -8 41 -17 13 -10
47 -29 74 -43 28 -14 53 -30 58 -37 4 -6 21 -14 37 -18 17 -4 35 -15 40 -26 6
-10 20 -19 30 -19 11 0 28 -9 37 -20 10 -11 21 -20 26 -20 16 0 107 -45 107
-52 0 -4 15 -15 33 -23 71 -35 149 -84 160 -102 4 -7 16 -13 26 -13 10 0 30
-9 44 -20 14 -11 32 -20 40 -20 7 0 22 -9 32 -20 10 -11 24 -20 30 -20 7 0 24
-9 38 -20 14 -11 31 -20 39 -20 8 0 24 -13 36 -30 l22 -29 0 -665 c0 -459 -3
-667 -11 -671 -5 -4 -18 0 -27 8 -9 9 -29 19 -44 22 -16 4 -28 11 -28 17 0 5
-13 14 -30 19 -16 6 -30 15 -30 19 0 4 -14 13 -30 19 -17 5 -33 17 -36 26 -3
8 -16 15 -29 15 -12 0 -33 8 -46 19 -13 10 -34 21 -46 25 -13 4 -23 11 -23 16
0 4 -13 13 -30 19 -16 5 -30 15 -30 20 0 6 -6 11 -14 11 -8 0 -28 11 -44 25
-17 14 -35 25 -40 25 -23 0 -152 76 -165 97 -4 7 -16 13 -26 13 -9 0 -32 11
-51 25 -19 14 -40 25 -47 25 -7 0 -13 4 -13 9 0 11 -95 61 -115 61 -8 0 -19 9
-25 20 -6 11 -19 20 -29 20 -10 0 -24 7 -31 15 -7 8 -25 21 -41 30 -16 8 -42
22 -59 31 -16 8 -32 19 -35 25 -4 5 -15 9 -25 9 -10 0 -31 11 -46 25 -15 14
-33 25 -41 25 -8 0 -33 15 -56 34 -23 19 -54 37 -69 41 -15 4 -32 13 -39 21
-6 8 -18 14 -27 14 -9 0 -25 9 -36 19 -12 10 -45 31 -74 46 -29 15 -55 31 -58
36 -3 5 -20 16 -37 24 -18 8 -39 19 -47 24 -8 5 -26 14 -40 20 -50 24 -80 42
-80 51 0 4 -13 13 -30 19 l-30 10 0 265 c0 206 3 266 13 267 25 3 42 -3 50
-17 4 -8 14 -14 21 -14 7 0 23 -9 36 -20 13 -11 29 -20 36 -20 7 0 25 -11 40
-25 15 -14 35 -25 45 -25 10 0 20 -4 24 -9 3 -6 19 -17 35 -25 17 -9 43 -23
59 -31 16 -9 34 -22 41 -30 7 -8 20 -15 30 -15 9 0 25 -9 34 -19 10 -11 28
-22 41 -25 12 -3 46 -22 75 -41 29 -19 56 -35 61 -35 5 0 18 -9 29 -20 11 -11
29 -20 40 -20 10 0 23 -6 27 -14 4 -8 33 -26 63 -41 92 -45 123 -64 132 -79 4
-7 19 -17 33 -20 13 -3 45 -20 70 -37 61 -41 133 -79 150 -79 8 0 18 -6 22
-14 4 -7 22 -21 38 -30 17 -9 44 -25 60 -36 17 -11 41 -25 55 -31 14 -6 33
-15 43 -20 10 -6 22 -7 27 -4 6 4 10 59 10 123 -1 109 -2 119 -25 145 -13 15
-30 27 -38 27 -8 0 -25 8 -38 18 -13 10 -47 28 -76 41 -29 13 -54 30 -57 37
-2 6 -18 15 -35 19 -17 4 -34 12 -38 18 -5 7 -21 20 -38 29 -83 47 -126 68
-139 68 -9 0 -20 9 -26 20 -6 11 -18 20 -27 20 -9 0 -25 7 -35 17 -21 19 -49
36 -95 58 -17 8 -34 19 -38 25 -3 5 -15 10 -25 10 -10 0 -31 11 -46 25 -15 14
-32 25 -39 25 -7 0 -32 15 -56 34 -24 18 -55 36 -67 41 -13 4 -33 16 -43 26
-10 10 -27 19 -36 19 -9 0 -24 6 -32 14 -9 8 -39 26 -68 41 -28 14 -57 33 -64
41 -6 8 -17 14 -25 14 -7 0 -21 8 -31 19 -10 10 -32 22 -50 25 -17 4 -37 14
-44 22 -6 8 -15 14 -19 14 -5 0 -27 12 -49 27 l-41 27 0 673 0 673 30 0 c18 0
33 -6 36 -15z m3914 -1068 l0 -1083 -40 -26 c-22 -15 -48 -29 -59 -33 -10 -3
-22 -12 -25 -20 -3 -8 -14 -15 -24 -15 -11 0 -31 -9 -45 -20 -14 -11 -32 -20
-40 -20 -8 0 -20 -6 -26 -14 -7 -8 -36 -27 -64 -41 -29 -15 -61 -35 -72 -45
-26 -22 -49 -30 -64 -21 -9 6 -12 193 -11 804 l0 797 -25 0 c-14 0 -45 -16
-71 -35 -25 -19 -51 -35 -57 -35 -6 0 -28 -12 -49 -26 l-38 -27 0 -812 0 -812
-22 -19 c-23 -19 -52 -37 -99 -61 -15 -7 -32 -20 -39 -28 -7 -8 -21 -15 -31
-15 -10 0 -23 -9 -29 -20 -6 -11 -15 -20 -21 -20 -19 0 -119 -51 -119 -61 0
-5 -7 -9 -15 -9 -8 0 -24 -9 -34 -19 -24 -24 -52 -33 -69 -22 -10 6 -13 165
-15 797 l-2 789 -22 3 c-12 2 -41 -8 -65 -22 -24 -15 -58 -33 -77 -42 -19 -8
-42 -25 -52 -37 -18 -21 -19 -62 -18 -830 l0 -808 -23 -24 c-13 -14 -28 -25
-34 -25 -6 0 -21 -9 -34 -20 -13 -11 -27 -20 -32 -20 -6 0 -21 -9 -35 -20 -14
-11 -36 -20 -48 -20 -13 0 -26 -7 -29 -15 -3 -9 -19 -21 -36 -26 -16 -6 -30
-15 -30 -19 0 -4 -13 -13 -30 -19 -16 -5 -30 -14 -30 -19 0 -6 -12 -13 -27
-17 -16 -3 -36 -13 -45 -22 -9 -8 -22 -12 -27 -8 -17 10 -14 2143 2 2172 14
26 78 70 113 79 13 3 29 15 35 25 5 11 18 19 28 19 10 0 24 7 31 15 7 8 39 27
71 41 32 14 60 32 63 40 3 8 14 14 24 14 10 0 33 11 52 25 19 14 40 25 46 25
7 0 17 6 21 13 4 8 35 26 67 42 33 15 66 34 74 41 7 8 20 14 27 14 8 0 22 9
32 19 10 11 30 22 46 26 15 4 31 12 35 19 4 6 33 24 65 39 31 15 57 32 57 37
0 5 15 12 34 16 19 3 37 12 40 20 3 7 20 20 38 29 18 8 51 26 73 40 22 13 48
24 57 25 9 0 23 9 30 19 8 11 26 23 41 26 15 4 27 11 27 17 0 5 15 16 33 24
47 22 74 39 95 57 10 10 25 17 34 17 8 0 27 9 41 20 14 11 32 20 40 20 8 0 20
7 27 16 8 8 27 22 44 30 45 21 73 39 94 57 10 10 24 17 31 17 7 0 24 9 38 20
14 11 33 20 43 20 9 0 25 9 35 20 10 11 24 20 30 20 7 0 15 7 19 15 3 9 18 15
36 15 l30 0 0 -1083z"/>
</g>
</svg>
