<?xml version="1.0" standalone="no"?>
<!DOCTYPE svg PUBLIC "-//W3C//DTD SVG 20010904//EN"
 "http://www.w3.org/TR/2001/REC-SVG-20010904/DTD/svg10.dtd">
<svg version="1.0" xmlns="http://www.w3.org/2000/svg"
 width="1000.000000pt" height="1000.000000pt" viewBox="0 0 1000.000000 1000.000000"
 preserveAspectRatio="xMidYMid meet">

<g transform="translate(0.000000,1000.000000) scale(0.100000,-0.100000)"
fill="#000000" stroke="none">
<path d="M4948 7505 c-20 -13 -39 -29 -43 -35 -3 -5 -15 -10 -25 -10 -10 0
-25 -8 -32 -18 -7 -10 -26 -22 -41 -26 -15 -4 -47 -20 -69 -36 -23 -17 -47
-30 -54 -30 -7 0 -21 -8 -31 -19 -10 -10 -29 -22 -43 -26 -14 -4 -31 -16 -38
-26 -7 -11 -19 -19 -27 -19 -19 0 -91 -38 -106 -56 -6 -8 -20 -14 -30 -14 -10
0 -24 -8 -31 -19 -7 -10 -28 -22 -46 -25 -17 -4 -32 -11 -32 -16 0 -5 -29 -23
-65 -40 -36 -17 -65 -35 -65 -40 0 -4 -12 -11 -27 -15 -16 -4 -36 -15 -46 -26
-10 -10 -24 -19 -32 -19 -7 0 -20 -6 -27 -14 -8 -7 -39 -26 -70 -40 -31 -15
-61 -33 -68 -41 -7 -8 -20 -15 -30 -15 -9 0 -29 -11 -44 -25 -15 -14 -31 -25
-36 -25 -5 0 -30 -14 -55 -31 -61 -42 -133 -79 -150 -79 -8 0 -19 -9 -25 -19
-5 -11 -23 -22 -39 -26 -16 -3 -35 -13 -42 -21 -6 -8 -17 -14 -24 -14 -6 0
-20 -9 -30 -20 -10 -11 -25 -20 -32 -20 -8 0 -26 -9 -40 -20 -14 -11 -34 -20
-44 -20 -10 0 -22 -6 -26 -14 -4 -7 -33 -28 -63 -45 -30 -18 -62 -36 -70 -41
-8 -6 -26 -15 -40 -21 -14 -5 -41 -20 -61 -32 -20 -12 -63 -37 -95 -56 -33
-19 -62 -39 -66 -45 -3 -5 -21 -14 -40 -20 l-33 -11 0 -1275 0 -1275 33 -11
c19 -6 37 -15 40 -21 4 -6 21 -18 37 -27 17 -9 44 -25 60 -36 30 -20 61 -37
120 -66 17 -8 37 -19 45 -24 8 -5 40 -23 70 -41 30 -17 59 -38 63 -45 4 -8 16
-14 26 -14 10 0 30 -9 44 -20 14 -11 32 -20 40 -20 7 0 22 -9 32 -20 10 -11
24 -20 30 -20 7 0 18 -6 24 -14 7 -8 26 -18 42 -21 16 -4 34 -15 39 -26 6 -10
17 -19 25 -19 17 0 89 -37 150 -79 25 -17 50 -31 55 -31 5 0 21 -11 36 -25 15
-14 37 -25 49 -25 13 0 25 -6 28 -14 3 -8 31 -26 63 -41 32 -15 64 -34 72 -41
7 -8 19 -14 26 -14 7 0 25 -11 40 -25 15 -14 36 -25 47 -25 10 0 19 -4 19 -9
0 -5 29 -24 65 -41 36 -17 65 -35 65 -40 0 -5 15 -12 32 -16 18 -3 39 -15 46
-25 7 -11 21 -19 31 -19 10 0 24 -6 30 -14 14 -17 86 -56 102 -56 6 0 24 -11
41 -25 16 -14 36 -25 44 -25 8 0 14 -4 14 -10 0 -5 15 -16 33 -23 17 -8 54
-28 81 -46 28 -17 57 -31 66 -31 8 0 21 -9 28 -20 7 -11 21 -20 31 -20 11 0
23 -5 26 -10 4 -6 25 -22 47 -36 40 -26 41 -26 79 -9 21 10 46 26 55 36 10 11
25 19 35 19 11 0 24 9 31 20 7 11 20 20 28 20 9 0 37 14 63 30 26 17 63 37 82
45 19 7 35 18 35 23 0 6 12 13 27 17 15 3 33 15 41 26 7 10 19 19 27 19 19 0
91 38 106 56 6 8 20 14 30 14 10 0 24 9 31 20 7 11 20 20 29 20 9 0 27 8 40
18 13 10 50 30 82 46 31 16 57 32 57 36 0 5 14 11 31 15 17 4 33 13 36 20 2 8
20 19 39 25 19 6 34 15 34 19 0 5 26 20 59 35 32 14 64 33 71 41 7 8 20 15 30
15 9 0 29 11 44 25 15 14 31 25 36 25 5 0 30 14 55 31 61 42 133 79 150 79 8
0 19 9 25 20 6 11 18 20 28 20 9 0 28 9 42 20 14 11 30 20 35 20 6 0 18 9 28
20 9 11 24 20 33 20 9 0 27 9 41 20 14 11 34 20 44 20 10 0 22 6 26 13 9 14
54 45 93 64 14 7 32 17 40 23 8 5 26 15 40 20 14 6 42 20 62 33 20 12 63 37
95 56 32 19 61 39 65 45 3 5 21 14 40 20 l33 11 3 1255 c1 690 0 1265 -3 1277
-3 14 -16 25 -33 29 -15 4 -31 12 -37 18 -5 7 -36 28 -68 47 -32 18 -75 44
-95 56 -20 13 -48 27 -62 33 -14 5 -32 14 -40 20 -8 5 -40 23 -70 41 -30 17
-59 38 -63 45 -4 8 -16 14 -26 14 -10 0 -30 9 -44 20 -14 11 -32 20 -40 20 -7
0 -22 9 -32 20 -10 11 -24 20 -30 20 -7 0 -18 6 -24 14 -7 8 -26 18 -42 21
-16 4 -34 15 -39 26 -6 10 -17 19 -25 19 -25 0 -153 74 -168 97 -4 7 -17 13
-27 13 -11 0 -29 9 -40 20 -11 11 -34 23 -50 26 -16 4 -31 12 -34 19 -2 7 -32
26 -65 41 -34 14 -61 30 -61 35 0 4 -15 13 -34 19 -19 6 -37 17 -39 25 -3 7
-19 16 -36 20 -17 4 -31 10 -31 15 0 4 -26 20 -57 36 -32 16 -69 36 -82 46
-13 10 -31 18 -40 18 -9 0 -22 9 -29 20 -7 11 -21 20 -31 20 -10 0 -24 6 -30
14 -15 18 -87 56 -106 56 -8 0 -20 9 -27 19 -8 11 -26 23 -42 27 -15 3 -30 13
-33 20 -3 8 -10 14 -17 14 -6 0 -40 18 -76 40 -36 22 -72 40 -80 40 -8 0 -21
9 -28 20 -7 11 -21 20 -31 20 -10 0 -24 7 -32 16 -13 16 -82 54 -96 53 -4 0
-25 -11 -45 -24z m87 -255 c4 -6 21 -17 38 -25 18 -8 46 -24 62 -35 17 -11 47
-28 68 -37 20 -9 37 -19 37 -24 0 -4 30 -22 68 -40 37 -18 83 -45 103 -60 19
-15 47 -31 62 -34 15 -4 32 -16 38 -26 5 -11 18 -19 28 -19 11 0 43 -16 72
-35 30 -19 59 -35 66 -35 7 0 21 -9 30 -20 10 -11 25 -20 34 -20 9 0 22 -7 30
-16 13 -16 32 -27 142 -82 37 -18 67 -38 67 -43 0 -5 12 -12 28 -15 15 -4 40
-18 55 -31 16 -12 35 -23 43 -23 8 0 14 -4 14 -8 0 -5 28 -21 63 -37 34 -16
70 -37 80 -47 10 -10 27 -18 37 -18 11 0 20 -5 20 -10 0 -6 12 -16 28 -23 15
-6 49 -27 77 -44 27 -18 57 -33 66 -33 9 0 24 -9 33 -19 10 -11 28 -22 42 -25
13 -4 24 -10 24 -15 0 -5 29 -23 64 -41 35 -17 70 -37 76 -45 7 -8 18 -15 25
-15 7 0 24 -9 38 -20 14 -11 31 -20 39 -20 22 0 36 -14 43 -42 6 -25 4 -28
-33 -37 -22 -6 -43 -18 -46 -26 -3 -8 -14 -15 -25 -15 -11 0 -23 -5 -26 -10
-4 -6 -22 -17 -41 -25 -19 -8 -34 -19 -34 -24 0 -6 -11 -11 -25 -11 -14 0 -34
-11 -47 -25 -12 -14 -30 -25 -39 -25 -10 0 -21 -5 -24 -10 -4 -6 -30 -22 -58
-37 -29 -14 -63 -34 -76 -44 -13 -11 -32 -19 -43 -19 -10 0 -21 -7 -25 -15 -3
-9 -20 -22 -37 -30 -17 -8 -51 -26 -75 -40 -24 -14 -50 -25 -56 -25 -7 0 -24
-11 -39 -25 -15 -14 -33 -25 -40 -25 -7 0 -21 -9 -31 -20 -10 -11 -23 -20 -29
-20 -6 0 -38 -18 -71 -40 -33 -22 -65 -40 -71 -40 -6 0 -17 -7 -24 -15 -7 -8
-20 -15 -30 -15 -9 0 -34 -13 -55 -30 -44 -35 -48 -35 -95 -10 -19 10 -49 25
-66 33 -17 8 -35 20 -38 26 -4 6 -16 11 -26 11 -11 0 -27 8 -37 19 -10 10 -29
22 -42 26 -13 4 -44 22 -68 41 -25 19 -55 37 -68 40 -13 3 -26 12 -29 20 -3 8
-14 14 -24 14 -10 0 -29 9 -42 20 -13 11 -30 20 -38 20 -9 0 -24 7 -34 17 -21
19 -49 36 -95 58 -18 8 -33 20 -33 25 0 5 -17 14 -39 20 -21 5 -44 17 -51 25
-7 8 -21 15 -32 15 -10 0 -21 6 -24 14 -3 8 -18 20 -32 26 -44 18 -88 44 -106
63 -10 9 -26 17 -35 17 -10 0 -24 7 -31 15 -7 8 -20 15 -29 15 -10 0 -42 18
-71 40 -29 22 -60 40 -67 40 -7 0 -21 9 -30 20 -10 11 -25 20 -35 20 -9 0 -19
4 -23 9 -10 18 -128 71 -157 71 -15 0 -36 -8 -46 -17 -9 -10 -42 -29 -72 -42
-84 -38 -106 -79 -52 -100 24 -10 53 -25 102 -53 8 -4 26 -14 40 -21 14 -6 47
-27 75 -44 27 -18 55 -33 61 -33 6 0 19 -9 29 -20 10 -11 24 -20 30 -20 7 0
24 -9 38 -20 14 -11 31 -20 38 -20 12 0 87 -47 99 -61 3 -4 16 -10 30 -14 14
-4 33 -16 43 -26 10 -11 26 -19 36 -19 10 0 24 -7 31 -14 6 -8 27 -20 46 -26
19 -6 34 -15 34 -20 0 -4 14 -13 30 -19 17 -5 30 -15 30 -20 0 -6 6 -11 13
-11 7 0 28 -11 47 -25 19 -14 42 -25 51 -25 10 0 22 -6 26 -14 4 -7 33 -25 64
-40 32 -15 62 -33 69 -41 7 -8 21 -15 31 -15 9 0 25 -8 34 -17 18 -17 40 -30
142 -82 84 -42 107 -83 56 -96 -16 -4 -36 -15 -46 -26 -10 -10 -26 -19 -37
-19 -10 0 -22 -5 -25 -10 -4 -6 -21 -17 -38 -26 -55 -26 -91 -47 -105 -61 -7
-7 -20 -13 -27 -13 -8 0 -26 -11 -41 -25 -15 -14 -35 -25 -44 -25 -10 0 -23
-7 -30 -15 -16 -19 -54 -19 -70 0 -6 8 -21 17 -33 21 -11 4 -42 21 -67 39 -25
18 -57 36 -71 40 -13 4 -32 16 -42 26 -10 11 -26 19 -37 19 -10 0 -21 4 -24 9
-3 4 -30 21 -61 36 -30 16 -62 36 -71 47 -10 10 -25 18 -34 18 -9 0 -25 9 -35
20 -10 11 -26 20 -36 20 -10 0 -21 5 -25 11 -3 6 -21 18 -38 26 -17 8 -49 25
-71 39 -22 13 -52 29 -68 35 -15 6 -32 20 -38 30 -5 11 -20 19 -34 19 -13 0
-30 6 -37 13 -7 7 -24 18 -38 25 -61 31 -86 46 -98 59 -7 7 -20 13 -28 13 -8
0 -23 9 -33 19 -21 21 -48 37 -129 75 -29 14 -65 34 -79 46 -14 11 -33 20 -42
20 -9 0 -22 9 -28 19 -7 11 -26 22 -43 26 -16 4 -30 10 -30 15 0 5 -30 24 -67
42 -96 48 -118 61 -137 81 -10 9 -26 17 -35 17 -10 0 -24 6 -30 14 -6 7 -38
25 -71 40 -33 15 -60 31 -60 36 0 5 -18 14 -40 20 -43 12 -45 15 -30 54 6 18
17 26 34 26 13 0 29 7 36 15 6 8 22 17 33 21 12 3 29 12 37 19 8 7 41 26 72
43 32 17 65 38 74 46 8 9 21 16 28 16 7 0 21 9 31 20 10 11 25 20 33 20 8 0
40 16 72 35 32 19 62 35 68 35 6 0 17 8 24 19 7 10 28 22 46 25 17 4 32 12 32
17 0 5 28 23 63 40 34 17 64 35 65 40 2 5 10 9 17 9 7 0 26 11 42 23 15 13 40
27 56 31 15 3 27 10 27 15 0 5 26 21 57 36 32 14 64 32 73 39 8 8 26 17 40 21
14 4 31 16 38 26 8 12 25 19 47 19 35 0 134 -45 148 -67 4 -7 14 -13 21 -13 7
0 25 -9 39 -20 14 -11 31 -20 38 -20 7 0 39 -18 70 -40 32 -22 63 -40 71 -40
7 0 21 -9 31 -20 9 -11 25 -20 35 -20 11 0 27 -9 37 -20 10 -11 25 -20 32 -20
8 0 26 -9 40 -20 14 -11 31 -20 38 -20 7 0 15 -7 19 -15 3 -8 12 -15 20 -15 8
0 27 -11 42 -25 15 -14 37 -25 49 -25 13 0 28 -7 35 -15 7 -8 18 -15 24 -15 7
0 21 -7 31 -15 44 -34 97 -65 109 -65 8 0 19 -7 27 -16 7 -9 27 -23 45 -32
119 -63 153 -83 158 -91 4 -5 20 -12 36 -16 17 -4 35 -15 40 -26 6 -10 19 -19
30 -19 11 0 27 -8 37 -19 10 -10 47 -30 82 -44 67 -26 95 -25 127 8 9 8 26 15
39 15 14 0 29 9 35 20 6 11 18 20 28 20 66 1 48 57 -31 94 -30 15 -58 26 -63
26 -5 0 -15 9 -22 20 -7 11 -21 20 -31 20 -10 0 -24 7 -31 16 -8 8 -27 22 -44
30 -17 7 -44 23 -61 34 -16 11 -44 27 -62 35 -17 8 -34 19 -38 25 -3 5 -15 10
-25 10 -10 0 -31 10 -47 23 -39 30 -63 45 -95 58 -14 6 -29 17 -32 25 -3 8
-14 14 -24 14 -10 0 -29 9 -42 20 -13 11 -31 20 -42 20 -10 0 -26 9 -35 20
-10 11 -23 20 -29 20 -6 0 -21 9 -34 20 -13 11 -29 20 -37 20 -7 0 -16 7 -19
15 -3 8 -24 20 -45 25 -21 6 -39 15 -39 20 0 4 -14 11 -31 15 -17 4 -33 13
-35 20 -3 8 -18 19 -32 25 -44 18 -88 44 -106 63 -10 9 -26 17 -36 17 -11 0
-23 6 -27 14 -4 7 -36 26 -70 41 -56 24 -63 31 -63 56 0 30 -1 29 124 92 42
21 76 42 76 46 0 4 17 15 38 24 20 9 51 26 67 37 17 11 44 27 62 35 17 8 34
19 38 25 3 5 19 10 35 10 16 0 32 -5 35 -10z m-1952 -1260 c9 -11 24 -20 32
-20 8 0 15 -4 15 -9 0 -5 15 -15 34 -21 19 -6 40 -18 46 -26 7 -7 20 -14 30
-14 10 0 23 -7 30 -16 8 -8 27 -22 44 -30 45 -21 73 -39 94 -57 10 -10 24 -17
31 -17 7 0 24 -9 38 -20 14 -11 32 -20 40 -20 8 0 35 -16 60 -35 25 -19 51
-35 58 -35 7 0 24 -11 39 -25 15 -14 35 -25 45 -25 10 0 24 -7 31 -15 7 -8 37
-26 68 -41 31 -14 62 -33 70 -40 7 -8 20 -14 27 -14 8 0 20 -8 27 -19 7 -10
28 -22 46 -25 17 -4 32 -11 32 -16 0 -4 26 -20 58 -36 31 -16 60 -34 65 -41 4
-6 20 -14 36 -18 16 -3 37 -15 47 -26 9 -10 23 -19 30 -19 7 0 19 -6 26 -14 8
-7 41 -26 74 -41 32 -15 63 -33 67 -41 4 -8 16 -14 26 -14 10 0 30 -11 45 -25
15 -14 36 -25 46 -25 10 0 23 -6 27 -14 4 -8 31 -25 59 -38 28 -13 59 -32 68
-41 10 -9 26 -17 36 -17 11 0 24 -9 30 -20 6 -11 18 -20 27 -20 9 0 35 -12 57
-27 79 -54 75 -40 76 -313 0 -135 -4 -252 -10 -260 -8 -12 -11 -12 -27 1 -10
8 -42 26 -70 40 -29 13 -53 27 -53 31 0 3 -15 12 -34 18 -19 6 -37 17 -39 25
-3 7 -19 16 -36 20 -17 4 -31 10 -31 15 0 5 -29 24 -65 42 -116 59 -129 67
-137 83 -5 8 -17 15 -27 15 -10 0 -29 8 -42 18 -13 10 -46 29 -74 42 -27 13
-53 29 -58 36 -4 7 -21 15 -37 19 -16 4 -33 12 -37 18 -5 7 -19 18 -33 25 -14
7 -47 26 -75 42 -27 16 -58 29 -68 30 -10 0 -20 7 -24 15 -3 9 -20 22 -37 30
-17 8 -44 24 -61 35 -16 11 -43 27 -60 36 -16 9 -34 23 -38 30 -4 8 -14 14
-21 14 -22 0 -132 59 -161 86 -18 16 -36 24 -54 22 l-26 -3 -3 -113 c-3 -111
6 -152 31 -152 7 0 34 -16 61 -35 27 -19 55 -35 61 -35 7 0 24 -11 39 -25 15
-14 35 -25 45 -25 10 0 25 -7 32 -16 7 -9 36 -27 64 -41 86 -42 120 -62 130
-76 6 -8 21 -18 35 -22 14 -4 32 -13 40 -20 8 -7 37 -23 65 -36 27 -13 57 -32
67 -41 10 -10 27 -18 38 -18 11 0 23 -7 26 -15 3 -8 21 -19 40 -25 19 -6 34
-15 34 -20 0 -4 29 -21 65 -36 36 -16 65 -32 65 -36 0 -4 15 -15 33 -23 30
-15 64 -35 136 -80 17 -10 31 -23 31 -27 0 -4 8 -8 19 -8 10 0 30 -9 44 -20
14 -11 32 -20 40 -20 7 0 22 -9 32 -20 10 -11 24 -20 30 -20 7 0 24 -9 38 -20
14 -11 31 -20 39 -20 8 0 24 -13 36 -30 l22 -29 0 -665 c0 -459 -3 -667 -11
-671 -5 -4 -18 0 -27 8 -9 9 -29 19 -44 22 -16 4 -28 11 -28 17 0 5 -13 14
-30 19 -16 6 -30 15 -30 19 0 4 -14 13 -30 19 -17 5 -33 17 -36 26 -3 8 -16
15 -29 15 -12 0 -33 8 -46 19 -13 10 -34 21 -46 25 -13 4 -23 11 -23 16 0 4
-13 13 -30 19 -16 5 -30 15 -30 20 0 6 -6 11 -14 11 -8 0 -28 11 -44 25 -17
14 -35 25 -41 25 -25 0 -148 73 -164 98 -4 6 -15 12 -24 12 -9 0 -41 17 -71
37 -72 47 -139 83 -157 83 -8 0 -19 9 -25 20 -6 11 -18 20 -27 20 -9 0 -25 7
-35 17 -21 19 -49 36 -95 58 -17 8 -34 19 -38 25 -3 5 -15 10 -25 10 -10 0
-31 11 -46 25 -15 14 -33 25 -41 25 -8 0 -33 15 -56 34 -23 19 -54 37 -69 41
-15 4 -32 13 -39 21 -6 8 -18 14 -27 14 -9 0 -25 9 -36 19 -12 10 -44 31 -73
46 -28 14 -57 33 -64 41 -6 8 -19 14 -29 14 -9 0 -25 9 -35 20 -10 11 -26 20
-35 20 -10 0 -29 9 -43 20 -14 11 -30 20 -36 20 -5 0 -14 6 -18 13 -4 7 -20
18 -35 24 l-28 13 0 264 c0 202 3 265 13 269 16 6 57 -10 57 -23 0 -5 7 -10
15 -10 8 0 23 -9 32 -20 10 -11 25 -20 35 -20 9 0 29 -11 44 -25 15 -14 35
-25 45 -25 10 0 20 -4 24 -9 3 -6 19 -17 35 -25 17 -9 43 -23 59 -31 16 -9 34
-22 41 -30 7 -8 21 -15 31 -15 10 0 24 -8 31 -18 7 -10 25 -22 39 -25 15 -4
50 -23 79 -42 29 -19 56 -35 61 -35 5 0 18 -9 29 -20 11 -11 29 -20 40 -20 10
0 23 -6 27 -13 4 -8 33 -26 63 -41 96 -48 124 -65 132 -80 4 -7 19 -17 33 -20
13 -3 45 -20 70 -37 62 -42 133 -79 151 -79 8 0 17 -7 21 -15 3 -9 20 -22 37
-30 17 -8 45 -24 61 -35 17 -11 41 -25 55 -31 14 -6 33 -15 43 -20 10 -6 22
-7 27 -4 6 4 10 59 10 124 0 145 2 143 -172 226 -31 15 -59 33 -62 41 -3 8
-15 14 -26 14 -11 0 -29 9 -40 20 -11 11 -23 20 -26 20 -4 0 -31 16 -60 35
-29 19 -67 38 -84 41 -17 4 -35 15 -41 25 -5 11 -17 19 -26 19 -9 0 -25 7 -35
17 -21 19 -49 36 -95 58 -17 8 -34 19 -38 25 -3 5 -15 10 -25 10 -10 0 -31 11
-46 25 -15 14 -33 25 -41 25 -8 0 -33 15 -56 34 -23 18 -53 37 -65 41 -13 4
-33 16 -43 26 -10 10 -27 19 -36 19 -9 0 -24 6 -32 14 -9 8 -40 26 -69 41 -29
15 -55 31 -58 36 -3 5 -21 16 -40 24 -19 8 -34 19 -34 24 0 6 -16 13 -35 17
-19 3 -35 10 -35 14 0 5 -9 12 -20 15 -11 4 -38 18 -60 33 l-40 26 0 673 0
673 28 0 c15 0 35 -9 45 -20z m3907 -1063 l0 -1083 -40 -26 c-22 -15 -48 -29
-59 -33 -10 -3 -22 -12 -25 -20 -3 -8 -14 -15 -24 -15 -11 0 -31 -9 -45 -20
-14 -11 -32 -20 -40 -20 -8 0 -20 -7 -27 -15 -7 -8 -24 -21 -39 -28 -43 -22
-75 -41 -96 -58 -27 -22 -49 -29 -64 -20 -9 6 -12 197 -11 804 l0 797 -28 0
c-16 0 -37 -9 -47 -20 -10 -11 -24 -20 -32 -20 -7 0 -13 -4 -13 -9 0 -5 -10
-13 -22 -16 -13 -4 -40 -18 -60 -32 l-38 -26 0 -812 0 -812 -22 -19 c-23 -19
-52 -37 -99 -61 -15 -7 -32 -20 -39 -28 -7 -8 -21 -15 -31 -15 -10 0 -23 -9
-29 -20 -6 -11 -15 -20 -21 -20 -19 0 -119 -51 -119 -61 0 -5 -8 -9 -18 -9
-10 0 -28 -11 -40 -25 -12 -14 -28 -25 -34 -25 -40 1 -39 -13 -41 806 -2 735
-3 789 -19 792 -19 4 -81 -23 -117 -50 -13 -10 -31 -18 -40 -18 -10 0 -27 -13
-39 -30 l-22 -30 1 -806 c1 -890 5 -827 -62 -854 -16 -7 -29 -16 -29 -21 0 -4
-10 -11 -22 -15 -13 -4 -34 -15 -47 -25 -13 -11 -31 -19 -41 -19 -9 0 -25 -9
-35 -20 -10 -11 -23 -20 -30 -20 -7 0 -22 -9 -35 -20 -13 -11 -29 -20 -37 -20
-7 0 -16 -6 -19 -14 -3 -8 -17 -17 -32 -21 -15 -4 -35 -13 -44 -22 -9 -8 -22
-12 -27 -8 -8 4 -11 333 -11 1083 1 880 3 1080 14 1094 18 25 82 67 112 74 13
3 29 15 35 25 5 11 18 19 28 19 10 0 24 7 31 15 7 8 39 27 71 41 32 14 60 32
63 40 3 8 14 14 25 14 11 0 32 11 47 25 15 14 35 25 45 25 10 0 22 6 26 14 7
12 63 41 116 59 9 4 17 11 17 16 0 5 15 15 34 21 19 6 37 17 39 25 3 7 19 16
36 20 17 4 34 12 38 18 5 7 34 25 66 40 31 15 57 32 57 37 0 4 15 12 32 16 18
3 39 15 46 25 7 11 19 19 27 19 7 0 20 6 27 13 18 18 96 57 113 57 8 0 20 9
27 20 7 11 20 20 30 20 9 0 29 11 44 25 15 14 31 25 36 25 4 0 30 16 58 35 27
19 60 37 74 41 14 3 30 12 37 20 6 8 18 14 27 14 9 0 25 9 36 19 12 10 44 31
73 46 28 14 57 33 64 41 6 8 18 14 26 14 8 0 26 9 40 20 14 11 32 20 40 20 16
0 74 39 86 58 4 6 21 12 37 12 l30 0 0 -1083z"/>
</g>
</svg>
