<?xml version="1.0" standalone="no"?>
<!DOCTYPE svg PUBLIC "-//W3C//DTD SVG 20010904//EN"
 "http://www.w3.org/TR/2001/REC-SVG-20010904/DTD/svg10.dtd">
<svg version="1.0" xmlns="http://www.w3.org/2000/svg"
 width="1000.000000pt" height="1000.000000pt" viewBox="0 0 1000.000000 1000.000000"
 preserveAspectRatio="xMidYMid meet">

<g transform="translate(0.000000,1000.000000) scale(0.100000,-0.100000)"
fill="#000000" stroke="none">
<path d="M4948 7505 c-20 -13 -39 -29 -43 -35 -3 -5 -15 -10 -25 -10 -10 0
-25 -8 -32 -18 -7 -10 -26 -22 -41 -26 -15 -4 -47 -20 -69 -36 -23 -17 -47
-30 -54 -30 -7 0 -21 -8 -31 -19 -10 -10 -29 -22 -43 -26 -14 -4 -31 -16 -38
-26 -7 -11 -19 -19 -27 -19 -19 0 -91 -38 -106 -56 -6 -8 -20 -14 -30 -14 -10
0 -24 -8 -31 -19 -7 -10 -28 -22 -46 -25 -17 -4 -32 -11 -32 -16 0 -5 -29 -23
-65 -40 -36 -17 -65 -35 -65 -40 0 -4 -12 -11 -27 -15 -16 -4 -36 -15 -46 -26
-10 -10 -24 -19 -32 -19 -7 0 -20 -6 -27 -14 -8 -7 -39 -26 -70 -40 -31 -15
-61 -33 -68 -41 -7 -8 -20 -15 -30 -15 -9 0 -29 -11 -44 -25 -15 -14 -31 -25
-36 -25 -5 0 -30 -14 -55 -31 -61 -42 -133 -79 -150 -79 -8 0 -19 -9 -25 -19
-5 -11 -23 -22 -39 -26 -16 -3 -35 -13 -42 -21 -6 -8 -17 -14 -24 -14 -6 0
-20 -9 -30 -20 -10 -11 -25 -20 -32 -20 -8 0 -26 -9 -40 -20 -14 -11 -34 -20
-44 -20 -10 0 -22 -6 -26 -14 -4 -7 -33 -28 -63 -45 -30 -18 -62 -36 -70 -41
-8 -6 -26 -15 -40 -21 -14 -5 -41 -20 -61 -32 -20 -12 -63 -37 -95 -56 -33
-19 -62 -39 -66 -45 -3 -5 -21 -14 -40 -20 l-33 -11 0 -1275 0 -1275 33 -11
c19 -6 37 -15 40 -21 4 -6 21 -18 37 -27 17 -9 44 -25 60 -36 30 -20 61 -37
120 -66 17 -8 37 -19 45 -24 8 -5 40 -23 70 -41 30 -17 59 -38 63 -45 4 -8 16
-14 26 -14 10 0 30 -9 44 -20 14 -11 32 -20 40 -20 7 0 22 -9 32 -20 10 -11
24 -20 30 -20 7 0 18 -6 24 -14 7 -8 26 -18 42 -21 16 -4 34 -15 39 -26 6 -10
17 -19 25 -19 17 0 89 -37 150 -79 25 -17 50 -31 55 -31 5 0 21 -11 36 -25 15
-14 37 -25 49 -25 13 0 25 -6 28 -14 3 -8 31 -26 63 -41 32 -15 64 -34 72 -41
7 -8 19 -14 26 -14 7 0 25 -11 40 -25 15 -14 36 -25 47 -25 10 0 19 -4 19 -9
0 -5 29 -24 65 -41 36 -17 65 -35 65 -40 0 -5 15 -12 32 -16 18 -3 39 -15 46
-25 7 -11 21 -19 31 -19 10 0 24 -6 30 -14 14 -17 86 -56 102 -56 6 0 24 -11
41 -25 16 -14 36 -25 44 -25 8 0 14 -4 14 -10 0 -5 15 -16 33 -23 17 -8 54
-28 81 -46 28 -17 57 -31 66 -31 8 0 21 -9 28 -20 7 -11 21 -20 31 -20 11 0
23 -5 26 -10 4 -6 25 -22 47 -36 40 -26 41 -26 79 -9 21 10 46 26 55 36 10 11
25 19 35 19 11 0 24 9 31 20 7 11 20 20 28 20 9 0 37 14 63 30 26 17 63 37 82
45 19 7 35 18 35 23 0 6 12 13 27 17 15 3 33 15 41 26 7 10 19 19 27 19 19 0
91 38 106 56 6 8 20 14 30 14 10 0 24 9 31 20 7 11 20 20 29 20 9 0 27 8 40
18 13 10 50 30 82 46 31 16 57 32 57 36 0 5 14 11 31 15 17 4 33 13 36 20 2 8
20 19 39 25 19 6 34 15 34 19 0 5 26 20 59 35 32 14 64 33 71 41 7 8 20 15 30
15 9 0 29 11 44 25 15 14 31 25 36 25 5 0 30 14 55 31 61 42 133 79 150 79 8
0 19 9 25 20 6 11 18 20 28 20 9 0 28 9 42 20 14 11 30 20 35 20 6 0 18 9 28
20 9 11 24 20 33 20 9 0 27 9 41 20 14 11 34 20 44 20 10 0 22 6 26 13 9 14
54 45 93 64 14 7 32 17 40 23 8 5 26 15 40 20 14 6 42 20 62 33 20 12 63 37
95 56 32 19 61 39 65 45 3 5 21 14 40 20 l33 11 3 1255 c1 690 0 1265 -3 1277
-3 14 -16 25 -33 29 -15 4 -31 12 -37 18 -5 7 -36 28 -68 47 -32 18 -75 44
-95 56 -20 13 -48 27 -62 33 -14 5 -32 14 -40 20 -8 5 -40 23 -70 41 -30 17
-59 38 -63 45 -4 8 -16 14 -26 14 -10 0 -30 9 -44 20 -14 11 -32 20 -40 20 -7
0 -22 9 -32 20 -10 11 -24 20 -30 20 -7 0 -18 6 -24 14 -7 8 -26 18 -42 21
-16 4 -34 15 -39 26 -6 10 -17 19 -25 19 -25 0 -153 74 -168 97 -4 7 -17 13
-27 13 -11 0 -29 9 -40 20 -11 11 -34 23 -50 26 -16 4 -31 12 -34 19 -2 7 -32
26 -65 41 -34 14 -61 30 -61 35 0 4 -15 13 -34 19 -19 6 -37 17 -39 25 -3 7
-19 16 -36 20 -17 4 -31 10 -31 15 0 4 -26 20 -57 36 -32 16 -69 36 -82 46
-13 10 -31 18 -40 18 -9 0 -22 9 -29 20 -7 11 -21 20 -31 20 -10 0 -24 6 -30
14 -15 18 -87 56 -106 56 -8 0 -20 9 -27 19 -8 11 -26 23 -42 27 -15 3 -30 13
-33 20 -3 8 -10 14 -17 14 -6 0 -40 18 -76 40 -36 22 -72 40 -80 40 -8 0 -21
9 -28 20 -7 11 -21 20 -31 20 -10 0 -24 7 -32 16 -13 16 -82 54 -96 53 -4 0
-25 -11 -45 -24z m87 -255 c4 -6 21 -17 38 -25 18 -8 46 -24 62 -35 17 -11 47
-28 68 -37 20 -9 37 -20 37 -24 0 -4 33 -24 73 -44 88 -43 110 -56 120 -72 4
-6 21 -14 37 -18 17 -4 35 -15 40 -26 6 -10 21 -19 33 -19 13 0 28 -5 34 -11
14 -14 47 -33 93 -55 19 -9 39 -22 43 -30 4 -8 16 -14 26 -14 10 0 28 -11 41
-25 13 -14 31 -25 41 -25 9 0 22 -6 28 -14 6 -7 38 -25 71 -40 33 -15 60 -31
60 -36 0 -5 12 -13 28 -16 15 -4 40 -18 55 -31 16 -12 35 -23 43 -23 8 0 14
-4 14 -9 0 -4 27 -21 61 -36 34 -15 70 -36 80 -46 10 -10 28 -19 39 -19 11 0
20 -5 20 -10 0 -6 12 -16 28 -23 15 -6 49 -27 77 -44 27 -18 57 -33 66 -33 9
0 24 -9 34 -20 10 -11 24 -20 32 -20 7 0 21 -8 31 -17 9 -10 43 -31 74 -46 32
-16 62 -35 69 -43 6 -8 17 -14 24 -14 7 0 23 -8 36 -18 13 -11 36 -22 50 -25
47 -12 50 -77 4 -77 -13 0 -32 -8 -42 -18 -10 -10 -44 -30 -75 -45 -32 -15
-58 -32 -58 -37 0 -6 -11 -10 -24 -10 -12 0 -35 -11 -50 -25 -15 -14 -31 -25
-36 -25 -5 0 -28 -13 -52 -29 -24 -16 -54 -32 -66 -36 -13 -4 -33 -16 -43 -26
-10 -10 -28 -19 -39 -19 -11 0 -23 -7 -27 -15 -3 -9 -20 -22 -37 -30 -17 -8
-49 -26 -71 -40 -22 -13 -47 -24 -56 -25 -9 0 -28 -11 -43 -25 -15 -14 -33
-25 -40 -25 -7 0 -21 -9 -31 -20 -10 -11 -23 -20 -29 -20 -6 0 -38 -18 -71
-40 -33 -22 -65 -40 -71 -40 -6 0 -17 -7 -24 -15 -7 -8 -20 -15 -30 -15 -9 0
-34 -13 -55 -30 -43 -34 -49 -35 -92 -12 -17 9 -62 32 -100 51 -37 19 -71 40
-76 47 -4 7 -21 15 -38 19 -17 4 -32 12 -35 19 -3 7 -30 25 -62 42 -31 16 -61
35 -65 42 -4 6 -17 12 -28 12 -10 0 -27 9 -36 20 -10 11 -26 20 -37 20 -11 0
-28 7 -38 17 -21 19 -49 36 -95 58 -18 8 -33 19 -33 24 0 6 -10 12 -22 16 -37
10 -128 57 -128 65 0 5 -12 13 -27 19 -45 19 -89 45 -107 64 -10 9 -26 17 -35
17 -10 0 -24 6 -30 14 -6 7 -24 16 -39 19 -15 3 -41 19 -59 36 -18 16 -48 34
-67 41 -19 6 -37 17 -40 25 -3 8 -14 15 -25 15 -11 0 -22 4 -26 9 -10 18 -128
71 -157 71 -15 0 -36 -8 -46 -17 -9 -10 -42 -29 -72 -42 -84 -38 -106 -79 -52
-100 24 -10 53 -25 102 -53 8 -4 26 -14 40 -21 14 -6 47 -27 75 -44 27 -18 53
-33 58 -33 5 0 22 -11 39 -25 16 -14 35 -25 43 -25 7 0 18 -7 25 -15 7 -8 21
-15 32 -15 11 0 34 -11 52 -25 17 -14 36 -29 42 -34 6 -5 21 -12 35 -16 13 -4
32 -16 42 -26 10 -11 26 -19 36 -19 10 0 24 -7 31 -14 6 -8 27 -20 46 -26 19
-6 34 -16 34 -21 0 -5 7 -9 15 -9 8 0 24 -9 35 -20 11 -11 24 -20 28 -20 4 0
23 -11 42 -25 19 -14 42 -25 52 -25 9 0 22 -9 28 -20 6 -11 16 -20 22 -20 18
0 95 -39 108 -56 7 -7 21 -14 31 -14 9 0 25 -8 34 -17 19 -18 49 -36 142 -82
83 -42 108 -85 56 -97 -16 -4 -36 -15 -46 -25 -10 -11 -26 -19 -36 -19 -10 0
-24 -6 -30 -14 -7 -8 -25 -18 -41 -21 -16 -3 -31 -13 -34 -21 -3 -8 -12 -14
-19 -14 -8 0 -24 -9 -37 -20 -13 -11 -29 -20 -36 -20 -7 0 -25 -11 -40 -25
-15 -14 -35 -25 -44 -25 -10 0 -23 -7 -30 -15 -7 -8 -18 -15 -26 -15 -16 0
-88 38 -147 78 -25 16 -56 33 -69 37 -12 4 -31 16 -41 26 -10 11 -26 19 -37
19 -10 0 -22 5 -25 10 -4 6 -21 17 -38 25 -46 22 -74 39 -95 58 -10 10 -26 17
-35 17 -10 0 -25 9 -34 20 -10 11 -25 20 -35 20 -9 0 -20 5 -24 11 -3 6 -21
18 -38 25 -17 8 -49 26 -71 39 -22 13 -52 29 -68 36 -15 6 -32 20 -38 30 -5
11 -20 19 -34 19 -13 0 -27 5 -30 10 -4 6 -21 17 -38 26 -55 26 -91 47 -105
61 -7 7 -20 13 -27 13 -8 0 -26 11 -41 25 -15 14 -35 25 -45 25 -11 0 -19 5
-19 10 0 6 -26 22 -57 36 -32 15 -69 35 -82 45 -13 11 -31 19 -40 19 -9 0 -22
9 -28 19 -7 11 -26 22 -43 26 -16 4 -30 10 -30 15 0 4 -28 22 -62 39 -96 48
-124 64 -142 84 -10 9 -25 17 -34 17 -8 0 -25 8 -36 18 -12 10 -41 27 -66 37
-25 10 -50 25 -56 32 -7 8 -28 19 -48 24 -25 7 -36 16 -36 29 0 24 26 50 50
50 10 0 22 5 26 11 3 6 21 18 38 26 17 8 49 25 71 38 22 14 55 32 73 42 17 9
32 20 32 24 0 4 15 13 34 19 19 6 37 17 40 25 3 8 13 15 23 15 10 0 42 16 72
35 29 19 59 35 66 35 8 0 20 8 27 18 7 10 26 22 42 26 16 4 36 15 45 25 9 10
36 26 61 37 45 18 86 43 125 75 11 9 32 19 48 23 15 3 27 10 27 15 0 5 29 23
64 40 35 17 67 35 71 41 3 5 15 10 26 10 10 0 29 11 41 25 15 17 32 25 54 25
34 0 133 -45 147 -67 4 -7 14 -13 21 -13 7 0 25 -9 39 -20 14 -11 31 -20 38
-20 13 0 82 -43 107 -67 7 -7 22 -13 32 -13 11 0 24 -9 30 -20 6 -11 20 -20
31 -20 11 0 32 -8 47 -18 48 -32 66 -42 95 -53 15 -6 27 -15 27 -20 0 -5 15
-16 33 -24 28 -14 60 -30 107 -57 8 -4 25 -13 38 -18 13 -6 30 -17 38 -25 9
-8 21 -15 28 -15 7 0 21 -9 31 -20 10 -11 25 -20 33 -20 9 0 23 -7 33 -16 19
-17 64 -44 119 -69 19 -10 49 -28 66 -40 17 -13 43 -27 58 -31 15 -3 31 -15
37 -25 5 -11 18 -19 29 -19 11 0 27 -8 37 -19 10 -10 47 -30 82 -44 67 -26 95
-25 127 8 9 8 24 15 34 15 11 0 27 8 37 19 10 10 30 21 46 25 15 3 27 12 27
19 0 19 -29 57 -44 57 -8 0 -19 6 -25 14 -6 7 -26 16 -43 20 -17 3 -37 15 -45
26 -8 11 -22 20 -32 20 -10 0 -26 9 -36 20 -10 11 -23 20 -29 20 -6 0 -38 18
-71 40 -33 22 -65 40 -71 40 -6 0 -17 6 -23 14 -7 8 -25 18 -41 21 -15 3 -36
15 -46 26 -9 10 -23 19 -31 19 -7 0 -13 4 -13 9 0 5 -16 15 -36 21 -19 7 -38
18 -41 26 -3 8 -14 14 -24 14 -11 0 -27 9 -36 20 -10 11 -27 20 -39 20 -11 0
-29 9 -39 20 -10 11 -23 20 -30 20 -7 0 -22 9 -35 20 -13 11 -28 20 -34 20 -6
0 -19 9 -29 20 -9 11 -23 20 -31 20 -16 0 -99 42 -124 62 -18 15 -50 34 -82
48 -14 6 -33 20 -43 31 -10 10 -26 19 -37 19 -10 0 -23 6 -27 14 -4 7 -36 26
-70 41 -49 21 -63 33 -63 49 0 36 9 43 128 101 39 20 72 40 72 44 0 4 17 15
38 25 47 21 77 39 100 59 10 10 26 17 34 17 9 0 21 7 28 15 14 17 66 20 75 5z
m-1958 -1252 c12 -19 70 -58 86 -58 8 0 26 -9 40 -20 14 -11 32 -20 40 -20 8
0 20 -7 27 -16 8 -8 27 -22 44 -30 45 -21 73 -39 94 -57 10 -10 24 -17 31 -17
7 0 24 -9 38 -20 14 -11 32 -20 39 -20 8 0 34 -15 59 -34 24 -19 54 -38 66
-41 11 -4 30 -16 40 -26 10 -10 28 -19 39 -19 10 0 23 -6 27 -13 4 -8 35 -26
67 -42 33 -15 66 -34 74 -41 7 -8 20 -14 27 -14 8 0 20 -8 27 -19 7 -10 28
-22 46 -25 17 -4 32 -11 32 -16 0 -5 29 -23 65 -40 36 -17 65 -35 65 -40 0 -5
13 -11 29 -15 16 -3 37 -15 47 -26 9 -10 23 -19 31 -19 7 0 21 -9 30 -20 10
-11 23 -20 30 -20 18 0 97 -42 105 -56 4 -6 19 -15 33 -18 14 -4 34 -15 45
-26 11 -11 29 -20 40 -20 10 0 23 -6 27 -14 4 -8 31 -25 59 -38 28 -13 59 -32
68 -41 10 -9 26 -17 36 -17 11 0 24 -9 30 -20 6 -11 19 -20 29 -20 10 0 30 -9
44 -20 14 -11 30 -20 35 -20 6 0 20 -13 31 -29 20 -28 21 -42 21 -273 0 -133
-4 -250 -10 -258 -8 -12 -11 -12 -27 1 -27 22 -79 49 -95 49 -7 0 -21 9 -31
20 -9 11 -23 20 -30 20 -8 0 -26 11 -41 25 -15 14 -36 25 -47 25 -10 0 -19 5
-19 11 0 5 -28 24 -62 40 -99 48 -131 67 -140 84 -5 8 -17 15 -27 15 -10 0
-29 8 -42 18 -13 10 -46 29 -74 42 -27 13 -53 29 -58 36 -4 7 -21 15 -37 19
-16 4 -33 12 -37 18 -5 7 -19 18 -33 25 -14 7 -47 26 -75 42 -27 16 -58 29
-68 29 -10 1 -20 8 -24 16 -3 9 -20 22 -37 30 -17 8 -44 24 -61 35 -16 11 -43
27 -60 36 -16 9 -34 23 -38 30 -4 8 -19 14 -32 14 -13 0 -27 5 -31 11 -3 6
-25 19 -48 29 -22 9 -54 30 -70 44 -19 18 -37 26 -55 24 l-26 -3 -3 -105 c-3
-128 1 -147 36 -163 15 -6 45 -24 66 -39 21 -16 45 -28 52 -28 7 0 25 -11 40
-25 15 -14 35 -25 44 -25 10 0 24 -7 31 -16 7 -9 36 -27 64 -41 86 -42 120
-62 130 -77 6 -7 25 -17 43 -20 17 -4 32 -11 32 -16 0 -4 26 -20 58 -36 31
-16 60 -34 65 -41 4 -6 21 -14 38 -18 17 -4 33 -13 36 -20 2 -8 20 -19 39 -25
19 -6 34 -16 34 -21 0 -5 8 -12 18 -16 44 -15 112 -49 112 -55 0 -4 15 -15 33
-23 17 -9 50 -27 72 -40 22 -13 52 -31 68 -40 15 -8 27 -20 27 -25 0 -6 6 -10
14 -10 16 0 118 -50 127 -63 3 -4 31 -21 62 -36 106 -53 97 17 97 -744 0 -671
-2 -709 -34 -665 -6 9 -25 18 -43 22 -17 4 -34 14 -37 22 -3 8 -12 14 -20 14
-8 0 -21 6 -28 14 -8 7 -28 21 -46 30 -18 9 -32 21 -32 26 0 6 -11 10 -24 10
-13 0 -34 8 -47 19 -13 10 -34 21 -46 25 -13 4 -23 11 -23 16 0 4 -13 13 -30
19 -16 5 -30 15 -30 20 0 6 -6 11 -14 11 -8 0 -28 11 -44 25 -17 14 -35 25
-40 25 -23 0 -152 76 -165 97 -4 7 -16 13 -27 13 -10 0 -31 10 -47 23 -50 40
-156 97 -178 97 -8 0 -19 9 -25 20 -6 11 -18 20 -27 20 -9 0 -25 7 -35 17 -21
19 -49 36 -95 58 -17 8 -34 19 -38 25 -3 5 -15 10 -25 10 -10 0 -31 11 -46 25
-15 14 -32 25 -39 25 -7 0 -32 16 -57 34 -25 19 -57 38 -71 41 -15 4 -31 13
-38 21 -6 8 -18 14 -27 14 -9 0 -25 9 -36 19 -12 10 -44 31 -73 46 -28 14 -57
33 -64 41 -6 8 -19 14 -29 14 -9 0 -25 9 -35 20 -10 11 -26 20 -35 20 -9 0
-27 9 -40 20 -13 11 -29 20 -37 20 -7 0 -16 6 -19 14 -3 8 -19 19 -35 25 l-29
10 0 264 c0 232 2 266 16 271 17 7 54 -10 54 -24 0 -6 6 -10 13 -10 8 0 24 -9
37 -20 13 -11 29 -20 36 -20 7 0 25 -11 40 -25 15 -14 35 -25 45 -25 10 0 20
-4 24 -9 3 -6 19 -17 35 -25 17 -9 43 -23 59 -31 16 -9 34 -22 41 -30 7 -8 21
-15 31 -15 10 0 23 -8 28 -19 6 -10 24 -21 40 -24 17 -4 49 -20 72 -37 23 -16
47 -30 54 -30 7 0 24 -11 39 -25 15 -14 36 -25 46 -25 10 0 23 -6 27 -13 4 -8
35 -26 67 -42 33 -15 66 -34 74 -41 7 -8 20 -14 27 -14 8 0 19 -8 24 -19 6
-10 22 -22 35 -25 14 -3 46 -20 71 -37 61 -41 133 -79 150 -79 8 0 18 -6 22
-14 4 -7 22 -21 38 -30 17 -9 44 -25 60 -36 17 -11 41 -25 55 -31 14 -6 33
-15 43 -20 10 -6 22 -7 27 -4 6 4 10 58 10 121 0 102 -2 118 -22 144 -13 18
-31 30 -44 30 -12 0 -27 7 -34 15 -7 8 -39 27 -71 41 -32 14 -60 32 -63 40 -3
8 -15 14 -26 14 -11 0 -29 9 -40 20 -11 11 -23 20 -26 20 -4 0 -31 16 -60 35
-29 19 -67 38 -84 41 -17 4 -35 15 -41 25 -5 11 -17 19 -26 19 -9 0 -25 7 -35
17 -21 19 -49 36 -95 58 -17 8 -34 19 -38 25 -3 5 -15 10 -25 10 -10 0 -31 11
-46 25 -15 14 -33 25 -41 25 -8 0 -33 15 -56 34 -23 18 -53 37 -67 41 -14 4
-33 16 -43 26 -10 11 -25 19 -34 19 -9 0 -24 6 -32 14 -9 8 -39 26 -68 41 -28
14 -57 33 -64 41 -6 8 -18 14 -25 14 -8 0 -22 9 -31 20 -10 11 -32 23 -50 26
-18 3 -37 12 -44 20 -6 8 -15 14 -19 14 -5 0 -27 12 -49 27 l-41 27 0 673 0
673 30 0 c16 0 33 -6 37 -12z m3913 -1071 l0 -1083 -40 -26 c-22 -15 -48 -29
-59 -33 -10 -3 -22 -12 -25 -20 -3 -8 -14 -15 -24 -15 -11 0 -31 -9 -45 -20
-14 -11 -32 -20 -40 -20 -8 0 -20 -6 -26 -14 -7 -8 -36 -27 -64 -41 -29 -15
-61 -35 -72 -45 -26 -22 -49 -30 -64 -21 -9 6 -12 197 -11 804 l0 797 -25 0
c-15 0 -47 -16 -72 -35 -25 -19 -51 -35 -56 -35 -6 0 -28 -12 -49 -26 l-38
-27 0 -812 0 -812 -22 -19 c-23 -19 -52 -37 -99 -61 -15 -7 -32 -20 -39 -28
-7 -8 -21 -15 -31 -15 -10 0 -23 -9 -29 -20 -6 -11 -15 -20 -21 -20 -19 0
-119 -51 -119 -61 0 -5 -9 -9 -19 -9 -11 0 -26 -8 -33 -19 -16 -22 -48 -33
-66 -22 -10 6 -13 168 -15 797 l-2 789 -22 3 c-12 2 -41 -8 -65 -22 -24 -15
-58 -33 -77 -42 -76 -35 -70 36 -70 -868 l0 -808 -22 -24 c-12 -13 -28 -24
-34 -24 -7 0 -22 -9 -35 -20 -13 -11 -27 -20 -32 -20 -6 0 -21 -9 -35 -20 -14
-11 -32 -20 -39 -20 -12 0 -65 -31 -109 -65 -10 -8 -24 -15 -30 -15 -6 0 -18
-9 -28 -20 -9 -11 -24 -20 -34 -20 -9 0 -24 -7 -34 -16 -10 -9 -23 -13 -28 -9
-8 4 -11 333 -11 1082 0 1071 0 1075 21 1104 11 16 26 29 33 29 8 0 19 6 25
14 7 8 26 18 42 21 16 4 34 15 39 26 6 10 19 19 29 19 10 0 24 7 31 15 7 8 39
27 71 41 32 14 60 32 63 40 3 8 15 14 26 14 11 0 29 9 40 20 11 11 31 22 45
26 14 3 29 12 33 18 9 15 88 56 108 56 8 0 17 7 20 15 3 8 21 19 39 25 18 6
36 17 38 25 3 7 19 16 36 20 17 4 31 10 31 15 0 5 29 23 65 40 36 17 65 35 65
40 0 5 15 12 32 16 18 3 39 15 46 25 7 11 19 19 27 19 7 0 20 6 27 13 18 18
96 57 113 57 8 0 20 8 27 18 7 10 25 22 41 26 15 3 27 11 27 17 0 5 15 17 33
25 46 22 74 39 94 57 10 8 30 18 45 22 15 4 32 13 39 21 6 8 19 14 29 14 10 0
23 7 30 16 8 8 27 22 44 30 45 21 73 39 94 57 10 10 24 17 31 17 7 0 24 9 38
20 14 11 32 20 40 20 16 0 74 39 86 58 4 6 21 12 37 12 l30 0 0 -1083z"/>
<path d="M4905 7185 c-44 -30 -87 -55 -96 -55 -9 0 -22 -6 -28 -14 -7 -8 -36
-27 -64 -41 -29 -15 -59 -33 -67 -40 -8 -7 -24 -15 -35 -17 -11 -2 -21 -12
-23 -23 -2 -16 14 -28 80 -60 45 -22 91 -50 102 -62 11 -13 29 -23 41 -23 12
0 30 -9 40 -20 10 -11 24 -20 30 -20 7 0 18 -6 24 -14 15 -18 87 -56 106 -56
7 0 21 -8 30 -17 18 -17 29 -24 136 -81 34 -18 68 -39 76 -47 8 -8 22 -15 32
-15 10 0 26 -9 36 -20 10 -11 26 -20 36 -20 10 0 25 -8 35 -17 20 -20 44 -35
91 -58 17 -8 34 -19 37 -24 3 -5 17 -12 31 -15 14 -4 34 -15 45 -26 11 -11 28
-20 38 -20 11 0 27 -9 37 -20 10 -11 22 -20 26 -20 11 0 97 -58 104 -71 4 -5
17 -9 29 -9 13 0 29 -6 35 -14 7 -8 25 -18 41 -21 24 -5 31 -13 36 -41 8 -45
0 -62 -33 -70 -15 -4 -36 -15 -46 -25 -10 -11 -25 -19 -33 -19 -18 0 -66 -29
-77 -47 -11 -18 -56 -16 -63 2 -4 8 -15 15 -25 15 -22 0 -179 88 -179 101 0 4
-13 10 -29 14 -16 3 -37 15 -47 26 -9 10 -25 19 -35 19 -10 0 -21 5 -24 10 -4
6 -23 17 -43 26 -20 8 -54 28 -74 44 -20 17 -43 30 -50 30 -8 0 -29 11 -48 25
-19 14 -40 25 -47 25 -7 0 -13 5 -13 10 0 6 -29 24 -64 40 -35 17 -69 37 -76
45 -7 8 -20 15 -30 15 -9 0 -25 9 -35 20 -10 11 -23 20 -29 20 -6 0 -35 16
-65 35 -29 19 -59 35 -66 35 -8 0 -20 7 -29 15 -8 9 -31 22 -50 30 -19 8 -37
19 -40 24 -3 4 -30 21 -61 36 -30 16 -55 32 -55 36 0 4 -13 10 -29 14 -16 3
-37 15 -47 26 -9 10 -25 19 -34 19 -9 0 -27 9 -40 20 -26 23 -78 27 -86 6 -3
-7 -34 -28 -70 -47 -36 -18 -67 -36 -70 -41 -3 -4 -13 -8 -23 -8 -10 0 -30
-11 -45 -25 -15 -14 -31 -25 -37 -25 -5 0 -31 -16 -59 -35 -27 -19 -60 -37
-74 -41 -14 -3 -30 -12 -37 -20 -6 -8 -20 -14 -30 -14 -10 0 -22 -6 -26 -13
-4 -8 -38 -31 -75 -51 -37 -21 -70 -42 -74 -47 -3 -5 -12 -9 -21 -9 -8 0 -26
-9 -40 -20 -14 -11 -34 -20 -45 -20 -10 0 -21 -7 -24 -15 -3 -8 -15 -17 -27
-21 -11 -3 -45 -24 -76 -45 -31 -22 -64 -39 -73 -39 -10 0 -22 -9 -28 -20 -6
-11 -18 -20 -28 -20 -22 0 -112 -57 -112 -70 0 -6 9 -10 20 -10 11 0 29 -9 40
-20 11 -11 23 -20 28 -20 19 0 167 -82 179 -100 8 -11 23 -20 34 -20 10 0 27
-9 36 -20 10 -11 24 -20 33 -21 8 0 38 -13 65 -30 28 -16 59 -33 70 -38 12 -5
27 -16 34 -24 7 -9 26 -19 42 -22 16 -4 34 -15 39 -26 6 -10 17 -19 24 -19 20
0 149 -69 169 -91 10 -10 25 -19 34 -19 9 0 24 -7 34 -16 20 -18 59 -40 138
-80 29 -15 62 -35 72 -45 11 -11 27 -19 37 -19 10 0 25 -9 35 -20 9 -11 26
-20 36 -20 11 0 23 -5 26 -10 10 -16 82 -60 98 -60 8 0 22 -9 32 -20 10 -11
26 -20 37 -20 10 0 27 -9 37 -19 20 -20 44 -34 129 -76 29 -14 62 -35 73 -46
10 -10 29 -19 42 -19 12 0 28 -9 35 -20 7 -11 17 -20 24 -20 6 0 35 -16 64
-35 59 -39 66 -41 84 -20 7 8 20 15 30 15 9 0 29 11 43 24 14 13 45 33 70 45
25 12 51 29 57 37 7 7 20 14 30 14 9 0 27 9 40 20 13 11 30 20 39 20 22 1 85
55 78 67 -3 5 -44 29 -91 53 -47 23 -93 51 -102 61 -9 11 -24 19 -32 19 -8 0
-38 15 -66 33 -28 18 -78 46 -111 62 -33 17 -66 38 -73 48 -7 9 -21 17 -31 17
-10 0 -26 9 -36 20 -10 11 -23 20 -29 20 -6 0 -35 16 -65 35 -29 19 -59 35
-66 35 -8 0 -22 9 -32 19 -10 11 -31 23 -48 27 -16 4 -36 16 -43 26 -7 10 -19
18 -25 18 -7 0 -36 16 -66 35 -29 19 -58 35 -65 35 -7 0 -21 9 -31 20 -10 11
-26 20 -35 20 -9 0 -31 11 -50 25 -19 14 -38 25 -43 25 -5 0 -26 13 -46 29
-20 16 -50 32 -68 35 -17 4 -34 13 -36 21 -3 7 -19 16 -36 20 -57 12 -50 100
9 111 16 4 35 13 41 20 6 8 18 14 26 14 8 0 32 14 54 32 39 31 41 32 87 19 26
-7 70 -28 97 -47 28 -19 57 -34 66 -34 9 0 24 -9 34 -20 10 -11 26 -20 35 -20
9 0 29 -11 44 -25 15 -14 31 -25 36 -25 5 0 28 -13 52 -29 24 -16 54 -32 68
-36 14 -4 31 -16 38 -26 7 -11 23 -19 36 -19 13 0 31 -9 41 -20 10 -11 22 -20
27 -20 5 0 32 -16 61 -35 28 -19 59 -35 69 -35 9 0 25 -9 35 -19 10 -11 30
-22 46 -26 15 -4 27 -11 27 -16 0 -4 24 -20 53 -34 28 -15 61 -35 73 -46 11
-10 29 -19 41 -19 11 0 28 -9 38 -20 10 -11 26 -20 36 -20 10 0 26 -9 36 -19
10 -11 29 -25 43 -31 32 -14 64 -33 82 -48 21 -17 107 -62 119 -62 6 0 22 -9
36 -20 32 -25 65 -26 87 -1 10 11 31 23 46 26 16 3 34 13 41 21 6 8 15 14 20
14 5 0 35 18 66 40 32 22 65 40 74 40 9 0 23 8 33 18 9 11 41 31 71 47 31 15
58 32 61 36 3 5 14 9 25 9 10 0 27 8 37 18 9 9 28 23 42 30 14 6 61 34 105 62
44 27 87 49 96 50 9 0 24 9 34 20 10 11 26 20 36 20 10 0 24 8 31 18 7 9 38
30 68 45 63 32 81 43 131 74 19 13 43 23 52 23 9 0 17 4 17 10 0 11 -67 56
-106 70 -13 5 -30 15 -37 20 -6 6 -26 19 -44 28 -73 38 -148 86 -156 99 -4 7
-16 13 -26 13 -10 0 -30 9 -44 20 -14 11 -32 20 -40 20 -9 0 -18 4 -22 9 -3 6
-31 24 -63 42 -31 18 -65 41 -75 51 -10 10 -26 18 -36 18 -10 0 -24 6 -30 14
-7 8 -23 17 -37 20 -25 7 -73 36 -102 64 -7 6 -20 12 -27 12 -8 0 -26 11 -41
25 -15 14 -35 25 -44 25 -10 0 -23 7 -30 15 -7 8 -18 15 -25 15 -7 0 -40 18
-73 40 -33 22 -64 40 -69 40 -6 0 -18 9 -28 20 -10 11 -25 20 -34 20 -15 0
-93 49 -99 63 -2 4 -12 7 -22 7 -11 0 -31 11 -46 25 -15 14 -35 25 -44 25 -9
0 -25 9 -35 20 -10 11 -24 20 -31 20 -7 0 -36 16 -65 35 -30 19 -59 35 -65 35
-6 0 -19 9 -29 20 -10 11 -25 20 -33 20 -8 0 -52 25 -97 55 -46 30 -89 55 -97
55 -7 -1 -49 -25 -93 -55z"/>
<path d="M3038 5325 l2 -656 23 -8 c13 -5 28 -16 35 -24 7 -8 36 -25 64 -37
28 -12 58 -28 65 -36 8 -8 20 -14 27 -14 7 0 21 -9 30 -19 10 -11 29 -22 44
-26 14 -3 42 -19 62 -35 20 -16 48 -32 62 -35 15 -4 34 -15 44 -26 9 -10 25
-19 34 -19 10 0 23 -7 30 -16 8 -8 27 -22 44 -29 44 -21 69 -37 84 -57 7 -10
24 -18 36 -18 13 0 29 -6 35 -14 7 -8 26 -18 42 -21 17 -4 33 -13 36 -21 2 -7
15 -16 26 -20 12 -4 47 -24 77 -45 31 -22 64 -39 73 -39 9 0 17 -4 17 -9 0 -5
12 -13 28 -19 15 -5 52 -26 82 -46 30 -20 60 -36 67 -36 7 0 17 -9 23 -20 6
-11 16 -20 23 -20 28 0 154 -74 185 -107 l34 -37 -4 -128 c-3 -147 -9 -158
-67 -127 -20 10 -41 19 -48 19 -7 0 -22 9 -33 20 -11 11 -27 20 -36 20 -9 0
-34 15 -57 34 -23 18 -52 37 -64 40 -11 4 -27 13 -33 21 -7 8 -21 15 -31 15
-9 0 -24 6 -31 13 -7 7 -39 27 -71 45 -31 18 -66 41 -77 52 -11 11 -25 20 -31
20 -6 0 -22 9 -36 20 -14 11 -32 20 -39 20 -7 0 -33 14 -57 30 -25 17 -50 30
-55 30 -6 0 -23 11 -38 25 -15 14 -35 25 -44 25 -10 0 -24 7 -31 16 -7 9 -38
28 -68 41 -30 14 -61 32 -69 39 -7 8 -18 14 -24 14 -5 0 -23 11 -40 25 -16 14
-38 25 -49 25 -11 0 -22 7 -25 15 -3 8 -15 17 -27 21 -12 4 -27 13 -35 20 -7
8 -22 14 -32 14 -11 0 -24 9 -30 20 -6 11 -20 20 -32 20 -12 0 -31 8 -42 18
-12 10 -33 23 -48 30 l-28 12 0 -245 0 -245 23 -9 c13 -5 29 -16 36 -25 7 -9
19 -16 25 -16 6 0 35 -16 65 -35 29 -19 59 -35 67 -35 8 0 22 -9 31 -20 10
-11 25 -20 33 -20 9 0 30 -10 47 -22 32 -23 39 -28 106 -73 21 -14 46 -25 56
-25 10 0 24 -7 31 -16 8 -8 27 -22 44 -30 46 -22 71 -37 90 -57 10 -9 26 -17
35 -17 10 0 24 -6 30 -14 7 -8 26 -18 42 -21 17 -4 33 -13 36 -21 2 -7 14 -16
26 -20 23 -7 70 -39 99 -66 10 -10 29 -18 43 -18 14 0 25 -4 25 -9 0 -5 13
-14 30 -19 16 -6 51 -27 76 -46 26 -20 55 -36 65 -36 10 0 22 -7 27 -15 9 -17
41 -36 134 -80 31 -15 65 -36 74 -46 9 -11 25 -19 34 -19 9 0 25 -9 35 -20 10
-11 24 -20 31 -20 8 0 34 -16 60 -35 25 -19 54 -35 64 -35 10 0 26 -8 35 -17
16 -16 50 -37 105 -64 14 -7 32 -18 40 -25 8 -6 25 -15 38 -18 l22 -7 0 648
c-1 620 -1 649 -20 671 -10 12 -32 25 -49 28 -17 4 -31 10 -31 15 0 4 -26 22
-57 40 -32 18 -64 39 -71 46 -7 7 -24 13 -38 13 -13 0 -29 9 -36 20 -7 11 -16
20 -21 20 -16 0 -169 93 -174 106 -3 8 -13 14 -22 14 -9 0 -25 6 -36 14 -11 7
-31 17 -45 21 -28 9 -81 44 -92 61 -4 7 -20 15 -35 19 -16 3 -35 13 -43 20 -8
8 -56 35 -105 60 -50 26 -94 53 -98 61 -4 8 -16 14 -26 14 -10 0 -24 7 -31 15
-7 9 -34 26 -59 39 -96 49 -145 77 -161 91 -9 8 -24 15 -32 15 -9 0 -21 7 -29
16 -7 9 -39 29 -71 45 l-59 30 3 142 3 142 48 3 c36 2 49 -1 53 -13 4 -9 21
-22 38 -30 17 -8 49 -26 71 -40 22 -13 48 -24 57 -25 9 0 23 -9 30 -19 8 -11
26 -23 40 -26 15 -4 34 -15 44 -26 9 -10 24 -19 33 -19 9 0 33 -16 54 -35 21
-19 50 -38 65 -42 15 -3 33 -12 40 -20 7 -7 22 -13 31 -13 10 0 24 -7 31 -16
8 -8 27 -22 44 -30 62 -30 87 -46 93 -60 3 -8 11 -14 19 -14 16 0 159 -75 192
-101 14 -10 30 -19 36 -19 6 0 17 -9 24 -20 7 -11 23 -20 36 -20 14 0 28 -5
31 -10 4 -6 21 -17 38 -25 43 -21 73 -39 94 -56 10 -9 30 -20 46 -27 15 -6 27
-16 27 -22 0 -5 6 -10 13 -10 7 0 29 -9 50 -20 20 -11 41 -20 47 -20 6 0 10
84 10 233 0 218 -1 235 -20 254 -10 12 -29 25 -41 28 -12 4 -47 25 -78 46 -31
22 -59 39 -63 39 -5 0 -17 9 -28 20 -11 11 -29 20 -39 20 -11 0 -23 5 -27 11
-3 6 -21 18 -38 26 -46 21 -74 38 -94 56 -10 10 -25 17 -33 17 -8 0 -22 9 -32
20 -9 11 -31 23 -47 27 -17 3 -30 9 -30 13 0 4 -10 10 -23 14 -12 3 -47 23
-76 46 -30 22 -61 40 -70 40 -8 0 -23 8 -33 17 -20 18 -100 63 -160 89 -21 10
-38 21 -38 25 0 5 -15 16 -32 24 -18 9 -60 31 -93 51 -33 19 -79 43 -101 54
-23 11 -47 27 -54 35 -7 8 -20 15 -30 15 -9 0 -24 8 -34 18 -9 11 -41 31 -71
47 -31 15 -58 32 -61 36 -3 5 -12 9 -21 9 -8 0 -28 11 -45 25 -16 14 -38 25
-49 25 -10 0 -19 4 -19 8 0 5 -12 15 -27 23 -16 7 -49 28 -75 46 -26 18 -56
33 -67 33 -10 0 -24 7 -31 15 -11 14 -66 45 -79 45 -3 0 -5 -295 -3 -655z"/>
<path d="M6924 5964 c-17 -7 -36 -20 -43 -28 -8 -9 -22 -16 -32 -16 -11 0 -42
-16 -69 -35 -27 -19 -54 -35 -58 -35 -5 0 -17 -9 -26 -19 -10 -11 -31 -23 -46
-26 -15 -3 -36 -15 -46 -26 -9 -10 -25 -19 -35 -19 -10 0 -20 -4 -23 -9 -3 -5
-29 -21 -58 -36 -29 -15 -62 -36 -74 -46 -11 -10 -27 -19 -36 -19 -8 0 -23 -9
-33 -20 -10 -11 -23 -20 -28 -20 -5 0 -34 -16 -63 -35 -29 -19 -59 -35 -68
-35 -8 0 -27 -11 -42 -25 -15 -14 -35 -25 -45 -25 -10 0 -22 -6 -26 -14 -4 -7
-48 -34 -98 -60 -49 -26 -97 -54 -106 -61 -8 -8 -23 -15 -32 -15 -9 0 -27 -11
-41 -24 -14 -13 -47 -34 -73 -47 -27 -13 -50 -27 -53 -31 -3 -3 -17 -9 -32
-13 -15 -4 -34 -15 -44 -26 -9 -10 -24 -19 -32 -19 -9 0 -24 -7 -34 -17 -21
-19 -49 -36 -95 -58 -17 -8 -34 -19 -38 -25 -3 -5 -15 -10 -25 -10 -10 0 -31
-11 -46 -25 -15 -14 -31 -25 -36 -25 -4 0 -31 -16 -58 -35 -27 -19 -54 -35
-59 -35 -5 0 -23 -12 -40 -26 l-31 -26 0 -1059 c0 -582 2 -1059 5 -1059 13 0
112 55 128 72 10 10 26 18 37 18 11 0 24 9 30 20 6 11 21 20 35 20 13 0 44 16
69 35 26 19 52 35 59 35 7 0 25 13 40 28 l27 28 0 800 c0 749 1 801 18 826 19
28 85 78 104 78 6 0 32 13 57 29 62 38 89 45 107 30 12 -10 14 -119 14 -803 0
-435 0 -795 0 -799 0 -5 18 5 39 22 22 18 53 36 70 42 17 6 31 14 31 19 0 4
14 10 32 14 17 3 37 15 45 26 8 11 18 20 24 20 5 0 32 16 59 35 28 20 64 38
79 41 19 4 31 14 35 28 3 11 6 384 6 827 l0 806 65 42 c37 23 76 46 89 51 13
5 26 16 30 25 4 12 17 15 53 13 l48 -3 3 -790 c1 -540 5 -792 13 -800 7 -7 14
-5 22 5 18 22 91 70 108 70 8 0 22 9 32 20 9 11 25 20 35 20 10 0 23 5 29 11
12 12 42 31 83 51 14 6 33 18 43 27 9 8 26 19 38 25 20 11 20 13 19 1070 0
583 -1 1060 -3 1061 -1 1 -16 -4 -33 -11z"/>
</g>
</svg>
